G04 (created by PCBNEW (2013-03-19 BZR 4004)-stable) date 27/05/2013 10:57:22*
%MOIN*%
G04 Gerber Fmt 3.4, Leading zero omitted, Abs format*
%FSLAX34Y34*%
G01*
G70*
G90*
G04 APERTURE LIST*
%ADD10C,2.3622e-006*%
%ADD11R,0.0276X0.0394*%
%ADD12C,0.0512*%
%ADD13R,0.0315X0.0807*%
%ADD14R,0.0787X0.0177*%
%ADD15R,0.0177X0.0787*%
%ADD16R,0.06X0.08*%
%ADD17R,0.08X0.06*%
%ADD18R,0.045X0.025*%
%ADD19R,0.025X0.045*%
%ADD20R,0.0472X0.0472*%
%ADD21C,0.0866*%
%ADD22R,0.06X0.06*%
%ADD23C,0.06*%
%ADD24C,0.1969*%
%ADD25C,0.07*%
%ADD26R,0.0394X0.0394*%
%ADD27R,0.12X0.065*%
%ADD28R,0.24X0.24*%
%ADD29C,0.0708661*%
%ADD30C,0.035*%
%ADD31C,0.0295*%
%ADD32C,0.008*%
%ADD33C,0.0197*%
%ADD34C,0.0236*%
%ADD35C,0.01*%
G04 APERTURE END LIST*
G54D10*
G54D11*
X49036Y-42260D03*
X48661Y-41260D03*
X49411Y-41260D03*
G54D12*
X47460Y-35656D03*
G54D13*
X47460Y-36247D03*
G54D12*
X46673Y-35656D03*
X45885Y-35656D03*
X48247Y-35656D03*
X49035Y-35656D03*
G54D13*
X46673Y-35065D03*
X45885Y-36247D03*
X48247Y-35065D03*
X49035Y-36247D03*
G54D12*
X49822Y-35646D03*
G54D13*
X49822Y-35065D03*
G54D14*
X40692Y-39603D03*
X40692Y-39288D03*
X40692Y-38973D03*
X40692Y-38658D03*
X40692Y-38343D03*
X40692Y-38028D03*
X40692Y-37713D03*
X40692Y-37398D03*
X44458Y-37400D03*
X44458Y-39610D03*
X44458Y-39290D03*
X44458Y-38970D03*
X44458Y-38660D03*
X44458Y-38340D03*
X44458Y-38030D03*
X44458Y-37710D03*
G54D15*
X41476Y-36610D03*
X41790Y-36610D03*
X42106Y-36610D03*
X42420Y-36610D03*
X42736Y-36610D03*
X43050Y-36610D03*
X43366Y-36610D03*
X43680Y-36610D03*
X41478Y-40390D03*
X41788Y-40390D03*
X42108Y-40390D03*
X42418Y-40390D03*
X42728Y-40390D03*
X43048Y-40390D03*
X43368Y-40390D03*
X43688Y-40390D03*
G54D16*
X51636Y-38506D03*
X50336Y-38506D03*
G54D17*
X51040Y-27860D03*
X51040Y-26560D03*
G54D18*
X39606Y-39162D03*
X39606Y-38562D03*
X51010Y-25330D03*
X51010Y-25930D03*
G54D19*
X47606Y-41266D03*
X47006Y-41266D03*
X40342Y-40952D03*
X40942Y-40952D03*
X39990Y-40236D03*
X39390Y-40236D03*
G54D18*
X47446Y-32060D03*
X47446Y-31460D03*
X46000Y-39988D03*
X46000Y-40588D03*
G54D19*
X44290Y-35870D03*
X44890Y-35870D03*
G54D18*
X46684Y-37484D03*
X46684Y-36884D03*
X46666Y-32040D03*
X46666Y-31440D03*
X45088Y-32038D03*
X45088Y-31438D03*
G54D20*
X42688Y-29339D03*
X42688Y-28513D03*
X41666Y-29339D03*
X41666Y-28513D03*
X40644Y-29341D03*
X40644Y-28515D03*
G54D21*
X42803Y-25555D03*
X42803Y-27129D03*
X40441Y-25555D03*
X40441Y-27129D03*
G54D17*
X52140Y-33550D03*
X52140Y-34850D03*
G54D18*
X45750Y-38806D03*
X45750Y-38206D03*
G54D19*
X42756Y-33902D03*
X42156Y-33902D03*
G54D18*
X46494Y-41862D03*
X46494Y-42462D03*
X45740Y-37070D03*
X45740Y-37670D03*
X42688Y-30724D03*
X42688Y-30124D03*
X41660Y-30724D03*
X41660Y-30124D03*
X40644Y-30708D03*
X40644Y-30108D03*
G54D22*
X48410Y-40390D03*
G54D23*
X47410Y-40390D03*
X48410Y-39390D03*
X47410Y-39390D03*
X48410Y-38390D03*
X47410Y-38390D03*
G54D24*
X52449Y-23980D03*
X47842Y-43074D03*
X39256Y-43074D03*
X39260Y-23980D03*
G54D25*
X42342Y-43172D03*
X44342Y-43172D03*
G54D22*
X44470Y-41500D03*
G54D23*
X45470Y-41500D03*
G54D18*
X39664Y-30706D03*
X39664Y-30106D03*
G54D22*
X42694Y-32152D03*
G54D23*
X41694Y-32152D03*
X40694Y-32152D03*
X39694Y-32152D03*
G54D20*
X39670Y-29327D03*
X39670Y-28501D03*
G54D12*
X45871Y-33540D03*
G54D13*
X45871Y-34131D03*
G54D12*
X45084Y-33540D03*
X44296Y-33540D03*
X46658Y-33540D03*
X47446Y-33540D03*
G54D13*
X45084Y-32949D03*
X44296Y-34131D03*
X46658Y-32949D03*
X47446Y-34131D03*
G54D12*
X48233Y-33530D03*
G54D13*
X48233Y-32949D03*
G54D12*
X49016Y-33540D03*
X49804Y-33540D03*
X50591Y-33540D03*
G54D13*
X49020Y-34130D03*
X49808Y-32949D03*
X50595Y-34130D03*
G54D26*
X41774Y-41680D03*
X42414Y-41680D03*
G54D27*
X48930Y-27076D03*
G54D28*
X46430Y-26176D03*
G54D27*
X48930Y-25276D03*
G54D22*
X41842Y-35218D03*
G54D23*
X40842Y-35218D03*
G54D26*
X43560Y-34456D03*
X43560Y-35096D03*
G54D22*
X50178Y-37332D03*
G54D23*
X51178Y-37332D03*
X52178Y-37332D03*
G54D29*
X50850Y-41770D03*
X50850Y-42770D03*
X50850Y-43770D03*
X50850Y-40770D03*
X50850Y-39770D03*
G54D30*
X45246Y-39244D03*
X51840Y-27900D03*
X38864Y-40222D03*
X40962Y-40296D03*
X46462Y-42988D03*
X42140Y-37584D03*
X41788Y-41174D03*
X43624Y-38340D03*
X43950Y-32210D03*
X50620Y-36370D03*
X38414Y-40870D03*
X46530Y-43870D03*
X46362Y-41244D03*
X43570Y-33800D03*
X41270Y-34050D03*
X39536Y-37786D03*
X49016Y-31328D03*
X51740Y-31710D03*
X46350Y-26170D03*
X47280Y-27030D03*
X45570Y-27050D03*
X47180Y-25350D03*
X45570Y-25330D03*
X40370Y-43954D03*
X41664Y-37836D03*
X41126Y-41494D03*
X44220Y-28020D03*
X42946Y-39516D03*
G54D31*
X51010Y-25330D02*
X51564Y-25330D01*
X52486Y-29640D02*
X50591Y-31534D01*
X52486Y-26252D02*
X52486Y-29640D01*
X51564Y-25330D02*
X52486Y-26252D01*
X48930Y-25276D02*
X50956Y-25276D01*
X50956Y-25276D02*
X51010Y-25330D01*
X49822Y-35065D02*
X50595Y-34291D01*
X50595Y-34291D02*
X50595Y-34130D01*
X49822Y-35646D02*
X49822Y-35065D01*
X50591Y-31534D02*
X50591Y-33540D01*
X50591Y-33540D02*
X52130Y-33540D01*
X52130Y-33540D02*
X52140Y-33550D01*
X50595Y-34130D02*
X50595Y-33543D01*
X50595Y-33543D02*
X50591Y-33540D01*
X44296Y-34131D02*
X44296Y-33540D01*
X47606Y-41266D02*
X48086Y-41266D01*
X48086Y-41266D02*
X48092Y-41260D01*
X48661Y-41260D02*
X48092Y-41260D01*
X47410Y-40578D02*
X47410Y-40390D01*
X48092Y-41260D02*
X47410Y-40578D01*
G54D32*
X45740Y-37670D02*
X46066Y-37670D01*
X46130Y-39244D02*
X45246Y-39244D01*
X46342Y-39032D02*
X46130Y-39244D01*
X46342Y-37946D02*
X46342Y-39032D01*
X46066Y-37670D02*
X46342Y-37946D01*
G54D33*
X45246Y-39244D02*
X45200Y-39290D01*
X45200Y-39290D02*
X44458Y-39290D01*
X39832Y-39162D02*
X40021Y-38973D01*
X41554Y-38506D02*
X41554Y-38718D01*
X44458Y-39290D02*
X43922Y-39290D01*
X43350Y-38718D02*
X41554Y-38718D01*
X43922Y-39290D02*
X43350Y-38718D01*
X40692Y-38343D02*
X41391Y-38343D01*
X39606Y-39162D02*
X39832Y-39162D01*
X41391Y-38343D02*
X41554Y-38506D01*
X41554Y-38973D02*
X40692Y-38973D01*
X40021Y-38973D02*
X40692Y-38973D01*
X41554Y-38718D02*
X41554Y-38973D01*
G54D31*
X51840Y-27900D02*
X51800Y-27860D01*
X51040Y-27860D02*
X51800Y-27860D01*
X51636Y-38506D02*
X51178Y-38048D01*
X51178Y-38048D02*
X51178Y-37332D01*
X49036Y-42260D02*
X49706Y-42260D01*
X50196Y-41770D02*
X50850Y-41770D01*
X49706Y-42260D02*
X50196Y-41770D01*
X50850Y-41770D02*
X51290Y-41770D01*
X51570Y-38572D02*
X51636Y-38506D01*
X51570Y-41490D02*
X51570Y-38572D01*
X51290Y-41770D02*
X51570Y-41490D01*
X51040Y-27860D02*
X51040Y-28110D01*
X48930Y-27076D02*
X49276Y-27076D01*
X49276Y-27076D02*
X50060Y-27860D01*
X50060Y-27860D02*
X51040Y-27860D01*
G54D32*
X43470Y-28432D02*
X43470Y-27826D01*
X43552Y-26304D02*
X43552Y-27744D01*
X42803Y-25555D02*
X43552Y-26304D01*
X43058Y-35544D02*
X43058Y-34614D01*
X43058Y-34614D02*
X43114Y-34558D01*
X43114Y-34558D02*
X43114Y-33306D01*
X43114Y-33306D02*
X43470Y-32950D01*
X43470Y-32950D02*
X43470Y-28432D01*
X42736Y-35866D02*
X42736Y-36610D01*
X42736Y-35866D02*
X43058Y-35544D01*
X43470Y-27826D02*
X43552Y-27744D01*
X40441Y-25555D02*
X42803Y-25555D01*
X43050Y-36610D02*
X43050Y-36008D01*
X43560Y-35498D02*
X43560Y-35096D01*
X43050Y-36008D02*
X43560Y-35498D01*
X43366Y-36610D02*
X43366Y-36064D01*
X43560Y-35870D02*
X44290Y-35870D01*
X43366Y-36064D02*
X43560Y-35870D01*
X44890Y-35870D02*
X45671Y-35870D01*
X45671Y-35870D02*
X45885Y-35656D01*
X45084Y-32949D02*
X45084Y-32042D01*
X45084Y-32042D02*
X45088Y-32038D01*
X45885Y-35656D02*
X45885Y-36247D01*
X45084Y-32949D02*
X45084Y-33540D01*
X45885Y-35656D02*
X45834Y-35656D01*
X45084Y-34906D02*
X45084Y-33540D01*
X45834Y-35656D02*
X45084Y-34906D01*
X43044Y-41512D02*
X44458Y-41512D01*
X42728Y-41196D02*
X43044Y-41512D01*
X42728Y-40390D02*
X42728Y-41196D01*
X44458Y-41512D02*
X44470Y-41500D01*
X43142Y-41140D02*
X43794Y-41140D01*
X43048Y-41046D02*
X43142Y-41140D01*
X43048Y-40390D02*
X43048Y-41046D01*
X45470Y-40892D02*
X45470Y-41500D01*
X45418Y-40840D02*
X45470Y-40892D01*
X44094Y-40840D02*
X45418Y-40840D01*
X43794Y-41140D02*
X44094Y-40840D01*
X48410Y-40390D02*
X48936Y-40390D01*
X47460Y-36930D02*
X47460Y-36247D01*
X47700Y-37170D02*
X47460Y-36930D01*
X48584Y-37170D02*
X47700Y-37170D01*
X49246Y-37832D02*
X48584Y-37170D01*
X49246Y-40080D02*
X49246Y-37832D01*
X48936Y-40390D02*
X49246Y-40080D01*
X46000Y-40588D02*
X46254Y-40588D01*
X47908Y-39888D02*
X48410Y-40390D01*
X46954Y-39888D02*
X47908Y-39888D01*
X46254Y-40588D02*
X46954Y-39888D01*
X43688Y-40390D02*
X45802Y-40390D01*
X45802Y-40390D02*
X46000Y-40588D01*
X47446Y-33540D02*
X47446Y-32060D01*
X47446Y-34131D02*
X47446Y-33540D01*
X47460Y-35656D02*
X47460Y-36247D01*
X47446Y-34131D02*
X47446Y-35642D01*
X47446Y-35642D02*
X47460Y-35656D01*
X41690Y-33510D02*
X42694Y-32506D01*
X40100Y-36186D02*
X40100Y-34120D01*
X40100Y-36186D02*
X40524Y-36610D01*
X41476Y-36610D02*
X40524Y-36610D01*
X40710Y-33510D02*
X41690Y-33510D01*
X40100Y-34120D02*
X40710Y-33510D01*
X42694Y-32506D02*
X42694Y-32152D01*
X42682Y-32150D02*
X42682Y-30730D01*
X42682Y-30730D02*
X42688Y-30724D01*
X39730Y-36880D02*
X39730Y-34010D01*
X40248Y-37398D02*
X39730Y-36880D01*
X40692Y-37398D02*
X40248Y-37398D01*
X41694Y-33026D02*
X41694Y-32152D01*
X41490Y-33230D02*
X41694Y-33026D01*
X40510Y-33230D02*
X41490Y-33230D01*
X39730Y-34010D02*
X40510Y-33230D01*
X41682Y-32150D02*
X41682Y-30746D01*
X41682Y-30746D02*
X41660Y-30724D01*
X39396Y-37028D02*
X39396Y-33984D01*
X40692Y-37713D02*
X40081Y-37713D01*
X40081Y-37713D02*
X39396Y-37028D01*
X40694Y-32686D02*
X40694Y-32152D01*
X39396Y-33984D02*
X40694Y-32686D01*
X40682Y-32150D02*
X40682Y-30746D01*
X40682Y-30746D02*
X40644Y-30708D01*
X38864Y-40222D02*
X38626Y-39984D01*
X40962Y-40296D02*
X41056Y-40390D01*
X41478Y-40390D02*
X41056Y-40390D01*
X39694Y-33026D02*
X39694Y-32152D01*
X39074Y-33646D02*
X39694Y-33026D01*
X39074Y-38108D02*
X39074Y-33646D01*
X38626Y-38556D02*
X39074Y-38108D01*
X38626Y-39984D02*
X38626Y-38556D01*
X39682Y-32150D02*
X39682Y-30724D01*
X39682Y-30724D02*
X39664Y-30706D01*
X46000Y-39988D02*
X46190Y-39988D01*
X46788Y-39390D02*
X47410Y-39390D01*
X46190Y-39988D02*
X46788Y-39390D01*
X44136Y-40062D02*
X45926Y-40062D01*
X43368Y-40390D02*
X43368Y-39794D01*
X43742Y-39668D02*
X44136Y-40062D01*
X43494Y-39668D02*
X43742Y-39668D01*
X43368Y-39794D02*
X43494Y-39668D01*
X45926Y-40062D02*
X46000Y-39988D01*
X46494Y-42462D02*
X46494Y-42956D01*
X46494Y-42956D02*
X46462Y-42988D01*
X42756Y-33902D02*
X42756Y-35484D01*
X42420Y-35820D02*
X42420Y-36610D01*
X42756Y-35484D02*
X42420Y-35820D01*
X48410Y-38390D02*
X47518Y-37498D01*
X43650Y-37406D02*
X44142Y-36914D01*
X44142Y-36914D02*
X45584Y-36914D01*
X42420Y-37174D02*
X42666Y-37420D01*
X42420Y-37174D02*
X42420Y-36610D01*
X42666Y-37420D02*
X43650Y-37420D01*
X43650Y-37420D02*
X43650Y-37406D01*
X45856Y-37186D02*
X45584Y-36914D01*
X47248Y-37186D02*
X45856Y-37186D01*
X47518Y-37456D02*
X47248Y-37186D01*
X47518Y-37498D02*
X47518Y-37456D01*
X42106Y-36610D02*
X42106Y-35482D01*
X42106Y-35482D02*
X41842Y-35218D01*
X42106Y-37550D02*
X42106Y-36610D01*
X42140Y-37584D02*
X42106Y-37550D01*
X41774Y-41680D02*
X41774Y-41188D01*
X41774Y-41188D02*
X41788Y-41174D01*
X46684Y-37484D02*
X46684Y-39076D01*
X46684Y-39076D02*
X46693Y-39085D01*
X44458Y-39610D02*
X46168Y-39610D01*
X47912Y-38892D02*
X48410Y-39390D01*
X46886Y-38892D02*
X47912Y-38892D01*
X46168Y-39610D02*
X46693Y-39085D01*
X46693Y-39085D02*
X46886Y-38892D01*
X46658Y-32949D02*
X46658Y-32048D01*
X46658Y-32048D02*
X46666Y-32040D01*
X46673Y-35656D02*
X46673Y-36873D01*
X46673Y-36873D02*
X46684Y-36884D01*
X46658Y-33540D02*
X46658Y-32949D01*
X46673Y-35065D02*
X46673Y-35656D01*
X46658Y-33540D02*
X46658Y-35050D01*
X46658Y-35050D02*
X46673Y-35065D01*
X41790Y-36610D02*
X41790Y-35994D01*
X40842Y-35634D02*
X40842Y-35218D01*
X41076Y-35868D02*
X40842Y-35634D01*
X41664Y-35868D02*
X41076Y-35868D01*
X41790Y-35994D02*
X41664Y-35868D01*
G54D31*
X43570Y-33800D02*
X43570Y-33348D01*
X43950Y-32210D02*
X43963Y-32223D01*
X44228Y-31958D02*
X44228Y-30578D01*
X44228Y-31958D02*
X43963Y-32223D01*
X43842Y-32318D02*
X43950Y-32210D01*
X43842Y-33076D02*
X43842Y-32318D01*
X43570Y-33348D02*
X43842Y-33076D01*
X50178Y-37332D02*
X50178Y-36812D01*
X49257Y-36247D02*
X49380Y-36370D01*
X49380Y-36370D02*
X50620Y-36370D01*
X49035Y-36247D02*
X49257Y-36247D01*
X50620Y-36370D02*
X52140Y-34850D01*
X50626Y-36376D02*
X50620Y-36370D01*
X50496Y-36494D02*
X50620Y-36370D01*
X50178Y-36812D02*
X50620Y-36370D01*
X50336Y-38506D02*
X50178Y-38348D01*
X50178Y-38348D02*
X50178Y-37332D01*
G54D34*
X39046Y-39570D02*
X39100Y-39570D01*
X39230Y-38562D02*
X39046Y-38746D01*
X39046Y-38746D02*
X39046Y-39570D01*
X39606Y-38562D02*
X39230Y-38562D01*
X39390Y-39860D02*
X39390Y-40236D01*
X39100Y-39570D02*
X39390Y-39860D01*
G54D31*
X38414Y-40870D02*
X38460Y-40916D01*
X38460Y-40916D02*
X38948Y-40916D01*
X47006Y-41266D02*
X46384Y-41266D01*
X46384Y-41266D02*
X46362Y-41244D01*
X50850Y-40770D02*
X49901Y-40770D01*
X49901Y-40770D02*
X49411Y-41260D01*
X50850Y-40770D02*
X50480Y-40770D01*
X49890Y-38952D02*
X50336Y-38506D01*
X49890Y-40180D02*
X49890Y-38952D01*
X50480Y-40770D02*
X49890Y-40180D01*
X43570Y-33800D02*
X43570Y-34446D01*
X43570Y-34446D02*
X43560Y-34456D01*
X43570Y-33800D02*
X43560Y-33790D01*
X41418Y-33902D02*
X42156Y-33902D01*
X41270Y-34050D02*
X41418Y-33902D01*
X40441Y-27129D02*
X42803Y-27129D01*
X40644Y-28515D02*
X40644Y-27226D01*
X40330Y-27240D02*
X40441Y-27129D01*
X44228Y-30578D02*
X44220Y-30570D01*
X44220Y-28020D02*
X44220Y-30570D01*
X39654Y-38156D02*
X39654Y-37904D01*
X39654Y-37904D02*
X39536Y-37786D01*
X46470Y-28020D02*
X48400Y-28020D01*
X46390Y-28020D02*
X46470Y-28020D01*
X48400Y-30712D02*
X49016Y-31328D01*
X48400Y-28020D02*
X48400Y-30712D01*
X47280Y-27030D02*
X47210Y-27030D01*
X47210Y-27030D02*
X46350Y-26170D01*
X46430Y-26176D02*
X46430Y-26190D01*
X46430Y-26190D02*
X45570Y-27050D01*
X46430Y-26176D02*
X46430Y-26100D01*
X46430Y-26100D02*
X47180Y-25350D01*
X46430Y-26176D02*
X46416Y-26176D01*
X46416Y-26176D02*
X45570Y-25330D01*
X46390Y-28020D02*
X46390Y-26216D01*
X46390Y-26216D02*
X46430Y-26176D01*
X51040Y-26560D02*
X50250Y-26560D01*
X50250Y-26560D02*
X49866Y-26176D01*
X49866Y-26176D02*
X46430Y-26176D01*
X51040Y-26560D02*
X51040Y-25960D01*
X51040Y-25960D02*
X51010Y-25930D01*
X41588Y-38028D02*
X41588Y-37912D01*
X41588Y-37912D02*
X41664Y-37836D01*
X40942Y-41310D02*
X40942Y-40952D01*
X41126Y-41494D02*
X40942Y-41310D01*
X44220Y-28020D02*
X46390Y-28020D01*
X45088Y-31438D02*
X44228Y-30578D01*
X45886Y-31440D02*
X45886Y-33525D01*
X45886Y-33525D02*
X45871Y-33540D01*
X46666Y-31440D02*
X45886Y-31440D01*
X45886Y-31440D02*
X45090Y-31440D01*
X45090Y-31440D02*
X45088Y-31438D01*
X47446Y-31460D02*
X46686Y-31460D01*
X46686Y-31460D02*
X46666Y-31440D01*
X40644Y-28515D02*
X39746Y-28515D01*
X39746Y-28515D02*
X39738Y-28523D01*
X45871Y-33540D02*
X45871Y-34131D01*
X49035Y-35656D02*
X49035Y-36247D01*
G54D33*
X39898Y-38562D02*
X39994Y-38658D01*
X41702Y-38028D02*
X41588Y-38028D01*
X41588Y-38028D02*
X40692Y-38028D01*
X40692Y-38028D02*
X39782Y-38028D01*
G54D31*
X41666Y-28513D02*
X40646Y-28513D01*
G54D33*
X39782Y-38028D02*
X39654Y-38156D01*
X39654Y-38156D02*
X39606Y-38204D01*
X43624Y-38340D02*
X42014Y-38340D01*
X44458Y-38340D02*
X43624Y-38340D01*
X44458Y-38340D02*
X45062Y-38340D01*
G54D31*
X40646Y-28513D02*
X40644Y-28515D01*
G54D33*
X39606Y-38204D02*
X39606Y-38562D01*
G54D31*
X42688Y-28513D02*
X41666Y-28513D01*
G54D33*
X42014Y-38340D02*
X41702Y-38028D01*
X45062Y-38340D02*
X45196Y-38206D01*
X39606Y-38562D02*
X39898Y-38562D01*
X45196Y-38206D02*
X45750Y-38206D01*
X39994Y-38658D02*
X40692Y-38658D01*
G54D32*
X42418Y-39714D02*
X42418Y-40390D01*
X42616Y-39516D02*
X42418Y-39714D01*
X42946Y-39516D02*
X42616Y-39516D01*
X44002Y-42182D02*
X45894Y-42182D01*
X44002Y-42182D02*
X43680Y-41860D01*
X43680Y-41860D02*
X42920Y-41860D01*
X42418Y-41358D02*
X42920Y-41860D01*
X46214Y-41862D02*
X46494Y-41862D01*
X45894Y-42182D02*
X46214Y-41862D01*
X42414Y-41680D02*
X42414Y-41362D01*
X42414Y-41362D02*
X42418Y-41358D01*
X42418Y-41358D02*
X42418Y-40390D01*
X39664Y-30106D02*
X39664Y-29333D01*
X39664Y-29333D02*
X39670Y-29327D01*
X41666Y-29339D02*
X41666Y-30118D01*
X41666Y-30118D02*
X41660Y-30124D01*
X44458Y-38660D02*
X45190Y-38660D01*
X45336Y-38806D02*
X45750Y-38806D01*
X45190Y-38660D02*
X45336Y-38806D01*
X40692Y-40078D02*
X40692Y-39603D01*
X40342Y-40952D02*
X40342Y-40428D01*
X40342Y-40428D02*
X40692Y-40078D01*
X43162Y-42540D02*
X41406Y-42540D01*
X43794Y-43172D02*
X43162Y-42540D01*
X44342Y-43172D02*
X43794Y-43172D01*
X41406Y-42540D02*
X40342Y-41476D01*
X40342Y-41476D02*
X40342Y-40952D01*
X39864Y-41482D02*
X41554Y-43172D01*
X40030Y-40098D02*
X39864Y-40264D01*
X40692Y-39288D02*
X40154Y-39288D01*
X40030Y-39412D02*
X40154Y-39288D01*
X40030Y-39508D02*
X40030Y-39412D01*
X40030Y-39864D02*
X40030Y-39508D01*
X40030Y-39864D02*
X40030Y-40098D01*
X41554Y-43172D02*
X42342Y-43172D01*
X39864Y-40264D02*
X39864Y-41482D01*
X42688Y-29339D02*
X42688Y-30124D01*
X40644Y-29341D02*
X40644Y-30108D01*
G54D10*
G36*
X42466Y-35363D02*
X42392Y-35437D01*
X42392Y-34868D01*
X42354Y-34776D01*
X42283Y-34706D01*
X42191Y-34668D01*
X42106Y-34667D01*
X42106Y-34314D01*
X42106Y-33952D01*
X41843Y-33952D01*
X41781Y-34014D01*
X41780Y-34077D01*
X41781Y-34176D01*
X41819Y-34268D01*
X41889Y-34339D01*
X41981Y-34377D01*
X42043Y-34377D01*
X42106Y-34314D01*
X42106Y-34667D01*
X42092Y-34667D01*
X41492Y-34667D01*
X41400Y-34705D01*
X41330Y-34776D01*
X41292Y-34868D01*
X41292Y-34890D01*
X41153Y-34752D01*
X40951Y-34668D01*
X40733Y-34667D01*
X40530Y-34751D01*
X40390Y-34892D01*
X40390Y-34240D01*
X40830Y-33800D01*
X41690Y-33800D01*
X41780Y-33781D01*
X41781Y-33789D01*
X41843Y-33852D01*
X42106Y-33852D01*
X42106Y-33844D01*
X42206Y-33844D01*
X42206Y-33852D01*
X42213Y-33852D01*
X42213Y-33952D01*
X42206Y-33952D01*
X42206Y-34314D01*
X42268Y-34377D01*
X42330Y-34377D01*
X42422Y-34339D01*
X42455Y-34305D01*
X42466Y-34315D01*
X42466Y-35363D01*
X42466Y-35363D01*
G37*
G54D35*
X42466Y-35363D02*
X42392Y-35437D01*
X42392Y-34868D01*
X42354Y-34776D01*
X42283Y-34706D01*
X42191Y-34668D01*
X42106Y-34667D01*
X42106Y-34314D01*
X42106Y-33952D01*
X41843Y-33952D01*
X41781Y-34014D01*
X41780Y-34077D01*
X41781Y-34176D01*
X41819Y-34268D01*
X41889Y-34339D01*
X41981Y-34377D01*
X42043Y-34377D01*
X42106Y-34314D01*
X42106Y-34667D01*
X42092Y-34667D01*
X41492Y-34667D01*
X41400Y-34705D01*
X41330Y-34776D01*
X41292Y-34868D01*
X41292Y-34890D01*
X41153Y-34752D01*
X40951Y-34668D01*
X40733Y-34667D01*
X40530Y-34751D01*
X40390Y-34892D01*
X40390Y-34240D01*
X40830Y-33800D01*
X41690Y-33800D01*
X41780Y-33781D01*
X41781Y-33789D01*
X41843Y-33852D01*
X42106Y-33852D01*
X42106Y-33844D01*
X42206Y-33844D01*
X42206Y-33852D01*
X42213Y-33852D01*
X42213Y-33952D01*
X42206Y-33952D01*
X42206Y-34314D01*
X42268Y-34377D01*
X42330Y-34377D01*
X42422Y-34339D01*
X42455Y-34305D01*
X42466Y-34315D01*
X42466Y-35363D01*
G54D10*
G36*
X43958Y-38344D02*
X43923Y-38359D01*
X43898Y-38384D01*
X43877Y-38384D01*
X43814Y-38446D01*
X43814Y-38478D01*
X43823Y-38500D01*
X43814Y-38521D01*
X43814Y-38621D01*
X43814Y-38689D01*
X43596Y-38471D01*
X43483Y-38396D01*
X43350Y-38369D01*
X41873Y-38369D01*
X41800Y-38259D01*
X41800Y-38259D01*
X41637Y-38096D01*
X41524Y-38021D01*
X41391Y-37994D01*
X41335Y-37994D01*
X41335Y-37977D01*
X41278Y-37977D01*
X41335Y-37921D01*
X41335Y-37889D01*
X41327Y-37870D01*
X41335Y-37851D01*
X41335Y-37751D01*
X41335Y-37574D01*
X41327Y-37555D01*
X41335Y-37536D01*
X41335Y-37436D01*
X41335Y-37259D01*
X41331Y-37251D01*
X41337Y-37253D01*
X41437Y-37253D01*
X41614Y-37253D01*
X41632Y-37245D01*
X41651Y-37253D01*
X41751Y-37253D01*
X41816Y-37253D01*
X41816Y-37306D01*
X41779Y-37342D01*
X41715Y-37499D01*
X41714Y-37668D01*
X41779Y-37824D01*
X41898Y-37944D01*
X42055Y-38008D01*
X42224Y-38009D01*
X42380Y-37944D01*
X42500Y-37825D01*
X42556Y-37688D01*
X42666Y-37710D01*
X43650Y-37710D01*
X43760Y-37687D01*
X43814Y-37652D01*
X43814Y-37671D01*
X43814Y-37848D01*
X43823Y-37869D01*
X43814Y-37891D01*
X43814Y-37991D01*
X43814Y-38168D01*
X43821Y-38184D01*
X43814Y-38201D01*
X43814Y-38233D01*
X43877Y-38295D01*
X43888Y-38295D01*
X43922Y-38330D01*
X43958Y-38344D01*
X43958Y-38344D01*
G37*
G54D35*
X43958Y-38344D02*
X43923Y-38359D01*
X43898Y-38384D01*
X43877Y-38384D01*
X43814Y-38446D01*
X43814Y-38478D01*
X43823Y-38500D01*
X43814Y-38521D01*
X43814Y-38621D01*
X43814Y-38689D01*
X43596Y-38471D01*
X43483Y-38396D01*
X43350Y-38369D01*
X41873Y-38369D01*
X41800Y-38259D01*
X41800Y-38259D01*
X41637Y-38096D01*
X41524Y-38021D01*
X41391Y-37994D01*
X41335Y-37994D01*
X41335Y-37977D01*
X41278Y-37977D01*
X41335Y-37921D01*
X41335Y-37889D01*
X41327Y-37870D01*
X41335Y-37851D01*
X41335Y-37751D01*
X41335Y-37574D01*
X41327Y-37555D01*
X41335Y-37536D01*
X41335Y-37436D01*
X41335Y-37259D01*
X41331Y-37251D01*
X41337Y-37253D01*
X41437Y-37253D01*
X41614Y-37253D01*
X41632Y-37245D01*
X41651Y-37253D01*
X41751Y-37253D01*
X41816Y-37253D01*
X41816Y-37306D01*
X41779Y-37342D01*
X41715Y-37499D01*
X41714Y-37668D01*
X41779Y-37824D01*
X41898Y-37944D01*
X42055Y-38008D01*
X42224Y-38009D01*
X42380Y-37944D01*
X42500Y-37825D01*
X42556Y-37688D01*
X42666Y-37710D01*
X43650Y-37710D01*
X43760Y-37687D01*
X43814Y-37652D01*
X43814Y-37671D01*
X43814Y-37848D01*
X43823Y-37869D01*
X43814Y-37891D01*
X43814Y-37991D01*
X43814Y-38168D01*
X43821Y-38184D01*
X43814Y-38201D01*
X43814Y-38233D01*
X43877Y-38295D01*
X43888Y-38295D01*
X43922Y-38330D01*
X43958Y-38344D01*
G54D10*
G36*
X45807Y-38256D02*
X45800Y-38256D01*
X45800Y-38263D01*
X45700Y-38263D01*
X45700Y-38256D01*
X45337Y-38256D01*
X45275Y-38318D01*
X45274Y-38380D01*
X45277Y-38387D01*
X45190Y-38370D01*
X45003Y-38370D01*
X44993Y-38359D01*
X44957Y-38345D01*
X44992Y-38330D01*
X45027Y-38295D01*
X45039Y-38295D01*
X45101Y-38233D01*
X45101Y-38201D01*
X45094Y-38184D01*
X45101Y-38168D01*
X45101Y-38068D01*
X45101Y-37891D01*
X45092Y-37870D01*
X45101Y-37848D01*
X45101Y-37748D01*
X45101Y-37571D01*
X45094Y-37555D01*
X45101Y-37538D01*
X45101Y-37438D01*
X45101Y-37261D01*
X45077Y-37204D01*
X45264Y-37204D01*
X45264Y-37244D01*
X45302Y-37336D01*
X45336Y-37369D01*
X45303Y-37403D01*
X45265Y-37495D01*
X45264Y-37594D01*
X45264Y-37844D01*
X45302Y-37936D01*
X45310Y-37944D01*
X45274Y-38031D01*
X45275Y-38093D01*
X45337Y-38156D01*
X45700Y-38156D01*
X45700Y-38148D01*
X45800Y-38148D01*
X45800Y-38156D01*
X45807Y-38156D01*
X45807Y-38256D01*
X45807Y-38256D01*
G37*
G54D35*
X45807Y-38256D02*
X45800Y-38256D01*
X45800Y-38263D01*
X45700Y-38263D01*
X45700Y-38256D01*
X45337Y-38256D01*
X45275Y-38318D01*
X45274Y-38380D01*
X45277Y-38387D01*
X45190Y-38370D01*
X45003Y-38370D01*
X44993Y-38359D01*
X44957Y-38345D01*
X44992Y-38330D01*
X45027Y-38295D01*
X45039Y-38295D01*
X45101Y-38233D01*
X45101Y-38201D01*
X45094Y-38184D01*
X45101Y-38168D01*
X45101Y-38068D01*
X45101Y-37891D01*
X45092Y-37870D01*
X45101Y-37848D01*
X45101Y-37748D01*
X45101Y-37571D01*
X45094Y-37555D01*
X45101Y-37538D01*
X45101Y-37438D01*
X45101Y-37261D01*
X45077Y-37204D01*
X45264Y-37204D01*
X45264Y-37244D01*
X45302Y-37336D01*
X45336Y-37369D01*
X45303Y-37403D01*
X45265Y-37495D01*
X45264Y-37594D01*
X45264Y-37844D01*
X45302Y-37936D01*
X45310Y-37944D01*
X45274Y-38031D01*
X45275Y-38093D01*
X45337Y-38156D01*
X45700Y-38156D01*
X45700Y-38148D01*
X45800Y-38148D01*
X45800Y-38156D01*
X45807Y-38156D01*
X45807Y-38256D01*
G54D10*
G36*
X46368Y-34455D02*
X46303Y-34519D01*
X46278Y-34580D01*
X46278Y-34484D01*
X46278Y-34243D01*
X46216Y-34181D01*
X45921Y-34181D01*
X45921Y-34722D01*
X45983Y-34784D01*
X46078Y-34784D01*
X46169Y-34746D01*
X46240Y-34676D01*
X46265Y-34615D01*
X46265Y-34711D01*
X46265Y-35320D01*
X46172Y-35227D01*
X45986Y-35150D01*
X45821Y-35149D01*
X45821Y-34722D01*
X45821Y-34181D01*
X45526Y-34181D01*
X45463Y-34243D01*
X45463Y-34484D01*
X45463Y-34584D01*
X45501Y-34676D01*
X45572Y-34746D01*
X45663Y-34784D01*
X45758Y-34784D01*
X45821Y-34722D01*
X45821Y-35149D01*
X45784Y-35149D01*
X45751Y-35163D01*
X45374Y-34785D01*
X45374Y-33965D01*
X45463Y-33876D01*
X45463Y-34018D01*
X45526Y-34081D01*
X45821Y-34081D01*
X45821Y-34049D01*
X45921Y-34043D01*
X45921Y-34081D01*
X46216Y-34081D01*
X46278Y-34018D01*
X46278Y-33876D01*
X46368Y-33965D01*
X46368Y-34455D01*
X46368Y-34455D01*
G37*
G54D35*
X46368Y-34455D02*
X46303Y-34519D01*
X46278Y-34580D01*
X46278Y-34484D01*
X46278Y-34243D01*
X46216Y-34181D01*
X45921Y-34181D01*
X45921Y-34722D01*
X45983Y-34784D01*
X46078Y-34784D01*
X46169Y-34746D01*
X46240Y-34676D01*
X46265Y-34615D01*
X46265Y-34711D01*
X46265Y-35320D01*
X46172Y-35227D01*
X45986Y-35150D01*
X45821Y-35149D01*
X45821Y-34722D01*
X45821Y-34181D01*
X45526Y-34181D01*
X45463Y-34243D01*
X45463Y-34484D01*
X45463Y-34584D01*
X45501Y-34676D01*
X45572Y-34746D01*
X45663Y-34784D01*
X45758Y-34784D01*
X45821Y-34722D01*
X45821Y-35149D01*
X45784Y-35149D01*
X45751Y-35163D01*
X45374Y-34785D01*
X45374Y-33965D01*
X45463Y-33876D01*
X45463Y-34018D01*
X45526Y-34081D01*
X45821Y-34081D01*
X45821Y-34049D01*
X45921Y-34043D01*
X45921Y-34081D01*
X46216Y-34081D01*
X46278Y-34018D01*
X46278Y-33876D01*
X46368Y-33965D01*
X46368Y-34455D01*
G54D10*
G36*
X47051Y-44029D02*
X40046Y-44029D01*
X40301Y-43774D01*
X40490Y-43320D01*
X40490Y-42829D01*
X40303Y-42375D01*
X39956Y-42028D01*
X39502Y-41839D01*
X39011Y-41839D01*
X38557Y-42026D01*
X38305Y-42279D01*
X38305Y-38183D01*
X38588Y-38183D01*
X38420Y-38350D01*
X38358Y-38445D01*
X38336Y-38556D01*
X38336Y-39984D01*
X38358Y-40094D01*
X38420Y-40189D01*
X38439Y-40207D01*
X38438Y-40306D01*
X38503Y-40462D01*
X38622Y-40582D01*
X38779Y-40646D01*
X38948Y-40647D01*
X39053Y-40603D01*
X39123Y-40673D01*
X39215Y-40711D01*
X39277Y-40711D01*
X39340Y-40648D01*
X39340Y-40286D01*
X39332Y-40286D01*
X39332Y-40186D01*
X39340Y-40186D01*
X39340Y-39823D01*
X39277Y-39761D01*
X39215Y-39760D01*
X39123Y-39798D01*
X39073Y-39848D01*
X38948Y-39797D01*
X38916Y-39797D01*
X38916Y-38676D01*
X39136Y-38455D01*
X39193Y-38512D01*
X39556Y-38512D01*
X39556Y-38249D01*
X39493Y-38187D01*
X39430Y-38186D01*
X39348Y-38187D01*
X39364Y-38108D01*
X39363Y-38108D01*
X39364Y-38108D01*
X39364Y-37406D01*
X39875Y-37918D01*
X39970Y-37980D01*
X40081Y-38003D01*
X40146Y-38003D01*
X40156Y-38013D01*
X40192Y-38027D01*
X40157Y-38042D01*
X40127Y-38072D01*
X40111Y-38072D01*
X40048Y-38134D01*
X40048Y-38166D01*
X40056Y-38185D01*
X40048Y-38204D01*
X40048Y-38304D01*
X40048Y-38308D01*
X40043Y-38295D01*
X39972Y-38225D01*
X39880Y-38187D01*
X39781Y-38186D01*
X39718Y-38187D01*
X39656Y-38249D01*
X39656Y-38512D01*
X39663Y-38512D01*
X39663Y-38612D01*
X39656Y-38612D01*
X39656Y-38619D01*
X39556Y-38619D01*
X39556Y-38612D01*
X39193Y-38612D01*
X39131Y-38674D01*
X39130Y-38736D01*
X39168Y-38828D01*
X39202Y-38861D01*
X39169Y-38895D01*
X39131Y-38987D01*
X39130Y-39086D01*
X39130Y-39336D01*
X39168Y-39428D01*
X39239Y-39498D01*
X39331Y-39536D01*
X39430Y-39537D01*
X39740Y-39537D01*
X39740Y-39792D01*
X39723Y-39798D01*
X39690Y-39832D01*
X39656Y-39798D01*
X39564Y-39760D01*
X39502Y-39761D01*
X39440Y-39823D01*
X39440Y-40186D01*
X39447Y-40186D01*
X39447Y-40286D01*
X39440Y-40286D01*
X39440Y-40648D01*
X39502Y-40711D01*
X39564Y-40711D01*
X39574Y-40707D01*
X39574Y-41482D01*
X39596Y-41592D01*
X39658Y-41687D01*
X41348Y-43377D01*
X41443Y-43439D01*
X41554Y-43462D01*
X41812Y-43462D01*
X41833Y-43511D01*
X42001Y-43680D01*
X42222Y-43771D01*
X42460Y-43772D01*
X42681Y-43680D01*
X42850Y-43512D01*
X42941Y-43291D01*
X42942Y-43053D01*
X42850Y-42832D01*
X42848Y-42830D01*
X43041Y-42830D01*
X43588Y-43377D01*
X43588Y-43377D01*
X43683Y-43439D01*
X43793Y-43462D01*
X43793Y-43461D01*
X43794Y-43462D01*
X43812Y-43462D01*
X43833Y-43511D01*
X44001Y-43680D01*
X44222Y-43771D01*
X44460Y-43772D01*
X44681Y-43680D01*
X44850Y-43512D01*
X44941Y-43291D01*
X44942Y-43053D01*
X44850Y-42832D01*
X44682Y-42663D01*
X44461Y-42572D01*
X44223Y-42571D01*
X44002Y-42663D01*
X43848Y-42816D01*
X43367Y-42334D01*
X43272Y-42272D01*
X43162Y-42250D01*
X41526Y-42250D01*
X41317Y-42040D01*
X40636Y-41360D01*
X40641Y-41355D01*
X40675Y-41389D01*
X40767Y-41427D01*
X40829Y-41427D01*
X40892Y-41364D01*
X40892Y-41002D01*
X40884Y-41002D01*
X40884Y-40902D01*
X40892Y-40902D01*
X40892Y-40894D01*
X40992Y-40894D01*
X40992Y-40902D01*
X40999Y-40902D01*
X40999Y-41002D01*
X40992Y-41002D01*
X40992Y-41364D01*
X41054Y-41427D01*
X41116Y-41427D01*
X41208Y-41389D01*
X41278Y-41318D01*
X41316Y-41226D01*
X41317Y-41127D01*
X41317Y-41064D01*
X41254Y-41002D01*
X41263Y-41002D01*
X41339Y-41033D01*
X41386Y-41033D01*
X41363Y-41089D01*
X41362Y-41258D01*
X41387Y-41318D01*
X41365Y-41341D01*
X41327Y-41433D01*
X41326Y-41532D01*
X41326Y-41926D01*
X41364Y-42018D01*
X41435Y-42088D01*
X41527Y-42126D01*
X41626Y-42127D01*
X42020Y-42127D01*
X42094Y-42096D01*
X42167Y-42126D01*
X42266Y-42127D01*
X42660Y-42127D01*
X42751Y-42089D01*
X42809Y-42127D01*
X42920Y-42150D01*
X43559Y-42150D01*
X43796Y-42387D01*
X43796Y-42387D01*
X43891Y-42449D01*
X43983Y-42468D01*
X44001Y-42472D01*
X44001Y-42471D01*
X44002Y-42472D01*
X45894Y-42472D01*
X46004Y-42449D01*
X46018Y-42440D01*
X46018Y-42636D01*
X46056Y-42728D01*
X46094Y-42765D01*
X46037Y-42903D01*
X46036Y-43072D01*
X46101Y-43228D01*
X46220Y-43348D01*
X46377Y-43412D01*
X46546Y-43413D01*
X46631Y-43377D01*
X46794Y-43772D01*
X47051Y-44029D01*
X47051Y-44029D01*
G37*
G54D35*
X47051Y-44029D02*
X40046Y-44029D01*
X40301Y-43774D01*
X40490Y-43320D01*
X40490Y-42829D01*
X40303Y-42375D01*
X39956Y-42028D01*
X39502Y-41839D01*
X39011Y-41839D01*
X38557Y-42026D01*
X38305Y-42279D01*
X38305Y-38183D01*
X38588Y-38183D01*
X38420Y-38350D01*
X38358Y-38445D01*
X38336Y-38556D01*
X38336Y-39984D01*
X38358Y-40094D01*
X38420Y-40189D01*
X38439Y-40207D01*
X38438Y-40306D01*
X38503Y-40462D01*
X38622Y-40582D01*
X38779Y-40646D01*
X38948Y-40647D01*
X39053Y-40603D01*
X39123Y-40673D01*
X39215Y-40711D01*
X39277Y-40711D01*
X39340Y-40648D01*
X39340Y-40286D01*
X39332Y-40286D01*
X39332Y-40186D01*
X39340Y-40186D01*
X39340Y-39823D01*
X39277Y-39761D01*
X39215Y-39760D01*
X39123Y-39798D01*
X39073Y-39848D01*
X38948Y-39797D01*
X38916Y-39797D01*
X38916Y-38676D01*
X39136Y-38455D01*
X39193Y-38512D01*
X39556Y-38512D01*
X39556Y-38249D01*
X39493Y-38187D01*
X39430Y-38186D01*
X39348Y-38187D01*
X39364Y-38108D01*
X39363Y-38108D01*
X39364Y-38108D01*
X39364Y-37406D01*
X39875Y-37918D01*
X39970Y-37980D01*
X40081Y-38003D01*
X40146Y-38003D01*
X40156Y-38013D01*
X40192Y-38027D01*
X40157Y-38042D01*
X40127Y-38072D01*
X40111Y-38072D01*
X40048Y-38134D01*
X40048Y-38166D01*
X40056Y-38185D01*
X40048Y-38204D01*
X40048Y-38304D01*
X40048Y-38308D01*
X40043Y-38295D01*
X39972Y-38225D01*
X39880Y-38187D01*
X39781Y-38186D01*
X39718Y-38187D01*
X39656Y-38249D01*
X39656Y-38512D01*
X39663Y-38512D01*
X39663Y-38612D01*
X39656Y-38612D01*
X39656Y-38619D01*
X39556Y-38619D01*
X39556Y-38612D01*
X39193Y-38612D01*
X39131Y-38674D01*
X39130Y-38736D01*
X39168Y-38828D01*
X39202Y-38861D01*
X39169Y-38895D01*
X39131Y-38987D01*
X39130Y-39086D01*
X39130Y-39336D01*
X39168Y-39428D01*
X39239Y-39498D01*
X39331Y-39536D01*
X39430Y-39537D01*
X39740Y-39537D01*
X39740Y-39792D01*
X39723Y-39798D01*
X39690Y-39832D01*
X39656Y-39798D01*
X39564Y-39760D01*
X39502Y-39761D01*
X39440Y-39823D01*
X39440Y-40186D01*
X39447Y-40186D01*
X39447Y-40286D01*
X39440Y-40286D01*
X39440Y-40648D01*
X39502Y-40711D01*
X39564Y-40711D01*
X39574Y-40707D01*
X39574Y-41482D01*
X39596Y-41592D01*
X39658Y-41687D01*
X41348Y-43377D01*
X41443Y-43439D01*
X41554Y-43462D01*
X41812Y-43462D01*
X41833Y-43511D01*
X42001Y-43680D01*
X42222Y-43771D01*
X42460Y-43772D01*
X42681Y-43680D01*
X42850Y-43512D01*
X42941Y-43291D01*
X42942Y-43053D01*
X42850Y-42832D01*
X42848Y-42830D01*
X43041Y-42830D01*
X43588Y-43377D01*
X43588Y-43377D01*
X43683Y-43439D01*
X43793Y-43462D01*
X43793Y-43461D01*
X43794Y-43462D01*
X43812Y-43462D01*
X43833Y-43511D01*
X44001Y-43680D01*
X44222Y-43771D01*
X44460Y-43772D01*
X44681Y-43680D01*
X44850Y-43512D01*
X44941Y-43291D01*
X44942Y-43053D01*
X44850Y-42832D01*
X44682Y-42663D01*
X44461Y-42572D01*
X44223Y-42571D01*
X44002Y-42663D01*
X43848Y-42816D01*
X43367Y-42334D01*
X43272Y-42272D01*
X43162Y-42250D01*
X41526Y-42250D01*
X41317Y-42040D01*
X40636Y-41360D01*
X40641Y-41355D01*
X40675Y-41389D01*
X40767Y-41427D01*
X40829Y-41427D01*
X40892Y-41364D01*
X40892Y-41002D01*
X40884Y-41002D01*
X40884Y-40902D01*
X40892Y-40902D01*
X40892Y-40894D01*
X40992Y-40894D01*
X40992Y-40902D01*
X40999Y-40902D01*
X40999Y-41002D01*
X40992Y-41002D01*
X40992Y-41364D01*
X41054Y-41427D01*
X41116Y-41427D01*
X41208Y-41389D01*
X41278Y-41318D01*
X41316Y-41226D01*
X41317Y-41127D01*
X41317Y-41064D01*
X41254Y-41002D01*
X41263Y-41002D01*
X41339Y-41033D01*
X41386Y-41033D01*
X41363Y-41089D01*
X41362Y-41258D01*
X41387Y-41318D01*
X41365Y-41341D01*
X41327Y-41433D01*
X41326Y-41532D01*
X41326Y-41926D01*
X41364Y-42018D01*
X41435Y-42088D01*
X41527Y-42126D01*
X41626Y-42127D01*
X42020Y-42127D01*
X42094Y-42096D01*
X42167Y-42126D01*
X42266Y-42127D01*
X42660Y-42127D01*
X42751Y-42089D01*
X42809Y-42127D01*
X42920Y-42150D01*
X43559Y-42150D01*
X43796Y-42387D01*
X43796Y-42387D01*
X43891Y-42449D01*
X43983Y-42468D01*
X44001Y-42472D01*
X44001Y-42471D01*
X44002Y-42472D01*
X45894Y-42472D01*
X46004Y-42449D01*
X46018Y-42440D01*
X46018Y-42636D01*
X46056Y-42728D01*
X46094Y-42765D01*
X46037Y-42903D01*
X46036Y-43072D01*
X46101Y-43228D01*
X46220Y-43348D01*
X46377Y-43412D01*
X46546Y-43413D01*
X46631Y-43377D01*
X46794Y-43772D01*
X47051Y-44029D01*
G54D10*
G36*
X47486Y-38395D02*
X47415Y-38466D01*
X47410Y-38460D01*
X47404Y-38466D01*
X47333Y-38395D01*
X47339Y-38390D01*
X47024Y-38074D01*
X46974Y-38089D01*
X46974Y-37852D01*
X47050Y-37821D01*
X47120Y-37750D01*
X47158Y-37658D01*
X47159Y-37559D01*
X47159Y-37507D01*
X47247Y-37595D01*
X47250Y-37608D01*
X47312Y-37703D01*
X47447Y-37837D01*
X47273Y-37846D01*
X47122Y-37908D01*
X47094Y-38004D01*
X47410Y-38319D01*
X47415Y-38313D01*
X47486Y-38384D01*
X47480Y-38390D01*
X47486Y-38395D01*
X47486Y-38395D01*
G37*
G54D35*
X47486Y-38395D02*
X47415Y-38466D01*
X47410Y-38460D01*
X47404Y-38466D01*
X47333Y-38395D01*
X47339Y-38390D01*
X47024Y-38074D01*
X46974Y-38089D01*
X46974Y-37852D01*
X47050Y-37821D01*
X47120Y-37750D01*
X47158Y-37658D01*
X47159Y-37559D01*
X47159Y-37507D01*
X47247Y-37595D01*
X47250Y-37608D01*
X47312Y-37703D01*
X47447Y-37837D01*
X47273Y-37846D01*
X47122Y-37908D01*
X47094Y-38004D01*
X47410Y-38319D01*
X47415Y-38313D01*
X47486Y-38384D01*
X47480Y-38390D01*
X47486Y-38395D01*
G54D10*
G36*
X49414Y-34617D02*
X49414Y-34711D01*
X49414Y-35337D01*
X49393Y-35359D01*
X49386Y-35375D01*
X49318Y-35443D01*
X49318Y-35301D01*
X49296Y-35211D01*
X49106Y-35145D01*
X48905Y-35156D01*
X48773Y-35211D01*
X48751Y-35301D01*
X49035Y-35585D01*
X49318Y-35301D01*
X49318Y-35443D01*
X49168Y-35593D01*
X49147Y-35593D01*
X49085Y-35656D01*
X49085Y-35687D01*
X49040Y-35732D01*
X49035Y-35726D01*
X49029Y-35732D01*
X48985Y-35687D01*
X48985Y-35656D01*
X48922Y-35593D01*
X48901Y-35593D01*
X48680Y-35372D01*
X48677Y-35373D01*
X48676Y-35369D01*
X48654Y-35348D01*
X48654Y-34678D01*
X48721Y-34745D01*
X48813Y-34784D01*
X48912Y-34784D01*
X49227Y-34784D01*
X49319Y-34746D01*
X49390Y-34675D01*
X49414Y-34617D01*
X49414Y-34617D01*
G37*
G54D35*
X49414Y-34617D02*
X49414Y-34711D01*
X49414Y-35337D01*
X49393Y-35359D01*
X49386Y-35375D01*
X49318Y-35443D01*
X49318Y-35301D01*
X49296Y-35211D01*
X49106Y-35145D01*
X48905Y-35156D01*
X48773Y-35211D01*
X48751Y-35301D01*
X49035Y-35585D01*
X49318Y-35301D01*
X49318Y-35443D01*
X49168Y-35593D01*
X49147Y-35593D01*
X49085Y-35656D01*
X49085Y-35687D01*
X49040Y-35732D01*
X49035Y-35726D01*
X49029Y-35732D01*
X48985Y-35687D01*
X48985Y-35656D01*
X48922Y-35593D01*
X48901Y-35593D01*
X48680Y-35372D01*
X48677Y-35373D01*
X48676Y-35369D01*
X48654Y-35348D01*
X48654Y-34678D01*
X48721Y-34745D01*
X48813Y-34784D01*
X48912Y-34784D01*
X49227Y-34784D01*
X49319Y-34746D01*
X49390Y-34675D01*
X49414Y-34617D01*
G54D10*
G36*
X52088Y-29475D02*
X50310Y-31253D01*
X50224Y-31382D01*
X50219Y-31407D01*
X50194Y-31534D01*
X50194Y-32444D01*
X50177Y-32404D01*
X50107Y-32334D01*
X50015Y-32295D01*
X49916Y-32295D01*
X49601Y-32295D01*
X49509Y-32333D01*
X49438Y-32404D01*
X49400Y-32496D01*
X49400Y-32595D01*
X49400Y-33208D01*
X49303Y-33111D01*
X49117Y-33034D01*
X48916Y-33033D01*
X48730Y-33110D01*
X48640Y-33200D01*
X48640Y-32495D01*
X48602Y-32404D01*
X48532Y-32333D01*
X48440Y-32295D01*
X48340Y-32295D01*
X48025Y-32295D01*
X47934Y-32333D01*
X47863Y-32403D01*
X47825Y-32495D01*
X47825Y-32595D01*
X47825Y-33203D01*
X47736Y-33114D01*
X47736Y-32428D01*
X47812Y-32397D01*
X47882Y-32326D01*
X47920Y-32234D01*
X47921Y-32135D01*
X47921Y-31885D01*
X47883Y-31793D01*
X47849Y-31760D01*
X47883Y-31726D01*
X47921Y-31634D01*
X47921Y-31285D01*
X47883Y-31193D01*
X47880Y-31190D01*
X47880Y-27425D01*
X47880Y-24926D01*
X47842Y-24834D01*
X47771Y-24764D01*
X47679Y-24726D01*
X47580Y-24725D01*
X46542Y-24726D01*
X46480Y-24788D01*
X46480Y-26126D01*
X47817Y-26126D01*
X47880Y-26063D01*
X47880Y-24926D01*
X47880Y-27425D01*
X47880Y-26288D01*
X47817Y-26226D01*
X46480Y-26226D01*
X46480Y-27563D01*
X46542Y-27626D01*
X47580Y-27626D01*
X47679Y-27625D01*
X47771Y-27587D01*
X47842Y-27517D01*
X47880Y-27425D01*
X47880Y-31190D01*
X47812Y-31123D01*
X47720Y-31085D01*
X47621Y-31084D01*
X47558Y-31085D01*
X47496Y-31147D01*
X47496Y-31410D01*
X47858Y-31410D01*
X47921Y-31347D01*
X47921Y-31285D01*
X47921Y-31634D01*
X47921Y-31572D01*
X47858Y-31510D01*
X47496Y-31510D01*
X47496Y-31517D01*
X47396Y-31517D01*
X47396Y-31510D01*
X47396Y-31410D01*
X47396Y-31147D01*
X47333Y-31085D01*
X47270Y-31084D01*
X47171Y-31085D01*
X47079Y-31123D01*
X47065Y-31136D01*
X47032Y-31103D01*
X46940Y-31065D01*
X46841Y-31064D01*
X46778Y-31065D01*
X46716Y-31127D01*
X46716Y-31390D01*
X47013Y-31390D01*
X47033Y-31410D01*
X47396Y-31410D01*
X47396Y-31510D01*
X47098Y-31510D01*
X47078Y-31490D01*
X46716Y-31490D01*
X46716Y-31497D01*
X46616Y-31497D01*
X46616Y-31490D01*
X46616Y-31390D01*
X46616Y-31127D01*
X46553Y-31065D01*
X46490Y-31064D01*
X46391Y-31065D01*
X46380Y-31069D01*
X46380Y-27563D01*
X46380Y-26226D01*
X46380Y-26126D01*
X46380Y-24788D01*
X46317Y-24726D01*
X45279Y-24725D01*
X45180Y-24726D01*
X45088Y-24764D01*
X45017Y-24834D01*
X44979Y-24926D01*
X44980Y-26063D01*
X45042Y-26126D01*
X46380Y-26126D01*
X46380Y-26226D01*
X45042Y-26226D01*
X44980Y-26288D01*
X44979Y-27425D01*
X45017Y-27517D01*
X45088Y-27587D01*
X45180Y-27625D01*
X45279Y-27626D01*
X46317Y-27626D01*
X46380Y-27563D01*
X46380Y-31069D01*
X46299Y-31103D01*
X46228Y-31173D01*
X46190Y-31265D01*
X46191Y-31327D01*
X46253Y-31390D01*
X46616Y-31390D01*
X46616Y-31490D01*
X46253Y-31490D01*
X46191Y-31552D01*
X46190Y-31614D01*
X46228Y-31706D01*
X46262Y-31739D01*
X46229Y-31773D01*
X46191Y-31865D01*
X46190Y-31964D01*
X46190Y-32214D01*
X46228Y-32306D01*
X46299Y-32376D01*
X46310Y-32381D01*
X46288Y-32403D01*
X46250Y-32495D01*
X46250Y-32595D01*
X46250Y-33231D01*
X46229Y-33253D01*
X46227Y-33257D01*
X46225Y-33256D01*
X46154Y-33327D01*
X46154Y-33185D01*
X46132Y-33095D01*
X45942Y-33029D01*
X45741Y-33040D01*
X45609Y-33095D01*
X45587Y-33185D01*
X45871Y-33469D01*
X46154Y-33185D01*
X46154Y-33327D01*
X46004Y-33477D01*
X45983Y-33477D01*
X45921Y-33540D01*
X45921Y-33571D01*
X45876Y-33616D01*
X45871Y-33610D01*
X45865Y-33616D01*
X45821Y-33571D01*
X45821Y-33540D01*
X45758Y-33477D01*
X45737Y-33477D01*
X45516Y-33256D01*
X45514Y-33257D01*
X45513Y-33253D01*
X45491Y-33232D01*
X45491Y-32495D01*
X45453Y-32404D01*
X45433Y-32383D01*
X45454Y-32375D01*
X45524Y-32304D01*
X45562Y-32212D01*
X45563Y-32113D01*
X45563Y-31863D01*
X45525Y-31771D01*
X45491Y-31737D01*
X45525Y-31704D01*
X45563Y-31612D01*
X45563Y-31263D01*
X45525Y-31171D01*
X45454Y-31101D01*
X45362Y-31063D01*
X45263Y-31062D01*
X45200Y-31063D01*
X45138Y-31125D01*
X45138Y-31388D01*
X45500Y-31388D01*
X45563Y-31325D01*
X45563Y-31263D01*
X45563Y-31612D01*
X45563Y-31550D01*
X45500Y-31488D01*
X45138Y-31488D01*
X45138Y-31495D01*
X45038Y-31495D01*
X45038Y-31488D01*
X45038Y-31388D01*
X45038Y-31125D01*
X44975Y-31063D01*
X44912Y-31062D01*
X44813Y-31063D01*
X44721Y-31101D01*
X44650Y-31171D01*
X44612Y-31263D01*
X44613Y-31325D01*
X44675Y-31388D01*
X45038Y-31388D01*
X45038Y-31488D01*
X44675Y-31488D01*
X44613Y-31550D01*
X44612Y-31612D01*
X44650Y-31704D01*
X44684Y-31737D01*
X44651Y-31771D01*
X44613Y-31863D01*
X44612Y-31962D01*
X44612Y-32212D01*
X44650Y-32304D01*
X44721Y-32374D01*
X44737Y-32381D01*
X44714Y-32403D01*
X44676Y-32495D01*
X44676Y-32595D01*
X44676Y-33204D01*
X44583Y-33111D01*
X44397Y-33034D01*
X44195Y-33033D01*
X44009Y-33110D01*
X43867Y-33253D01*
X43790Y-33438D01*
X43789Y-33640D01*
X43866Y-33826D01*
X43888Y-33847D01*
X43888Y-34042D01*
X43806Y-34009D01*
X43707Y-34008D01*
X43672Y-34009D01*
X43610Y-34071D01*
X43610Y-34406D01*
X43617Y-34406D01*
X43617Y-34506D01*
X43610Y-34506D01*
X43610Y-34513D01*
X43510Y-34513D01*
X43510Y-34506D01*
X43502Y-34506D01*
X43502Y-34406D01*
X43510Y-34406D01*
X43510Y-34071D01*
X43447Y-34009D01*
X43412Y-34008D01*
X43404Y-34008D01*
X43404Y-33426D01*
X43675Y-33155D01*
X43737Y-33060D01*
X43760Y-32950D01*
X43760Y-28432D01*
X43760Y-27944D01*
X43819Y-27854D01*
X43842Y-27744D01*
X43842Y-26304D01*
X43841Y-26303D01*
X43842Y-26303D01*
X43819Y-26193D01*
X43757Y-26098D01*
X43757Y-26098D01*
X43445Y-25787D01*
X43485Y-25691D01*
X43486Y-25419D01*
X43382Y-25168D01*
X43190Y-24976D01*
X42939Y-24872D01*
X42667Y-24871D01*
X42416Y-24975D01*
X42224Y-25167D01*
X42183Y-25265D01*
X41060Y-25265D01*
X41020Y-25168D01*
X40828Y-24976D01*
X40577Y-24872D01*
X40305Y-24871D01*
X40054Y-24975D01*
X39862Y-25167D01*
X39758Y-25418D01*
X39757Y-25690D01*
X39861Y-25941D01*
X40053Y-26133D01*
X40304Y-26237D01*
X40576Y-26238D01*
X40827Y-26134D01*
X41019Y-25942D01*
X41060Y-25845D01*
X42183Y-25845D01*
X42223Y-25941D01*
X42415Y-26133D01*
X42666Y-26237D01*
X42938Y-26238D01*
X43035Y-26197D01*
X43262Y-26424D01*
X43262Y-26604D01*
X43259Y-26601D01*
X43214Y-26646D01*
X43170Y-26537D01*
X42916Y-26441D01*
X42644Y-26450D01*
X42435Y-26537D01*
X42391Y-26646D01*
X42803Y-27058D01*
X42808Y-27052D01*
X42879Y-27123D01*
X42873Y-27129D01*
X42879Y-27134D01*
X42808Y-27205D01*
X42803Y-27199D01*
X42732Y-27270D01*
X42732Y-27129D01*
X42320Y-26717D01*
X42211Y-26761D01*
X42115Y-27015D01*
X42124Y-27287D01*
X42211Y-27496D01*
X42320Y-27540D01*
X42732Y-27129D01*
X42732Y-27270D01*
X42391Y-27611D01*
X42435Y-27720D01*
X42689Y-27816D01*
X42961Y-27807D01*
X43170Y-27720D01*
X43214Y-27611D01*
X43214Y-27611D01*
X43248Y-27645D01*
X43214Y-27696D01*
X43202Y-27715D01*
X43180Y-27826D01*
X43180Y-28432D01*
X43180Y-31684D01*
X43135Y-31640D01*
X43043Y-31602D01*
X42972Y-31601D01*
X42972Y-31095D01*
X43054Y-31061D01*
X43124Y-30990D01*
X43162Y-30898D01*
X43163Y-30799D01*
X43163Y-30549D01*
X43125Y-30457D01*
X43091Y-30424D01*
X43124Y-30390D01*
X43162Y-30298D01*
X43163Y-30199D01*
X43163Y-29949D01*
X43125Y-29857D01*
X43057Y-29790D01*
X43065Y-29787D01*
X43135Y-29716D01*
X43173Y-29624D01*
X43174Y-29525D01*
X43174Y-29053D01*
X43136Y-28961D01*
X43100Y-28926D01*
X43136Y-28890D01*
X43174Y-28798D01*
X43174Y-28227D01*
X43136Y-28135D01*
X43065Y-28065D01*
X42973Y-28027D01*
X42874Y-28026D01*
X42800Y-28027D01*
X42738Y-28089D01*
X42738Y-28463D01*
X43111Y-28463D01*
X43174Y-28400D01*
X43174Y-28227D01*
X43174Y-28798D01*
X43174Y-28625D01*
X43111Y-28563D01*
X42738Y-28563D01*
X42738Y-28570D01*
X42638Y-28570D01*
X42638Y-28563D01*
X42638Y-28463D01*
X42638Y-28089D01*
X42575Y-28027D01*
X42501Y-28026D01*
X42402Y-28027D01*
X42310Y-28065D01*
X42239Y-28135D01*
X42201Y-28227D01*
X42202Y-28400D01*
X42264Y-28463D01*
X42638Y-28463D01*
X42638Y-28563D01*
X42264Y-28563D01*
X42202Y-28625D01*
X42201Y-28798D01*
X42239Y-28890D01*
X42275Y-28926D01*
X42240Y-28961D01*
X42202Y-29053D01*
X42201Y-29152D01*
X42201Y-29624D01*
X42239Y-29716D01*
X42310Y-29786D01*
X42318Y-29790D01*
X42251Y-29857D01*
X42213Y-29949D01*
X42212Y-30048D01*
X42212Y-30298D01*
X42250Y-30390D01*
X42284Y-30423D01*
X42251Y-30457D01*
X42213Y-30549D01*
X42212Y-30648D01*
X42212Y-30898D01*
X42250Y-30990D01*
X42321Y-31060D01*
X42392Y-31090D01*
X42392Y-31601D01*
X42344Y-31601D01*
X42252Y-31639D01*
X42182Y-31710D01*
X42144Y-31802D01*
X42144Y-31824D01*
X42005Y-31686D01*
X41972Y-31671D01*
X41972Y-31083D01*
X42026Y-31061D01*
X42096Y-30990D01*
X42134Y-30898D01*
X42135Y-30799D01*
X42135Y-30549D01*
X42097Y-30457D01*
X42063Y-30424D01*
X42096Y-30390D01*
X42134Y-30298D01*
X42135Y-30199D01*
X42135Y-29949D01*
X42097Y-29857D01*
X42031Y-29791D01*
X42043Y-29787D01*
X42113Y-29716D01*
X42151Y-29624D01*
X42152Y-29525D01*
X42152Y-29053D01*
X42114Y-28961D01*
X42078Y-28926D01*
X42114Y-28890D01*
X42152Y-28798D01*
X42152Y-28227D01*
X42114Y-28135D01*
X42043Y-28065D01*
X41951Y-28027D01*
X41852Y-28026D01*
X41778Y-28027D01*
X41716Y-28089D01*
X41716Y-28463D01*
X42089Y-28463D01*
X42152Y-28400D01*
X42152Y-28227D01*
X42152Y-28798D01*
X42152Y-28625D01*
X42089Y-28563D01*
X41716Y-28563D01*
X41716Y-28570D01*
X41616Y-28570D01*
X41616Y-28563D01*
X41616Y-28463D01*
X41616Y-28089D01*
X41553Y-28027D01*
X41479Y-28026D01*
X41380Y-28027D01*
X41288Y-28065D01*
X41217Y-28135D01*
X41179Y-28227D01*
X41180Y-28400D01*
X41242Y-28463D01*
X41616Y-28463D01*
X41616Y-28563D01*
X41242Y-28563D01*
X41180Y-28625D01*
X41179Y-28798D01*
X41217Y-28890D01*
X41253Y-28926D01*
X41218Y-28961D01*
X41180Y-29053D01*
X41179Y-29152D01*
X41179Y-29624D01*
X41217Y-29716D01*
X41288Y-29786D01*
X41292Y-29788D01*
X41223Y-29857D01*
X41185Y-29949D01*
X41184Y-30048D01*
X41184Y-30298D01*
X41222Y-30390D01*
X41256Y-30423D01*
X41223Y-30457D01*
X41185Y-30549D01*
X41184Y-30648D01*
X41184Y-30898D01*
X41222Y-30990D01*
X41293Y-31060D01*
X41385Y-31098D01*
X41392Y-31098D01*
X41392Y-31681D01*
X41382Y-31685D01*
X41228Y-31840D01*
X41194Y-31921D01*
X41160Y-31840D01*
X41005Y-31686D01*
X40972Y-31671D01*
X40972Y-31060D01*
X41010Y-31045D01*
X41080Y-30974D01*
X41118Y-30882D01*
X41119Y-30783D01*
X41119Y-30533D01*
X41081Y-30441D01*
X41047Y-30408D01*
X41080Y-30374D01*
X41118Y-30282D01*
X41119Y-30183D01*
X41119Y-29933D01*
X41081Y-29841D01*
X41025Y-29785D01*
X41091Y-29718D01*
X41129Y-29626D01*
X41130Y-29527D01*
X41130Y-29055D01*
X41092Y-28963D01*
X41056Y-28928D01*
X41092Y-28892D01*
X41130Y-28800D01*
X41130Y-28229D01*
X41128Y-28224D01*
X41128Y-27242D01*
X41119Y-26970D01*
X41032Y-26761D01*
X40923Y-26717D01*
X40852Y-26788D01*
X40852Y-26646D01*
X40808Y-26537D01*
X40554Y-26441D01*
X40282Y-26450D01*
X40073Y-26537D01*
X40029Y-26646D01*
X40441Y-27058D01*
X40852Y-26646D01*
X40852Y-26788D01*
X40511Y-27129D01*
X40923Y-27540D01*
X41032Y-27496D01*
X41128Y-27242D01*
X41128Y-28224D01*
X41092Y-28137D01*
X41021Y-28067D01*
X40929Y-28029D01*
X40852Y-28028D01*
X40852Y-27611D01*
X40441Y-27199D01*
X40370Y-27270D01*
X40370Y-27129D01*
X39958Y-26717D01*
X39849Y-26761D01*
X39753Y-27015D01*
X39762Y-27287D01*
X39849Y-27496D01*
X39958Y-27540D01*
X40370Y-27129D01*
X40370Y-27270D01*
X40029Y-27611D01*
X40073Y-27720D01*
X40327Y-27816D01*
X40599Y-27807D01*
X40808Y-27720D01*
X40852Y-27611D01*
X40852Y-28028D01*
X40830Y-28028D01*
X40756Y-28029D01*
X40694Y-28091D01*
X40694Y-28465D01*
X41067Y-28465D01*
X41130Y-28402D01*
X41130Y-28229D01*
X41130Y-28800D01*
X41130Y-28627D01*
X41067Y-28565D01*
X40694Y-28565D01*
X40694Y-28572D01*
X40594Y-28572D01*
X40594Y-28565D01*
X40594Y-28465D01*
X40594Y-28091D01*
X40531Y-28029D01*
X40457Y-28028D01*
X40358Y-28029D01*
X40266Y-28067D01*
X40195Y-28137D01*
X40157Y-28229D01*
X40158Y-28402D01*
X40220Y-28465D01*
X40594Y-28465D01*
X40594Y-28565D01*
X40220Y-28565D01*
X40158Y-28627D01*
X40157Y-28800D01*
X40195Y-28892D01*
X40231Y-28928D01*
X40196Y-28963D01*
X40158Y-29055D01*
X40157Y-29154D01*
X40157Y-29626D01*
X40195Y-29718D01*
X40262Y-29785D01*
X40207Y-29841D01*
X40169Y-29933D01*
X40168Y-30032D01*
X40168Y-30282D01*
X40206Y-30374D01*
X40240Y-30407D01*
X40207Y-30441D01*
X40169Y-30533D01*
X40168Y-30632D01*
X40168Y-30882D01*
X40206Y-30974D01*
X40277Y-31044D01*
X40369Y-31082D01*
X40392Y-31082D01*
X40392Y-31681D01*
X40382Y-31685D01*
X40228Y-31840D01*
X40194Y-31921D01*
X40160Y-31840D01*
X40005Y-31686D01*
X39972Y-31671D01*
X39972Y-31067D01*
X40030Y-31043D01*
X40100Y-30972D01*
X40138Y-30880D01*
X40139Y-30781D01*
X40139Y-30531D01*
X40101Y-30439D01*
X40067Y-30406D01*
X40100Y-30372D01*
X40138Y-30280D01*
X40139Y-30181D01*
X40139Y-29931D01*
X40101Y-29839D01*
X40039Y-29778D01*
X40047Y-29775D01*
X40117Y-29704D01*
X40155Y-29612D01*
X40156Y-29513D01*
X40156Y-29041D01*
X40118Y-28949D01*
X40082Y-28913D01*
X40118Y-28878D01*
X40156Y-28786D01*
X40156Y-28215D01*
X40118Y-28123D01*
X40047Y-28053D01*
X39955Y-28015D01*
X39856Y-28014D01*
X39782Y-28015D01*
X39720Y-28077D01*
X39720Y-28451D01*
X40093Y-28451D01*
X40156Y-28388D01*
X40156Y-28215D01*
X40156Y-28786D01*
X40156Y-28613D01*
X40093Y-28551D01*
X39720Y-28551D01*
X39720Y-28558D01*
X39620Y-28558D01*
X39620Y-28551D01*
X39620Y-28451D01*
X39620Y-28077D01*
X39557Y-28015D01*
X39483Y-28014D01*
X39384Y-28015D01*
X39292Y-28053D01*
X39221Y-28123D01*
X39183Y-28215D01*
X39184Y-28388D01*
X39246Y-28451D01*
X39620Y-28451D01*
X39620Y-28551D01*
X39246Y-28551D01*
X39184Y-28613D01*
X39183Y-28786D01*
X39221Y-28878D01*
X39257Y-28914D01*
X39222Y-28949D01*
X39184Y-29041D01*
X39183Y-29140D01*
X39183Y-29612D01*
X39221Y-29704D01*
X39291Y-29774D01*
X39227Y-29839D01*
X39189Y-29931D01*
X39188Y-30030D01*
X39188Y-30280D01*
X39226Y-30372D01*
X39260Y-30405D01*
X39227Y-30439D01*
X39189Y-30531D01*
X39188Y-30630D01*
X39188Y-30880D01*
X39226Y-30972D01*
X39297Y-31042D01*
X39389Y-31080D01*
X39392Y-31080D01*
X39392Y-31681D01*
X39382Y-31685D01*
X39228Y-31840D01*
X39144Y-32042D01*
X39143Y-32260D01*
X39227Y-32463D01*
X39382Y-32617D01*
X39404Y-32627D01*
X39404Y-32905D01*
X39092Y-33217D01*
X39092Y-29196D01*
X39067Y-29071D01*
X38996Y-28966D01*
X38891Y-28895D01*
X38767Y-28871D01*
X38305Y-28871D01*
X38305Y-24770D01*
X38559Y-25025D01*
X39013Y-25214D01*
X39504Y-25214D01*
X39958Y-25027D01*
X40305Y-24680D01*
X40494Y-24226D01*
X40494Y-23735D01*
X40307Y-23281D01*
X40050Y-23025D01*
X51658Y-23025D01*
X51403Y-23279D01*
X51214Y-23733D01*
X51214Y-24224D01*
X51401Y-24678D01*
X51678Y-24955D01*
X51564Y-24932D01*
X51143Y-24932D01*
X51108Y-24908D01*
X51082Y-24903D01*
X50956Y-24878D01*
X49770Y-24878D01*
X49742Y-24809D01*
X49671Y-24739D01*
X49579Y-24701D01*
X49480Y-24700D01*
X48280Y-24700D01*
X48188Y-24738D01*
X48118Y-24809D01*
X48080Y-24901D01*
X48079Y-25000D01*
X48079Y-25650D01*
X48117Y-25742D01*
X48188Y-25812D01*
X48280Y-25850D01*
X48379Y-25851D01*
X49579Y-25851D01*
X49671Y-25813D01*
X49741Y-25742D01*
X49770Y-25673D01*
X50568Y-25673D01*
X50534Y-25755D01*
X50535Y-25817D01*
X50597Y-25880D01*
X50960Y-25880D01*
X50960Y-25872D01*
X51060Y-25872D01*
X51060Y-25880D01*
X51422Y-25880D01*
X51485Y-25817D01*
X51485Y-25813D01*
X52088Y-26416D01*
X52088Y-27547D01*
X52081Y-27539D01*
X51924Y-27475D01*
X51862Y-27475D01*
X51862Y-27475D01*
X51800Y-27462D01*
X51690Y-27462D01*
X51690Y-26909D01*
X51690Y-26210D01*
X51652Y-26118D01*
X51581Y-26048D01*
X51489Y-26010D01*
X51452Y-26010D01*
X51422Y-25980D01*
X51060Y-25980D01*
X51060Y-26242D01*
X51090Y-26272D01*
X51090Y-26510D01*
X51627Y-26510D01*
X51690Y-26447D01*
X51690Y-26210D01*
X51690Y-26909D01*
X51690Y-26672D01*
X51627Y-26610D01*
X51090Y-26610D01*
X51090Y-27047D01*
X51152Y-27110D01*
X51390Y-27110D01*
X51489Y-27109D01*
X51581Y-27071D01*
X51652Y-27001D01*
X51690Y-26909D01*
X51690Y-27462D01*
X51670Y-27462D01*
X51652Y-27418D01*
X51581Y-27348D01*
X51489Y-27310D01*
X51390Y-27309D01*
X50990Y-27309D01*
X50990Y-27047D01*
X50990Y-26610D01*
X50990Y-26510D01*
X50990Y-26072D01*
X50960Y-26042D01*
X50960Y-25980D01*
X50597Y-25980D01*
X50551Y-26026D01*
X50498Y-26048D01*
X50427Y-26118D01*
X50389Y-26210D01*
X50390Y-26447D01*
X50452Y-26510D01*
X50990Y-26510D01*
X50990Y-26610D01*
X50452Y-26610D01*
X50390Y-26672D01*
X50389Y-26909D01*
X50427Y-27001D01*
X50498Y-27071D01*
X50590Y-27109D01*
X50689Y-27110D01*
X50927Y-27110D01*
X50990Y-27047D01*
X50990Y-27309D01*
X50590Y-27309D01*
X50498Y-27347D01*
X50428Y-27418D01*
X50409Y-27462D01*
X50224Y-27462D01*
X49780Y-27017D01*
X49780Y-26701D01*
X49742Y-26609D01*
X49671Y-26539D01*
X49579Y-26501D01*
X49480Y-26500D01*
X48280Y-26500D01*
X48188Y-26538D01*
X48118Y-26609D01*
X48080Y-26701D01*
X48079Y-26800D01*
X48079Y-27450D01*
X48117Y-27542D01*
X48188Y-27612D01*
X48280Y-27650D01*
X48379Y-27651D01*
X49288Y-27651D01*
X49778Y-28141D01*
X49778Y-28141D01*
X49907Y-28227D01*
X49907Y-28227D01*
X49933Y-28232D01*
X50060Y-28257D01*
X50409Y-28257D01*
X50427Y-28301D01*
X50498Y-28371D01*
X50590Y-28409D01*
X50689Y-28410D01*
X50787Y-28410D01*
X50887Y-28477D01*
X51040Y-28507D01*
X51192Y-28477D01*
X51292Y-28410D01*
X51489Y-28410D01*
X51581Y-28372D01*
X51651Y-28301D01*
X51658Y-28284D01*
X51755Y-28324D01*
X51924Y-28325D01*
X52080Y-28260D01*
X52088Y-28252D01*
X52088Y-29475D01*
X52088Y-29475D01*
G37*
G54D35*
X52088Y-29475D02*
X50310Y-31253D01*
X50224Y-31382D01*
X50219Y-31407D01*
X50194Y-31534D01*
X50194Y-32444D01*
X50177Y-32404D01*
X50107Y-32334D01*
X50015Y-32295D01*
X49916Y-32295D01*
X49601Y-32295D01*
X49509Y-32333D01*
X49438Y-32404D01*
X49400Y-32496D01*
X49400Y-32595D01*
X49400Y-33208D01*
X49303Y-33111D01*
X49117Y-33034D01*
X48916Y-33033D01*
X48730Y-33110D01*
X48640Y-33200D01*
X48640Y-32495D01*
X48602Y-32404D01*
X48532Y-32333D01*
X48440Y-32295D01*
X48340Y-32295D01*
X48025Y-32295D01*
X47934Y-32333D01*
X47863Y-32403D01*
X47825Y-32495D01*
X47825Y-32595D01*
X47825Y-33203D01*
X47736Y-33114D01*
X47736Y-32428D01*
X47812Y-32397D01*
X47882Y-32326D01*
X47920Y-32234D01*
X47921Y-32135D01*
X47921Y-31885D01*
X47883Y-31793D01*
X47849Y-31760D01*
X47883Y-31726D01*
X47921Y-31634D01*
X47921Y-31285D01*
X47883Y-31193D01*
X47880Y-31190D01*
X47880Y-27425D01*
X47880Y-24926D01*
X47842Y-24834D01*
X47771Y-24764D01*
X47679Y-24726D01*
X47580Y-24725D01*
X46542Y-24726D01*
X46480Y-24788D01*
X46480Y-26126D01*
X47817Y-26126D01*
X47880Y-26063D01*
X47880Y-24926D01*
X47880Y-27425D01*
X47880Y-26288D01*
X47817Y-26226D01*
X46480Y-26226D01*
X46480Y-27563D01*
X46542Y-27626D01*
X47580Y-27626D01*
X47679Y-27625D01*
X47771Y-27587D01*
X47842Y-27517D01*
X47880Y-27425D01*
X47880Y-31190D01*
X47812Y-31123D01*
X47720Y-31085D01*
X47621Y-31084D01*
X47558Y-31085D01*
X47496Y-31147D01*
X47496Y-31410D01*
X47858Y-31410D01*
X47921Y-31347D01*
X47921Y-31285D01*
X47921Y-31634D01*
X47921Y-31572D01*
X47858Y-31510D01*
X47496Y-31510D01*
X47496Y-31517D01*
X47396Y-31517D01*
X47396Y-31510D01*
X47396Y-31410D01*
X47396Y-31147D01*
X47333Y-31085D01*
X47270Y-31084D01*
X47171Y-31085D01*
X47079Y-31123D01*
X47065Y-31136D01*
X47032Y-31103D01*
X46940Y-31065D01*
X46841Y-31064D01*
X46778Y-31065D01*
X46716Y-31127D01*
X46716Y-31390D01*
X47013Y-31390D01*
X47033Y-31410D01*
X47396Y-31410D01*
X47396Y-31510D01*
X47098Y-31510D01*
X47078Y-31490D01*
X46716Y-31490D01*
X46716Y-31497D01*
X46616Y-31497D01*
X46616Y-31490D01*
X46616Y-31390D01*
X46616Y-31127D01*
X46553Y-31065D01*
X46490Y-31064D01*
X46391Y-31065D01*
X46380Y-31069D01*
X46380Y-27563D01*
X46380Y-26226D01*
X46380Y-26126D01*
X46380Y-24788D01*
X46317Y-24726D01*
X45279Y-24725D01*
X45180Y-24726D01*
X45088Y-24764D01*
X45017Y-24834D01*
X44979Y-24926D01*
X44980Y-26063D01*
X45042Y-26126D01*
X46380Y-26126D01*
X46380Y-26226D01*
X45042Y-26226D01*
X44980Y-26288D01*
X44979Y-27425D01*
X45017Y-27517D01*
X45088Y-27587D01*
X45180Y-27625D01*
X45279Y-27626D01*
X46317Y-27626D01*
X46380Y-27563D01*
X46380Y-31069D01*
X46299Y-31103D01*
X46228Y-31173D01*
X46190Y-31265D01*
X46191Y-31327D01*
X46253Y-31390D01*
X46616Y-31390D01*
X46616Y-31490D01*
X46253Y-31490D01*
X46191Y-31552D01*
X46190Y-31614D01*
X46228Y-31706D01*
X46262Y-31739D01*
X46229Y-31773D01*
X46191Y-31865D01*
X46190Y-31964D01*
X46190Y-32214D01*
X46228Y-32306D01*
X46299Y-32376D01*
X46310Y-32381D01*
X46288Y-32403D01*
X46250Y-32495D01*
X46250Y-32595D01*
X46250Y-33231D01*
X46229Y-33253D01*
X46227Y-33257D01*
X46225Y-33256D01*
X46154Y-33327D01*
X46154Y-33185D01*
X46132Y-33095D01*
X45942Y-33029D01*
X45741Y-33040D01*
X45609Y-33095D01*
X45587Y-33185D01*
X45871Y-33469D01*
X46154Y-33185D01*
X46154Y-33327D01*
X46004Y-33477D01*
X45983Y-33477D01*
X45921Y-33540D01*
X45921Y-33571D01*
X45876Y-33616D01*
X45871Y-33610D01*
X45865Y-33616D01*
X45821Y-33571D01*
X45821Y-33540D01*
X45758Y-33477D01*
X45737Y-33477D01*
X45516Y-33256D01*
X45514Y-33257D01*
X45513Y-33253D01*
X45491Y-33232D01*
X45491Y-32495D01*
X45453Y-32404D01*
X45433Y-32383D01*
X45454Y-32375D01*
X45524Y-32304D01*
X45562Y-32212D01*
X45563Y-32113D01*
X45563Y-31863D01*
X45525Y-31771D01*
X45491Y-31737D01*
X45525Y-31704D01*
X45563Y-31612D01*
X45563Y-31263D01*
X45525Y-31171D01*
X45454Y-31101D01*
X45362Y-31063D01*
X45263Y-31062D01*
X45200Y-31063D01*
X45138Y-31125D01*
X45138Y-31388D01*
X45500Y-31388D01*
X45563Y-31325D01*
X45563Y-31263D01*
X45563Y-31612D01*
X45563Y-31550D01*
X45500Y-31488D01*
X45138Y-31488D01*
X45138Y-31495D01*
X45038Y-31495D01*
X45038Y-31488D01*
X45038Y-31388D01*
X45038Y-31125D01*
X44975Y-31063D01*
X44912Y-31062D01*
X44813Y-31063D01*
X44721Y-31101D01*
X44650Y-31171D01*
X44612Y-31263D01*
X44613Y-31325D01*
X44675Y-31388D01*
X45038Y-31388D01*
X45038Y-31488D01*
X44675Y-31488D01*
X44613Y-31550D01*
X44612Y-31612D01*
X44650Y-31704D01*
X44684Y-31737D01*
X44651Y-31771D01*
X44613Y-31863D01*
X44612Y-31962D01*
X44612Y-32212D01*
X44650Y-32304D01*
X44721Y-32374D01*
X44737Y-32381D01*
X44714Y-32403D01*
X44676Y-32495D01*
X44676Y-32595D01*
X44676Y-33204D01*
X44583Y-33111D01*
X44397Y-33034D01*
X44195Y-33033D01*
X44009Y-33110D01*
X43867Y-33253D01*
X43790Y-33438D01*
X43789Y-33640D01*
X43866Y-33826D01*
X43888Y-33847D01*
X43888Y-34042D01*
X43806Y-34009D01*
X43707Y-34008D01*
X43672Y-34009D01*
X43610Y-34071D01*
X43610Y-34406D01*
X43617Y-34406D01*
X43617Y-34506D01*
X43610Y-34506D01*
X43610Y-34513D01*
X43510Y-34513D01*
X43510Y-34506D01*
X43502Y-34506D01*
X43502Y-34406D01*
X43510Y-34406D01*
X43510Y-34071D01*
X43447Y-34009D01*
X43412Y-34008D01*
X43404Y-34008D01*
X43404Y-33426D01*
X43675Y-33155D01*
X43737Y-33060D01*
X43760Y-32950D01*
X43760Y-28432D01*
X43760Y-27944D01*
X43819Y-27854D01*
X43842Y-27744D01*
X43842Y-26304D01*
X43841Y-26303D01*
X43842Y-26303D01*
X43819Y-26193D01*
X43757Y-26098D01*
X43757Y-26098D01*
X43445Y-25787D01*
X43485Y-25691D01*
X43486Y-25419D01*
X43382Y-25168D01*
X43190Y-24976D01*
X42939Y-24872D01*
X42667Y-24871D01*
X42416Y-24975D01*
X42224Y-25167D01*
X42183Y-25265D01*
X41060Y-25265D01*
X41020Y-25168D01*
X40828Y-24976D01*
X40577Y-24872D01*
X40305Y-24871D01*
X40054Y-24975D01*
X39862Y-25167D01*
X39758Y-25418D01*
X39757Y-25690D01*
X39861Y-25941D01*
X40053Y-26133D01*
X40304Y-26237D01*
X40576Y-26238D01*
X40827Y-26134D01*
X41019Y-25942D01*
X41060Y-25845D01*
X42183Y-25845D01*
X42223Y-25941D01*
X42415Y-26133D01*
X42666Y-26237D01*
X42938Y-26238D01*
X43035Y-26197D01*
X43262Y-26424D01*
X43262Y-26604D01*
X43259Y-26601D01*
X43214Y-26646D01*
X43170Y-26537D01*
X42916Y-26441D01*
X42644Y-26450D01*
X42435Y-26537D01*
X42391Y-26646D01*
X42803Y-27058D01*
X42808Y-27052D01*
X42879Y-27123D01*
X42873Y-27129D01*
X42879Y-27134D01*
X42808Y-27205D01*
X42803Y-27199D01*
X42732Y-27270D01*
X42732Y-27129D01*
X42320Y-26717D01*
X42211Y-26761D01*
X42115Y-27015D01*
X42124Y-27287D01*
X42211Y-27496D01*
X42320Y-27540D01*
X42732Y-27129D01*
X42732Y-27270D01*
X42391Y-27611D01*
X42435Y-27720D01*
X42689Y-27816D01*
X42961Y-27807D01*
X43170Y-27720D01*
X43214Y-27611D01*
X43214Y-27611D01*
X43248Y-27645D01*
X43214Y-27696D01*
X43202Y-27715D01*
X43180Y-27826D01*
X43180Y-28432D01*
X43180Y-31684D01*
X43135Y-31640D01*
X43043Y-31602D01*
X42972Y-31601D01*
X42972Y-31095D01*
X43054Y-31061D01*
X43124Y-30990D01*
X43162Y-30898D01*
X43163Y-30799D01*
X43163Y-30549D01*
X43125Y-30457D01*
X43091Y-30424D01*
X43124Y-30390D01*
X43162Y-30298D01*
X43163Y-30199D01*
X43163Y-29949D01*
X43125Y-29857D01*
X43057Y-29790D01*
X43065Y-29787D01*
X43135Y-29716D01*
X43173Y-29624D01*
X43174Y-29525D01*
X43174Y-29053D01*
X43136Y-28961D01*
X43100Y-28926D01*
X43136Y-28890D01*
X43174Y-28798D01*
X43174Y-28227D01*
X43136Y-28135D01*
X43065Y-28065D01*
X42973Y-28027D01*
X42874Y-28026D01*
X42800Y-28027D01*
X42738Y-28089D01*
X42738Y-28463D01*
X43111Y-28463D01*
X43174Y-28400D01*
X43174Y-28227D01*
X43174Y-28798D01*
X43174Y-28625D01*
X43111Y-28563D01*
X42738Y-28563D01*
X42738Y-28570D01*
X42638Y-28570D01*
X42638Y-28563D01*
X42638Y-28463D01*
X42638Y-28089D01*
X42575Y-28027D01*
X42501Y-28026D01*
X42402Y-28027D01*
X42310Y-28065D01*
X42239Y-28135D01*
X42201Y-28227D01*
X42202Y-28400D01*
X42264Y-28463D01*
X42638Y-28463D01*
X42638Y-28563D01*
X42264Y-28563D01*
X42202Y-28625D01*
X42201Y-28798D01*
X42239Y-28890D01*
X42275Y-28926D01*
X42240Y-28961D01*
X42202Y-29053D01*
X42201Y-29152D01*
X42201Y-29624D01*
X42239Y-29716D01*
X42310Y-29786D01*
X42318Y-29790D01*
X42251Y-29857D01*
X42213Y-29949D01*
X42212Y-30048D01*
X42212Y-30298D01*
X42250Y-30390D01*
X42284Y-30423D01*
X42251Y-30457D01*
X42213Y-30549D01*
X42212Y-30648D01*
X42212Y-30898D01*
X42250Y-30990D01*
X42321Y-31060D01*
X42392Y-31090D01*
X42392Y-31601D01*
X42344Y-31601D01*
X42252Y-31639D01*
X42182Y-31710D01*
X42144Y-31802D01*
X42144Y-31824D01*
X42005Y-31686D01*
X41972Y-31671D01*
X41972Y-31083D01*
X42026Y-31061D01*
X42096Y-30990D01*
X42134Y-30898D01*
X42135Y-30799D01*
X42135Y-30549D01*
X42097Y-30457D01*
X42063Y-30424D01*
X42096Y-30390D01*
X42134Y-30298D01*
X42135Y-30199D01*
X42135Y-29949D01*
X42097Y-29857D01*
X42031Y-29791D01*
X42043Y-29787D01*
X42113Y-29716D01*
X42151Y-29624D01*
X42152Y-29525D01*
X42152Y-29053D01*
X42114Y-28961D01*
X42078Y-28926D01*
X42114Y-28890D01*
X42152Y-28798D01*
X42152Y-28227D01*
X42114Y-28135D01*
X42043Y-28065D01*
X41951Y-28027D01*
X41852Y-28026D01*
X41778Y-28027D01*
X41716Y-28089D01*
X41716Y-28463D01*
X42089Y-28463D01*
X42152Y-28400D01*
X42152Y-28227D01*
X42152Y-28798D01*
X42152Y-28625D01*
X42089Y-28563D01*
X41716Y-28563D01*
X41716Y-28570D01*
X41616Y-28570D01*
X41616Y-28563D01*
X41616Y-28463D01*
X41616Y-28089D01*
X41553Y-28027D01*
X41479Y-28026D01*
X41380Y-28027D01*
X41288Y-28065D01*
X41217Y-28135D01*
X41179Y-28227D01*
X41180Y-28400D01*
X41242Y-28463D01*
X41616Y-28463D01*
X41616Y-28563D01*
X41242Y-28563D01*
X41180Y-28625D01*
X41179Y-28798D01*
X41217Y-28890D01*
X41253Y-28926D01*
X41218Y-28961D01*
X41180Y-29053D01*
X41179Y-29152D01*
X41179Y-29624D01*
X41217Y-29716D01*
X41288Y-29786D01*
X41292Y-29788D01*
X41223Y-29857D01*
X41185Y-29949D01*
X41184Y-30048D01*
X41184Y-30298D01*
X41222Y-30390D01*
X41256Y-30423D01*
X41223Y-30457D01*
X41185Y-30549D01*
X41184Y-30648D01*
X41184Y-30898D01*
X41222Y-30990D01*
X41293Y-31060D01*
X41385Y-31098D01*
X41392Y-31098D01*
X41392Y-31681D01*
X41382Y-31685D01*
X41228Y-31840D01*
X41194Y-31921D01*
X41160Y-31840D01*
X41005Y-31686D01*
X40972Y-31671D01*
X40972Y-31060D01*
X41010Y-31045D01*
X41080Y-30974D01*
X41118Y-30882D01*
X41119Y-30783D01*
X41119Y-30533D01*
X41081Y-30441D01*
X41047Y-30408D01*
X41080Y-30374D01*
X41118Y-30282D01*
X41119Y-30183D01*
X41119Y-29933D01*
X41081Y-29841D01*
X41025Y-29785D01*
X41091Y-29718D01*
X41129Y-29626D01*
X41130Y-29527D01*
X41130Y-29055D01*
X41092Y-28963D01*
X41056Y-28928D01*
X41092Y-28892D01*
X41130Y-28800D01*
X41130Y-28229D01*
X41128Y-28224D01*
X41128Y-27242D01*
X41119Y-26970D01*
X41032Y-26761D01*
X40923Y-26717D01*
X40852Y-26788D01*
X40852Y-26646D01*
X40808Y-26537D01*
X40554Y-26441D01*
X40282Y-26450D01*
X40073Y-26537D01*
X40029Y-26646D01*
X40441Y-27058D01*
X40852Y-26646D01*
X40852Y-26788D01*
X40511Y-27129D01*
X40923Y-27540D01*
X41032Y-27496D01*
X41128Y-27242D01*
X41128Y-28224D01*
X41092Y-28137D01*
X41021Y-28067D01*
X40929Y-28029D01*
X40852Y-28028D01*
X40852Y-27611D01*
X40441Y-27199D01*
X40370Y-27270D01*
X40370Y-27129D01*
X39958Y-26717D01*
X39849Y-26761D01*
X39753Y-27015D01*
X39762Y-27287D01*
X39849Y-27496D01*
X39958Y-27540D01*
X40370Y-27129D01*
X40370Y-27270D01*
X40029Y-27611D01*
X40073Y-27720D01*
X40327Y-27816D01*
X40599Y-27807D01*
X40808Y-27720D01*
X40852Y-27611D01*
X40852Y-28028D01*
X40830Y-28028D01*
X40756Y-28029D01*
X40694Y-28091D01*
X40694Y-28465D01*
X41067Y-28465D01*
X41130Y-28402D01*
X41130Y-28229D01*
X41130Y-28800D01*
X41130Y-28627D01*
X41067Y-28565D01*
X40694Y-28565D01*
X40694Y-28572D01*
X40594Y-28572D01*
X40594Y-28565D01*
X40594Y-28465D01*
X40594Y-28091D01*
X40531Y-28029D01*
X40457Y-28028D01*
X40358Y-28029D01*
X40266Y-28067D01*
X40195Y-28137D01*
X40157Y-28229D01*
X40158Y-28402D01*
X40220Y-28465D01*
X40594Y-28465D01*
X40594Y-28565D01*
X40220Y-28565D01*
X40158Y-28627D01*
X40157Y-28800D01*
X40195Y-28892D01*
X40231Y-28928D01*
X40196Y-28963D01*
X40158Y-29055D01*
X40157Y-29154D01*
X40157Y-29626D01*
X40195Y-29718D01*
X40262Y-29785D01*
X40207Y-29841D01*
X40169Y-29933D01*
X40168Y-30032D01*
X40168Y-30282D01*
X40206Y-30374D01*
X40240Y-30407D01*
X40207Y-30441D01*
X40169Y-30533D01*
X40168Y-30632D01*
X40168Y-30882D01*
X40206Y-30974D01*
X40277Y-31044D01*
X40369Y-31082D01*
X40392Y-31082D01*
X40392Y-31681D01*
X40382Y-31685D01*
X40228Y-31840D01*
X40194Y-31921D01*
X40160Y-31840D01*
X40005Y-31686D01*
X39972Y-31671D01*
X39972Y-31067D01*
X40030Y-31043D01*
X40100Y-30972D01*
X40138Y-30880D01*
X40139Y-30781D01*
X40139Y-30531D01*
X40101Y-30439D01*
X40067Y-30406D01*
X40100Y-30372D01*
X40138Y-30280D01*
X40139Y-30181D01*
X40139Y-29931D01*
X40101Y-29839D01*
X40039Y-29778D01*
X40047Y-29775D01*
X40117Y-29704D01*
X40155Y-29612D01*
X40156Y-29513D01*
X40156Y-29041D01*
X40118Y-28949D01*
X40082Y-28913D01*
X40118Y-28878D01*
X40156Y-28786D01*
X40156Y-28215D01*
X40118Y-28123D01*
X40047Y-28053D01*
X39955Y-28015D01*
X39856Y-28014D01*
X39782Y-28015D01*
X39720Y-28077D01*
X39720Y-28451D01*
X40093Y-28451D01*
X40156Y-28388D01*
X40156Y-28215D01*
X40156Y-28786D01*
X40156Y-28613D01*
X40093Y-28551D01*
X39720Y-28551D01*
X39720Y-28558D01*
X39620Y-28558D01*
X39620Y-28551D01*
X39620Y-28451D01*
X39620Y-28077D01*
X39557Y-28015D01*
X39483Y-28014D01*
X39384Y-28015D01*
X39292Y-28053D01*
X39221Y-28123D01*
X39183Y-28215D01*
X39184Y-28388D01*
X39246Y-28451D01*
X39620Y-28451D01*
X39620Y-28551D01*
X39246Y-28551D01*
X39184Y-28613D01*
X39183Y-28786D01*
X39221Y-28878D01*
X39257Y-28914D01*
X39222Y-28949D01*
X39184Y-29041D01*
X39183Y-29140D01*
X39183Y-29612D01*
X39221Y-29704D01*
X39291Y-29774D01*
X39227Y-29839D01*
X39189Y-29931D01*
X39188Y-30030D01*
X39188Y-30280D01*
X39226Y-30372D01*
X39260Y-30405D01*
X39227Y-30439D01*
X39189Y-30531D01*
X39188Y-30630D01*
X39188Y-30880D01*
X39226Y-30972D01*
X39297Y-31042D01*
X39389Y-31080D01*
X39392Y-31080D01*
X39392Y-31681D01*
X39382Y-31685D01*
X39228Y-31840D01*
X39144Y-32042D01*
X39143Y-32260D01*
X39227Y-32463D01*
X39382Y-32617D01*
X39404Y-32627D01*
X39404Y-32905D01*
X39092Y-33217D01*
X39092Y-29196D01*
X39067Y-29071D01*
X38996Y-28966D01*
X38891Y-28895D01*
X38767Y-28871D01*
X38305Y-28871D01*
X38305Y-24770D01*
X38559Y-25025D01*
X39013Y-25214D01*
X39504Y-25214D01*
X39958Y-25027D01*
X40305Y-24680D01*
X40494Y-24226D01*
X40494Y-23735D01*
X40307Y-23281D01*
X40050Y-23025D01*
X51658Y-23025D01*
X51403Y-23279D01*
X51214Y-23733D01*
X51214Y-24224D01*
X51401Y-24678D01*
X51678Y-24955D01*
X51564Y-24932D01*
X51143Y-24932D01*
X51108Y-24908D01*
X51082Y-24903D01*
X50956Y-24878D01*
X49770Y-24878D01*
X49742Y-24809D01*
X49671Y-24739D01*
X49579Y-24701D01*
X49480Y-24700D01*
X48280Y-24700D01*
X48188Y-24738D01*
X48118Y-24809D01*
X48080Y-24901D01*
X48079Y-25000D01*
X48079Y-25650D01*
X48117Y-25742D01*
X48188Y-25812D01*
X48280Y-25850D01*
X48379Y-25851D01*
X49579Y-25851D01*
X49671Y-25813D01*
X49741Y-25742D01*
X49770Y-25673D01*
X50568Y-25673D01*
X50534Y-25755D01*
X50535Y-25817D01*
X50597Y-25880D01*
X50960Y-25880D01*
X50960Y-25872D01*
X51060Y-25872D01*
X51060Y-25880D01*
X51422Y-25880D01*
X51485Y-25817D01*
X51485Y-25813D01*
X52088Y-26416D01*
X52088Y-27547D01*
X52081Y-27539D01*
X51924Y-27475D01*
X51862Y-27475D01*
X51862Y-27475D01*
X51800Y-27462D01*
X51690Y-27462D01*
X51690Y-26909D01*
X51690Y-26210D01*
X51652Y-26118D01*
X51581Y-26048D01*
X51489Y-26010D01*
X51452Y-26010D01*
X51422Y-25980D01*
X51060Y-25980D01*
X51060Y-26242D01*
X51090Y-26272D01*
X51090Y-26510D01*
X51627Y-26510D01*
X51690Y-26447D01*
X51690Y-26210D01*
X51690Y-26909D01*
X51690Y-26672D01*
X51627Y-26610D01*
X51090Y-26610D01*
X51090Y-27047D01*
X51152Y-27110D01*
X51390Y-27110D01*
X51489Y-27109D01*
X51581Y-27071D01*
X51652Y-27001D01*
X51690Y-26909D01*
X51690Y-27462D01*
X51670Y-27462D01*
X51652Y-27418D01*
X51581Y-27348D01*
X51489Y-27310D01*
X51390Y-27309D01*
X50990Y-27309D01*
X50990Y-27047D01*
X50990Y-26610D01*
X50990Y-26510D01*
X50990Y-26072D01*
X50960Y-26042D01*
X50960Y-25980D01*
X50597Y-25980D01*
X50551Y-26026D01*
X50498Y-26048D01*
X50427Y-26118D01*
X50389Y-26210D01*
X50390Y-26447D01*
X50452Y-26510D01*
X50990Y-26510D01*
X50990Y-26610D01*
X50452Y-26610D01*
X50390Y-26672D01*
X50389Y-26909D01*
X50427Y-27001D01*
X50498Y-27071D01*
X50590Y-27109D01*
X50689Y-27110D01*
X50927Y-27110D01*
X50990Y-27047D01*
X50990Y-27309D01*
X50590Y-27309D01*
X50498Y-27347D01*
X50428Y-27418D01*
X50409Y-27462D01*
X50224Y-27462D01*
X49780Y-27017D01*
X49780Y-26701D01*
X49742Y-26609D01*
X49671Y-26539D01*
X49579Y-26501D01*
X49480Y-26500D01*
X48280Y-26500D01*
X48188Y-26538D01*
X48118Y-26609D01*
X48080Y-26701D01*
X48079Y-26800D01*
X48079Y-27450D01*
X48117Y-27542D01*
X48188Y-27612D01*
X48280Y-27650D01*
X48379Y-27651D01*
X49288Y-27651D01*
X49778Y-28141D01*
X49778Y-28141D01*
X49907Y-28227D01*
X49907Y-28227D01*
X49933Y-28232D01*
X50060Y-28257D01*
X50409Y-28257D01*
X50427Y-28301D01*
X50498Y-28371D01*
X50590Y-28409D01*
X50689Y-28410D01*
X50787Y-28410D01*
X50887Y-28477D01*
X51040Y-28507D01*
X51192Y-28477D01*
X51292Y-28410D01*
X51489Y-28410D01*
X51581Y-28372D01*
X51651Y-28301D01*
X51658Y-28284D01*
X51755Y-28324D01*
X51924Y-28325D01*
X52080Y-28260D01*
X52088Y-28252D01*
X52088Y-29475D01*
G54D10*
G36*
X52615Y-33010D02*
X52589Y-33000D01*
X52490Y-32999D01*
X51690Y-32999D01*
X51598Y-33037D01*
X51528Y-33108D01*
X51513Y-33142D01*
X50989Y-33142D01*
X50989Y-31698D01*
X52615Y-30072D01*
X52615Y-33010D01*
X52615Y-33010D01*
G37*
G54D35*
X52615Y-33010D02*
X52589Y-33000D01*
X52490Y-32999D01*
X51690Y-32999D01*
X51598Y-33037D01*
X51528Y-33108D01*
X51513Y-33142D01*
X50989Y-33142D01*
X50989Y-31698D01*
X52615Y-30072D01*
X52615Y-33010D01*
G54D10*
G36*
X52615Y-36992D02*
X52489Y-36866D01*
X52287Y-36782D01*
X52090Y-36781D01*
X52090Y-35337D01*
X52090Y-34900D01*
X52090Y-34800D01*
X52090Y-34362D01*
X52027Y-34300D01*
X51789Y-34299D01*
X51690Y-34300D01*
X51598Y-34338D01*
X51527Y-34408D01*
X51489Y-34500D01*
X51490Y-34737D01*
X51552Y-34800D01*
X52090Y-34800D01*
X52090Y-34900D01*
X51552Y-34900D01*
X51490Y-34962D01*
X51489Y-35199D01*
X51527Y-35291D01*
X51598Y-35361D01*
X51690Y-35399D01*
X51789Y-35400D01*
X52027Y-35400D01*
X52090Y-35337D01*
X52090Y-36781D01*
X52069Y-36781D01*
X51866Y-36865D01*
X51712Y-37020D01*
X51678Y-37101D01*
X51644Y-37020D01*
X51489Y-36866D01*
X51287Y-36782D01*
X51069Y-36781D01*
X50866Y-36865D01*
X50727Y-37004D01*
X50727Y-36982D01*
X50689Y-36890D01*
X50619Y-36819D01*
X50527Y-36781D01*
X50290Y-36782D01*
X50228Y-36844D01*
X50228Y-37282D01*
X50235Y-37282D01*
X50235Y-37382D01*
X50228Y-37382D01*
X50228Y-37389D01*
X50128Y-37389D01*
X50128Y-37382D01*
X50128Y-37282D01*
X50128Y-36844D01*
X50065Y-36782D01*
X49828Y-36781D01*
X49736Y-36819D01*
X49666Y-36890D01*
X49628Y-36982D01*
X49627Y-37081D01*
X49628Y-37219D01*
X49690Y-37282D01*
X50128Y-37282D01*
X50128Y-37382D01*
X49690Y-37382D01*
X49628Y-37444D01*
X49627Y-37582D01*
X49628Y-37681D01*
X49666Y-37773D01*
X49736Y-37844D01*
X49828Y-37882D01*
X49923Y-37882D01*
X49894Y-37893D01*
X49824Y-37964D01*
X49786Y-38056D01*
X49785Y-38155D01*
X49786Y-38393D01*
X49848Y-38456D01*
X50286Y-38456D01*
X50286Y-38448D01*
X50386Y-38448D01*
X50386Y-38456D01*
X50823Y-38456D01*
X50886Y-38393D01*
X50886Y-38312D01*
X50896Y-38329D01*
X51085Y-38518D01*
X51085Y-38955D01*
X51123Y-39047D01*
X51172Y-39096D01*
X51172Y-39249D01*
X50970Y-39165D01*
X50886Y-39165D01*
X50886Y-38856D01*
X50886Y-38618D01*
X50823Y-38556D01*
X50386Y-38556D01*
X50386Y-39093D01*
X50448Y-39156D01*
X50685Y-39156D01*
X50777Y-39118D01*
X50847Y-39047D01*
X50885Y-38955D01*
X50886Y-38856D01*
X50886Y-39165D01*
X50730Y-39165D01*
X50508Y-39257D01*
X50337Y-39427D01*
X50286Y-39552D01*
X50286Y-39093D01*
X50286Y-38556D01*
X49848Y-38556D01*
X49786Y-38618D01*
X49785Y-38856D01*
X49786Y-38955D01*
X49824Y-39047D01*
X49894Y-39118D01*
X49986Y-39156D01*
X50223Y-39156D01*
X50286Y-39093D01*
X50286Y-39552D01*
X50245Y-39649D01*
X50245Y-39889D01*
X50337Y-40111D01*
X50507Y-40282D01*
X50515Y-40285D01*
X50495Y-40344D01*
X50850Y-40699D01*
X50855Y-40693D01*
X50926Y-40764D01*
X50920Y-40770D01*
X50926Y-40775D01*
X50855Y-40846D01*
X50850Y-40840D01*
X50779Y-40911D01*
X50779Y-40770D01*
X50424Y-40415D01*
X50323Y-40449D01*
X50241Y-40675D01*
X50251Y-40915D01*
X50323Y-41090D01*
X50424Y-41124D01*
X50779Y-40770D01*
X50779Y-40911D01*
X50495Y-41195D01*
X50515Y-41254D01*
X50508Y-41257D01*
X50392Y-41372D01*
X50196Y-41372D01*
X50069Y-41397D01*
X50043Y-41402D01*
X49914Y-41488D01*
X49799Y-41604D01*
X49799Y-41407D01*
X49799Y-41112D01*
X49798Y-41013D01*
X49760Y-40921D01*
X49690Y-40850D01*
X49598Y-40812D01*
X49523Y-40813D01*
X49461Y-40875D01*
X49461Y-41210D01*
X49736Y-41210D01*
X49799Y-41147D01*
X49799Y-41112D01*
X49799Y-41407D01*
X49799Y-41372D01*
X49736Y-41310D01*
X49461Y-41310D01*
X49461Y-41644D01*
X49523Y-41707D01*
X49598Y-41707D01*
X49690Y-41669D01*
X49760Y-41598D01*
X49798Y-41506D01*
X49799Y-41407D01*
X49799Y-41604D01*
X49541Y-41862D01*
X49327Y-41862D01*
X49315Y-41851D01*
X49223Y-41813D01*
X49124Y-41812D01*
X48848Y-41812D01*
X48756Y-41850D01*
X48686Y-41921D01*
X48648Y-42013D01*
X48647Y-42112D01*
X48647Y-42133D01*
X48542Y-42028D01*
X48088Y-41839D01*
X47597Y-41839D01*
X47143Y-42026D01*
X46943Y-42226D01*
X46931Y-42195D01*
X46897Y-42162D01*
X46930Y-42128D01*
X46968Y-42036D01*
X46969Y-41937D01*
X46969Y-41687D01*
X46956Y-41655D01*
X46956Y-41316D01*
X46956Y-41216D01*
X46956Y-40853D01*
X46893Y-40791D01*
X46831Y-40790D01*
X46739Y-40828D01*
X46669Y-40899D01*
X46631Y-40991D01*
X46630Y-41090D01*
X46631Y-41153D01*
X46693Y-41216D01*
X46956Y-41216D01*
X46956Y-41316D01*
X46693Y-41316D01*
X46631Y-41378D01*
X46630Y-41441D01*
X46630Y-41486D01*
X46219Y-41486D01*
X46127Y-41524D01*
X46057Y-41595D01*
X46040Y-41636D01*
X46008Y-41656D01*
X46008Y-41656D01*
X45994Y-41671D01*
X46019Y-41609D01*
X46020Y-41391D01*
X45936Y-41188D01*
X45781Y-41034D01*
X45760Y-41024D01*
X45760Y-40962D01*
X45824Y-40963D01*
X46274Y-40963D01*
X46366Y-40925D01*
X46436Y-40854D01*
X46464Y-40787D01*
X46859Y-40392D01*
X46859Y-40498D01*
X46943Y-40701D01*
X47075Y-40833D01*
X47056Y-40853D01*
X47056Y-41216D01*
X47063Y-41216D01*
X47063Y-41316D01*
X47056Y-41316D01*
X47056Y-41678D01*
X47118Y-41741D01*
X47180Y-41741D01*
X47272Y-41703D01*
X47305Y-41669D01*
X47339Y-41702D01*
X47431Y-41740D01*
X47530Y-41741D01*
X47780Y-41741D01*
X47872Y-41703D01*
X47912Y-41663D01*
X48086Y-41663D01*
X48086Y-41663D01*
X48116Y-41657D01*
X48116Y-41657D01*
X48369Y-41657D01*
X48381Y-41668D01*
X48473Y-41706D01*
X48572Y-41707D01*
X48848Y-41707D01*
X48940Y-41669D01*
X49010Y-41598D01*
X49036Y-41538D01*
X49061Y-41598D01*
X49131Y-41669D01*
X49223Y-41707D01*
X49298Y-41707D01*
X49361Y-41644D01*
X49361Y-41310D01*
X49353Y-41310D01*
X49353Y-41210D01*
X49361Y-41210D01*
X49361Y-40875D01*
X49298Y-40813D01*
X49223Y-40812D01*
X49131Y-40850D01*
X49061Y-40921D01*
X49035Y-40981D01*
X49011Y-40921D01*
X48940Y-40851D01*
X48913Y-40839D01*
X48921Y-40831D01*
X48959Y-40739D01*
X48960Y-40675D01*
X49046Y-40657D01*
X49141Y-40595D01*
X49451Y-40285D01*
X49451Y-40285D01*
X49451Y-40285D01*
X49513Y-40190D01*
X49536Y-40080D01*
X49535Y-40080D01*
X49536Y-40080D01*
X49536Y-37832D01*
X49535Y-37831D01*
X49536Y-37831D01*
X49513Y-37721D01*
X49451Y-37626D01*
X49451Y-37626D01*
X49442Y-37618D01*
X49442Y-36600D01*
X49442Y-36359D01*
X49380Y-36297D01*
X49085Y-36297D01*
X49085Y-36838D01*
X49147Y-36900D01*
X49242Y-36900D01*
X49333Y-36862D01*
X49404Y-36792D01*
X49442Y-36700D01*
X49442Y-36600D01*
X49442Y-37618D01*
X48985Y-37160D01*
X48985Y-36838D01*
X48985Y-36297D01*
X48690Y-36297D01*
X48627Y-36359D01*
X48627Y-36600D01*
X48627Y-36700D01*
X48665Y-36792D01*
X48736Y-36862D01*
X48827Y-36900D01*
X48922Y-36900D01*
X48985Y-36838D01*
X48985Y-37160D01*
X48789Y-36964D01*
X48694Y-36902D01*
X48584Y-36880D01*
X47820Y-36880D01*
X47780Y-36840D01*
X47829Y-36792D01*
X47867Y-36700D01*
X47867Y-36600D01*
X47867Y-35992D01*
X47960Y-36084D01*
X48145Y-36161D01*
X48347Y-36162D01*
X48533Y-36085D01*
X48627Y-35991D01*
X48627Y-36134D01*
X48690Y-36197D01*
X48985Y-36197D01*
X48985Y-36165D01*
X49085Y-36159D01*
X49085Y-36197D01*
X49380Y-36197D01*
X49442Y-36134D01*
X49442Y-35982D01*
X49535Y-36074D01*
X49720Y-36151D01*
X49922Y-36152D01*
X50108Y-36075D01*
X50250Y-35933D01*
X50327Y-35747D01*
X50328Y-35545D01*
X50251Y-35359D01*
X50229Y-35338D01*
X50229Y-35219D01*
X50665Y-34784D01*
X50802Y-34784D01*
X50894Y-34746D01*
X50964Y-34675D01*
X51003Y-34583D01*
X51003Y-34484D01*
X51003Y-33937D01*
X51505Y-33937D01*
X51527Y-33991D01*
X51598Y-34061D01*
X51690Y-34099D01*
X51789Y-34100D01*
X52589Y-34100D01*
X52615Y-34089D01*
X52615Y-34310D01*
X52589Y-34300D01*
X52490Y-34299D01*
X52252Y-34300D01*
X52190Y-34362D01*
X52190Y-34800D01*
X52197Y-34800D01*
X52197Y-34900D01*
X52190Y-34900D01*
X52190Y-35337D01*
X52252Y-35400D01*
X52490Y-35400D01*
X52589Y-35399D01*
X52615Y-35389D01*
X52615Y-36992D01*
X52615Y-36992D01*
G37*
G54D35*
X52615Y-36992D02*
X52489Y-36866D01*
X52287Y-36782D01*
X52090Y-36781D01*
X52090Y-35337D01*
X52090Y-34900D01*
X52090Y-34800D01*
X52090Y-34362D01*
X52027Y-34300D01*
X51789Y-34299D01*
X51690Y-34300D01*
X51598Y-34338D01*
X51527Y-34408D01*
X51489Y-34500D01*
X51490Y-34737D01*
X51552Y-34800D01*
X52090Y-34800D01*
X52090Y-34900D01*
X51552Y-34900D01*
X51490Y-34962D01*
X51489Y-35199D01*
X51527Y-35291D01*
X51598Y-35361D01*
X51690Y-35399D01*
X51789Y-35400D01*
X52027Y-35400D01*
X52090Y-35337D01*
X52090Y-36781D01*
X52069Y-36781D01*
X51866Y-36865D01*
X51712Y-37020D01*
X51678Y-37101D01*
X51644Y-37020D01*
X51489Y-36866D01*
X51287Y-36782D01*
X51069Y-36781D01*
X50866Y-36865D01*
X50727Y-37004D01*
X50727Y-36982D01*
X50689Y-36890D01*
X50619Y-36819D01*
X50527Y-36781D01*
X50290Y-36782D01*
X50228Y-36844D01*
X50228Y-37282D01*
X50235Y-37282D01*
X50235Y-37382D01*
X50228Y-37382D01*
X50228Y-37389D01*
X50128Y-37389D01*
X50128Y-37382D01*
X50128Y-37282D01*
X50128Y-36844D01*
X50065Y-36782D01*
X49828Y-36781D01*
X49736Y-36819D01*
X49666Y-36890D01*
X49628Y-36982D01*
X49627Y-37081D01*
X49628Y-37219D01*
X49690Y-37282D01*
X50128Y-37282D01*
X50128Y-37382D01*
X49690Y-37382D01*
X49628Y-37444D01*
X49627Y-37582D01*
X49628Y-37681D01*
X49666Y-37773D01*
X49736Y-37844D01*
X49828Y-37882D01*
X49923Y-37882D01*
X49894Y-37893D01*
X49824Y-37964D01*
X49786Y-38056D01*
X49785Y-38155D01*
X49786Y-38393D01*
X49848Y-38456D01*
X50286Y-38456D01*
X50286Y-38448D01*
X50386Y-38448D01*
X50386Y-38456D01*
X50823Y-38456D01*
X50886Y-38393D01*
X50886Y-38312D01*
X50896Y-38329D01*
X51085Y-38518D01*
X51085Y-38955D01*
X51123Y-39047D01*
X51172Y-39096D01*
X51172Y-39249D01*
X50970Y-39165D01*
X50886Y-39165D01*
X50886Y-38856D01*
X50886Y-38618D01*
X50823Y-38556D01*
X50386Y-38556D01*
X50386Y-39093D01*
X50448Y-39156D01*
X50685Y-39156D01*
X50777Y-39118D01*
X50847Y-39047D01*
X50885Y-38955D01*
X50886Y-38856D01*
X50886Y-39165D01*
X50730Y-39165D01*
X50508Y-39257D01*
X50337Y-39427D01*
X50286Y-39552D01*
X50286Y-39093D01*
X50286Y-38556D01*
X49848Y-38556D01*
X49786Y-38618D01*
X49785Y-38856D01*
X49786Y-38955D01*
X49824Y-39047D01*
X49894Y-39118D01*
X49986Y-39156D01*
X50223Y-39156D01*
X50286Y-39093D01*
X50286Y-39552D01*
X50245Y-39649D01*
X50245Y-39889D01*
X50337Y-40111D01*
X50507Y-40282D01*
X50515Y-40285D01*
X50495Y-40344D01*
X50850Y-40699D01*
X50855Y-40693D01*
X50926Y-40764D01*
X50920Y-40770D01*
X50926Y-40775D01*
X50855Y-40846D01*
X50850Y-40840D01*
X50779Y-40911D01*
X50779Y-40770D01*
X50424Y-40415D01*
X50323Y-40449D01*
X50241Y-40675D01*
X50251Y-40915D01*
X50323Y-41090D01*
X50424Y-41124D01*
X50779Y-40770D01*
X50779Y-40911D01*
X50495Y-41195D01*
X50515Y-41254D01*
X50508Y-41257D01*
X50392Y-41372D01*
X50196Y-41372D01*
X50069Y-41397D01*
X50043Y-41402D01*
X49914Y-41488D01*
X49799Y-41604D01*
X49799Y-41407D01*
X49799Y-41112D01*
X49798Y-41013D01*
X49760Y-40921D01*
X49690Y-40850D01*
X49598Y-40812D01*
X49523Y-40813D01*
X49461Y-40875D01*
X49461Y-41210D01*
X49736Y-41210D01*
X49799Y-41147D01*
X49799Y-41112D01*
X49799Y-41407D01*
X49799Y-41372D01*
X49736Y-41310D01*
X49461Y-41310D01*
X49461Y-41644D01*
X49523Y-41707D01*
X49598Y-41707D01*
X49690Y-41669D01*
X49760Y-41598D01*
X49798Y-41506D01*
X49799Y-41407D01*
X49799Y-41604D01*
X49541Y-41862D01*
X49327Y-41862D01*
X49315Y-41851D01*
X49223Y-41813D01*
X49124Y-41812D01*
X48848Y-41812D01*
X48756Y-41850D01*
X48686Y-41921D01*
X48648Y-42013D01*
X48647Y-42112D01*
X48647Y-42133D01*
X48542Y-42028D01*
X48088Y-41839D01*
X47597Y-41839D01*
X47143Y-42026D01*
X46943Y-42226D01*
X46931Y-42195D01*
X46897Y-42162D01*
X46930Y-42128D01*
X46968Y-42036D01*
X46969Y-41937D01*
X46969Y-41687D01*
X46956Y-41655D01*
X46956Y-41316D01*
X46956Y-41216D01*
X46956Y-40853D01*
X46893Y-40791D01*
X46831Y-40790D01*
X46739Y-40828D01*
X46669Y-40899D01*
X46631Y-40991D01*
X46630Y-41090D01*
X46631Y-41153D01*
X46693Y-41216D01*
X46956Y-41216D01*
X46956Y-41316D01*
X46693Y-41316D01*
X46631Y-41378D01*
X46630Y-41441D01*
X46630Y-41486D01*
X46219Y-41486D01*
X46127Y-41524D01*
X46057Y-41595D01*
X46040Y-41636D01*
X46008Y-41656D01*
X46008Y-41656D01*
X45994Y-41671D01*
X46019Y-41609D01*
X46020Y-41391D01*
X45936Y-41188D01*
X45781Y-41034D01*
X45760Y-41024D01*
X45760Y-40962D01*
X45824Y-40963D01*
X46274Y-40963D01*
X46366Y-40925D01*
X46436Y-40854D01*
X46464Y-40787D01*
X46859Y-40392D01*
X46859Y-40498D01*
X46943Y-40701D01*
X47075Y-40833D01*
X47056Y-40853D01*
X47056Y-41216D01*
X47063Y-41216D01*
X47063Y-41316D01*
X47056Y-41316D01*
X47056Y-41678D01*
X47118Y-41741D01*
X47180Y-41741D01*
X47272Y-41703D01*
X47305Y-41669D01*
X47339Y-41702D01*
X47431Y-41740D01*
X47530Y-41741D01*
X47780Y-41741D01*
X47872Y-41703D01*
X47912Y-41663D01*
X48086Y-41663D01*
X48086Y-41663D01*
X48116Y-41657D01*
X48116Y-41657D01*
X48369Y-41657D01*
X48381Y-41668D01*
X48473Y-41706D01*
X48572Y-41707D01*
X48848Y-41707D01*
X48940Y-41669D01*
X49010Y-41598D01*
X49036Y-41538D01*
X49061Y-41598D01*
X49131Y-41669D01*
X49223Y-41707D01*
X49298Y-41707D01*
X49361Y-41644D01*
X49361Y-41310D01*
X49353Y-41310D01*
X49353Y-41210D01*
X49361Y-41210D01*
X49361Y-40875D01*
X49298Y-40813D01*
X49223Y-40812D01*
X49131Y-40850D01*
X49061Y-40921D01*
X49035Y-40981D01*
X49011Y-40921D01*
X48940Y-40851D01*
X48913Y-40839D01*
X48921Y-40831D01*
X48959Y-40739D01*
X48960Y-40675D01*
X49046Y-40657D01*
X49141Y-40595D01*
X49451Y-40285D01*
X49451Y-40285D01*
X49451Y-40285D01*
X49513Y-40190D01*
X49536Y-40080D01*
X49535Y-40080D01*
X49536Y-40080D01*
X49536Y-37832D01*
X49535Y-37831D01*
X49536Y-37831D01*
X49513Y-37721D01*
X49451Y-37626D01*
X49451Y-37626D01*
X49442Y-37618D01*
X49442Y-36600D01*
X49442Y-36359D01*
X49380Y-36297D01*
X49085Y-36297D01*
X49085Y-36838D01*
X49147Y-36900D01*
X49242Y-36900D01*
X49333Y-36862D01*
X49404Y-36792D01*
X49442Y-36700D01*
X49442Y-36600D01*
X49442Y-37618D01*
X48985Y-37160D01*
X48985Y-36838D01*
X48985Y-36297D01*
X48690Y-36297D01*
X48627Y-36359D01*
X48627Y-36600D01*
X48627Y-36700D01*
X48665Y-36792D01*
X48736Y-36862D01*
X48827Y-36900D01*
X48922Y-36900D01*
X48985Y-36838D01*
X48985Y-37160D01*
X48789Y-36964D01*
X48694Y-36902D01*
X48584Y-36880D01*
X47820Y-36880D01*
X47780Y-36840D01*
X47829Y-36792D01*
X47867Y-36700D01*
X47867Y-36600D01*
X47867Y-35992D01*
X47960Y-36084D01*
X48145Y-36161D01*
X48347Y-36162D01*
X48533Y-36085D01*
X48627Y-35991D01*
X48627Y-36134D01*
X48690Y-36197D01*
X48985Y-36197D01*
X48985Y-36165D01*
X49085Y-36159D01*
X49085Y-36197D01*
X49380Y-36197D01*
X49442Y-36134D01*
X49442Y-35982D01*
X49535Y-36074D01*
X49720Y-36151D01*
X49922Y-36152D01*
X50108Y-36075D01*
X50250Y-35933D01*
X50327Y-35747D01*
X50328Y-35545D01*
X50251Y-35359D01*
X50229Y-35338D01*
X50229Y-35219D01*
X50665Y-34784D01*
X50802Y-34784D01*
X50894Y-34746D01*
X50964Y-34675D01*
X51003Y-34583D01*
X51003Y-34484D01*
X51003Y-33937D01*
X51505Y-33937D01*
X51527Y-33991D01*
X51598Y-34061D01*
X51690Y-34099D01*
X51789Y-34100D01*
X52589Y-34100D01*
X52615Y-34089D01*
X52615Y-34310D01*
X52589Y-34300D01*
X52490Y-34299D01*
X52252Y-34300D01*
X52190Y-34362D01*
X52190Y-34800D01*
X52197Y-34800D01*
X52197Y-34900D01*
X52190Y-34900D01*
X52190Y-35337D01*
X52252Y-35400D01*
X52490Y-35400D01*
X52589Y-35399D01*
X52615Y-35389D01*
X52615Y-36992D01*
M02*
