  0
SECTION
  2
HEADER
  9
$ACADVER
  1
AC1021
  9
$ACADMAINTVER
 70
    25
  9
$DWGCODEPAGE
  3
ANSI_1252
  9
$INSBASE
 10
0.0
 20
0.0
 30
0.0
  9
$EXTMIN
 10
-15.67787
 20
-13.11294
 30
0.0
  9
$EXTMAX
 10
13.85928
 20
10.38737
 30
0.0
  9
$LIMMIN
 10
0.0
 20
0.0
  9
$LIMMAX
 10
12.0
 20
9.0
  9
$ORTHOMODE
 70
     0
  9
$REGENMODE
 70
     1
  9
$FILLMODE
 70
     1
  9
$QTEXTMODE
 70
     0
  9
$MIRRTEXT
 70
     1
  9
$LTSCALE
 40
1.0
  9
$ATTMODE
 70
     1
  9
$TEXTSIZE
 40
0.2
  9
$TRACEWID
 40
0.05
  9
$TEXTSTYLE
  7
Standard
  9
$CLAYER
  8
0
  9
$CELTYPE
  6
ByLayer
  9
$CECOLOR
 62
   256
  9
$CELTSCALE
 40
1.0
  9
$DISPSILH
 70
     0
  9
$DIMSCALE
 40
1.0
  9
$DIMASZ
 40
0.18
  9
$DIMEXO
 40
0.0625
  9
$DIMDLI
 40
0.38
  9
$DIMRND
 40
0.0
  9
$DIMDLE
 40
0.0
  9
$DIMEXE
 40
0.18
  9
$DIMTP
 40
0.0
  9
$DIMTM
 40
0.0
  9
$DIMTXT
 40
0.18
  9
$DIMCEN
 40
0.09
  9
$DIMTSZ
 40
0.0
  9
$DIMTOL
 70
     0
  9
$DIMLIM
 70
     0
  9
$DIMTIH
 70
     1
  9
$DIMTOH
 70
     1
  9
$DIMSE1
 70
     0
  9
$DIMSE2
 70
     0
  9
$DIMTAD
 70
     0
  9
$DIMZIN
 70
     0
  9
$DIMBLK
  1

  9
$DIMASO
 70
     1
  9
$DIMSHO
 70
     1
  9
$DIMPOST
  1

  9
$DIMAPOST
  1

  9
$DIMALT
 70
     0
  9
$DIMALTD
 70
     2
  9
$DIMALTF
 40
25.4
  9
$DIMLFAC
 40
1.0
  9
$DIMTOFL
 70
     0
  9
$DIMTVP
 40
0.0
  9
$DIMTIX
 70
     0
  9
$DIMSOXD
 70
     0
  9
$DIMSAH
 70
     0
  9
$DIMBLK1
  1

  9
$DIMBLK2
  1

  9
$DIMSTYLE
  2
Standard
  9
$DIMCLRD
 70
     0
  9
$DIMCLRE
 70
     0
  9
$DIMCLRT
 70
     0
  9
$DIMTFAC
 40
1.0
  9
$DIMGAP
 40
0.09
  9
$DIMJUST
 70
     0
  9
$DIMSD1
 70
     0
  9
$DIMSD2
 70
     0
  9
$DIMTOLJ
 70
     1
  9
$DIMTZIN
 70
     0
  9
$DIMALTZ
 70
     0
  9
$DIMALTTZ
 70
     0
  9
$DIMUPT
 70
     0
  9
$DIMDEC
 70
     4
  9
$DIMTDEC
 70
     4
  9
$DIMALTU
 70
     2
  9
$DIMALTTD
 70
     2
  9
$DIMTXSTY
  7
Standard
  9
$DIMAUNIT
 70
     0
  9
$DIMADEC
 70
     0
  9
$DIMALTRND
 40
0.0
  9
$DIMAZIN
 70
     0
  9
$DIMDSEP
 70
    46
  9
$DIMATFIT
 70
     3
  9
$DIMFRAC
 70
     0
  9
$DIMLDRBLK
  1

  9
$DIMLUNIT
 70
     2
  9
$DIMLWD
 70
    -2
  9
$DIMLWE
 70
    -2
  9
$DIMTMOVE
 70
     0
  9
$DIMFXL
 40
1.0
  9
$DIMFXLON
 70
     0
  9
$DIMJOGANG
 40
0.7853981633974483
  9
$DIMTFILL
 70
     0
  9
$DIMTFILLCLR
 70
     0
  9
$DIMARCSYM
 70
     0
  9
$DIMLTYPE
  6

  9
$DIMLTEX1
  6

  9
$DIMLTEX2
  6

  9
$LUNITS
 70
     2
  9
$LUPREC
 70
     4
  9
$SKETCHINC
 40
0.1
  9
$FILLETRAD
 40
0.5
  9
$AUNITS
 70
     0
  9
$AUPREC
 70
     0
  9
$MENU
  1
.
  9
$ELEVATION
 40
0.0
  9
$PELEVATION
 40
0.0
  9
$THICKNESS
 40
0.0
  9
$LIMCHECK
 70
     0
  9
$CHAMFERA
 40
0.5
  9
$CHAMFERB
 40
0.5
  9
$CHAMFERC
 40
1.0
  9
$CHAMFERD
 40
0.0
  9
$SKPOLY
 70
     0
  9
$TDCREATE
 40
2456768.847308611
  9
$TDUCREATE
 40
2456768.805641945
  9
$TDUPDATE
 40
2456768.847308877
  9
$TDUUPDATE
 40
2456768.805642211
  9
$TDINDWG
 40
0.0000000116
  9
$TDUSRTIMER
 40
0.0000000116
  9
$USRTIMER
 70
     1
  9
$ANGBASE
 50
0.0
  9
$ANGDIR
 70
     0
  9
$PDMODE
 70
     0
  9
$PDSIZE
 40
0.0
  9
$PLINEWID
 40
0.0
  9
$SPLFRAME
 70
     0
  9
$SPLINETYPE
 70
     6
  9
$SPLINESEGS
 70
     8
  9
$HANDSEED
  5
8D
  9
$SURFTAB1
 70
     6
  9
$SURFTAB2
 70
     6
  9
$SURFTYPE
 70
     6
  9
$SURFU
 70
     6
  9
$SURFV
 70
     6
  9
$UCSBASE
  2

  9
$UCSNAME
  2

  9
$UCSORG
 10
0.0
 20
0.0
 30
0.0
  9
$UCSXDIR
 10
1.0
 20
0.0
 30
0.0
  9
$UCSYDIR
 10
0.0
 20
1.0
 30
0.0
  9
$UCSORTHOREF
  2

  9
$UCSORTHOVIEW
 70
     0
  9
$UCSORGTOP
 10
0.0
 20
0.0
 30
0.0
  9
$UCSORGBOTTOM
 10
0.0
 20
0.0
 30
0.0
  9
$UCSORGLEFT
 10
0.0
 20
0.0
 30
0.0
  9
$UCSORGRIGHT
 10
0.0
 20
0.0
 30
0.0
  9
$UCSORGFRONT
 10
0.0
 20
0.0
 30
0.0
  9
$UCSORGBACK
 10
0.0
 20
0.0
 30
0.0
  9
$PUCSBASE
  2

  9
$PUCSNAME
  2

  9
$PUCSORG
 10
0.0
 20
0.0
 30
0.0
  9
$PUCSXDIR
 10
1.0
 20
0.0
 30
0.0
  9
$PUCSYDIR
 10
0.0
 20
1.0
 30
0.0
  9
$PUCSORTHOREF
  2

  9
$PUCSORTHOVIEW
 70
     0
  9
$PUCSORGTOP
 10
0.0
 20
0.0
 30
0.0
  9
$PUCSORGBOTTOM
 10
0.0
 20
0.0
 30
0.0
  9
$PUCSORGLEFT
 10
0.0
 20
0.0
 30
0.0
  9
$PUCSORGRIGHT
 10
0.0
 20
0.0
 30
0.0
  9
$PUCSORGFRONT
 10
0.0
 20
0.0
 30
0.0
  9
$PUCSORGBACK
 10
0.0
 20
0.0
 30
0.0
  9
$USERI1
 70
     0
  9
$USERI2
 70
     0
  9
$USERI3
 70
     0
  9
$USERI4
 70
     0
  9
$USERI5
 70
     0
  9
$USERR1
 40
0.0
  9
$USERR2
 40
0.0
  9
$USERR3
 40
0.0
  9
$USERR4
 40
0.0
  9
$USERR5
 40
0.0
  9
$WORLDVIEW
 70
     1
  9
$SHADEDGE
 70
     3
  9
$SHADEDIF
 70
    70
  9
$TILEMODE
 70
     1
  9
$MAXACTVP
 70
    64
  9
$PINSBASE
 10
0.0
 20
0.0
 30
0.0
  9
$PLIMCHECK
 70
     0
  9
$PEXTMIN
 10
1.000000000000000E+20
 20
1.000000000000000E+20
 30
1.000000000000000E+20
  9
$PEXTMAX
 10
-1.000000000000000E+20
 20
-1.000000000000000E+20
 30
-1.000000000000000E+20
  9
$PLIMMIN
 10
0.0
 20
0.0
  9
$PLIMMAX
 10
12.0
 20
9.0
  9
$UNITMODE
 70
     0
  9
$VISRETAIN
 70
     1
  9
$PLINEGEN
 70
     0
  9
$PSLTSCALE
 70
     1
  9
$TREEDEPTH
 70
  3020
  9
$CMLSTYLE
  2
Standard
  9
$CMLJUST
 70
     0
  9
$CMLSCALE
 40
1.0
  9
$PROXYGRAPHICS
 70
     1
  9
$MEASUREMENT
 70
     0
  9
$CELWEIGHT
370
    -1
  9
$ENDCAPS
280
     0
  9
$JOINSTYLE
280
     0
  9
$LWDISPLAY
290
     0
  9
$INSUNITS
 70
     5
  9
$HYPERLINKBASE
  1

  9
$STYLESHEET
  1

  9
$XEDIT
290
     1
  9
$CEPSNTYPE
380
     0
  9
$PSTYLEMODE
290
     1
  9
$FINGERPRINTGUID
  2
{62306A3E-462A-4C21-A191-E56E4742CD22}
  9
$VERSIONGUID
  2
{FAEB1C32-E019-11D5-929B-00C0DF256EC4}
  9
$EXTNAMES
290
     1
  9
$PSVPSCALE
 40
0.0
  9
$OLESTARTUP
290
     0
  9
$SORTENTS
280
   127
  9
$INDEXCTL
280
     0
  9
$HIDETEXT
280
     1
  9
$XCLIPFRAME
290
     0
  9
$HALOGAP
280
     0
  9
$OBSCOLOR
 70
   257
  9
$OBSLTYPE
280
     0
  9
$INTERSECTIONDISPLAY
280
     0
  9
$INTERSECTIONCOLOR
 70
   257
  9
$DIMASSOC
280
     2
  9
$PROJECTNAME
  1

  9
$CAMERADISPLAY
290
     0
  9
$LENSLENGTH
 40
50.0
  9
$CAMERAHEIGHT
 40
0.0
  9
$STEPSPERSEC
 40
2.0
  9
$STEPSIZE
 40
6.0
  9
$3DDWFPREC
 40
2.0
  9
$PSOLWIDTH
 40
0.25
  9
$PSOLHEIGHT
 40
4.0
  9
$LOFTANG1
 40
1.570796326794897
  9
$LOFTANG2
 40
1.570796326794897
  9
$LOFTMAG1
 40
0.0
  9
$LOFTMAG2
 40
0.0
  9
$LOFTPARAM
 70
     7
  9
$LOFTNORMALS
280
     1
  9
$LATITUDE
 40
37.795
  9
$LONGITUDE
 40
-122.394
  9
$NORTHDIRECTION
 40
0.0
  9
$TIMEZONE
 70
 -8000
  9
$LIGHTGLYPHDISPLAY
280
     1
  9
$TILEMODELIGHTSYNCH
280
     1
  9
$SOLIDHIST
280
     1
  9
$SHOWHIST
280
     1
  9
$DWFFRAME
280
     2
  9
$DGNFRAME
280
     2
  9
$REALWORLDSCALE
290
     1
  9
$INTERFERECOLOR
 62
   256
  9
$CSHADOW
280
     0
  9
$SHADOWPLANELOCATION
 40
0.0
  0
ENDSEC
  0
SECTION
  2
CLASSES
  0
CLASS
  1
ACDBDICTIONARYWDFLT
  2
AcDbDictionaryWithDefault
  3
ObjectDBX Classes
 90
        0
 91
        4
280
     0
281
     0
  0
CLASS
  1
VISUALSTYLE
  2
AcDbVisualStyle
  3
ObjectDBX Classes
 90
     4095
 91
        4
280
     0
281
     0
  0
CLASS
  1
MATERIAL
  2
AcDbMaterial
  3
ObjectDBX Classes
 90
     1153
 91
        4
280
     0
281
     0
  0
ENDSEC
  0
SECTION
  2
TABLES
  0
TABLE
  2
VPORT
  5
8
330
0
100
AcDbSymbolTable
 70
     1
  0
VPORT
  5
29
330
8
100
AcDbSymbolTableRecord
100
AcDbViewportTableRecord
  2
*Active
 70
     0
 10
0.0
 20
0.0
 11
1.0
 21
1.0
 12
10.42990654205607
 22
4.5
 13
0.0
 23
0.0
 14
0.5
 24
0.5
 15
0.5
 25
0.5
 16
0.0
 26
0.0
 36
1.0
 17
0.0
 27
0.0
 37
0.0
 40
9.0
 41
1.972972972850329
 42
50.0
 43
0.0
 44
0.0
 50
0.0
 51
0.0
 71
     0
 72
   100
 73
     1
 74
     3
 75
     0
 76
     0
 77
     0
 78
     0
281
     0
 65
     1
110
0.0
120
0.0
130
0.0
111
1.0
121
0.0
131
0.0
112
0.0
122
1.0
132
0.0
 79
     0
146
0.0
 60
     3
 61
     5
292
     1
282
     1
141
0.0
142
0.0
 63
   250
  0
ENDTAB
  0
TABLE
  2
LTYPE
  5
5
330
0
100
AcDbSymbolTable
 70
     1
  0
LTYPE
  5
14
330
5
100
AcDbSymbolTableRecord
100
AcDbLinetypeTableRecord
  2
ByBlock
 70
     0
  3

 72
    65
 73
     0
 40
0.0
  0
LTYPE
  5
15
330
5
100
AcDbSymbolTableRecord
100
AcDbLinetypeTableRecord
  2
ByLayer
 70
     0
  3

 72
    65
 73
     0
 40
0.0
  0
LTYPE
  5
16
330
5
100
AcDbSymbolTableRecord
100
AcDbLinetypeTableRecord
  2
Continuous
 70
     0
  3
Solid line
 72
    65
 73
     0
 40
0.0
  0
ENDTAB
  0
TABLE
  2
LAYER
  5
2
330
0
100
AcDbSymbolTable
 70
     2
  0
LAYER
  5
10
330
2
100
AcDbSymbolTableRecord
100
AcDbLayerTableRecord
  2
0
 70
     0
 62
     7
  6
Continuous
370
    -3
390
F
347
3E
  0
LAYER
  5
40
330
2
100
AcDbSymbolTableRecord
100
AcDbLayerTableRecord
  2
Layer 1
 70
     0
 62
     7
  6
Continuous
370
    -3
390
F
347
3E
  0
ENDTAB
  0
TABLE
  2
STYLE
  5
3
330
0
100
AcDbSymbolTable
 70
     1
  0
STYLE
  5
11
330
3
100
AcDbSymbolTableRecord
100
AcDbTextStyleTableRecord
  2
Standard
 70
     0
 40
0.0
 41
1.0
 50
0.0
 71
     0
 42
0.2
  3
txt
  4

  0
ENDTAB
  0
TABLE
  2
VIEW
  5
6
330
0
100
AcDbSymbolTable
 70
     0
  0
ENDTAB
  0
TABLE
  2
UCS
  5
7
330
0
100
AcDbSymbolTable
 70
     0
  0
ENDTAB
  0
TABLE
  2
APPID
  5
9
330
0
100
AcDbSymbolTable
 70
     2
  0
APPID
  5
12
330
9
100
AcDbSymbolTableRecord
100
AcDbRegAppTableRecord
  2
ACAD
 70
     0
  0
APPID
  5
3F
330
9
100
AcDbSymbolTableRecord
100
AcDbRegAppTableRecord
  2
ODA
 70
     0
  0
ENDTAB
  0
TABLE
  2
DIMSTYLE
  5
A
330
0
100
AcDbSymbolTable
 70
     1
100
AcDbDimStyleTable
  0
DIMSTYLE
105
27
330
A
100
AcDbSymbolTableRecord
100
AcDbDimStyleTableRecord
  2
Standard
 70
     0
178
     0
340
11
  0
ENDTAB
  0
TABLE
  2
BLOCK_RECORD
  5
1
330
0
100
AcDbSymbolTable
 70
     1
  0
BLOCK_RECORD
  5
1F
330
1
100
AcDbSymbolTableRecord
100
AcDbBlockTableRecord
  2
*Model_Space
340
22
 70
     0
280
     1
281
     0
  0
BLOCK_RECORD
  5
1B
330
1
100
AcDbSymbolTableRecord
100
AcDbBlockTableRecord
  2
*Paper_Space
340
1E
 70
     0
280
     1
281
     0
  0
BLOCK_RECORD
  5
23
330
1
100
AcDbSymbolTableRecord
100
AcDbBlockTableRecord
  2
*Paper_Space0
340
26
 70
     0
280
     1
281
     0
  0
ENDTAB
  0
ENDSEC
  0
SECTION
  2
BLOCKS
  0
BLOCK
  5
20
330
1F
100
AcDbEntity
  8
0
100
AcDbBlockBegin
  2
*Model_Space
 70
     0
 10
0.0
 20
0.0
 30
0.0
  3
*Model_Space
  1

  0
ENDBLK
  5
21
330
1F
100
AcDbEntity
  8
0
100
AcDbBlockEnd
  0
BLOCK
  5
1C
330
1B
100
AcDbEntity
 67
     1
  8
0
100
AcDbBlockBegin
  2
*Paper_Space
 70
     0
 10
0.0
 20
0.0
 30
0.0
  3
*Paper_Space
  1

  0
ENDBLK
  5
1D
330
1B
100
AcDbEntity
 67
     1
  8
0
100
AcDbBlockEnd
  0
BLOCK
  5
24
330
23
100
AcDbEntity
  8
0
100
AcDbBlockBegin
  2
*Paper_Space0
 70
     0
 10
0.0
 20
0.0
 30
0.0
  3
*Paper_Space0
  1

  0
ENDBLK
  5
25
330
23
100
AcDbEntity
  8
0
100
AcDbBlockEnd
  0
ENDSEC
  0
SECTION
  2
ENTITIES
  0
SPLINE
  5
41
330
1F
100
AcDbEntity
  8
Layer 1
 62
   250
370
     9
100
AcDbSpline
210
0.0
220
0.0
230
1.0
 70
    11
 71
     3
 72
    76
 73
    72
 74
     0
 42
0.0000000001
 43
0.0000000001
 12
1.0
 22
0.0
 32
0.0
 13
1.0
 23
0.0
 33
0.0
 40
0.0
 40
0.0
 40
0.0
 40
0.0
 40
0.0526315789473684
 40
0.0526315789473684
 40
0.0526315789473684
 40
0.0526315789473684
 40
0.1052631578947368
 40
0.1052631578947368
 40
0.1052631578947368
 40
0.1052631578947368
 40
0.1578947368421053
 40
0.1578947368421053
 40
0.1578947368421053
 40
0.1578947368421053
 40
0.2105263157894737
 40
0.2105263157894737
 40
0.2105263157894737
 40
0.2105263157894737
 40
0.2631578947368421
 40
0.2631578947368421
 40
0.2631578947368421
 40
0.2631578947368421
 40
0.3157894736842105
 40
0.3157894736842105
 40
0.3157894736842105
 40
0.3157894736842105
 40
0.3684210526315789
 40
0.3684210526315789
 40
0.3684210526315789
 40
0.3684210526315789
 40
0.4210526315789473
 40
0.4210526315789473
 40
0.4210526315789473
 40
0.4210526315789473
 40
0.4736842105263158
 40
0.4736842105263158
 40
0.4736842105263158
 40
0.4736842105263158
 40
0.5263157894736842
 40
0.5263157894736842
 40
0.5263157894736842
 40
0.5263157894736842
 40
0.5789473684210527
 40
0.5789473684210527
 40
0.5789473684210527
 40
0.5789473684210527
 40
0.631578947368421
 40
0.631578947368421
 40
0.631578947368421
 40
0.631578947368421
 40
0.6842105263157895
 40
0.6842105263157895
 40
0.6842105263157895
 40
0.6842105263157895
 40
0.7368421052631579
 40
0.7368421052631579
 40
0.7368421052631579
 40
0.7368421052631579
 40
0.7894736842105263
 40
0.7894736842105263
 40
0.7894736842105263
 40
0.7894736842105263
 40
0.8421052631578947
 40
0.8421052631578947
 40
0.8421052631578947
 40
0.8421052631578947
 40
0.8947368421052632
 40
0.8947368421052632
 40
0.8947368421052632
 40
0.8947368421052632
 40
1.0
 40
1.0
 40
1.0
 40
1.0
 10
-5.55408
 20
10.24969
 30
0.0
 10
-5.55408
 20
10.24969
 30
0.0
 10
-5.54829
 20
9.73117
 30
0.0
 10
-5.54829
 20
9.73117
 30
0.0
 10
-5.54829
 20
9.73117
 30
0.0
 10
-5.54829
 20
9.73117
 30
0.0
 10
-5.72753
 20
9.73119
 30
0.0
 10
-5.72753
 20
9.73119
 30
0.0
 10
-5.72753
 20
9.73119
 30
0.0
 10
-5.72753
 20
9.73119
 30
0.0
 10
-5.72753
 20
8.91759
 30
0.0
 10
-5.72753
 20
8.91759
 30
0.0
 10
-5.72753
 20
8.91759
 30
0.0
 10
-5.72753
 20
8.91759
 30
0.0
 10
-5.54829
 20
8.91504
 30
0.0
 10
-5.54829
 20
8.91504
 30
0.0
 10
-5.54829
 20
8.91504
 30
0.0
 10
-5.54829
 20
8.91504
 30
0.0
 10
-5.5456
 20
7.90882
 30
0.0
 10
-5.5456
 20
7.90882
 30
0.0
 10
-5.5456
 20
7.90882
 30
0.0
 10
-5.5456
 20
7.90882
 30
0.0
 10
-4.53002
 20
7.90883
 30
0.0
 10
-4.53002
 20
7.90883
 30
0.0
 10
-4.53002
 20
7.90883
 30
0.0
 10
-4.53002
 20
7.90883
 30
0.0
 10
-4.53002
 20
7.72957
 30
0.0
 10
-4.53002
 20
7.72957
 30
0.0
 10
-4.53002
 20
7.72957
 30
0.0
 10
-4.53002
 20
7.72957
 30
0.0
 10
-3.27986
 20
7.72959
 30
0.0
 10
-3.27986
 20
7.72959
 30
0.0
 10
-3.27986
 20
7.72959
 30
0.0
 10
-3.27986
 20
7.72959
 30
0.0
 10
-3.27986
 20
7.90882
 30
0.0
 10
-3.27986
 20
7.90882
 30
0.0
 10
-3.27986
 20
7.90882
 30
0.0
 10
-3.27986
 20
7.90882
 30
0.0
 10
-2.41656
 20
7.90882
 30
0.0
 10
-2.41656
 20
7.90882
 30
0.0
 10
-2.41656
 20
7.90882
 30
0.0
 10
-2.41656
 20
7.90882
 30
0.0
 10
-2.41656
 20
8.69199
 30
0.0
 10
-2.41656
 20
8.69199
 30
0.0
 10
-2.41656
 20
8.69199
 30
0.0
 10
-2.41656
 20
8.69199
 30
0.0
 10
-1.13824
 20
8.6426
 30
0.0
 10
-1.13824
 20
8.6426
 30
0.0
 10
-1.13824
 20
8.6426
 30
0.0
 10
-1.13824
 20
8.6426
 30
0.0
 10
-3.37828
 20
9.4586
 30
0.0
 10
-3.37828
 20
9.4586
 30
0.0
 10
-3.37828
 20
9.4586
 30
0.0
 10
-3.37828
 20
9.4586
 30
0.0
 10
-3.31644
 20
9.62852
 30
0.0
 10
-3.31644
 20
9.62852
 30
0.0
 10
-3.31644
 20
9.62852
 30
0.0
 10
-3.31644
 20
9.62852
 30
0.0
 10
-4.72749
 20
10.14211
 30
0.0
 10
-4.72749
 20
10.14211
 30
0.0
 10
-4.72749
 20
10.14211
 30
0.0
 10
-4.72749
 20
10.14211
 30
0.0
 10
-4.78954
 20
9.97171
 30
0.0
 10
-4.78954
 20
9.97171
 30
0.0
 10
-4.78954
 20
9.97171
 30
0.0
 10
-4.78954
 20
9.97171
 30
0.0
 10
-5.55408
 20
10.24969
 30
0.0
 10
-5.55408
 20
10.24969
 30
0.0
 10
-5.55408
 20
10.24969
 30
0.0
 10
-5.55408
 20
10.24969
 30
0.0
 10
-5.55408
 20
10.24969
 30
0.0
 10
-5.55408
 20
10.24969
 30
0.0
  0
SPLINE
  5
42
330
1F
100
AcDbEntity
  8
Layer 1
 62
   250
370
     9
100
AcDbSpline
210
0.0
220
0.0
230
1.0
 70
    11
 71
     3
 72
    76
 73
    72
 74
     0
 42
0.0000000001
 43
0.0000000001
 12
1.0
 22
0.0
 32
0.0
 13
1.0
 23
0.0
 33
0.0
 40
0.0
 40
0.0
 40
0.0
 40
0.0
 40
0.0526315789473684
 40
0.0526315789473684
 40
0.0526315789473684
 40
0.0526315789473684
 40
0.1052631578947368
 40
0.1052631578947368
 40
0.1052631578947368
 40
0.1052631578947368
 40
0.1578947368421053
 40
0.1578947368421053
 40
0.1578947368421053
 40
0.1578947368421053
 40
0.2105263157894737
 40
0.2105263157894737
 40
0.2105263157894737
 40
0.2105263157894737
 40
0.2631578947368421
 40
0.2631578947368421
 40
0.2631578947368421
 40
0.2631578947368421
 40
0.3157894736842105
 40
0.3157894736842105
 40
0.3157894736842105
 40
0.3157894736842105
 40
0.3684210526315789
 40
0.3684210526315789
 40
0.3684210526315789
 40
0.3684210526315789
 40
0.4210526315789473
 40
0.4210526315789473
 40
0.4210526315789473
 40
0.4210526315789473
 40
0.4736842105263158
 40
0.4736842105263158
 40
0.4736842105263158
 40
0.4736842105263158
 40
0.5263157894736842
 40
0.5263157894736842
 40
0.5263157894736842
 40
0.5263157894736842
 40
0.5789473684210527
 40
0.5789473684210527
 40
0.5789473684210527
 40
0.5789473684210527
 40
0.631578947368421
 40
0.631578947368421
 40
0.631578947368421
 40
0.631578947368421
 40
0.6842105263157895
 40
0.6842105263157895
 40
0.6842105263157895
 40
0.6842105263157895
 40
0.7368421052631579
 40
0.7368421052631579
 40
0.7368421052631579
 40
0.7368421052631579
 40
0.7894736842105263
 40
0.7894736842105263
 40
0.7894736842105263
 40
0.7894736842105263
 40
0.8421052631578947
 40
0.8421052631578947
 40
0.8421052631578947
 40
0.8421052631578947
 40
0.8947368421052632
 40
0.8947368421052632
 40
0.8947368421052632
 40
0.8947368421052632
 40
1.0
 40
1.0
 40
1.0
 40
1.0
 10
-5.50431
 20
4.97978
 30
0.0
 10
-5.50431
 20
4.97978
 30
0.0
 10
-5.49852
 20
5.4983
 30
0.0
 10
-5.49852
 20
5.4983
 30
0.0
 10
-5.49852
 20
5.4983
 30
0.0
 10
-5.49852
 20
5.4983
 30
0.0
 10
-5.67776
 20
5.49828
 30
0.0
 10
-5.67776
 20
5.49828
 30
0.0
 10
-5.67776
 20
5.49828
 30
0.0
 10
-5.67776
 20
5.49828
 30
0.0
 10
-5.67776
 20
6.31188
 30
0.0
 10
-5.67776
 20
6.31188
 30
0.0
 10
-5.67776
 20
6.31188
 30
0.0
 10
-5.67776
 20
6.31188
 30
0.0
 10
-5.49852
 20
6.31443
 30
0.0
 10
-5.49852
 20
6.31443
 30
0.0
 10
-5.49852
 20
6.31443
 30
0.0
 10
-5.49852
 20
6.31443
 30
0.0
 10
-5.49583
 20
7.32065
 30
0.0
 10
-5.49583
 20
7.32065
 30
0.0
 10
-5.49583
 20
7.32065
 30
0.0
 10
-5.49583
 20
7.32065
 30
0.0
 10
-4.48025
 20
7.32064
 30
0.0
 10
-4.48025
 20
7.32064
 30
0.0
 10
-4.48025
 20
7.32064
 30
0.0
 10
-4.48025
 20
7.32064
 30
0.0
 10
-4.48025
 20
7.4999
 30
0.0
 10
-4.48025
 20
7.4999
 30
0.0
 10
-4.48025
 20
7.4999
 30
0.0
 10
-4.48025
 20
7.4999
 30
0.0
 10
-3.23009
 20
7.49988
 30
0.0
 10
-3.23009
 20
7.49988
 30
0.0
 10
-3.23009
 20
7.49988
 30
0.0
 10
-3.23009
 20
7.49988
 30
0.0
 10
-3.23009
 20
7.32065
 30
0.0
 10
-3.23009
 20
7.32065
 30
0.0
 10
-3.23009
 20
7.32065
 30
0.0
 10
-3.23009
 20
7.32065
 30
0.0
 10
-2.36679
 20
7.32065
 30
0.0
 10
-2.36679
 20
7.32065
 30
0.0
 10
-2.36679
 20
7.32065
 30
0.0
 10
-2.36679
 20
7.32065
 30
0.0
 10
-2.36679
 20
6.53064
 30
0.0
 10
-2.36679
 20
6.53064
 30
0.0
 10
-2.36679
 20
6.53064
 30
0.0
 10
-2.36679
 20
6.53064
 30
0.0
 10
-1.10286
 20
6.58049
 30
0.0
 10
-1.10286
 20
6.58049
 30
0.0
 10
-1.10286
 20
6.58049
 30
0.0
 10
-1.10286
 20
6.58049
 30
0.0
 10
-3.32851
 20
5.77087
 30
0.0
 10
-3.32851
 20
5.77087
 30
0.0
 10
-3.32851
 20
5.77087
 30
0.0
 10
-3.32851
 20
5.77087
 30
0.0
 10
-3.26667
 20
5.60095
 30
0.0
 10
-3.26667
 20
5.60095
 30
0.0
 10
-3.26667
 20
5.60095
 30
0.0
 10
-3.26667
 20
5.60095
 30
0.0
 10
-4.67772
 20
5.08736
 30
0.0
 10
-4.67772
 20
5.08736
 30
0.0
 10
-4.67772
 20
5.08736
 30
0.0
 10
-4.67772
 20
5.08736
 30
0.0
 10
-4.73977
 20
5.25776
 30
0.0
 10
-4.73977
 20
5.25776
 30
0.0
 10
-4.73977
 20
5.25776
 30
0.0
 10
-4.73977
 20
5.25776
 30
0.0
 10
-5.50431
 20
4.97978
 30
0.0
 10
-5.50431
 20
4.97978
 30
0.0
 10
-5.50431
 20
4.97978
 30
0.0
 10
-5.50431
 20
4.97978
 30
0.0
 10
-5.50431
 20
4.97978
 30
0.0
 10
-5.50431
 20
4.97978
 30
0.0
  0
SPLINE
  5
43
330
1F
100
AcDbEntity
  8
Layer 1
 62
   250
370
     9
100
AcDbSpline
210
0.0
220
0.0
230
1.0
 70
    11
 71
     3
 72
    84
 73
    80
 74
     0
 42
0.0000000001
 43
0.0000000001
 12
1.0
 22
0.0
 32
0.0
 13
1.0
 23
0.0
 33
0.0
 40
0.0
 40
0.0
 40
0.0
 40
0.0
 40
0.0476190476190476
 40
0.0476190476190476
 40
0.0476190476190476
 40
0.0476190476190476
 40
0.0952380952380952
 40
0.0952380952380952
 40
0.0952380952380952
 40
0.0952380952380952
 40
0.1428571428571428
 40
0.1428571428571428
 40
0.1428571428571428
 40
0.1428571428571428
 40
0.1904761904761905
 40
0.1904761904761905
 40
0.1904761904761905
 40
0.1904761904761905
 40
0.2380952380952381
 40
0.2380952380952381
 40
0.2380952380952381
 40
0.2380952380952381
 40
0.2857142857142857
 40
0.2857142857142857
 40
0.2857142857142857
 40
0.2857142857142857
 40
0.3333333333333333
 40
0.3333333333333333
 40
0.3333333333333333
 40
0.3333333333333333
 40
0.3809523809523809
 40
0.3809523809523809
 40
0.3809523809523809
 40
0.3809523809523809
 40
0.4285714285714285
 40
0.4285714285714285
 40
0.4285714285714285
 40
0.4285714285714285
 40
0.4761904761904762
 40
0.4761904761904762
 40
0.4761904761904762
 40
0.4761904761904762
 40
0.5238095238095238
 40
0.5238095238095238
 40
0.5238095238095238
 40
0.5238095238095238
 40
0.5714285714285714
 40
0.5714285714285714
 40
0.5714285714285714
 40
0.5714285714285714
 40
0.6190476190476191
 40
0.6190476190476191
 40
0.6190476190476191
 40
0.6190476190476191
 40
0.6666666666666666
 40
0.6666666666666666
 40
0.6666666666666666
 40
0.6666666666666666
 40
0.7142857142857143
 40
0.7142857142857143
 40
0.7142857142857143
 40
0.7142857142857143
 40
0.7619047619047619
 40
0.7619047619047619
 40
0.7619047619047619
 40
0.7619047619047619
 40
0.8095238095238095
 40
0.8095238095238095
 40
0.8095238095238095
 40
0.8095238095238095
 40
0.8571428571428571
 40
0.8571428571428571
 40
0.8571428571428571
 40
0.8571428571428571
 40
0.9047619047619048
 40
0.9047619047619048
 40
0.9047619047619048
 40
0.9047619047619048
 40
1.0
 40
1.0
 40
1.0
 40
1.0
 10
13.63429
 20
6.46043
 30
0.0
 10
13.63429
 20
6.46043
 30
0.0
 10
13.63429
 20
5.4585
 30
0.0
 10
13.63429
 20
5.4585
 30
0.0
 10
13.63429
 20
5.4585
 30
0.0
 10
13.63429
 20
5.4585
 30
0.0
 10
13.85547
 20
5.4585
 30
0.0
 10
13.85547
 20
5.4585
 30
0.0
 10
13.85547
 20
5.4585
 30
0.0
 10
13.85547
 20
5.4585
 30
0.0
 10
13.85547
 20
4.46631
 30
0.0
 10
13.85547
 20
4.46631
 30
0.0
 10
13.85547
 20
4.46631
 30
0.0
 10
13.85547
 20
4.46631
 30
0.0
 10
13.63429
 20
4.46631
 30
0.0
 10
13.63429
 20
4.46631
 30
0.0
 10
13.63429
 20
4.46631
 30
0.0
 10
13.63429
 20
4.46631
 30
0.0
 10
13.63429
 20
3.46226
 30
0.0
 10
13.63429
 20
3.46226
 30
0.0
 10
13.63429
 20
3.46226
 30
0.0
 10
13.63429
 20
3.46226
 30
0.0
 10
13.11344
 20
3.45986
 30
0.0
 10
13.11344
 20
3.45986
 30
0.0
 10
13.11344
 20
3.45986
 30
0.0
 10
13.11344
 20
3.45986
 30
0.0
 10
13.11668
 20
3.6395
 30
0.0
 10
13.11668
 20
3.6395
 30
0.0
 10
13.11668
 20
3.6395
 30
0.0
 10
13.11668
 20
3.6395
 30
0.0
 10
12.30881
 20
3.6395
 30
0.0
 10
12.30881
 20
3.6395
 30
0.0
 10
12.30881
 20
3.6395
 30
0.0
 10
12.30881
 20
3.6395
 30
0.0
 10
12.30646
 20
3.45986
 30
0.0
 10
12.30646
 20
3.45986
 30
0.0
 10
12.30646
 20
3.45986
 30
0.0
 10
12.30646
 20
3.45986
 30
0.0
 10
11.11508
 20
3.45987
 30
0.0
 10
11.11508
 20
3.45987
 30
0.0
 10
11.11508
 20
3.45987
 30
0.0
 10
11.11508
 20
3.45987
 30
0.0
 10
11.11601
 20
4.46467
 30
0.0
 10
11.11601
 20
4.46467
 30
0.0
 10
11.11601
 20
4.46467
 30
0.0
 10
11.11601
 20
4.46467
 30
0.0
 10
11.29448
 20
4.46631
 30
0.0
 10
11.29448
 20
4.46631
 30
0.0
 10
11.29448
 20
4.46631
 30
0.0
 10
11.29448
 20
4.46631
 30
0.0
 10
11.29448
 20
5.4585
 30
0.0
 10
11.29448
 20
5.4585
 30
0.0
 10
11.29448
 20
5.4585
 30
0.0
 10
11.29448
 20
5.4585
 30
0.0
 10
11.11508
 20
5.4585
 30
0.0
 10
11.11508
 20
5.4585
 30
0.0
 10
11.11508
 20
5.4585
 30
0.0
 10
11.11508
 20
5.4585
 30
0.0
 10
11.11601
 20
6.45713
 30
0.0
 10
11.11601
 20
6.45713
 30
0.0
 10
11.11601
 20
6.45713
 30
0.0
 10
11.11601
 20
6.45713
 30
0.0
 10
12.30764
 20
6.46043
 30
0.0
 10
12.30764
 20
6.46043
 30
0.0
 10
12.30764
 20
6.46043
 30
0.0
 10
12.30764
 20
6.46043
 30
0.0
 10
12.30764
 20
6.2747
 30
0.0
 10
12.30764
 20
6.2747
 30
0.0
 10
12.30764
 20
6.2747
 30
0.0
 10
12.30764
 20
6.2747
 30
0.0
 10
13.11668
 20
6.27471
 30
0.0
 10
13.11668
 20
6.27471
 30
0.0
 10
13.11668
 20
6.27471
 30
0.0
 10
13.11668
 20
6.27471
 30
0.0
 10
13.11669
 20
6.46043
 30
0.0
 10
13.11669
 20
6.46043
 30
0.0
 10
13.11669
 20
6.46043
 30
0.0
 10
13.11669
 20
6.46043
 30
0.0
 10
13.63429
 20
6.46043
 30
0.0
 10
13.63429
 20
6.46043
 30
0.0
  0
SPLINE
  5
44
330
1F
100
AcDbEntity
  8
Layer 1
 62
   250
370
     9
100
AcDbSpline
210
0.0
220
0.0
230
1.0
 70
    11
 71
     3
 72
   180
 73
   176
 74
     0
 42
0.0000000001
 43
0.0000000001
 12
1.0
 22
0.0
 32
0.0
 13
1.0
 23
0.0
 33
0.0
 40
0.0
 40
0.0
 40
0.0
 40
0.0
 40
0.0222222222222222
 40
0.0222222222222222
 40
0.0222222222222222
 40
0.0222222222222222
 40
0.0444444444444444
 40
0.0444444444444444
 40
0.0444444444444444
 40
0.0444444444444444
 40
0.0666666666666667
 40
0.0666666666666667
 40
0.0666666666666667
 40
0.0666666666666667
 40
0.0888888888888889
 40
0.0888888888888889
 40
0.0888888888888889
 40
0.0888888888888889
 40
0.1111111111111111
 40
0.1111111111111111
 40
0.1111111111111111
 40
0.1111111111111111
 40
0.1333333333333333
 40
0.1333333333333333
 40
0.1333333333333333
 40
0.1333333333333333
 40
0.1555555555555556
 40
0.1555555555555556
 40
0.1555555555555556
 40
0.1555555555555556
 40
0.1777777777777778
 40
0.1777777777777778
 40
0.1777777777777778
 40
0.1777777777777778
 40
0.2
 40
0.2
 40
0.2
 40
0.2
 40
0.2222222222222222
 40
0.2222222222222222
 40
0.2222222222222222
 40
0.2222222222222222
 40
0.2444444444444444
 40
0.2444444444444444
 40
0.2444444444444444
 40
0.2444444444444444
 40
0.2666666666666667
 40
0.2666666666666667
 40
0.2666666666666667
 40
0.2666666666666667
 40
0.2888888888888889
 40
0.2888888888888889
 40
0.2888888888888889
 40
0.2888888888888889
 40
0.3111111111111111
 40
0.3111111111111111
 40
0.3111111111111111
 40
0.3111111111111111
 40
0.3333333333333333
 40
0.3333333333333333
 40
0.3333333333333333
 40
0.3333333333333333
 40
0.3555555555555556
 40
0.3555555555555556
 40
0.3555555555555556
 40
0.3555555555555556
 40
0.3777777777777778
 40
0.3777777777777778
 40
0.3777777777777778
 40
0.3777777777777778
 40
0.4
 40
0.4
 40
0.4
 40
0.4
 40
0.4222222222222222
 40
0.4222222222222222
 40
0.4222222222222222
 40
0.4222222222222222
 40
0.4444444444444444
 40
0.4444444444444444
 40
0.4444444444444444
 40
0.4444444444444444
 40
0.4666666666666667
 40
0.4666666666666667
 40
0.4666666666666667
 40
0.4666666666666667
 40
0.4888888888888889
 40
0.4888888888888889
 40
0.4888888888888889
 40
0.4888888888888889
 40
0.5111111111111111
 40
0.5111111111111111
 40
0.5111111111111111
 40
0.5111111111111111
 40
0.5333333333333333
 40
0.5333333333333333
 40
0.5333333333333333
 40
0.5333333333333333
 40
0.5555555555555556
 40
0.5555555555555556
 40
0.5555555555555556
 40
0.5555555555555556
 40
0.5777777777777777
 40
0.5777777777777777
 40
0.5777777777777777
 40
0.5777777777777777
 40
0.6
 40
0.6
 40
0.6
 40
0.6
 40
0.6222222222222222
 40
0.6222222222222222
 40
0.6222222222222222
 40
0.6222222222222222
 40
0.6444444444444445
 40
0.6444444444444445
 40
0.6444444444444445
 40
0.6444444444444445
 40
0.6666666666666666
 40
0.6666666666666666
 40
0.6666666666666666
 40
0.6666666666666666
 40
0.6888888888888889
 40
0.6888888888888889
 40
0.6888888888888889
 40
0.6888888888888889
 40
0.7111111111111111
 40
0.7111111111111111
 40
0.7111111111111111
 40
0.7111111111111111
 40
0.7333333333333333
 40
0.7333333333333333
 40
0.7333333333333333
 40
0.7333333333333333
 40
0.7555555555555555
 40
0.7555555555555555
 40
0.7555555555555555
 40
0.7555555555555555
 40
0.7777777777777778
 40
0.7777777777777778
 40
0.7777777777777778
 40
0.7777777777777778
 40
0.8
 40
0.8
 40
0.8
 40
0.8
 40
0.8222222222222222
 40
0.8222222222222222
 40
0.8222222222222222
 40
0.8222222222222222
 40
0.8444444444444444
 40
0.8444444444444444
 40
0.8444444444444444
 40
0.8444444444444444
 40
0.8666666666666667
 40
0.8666666666666667
 40
0.8666666666666667
 40
0.8666666666666667
 40
0.8888888888888888
 40
0.8888888888888888
 40
0.8888888888888888
 40
0.8888888888888888
 40
0.9111111111111111
 40
0.9111111111111111
 40
0.9111111111111111
 40
0.9111111111111111
 40
0.9333333333333333
 40
0.9333333333333333
 40
0.9333333333333333
 40
0.9333333333333333
 40
0.9555555555555556
 40
0.9555555555555556
 40
0.9555555555555556
 40
0.9555555555555556
 40
1.0
 40
1.0
 40
1.0
 40
1.0
 10
-0.86312
 20
6.30616
 30
0.0
 10
-0.86312
 20
6.30616
 30
0.0
 10
-0.86312
 20
7.30744
 30
0.0
 10
-0.86312
 20
7.30744
 30
0.0
 10
-0.86312
 20
7.30744
 30
0.0
 10
-0.86312
 20
7.30744
 30
0.0
 10
-1.04505
 20
7.30744
 30
0.0
 10
-1.04505
 20
7.30744
 30
0.0
 10
-1.04505
 20
7.30744
 30
0.0
 10
-1.04505
 20
7.30744
 30
0.0
 10
-1.04505
 20
8.30128
 30
0.0
 10
-1.04505
 20
8.30128
 30
0.0
 10
-1.04505
 20
8.30128
 30
0.0
 10
-1.04505
 20
8.30128
 30
0.0
 10
-0.86312
 20
8.29963
 30
0.0
 10
-0.86312
 20
8.29963
 30
0.0
 10
-0.86312
 20
8.29963
 30
0.0
 10
-0.86312
 20
8.29963
 30
0.0
 10
-0.86312
 20
9.30607
 30
0.0
 10
-0.86312
 20
9.30607
 30
0.0
 10
-0.86312
 20
9.30607
 30
0.0
 10
-0.86312
 20
9.30607
 30
0.0
 10
0.15246
 20
9.30608
 30
0.0
 10
0.15246
 20
9.30608
 30
0.0
 10
0.15246
 20
9.30608
 30
0.0
 10
0.15246
 20
9.30608
 30
0.0
 10
0.15246
 20
9.12644
 30
0.0
 10
0.15246
 20
9.12644
 30
0.0
 10
0.15246
 20
9.12644
 30
0.0
 10
0.15246
 20
9.12644
 30
0.0
 10
1.40262
 20
9.12644
 30
0.0
 10
1.40262
 20
9.12644
 30
0.0
 10
1.40262
 20
9.12644
 30
0.0
 10
1.40262
 20
9.12644
 30
0.0
 10
1.40262
 20
9.32081
 30
0.0
 10
1.40262
 20
9.32081
 30
0.0
 10
1.40262
 20
9.32081
 30
0.0
 10
1.40262
 20
9.32081
 30
0.0
 10
2.27208
 20
9.32081
 30
0.0
 10
2.27208
 20
9.32081
 30
0.0
 10
2.27208
 20
9.32081
 30
0.0
 10
2.27208
 20
9.32081
 30
0.0
 10
2.25634
 20
9.10619
 30
0.0
 10
2.25634
 20
9.10619
 30
0.0
 10
2.25634
 20
9.10619
 30
0.0
 10
2.25634
 20
9.10619
 30
0.0
 10
4.28403
 20
8.90318
 30
0.0
 10
4.28403
 20
8.90318
 30
0.0
 10
4.28403
 20
8.90318
 30
0.0
 10
4.28403
 20
8.90318
 30
0.0
 10
4.30145
 20
9.11083
 30
0.0
 10
4.30145
 20
9.11083
 30
0.0
 10
4.30145
 20
9.11083
 30
0.0
 10
4.30145
 20
9.11083
 30
0.0
 10
5.79461
 20
8.95389
 30
0.0
 10
5.79461
 20
8.95389
 30
0.0
 10
5.79461
 20
8.95389
 30
0.0
 10
5.79461
 20
8.95389
 30
0.0
 10
5.77717
 20
8.74165
 30
0.0
 10
5.77717
 20
8.74165
 30
0.0
 10
5.77717
 20
8.74165
 30
0.0
 10
5.77717
 20
8.74165
 30
0.0
 10
7.25982
 20
8.61747
 30
0.0
 10
7.25982
 20
8.61747
 30
0.0
 10
7.25982
 20
8.61747
 30
0.0
 10
7.25982
 20
8.61747
 30
0.0
 10
7.2781
 20
8.79797
 30
0.0
 10
7.2781
 20
8.79797
 30
0.0
 10
7.2781
 20
8.79797
 30
0.0
 10
7.2781
 20
8.79797
 30
0.0
 10
8.7584
 20
8.64225
 30
0.0
 10
8.7584
 20
8.64225
 30
0.0
 10
8.7584
 20
8.64225
 30
0.0
 10
8.7584
 20
8.64225
 30
0.0
 10
8.74015
 20
8.45428
 30
0.0
 10
8.74015
 20
8.45428
 30
0.0
 10
8.74015
 20
8.45428
 30
0.0
 10
8.74015
 20
8.45428
 30
0.0
 10
10.2163
 20
8.29902
 30
0.0
 10
10.2163
 20
8.29902
 30
0.0
 10
10.2163
 20
8.29902
 30
0.0
 10
10.2163
 20
8.29902
 30
0.0
 10
10.23567
 20
8.48712
 30
0.0
 10
10.23567
 20
8.48712
 30
0.0
 10
10.23567
 20
8.48712
 30
0.0
 10
10.23567
 20
8.48712
 30
0.0
 10
11.41333
 20
8.36334
 30
0.0
 10
11.41333
 20
8.36334
 30
0.0
 10
11.41333
 20
8.36334
 30
0.0
 10
11.41333
 20
8.36334
 30
0.0
 10
11.39287
 20
8.17523
 30
0.0
 10
11.39287
 20
8.17523
 30
0.0
 10
11.39287
 20
8.17523
 30
0.0
 10
11.39287
 20
8.17523
 30
0.0
 10
12.94478
 20
8.01566
 30
0.0
 10
12.94478
 20
8.01566
 30
0.0
 10
12.94478
 20
8.01566
 30
0.0
 10
12.94478
 20
8.01566
 30
0.0
 10
12.94478
 20
7.593
 30
0.0
 10
12.94478
 20
7.593
 30
0.0
 10
12.94478
 20
7.593
 30
0.0
 10
12.94478
 20
7.593
 30
0.0
 10
11.39583
 20
7.43111
 30
0.0
 10
11.39583
 20
7.43111
 30
0.0
 10
11.39583
 20
7.43111
 30
0.0
 10
11.39583
 20
7.43111
 30
0.0
 10
11.41576
 20
7.24082
 30
0.0
 10
11.41576
 20
7.24082
 30
0.0
 10
11.41576
 20
7.24082
 30
0.0
 10
11.41576
 20
7.24082
 30
0.0
 10
10.2396
 20
7.11319
 30
0.0
 10
10.2396
 20
7.11319
 30
0.0
 10
10.2396
 20
7.11319
 30
0.0
 10
10.2396
 20
7.11319
 30
0.0
 10
10.2182
 20
7.309
 30
0.0
 10
10.2182
 20
7.309
 30
0.0
 10
10.2182
 20
7.309
 30
0.0
 10
10.2182
 20
7.309
 30
0.0
 10
8.74212
 20
7.15211
 30
0.0
 10
8.74212
 20
7.15211
 30
0.0
 10
8.74212
 20
7.15211
 30
0.0
 10
8.74212
 20
7.15211
 30
0.0
 10
8.76235
 20
6.95792
 30
0.0
 10
8.76235
 20
6.95792
 30
0.0
 10
8.76235
 20
6.95792
 30
0.0
 10
8.76235
 20
6.95792
 30
0.0
 10
7.28203
 20
6.80233
 30
0.0
 10
7.28203
 20
6.80233
 30
0.0
 10
7.28203
 20
6.80233
 30
0.0
 10
7.28203
 20
6.80233
 30
0.0
 10
7.26185
 20
6.99491
 30
0.0
 10
7.26185
 20
6.99491
 30
0.0
 10
7.26185
 20
6.99491
 30
0.0
 10
7.26185
 20
6.99491
 30
0.0
 10
5.77723
 20
6.83943
 30
0.0
 10
5.77723
 20
6.83943
 30
0.0
 10
5.77723
 20
6.83943
 30
0.0
 10
5.77723
 20
6.83943
 30
0.0
 10
5.79853
 20
6.65806
 30
0.0
 10
5.79853
 20
6.65806
 30
0.0
 10
5.79853
 20
6.65806
 30
0.0
 10
5.79853
 20
6.65806
 30
0.0
 10
4.30411
 20
6.50151
 30
0.0
 10
4.30411
 20
6.50151
 30
0.0
 10
4.30411
 20
6.50151
 30
0.0
 10
4.30411
 20
6.50151
 30
0.0
 10
4.2842
 20
6.68431
 30
0.0
 10
4.2842
 20
6.68431
 30
0.0
 10
4.2842
 20
6.68431
 30
0.0
 10
4.2842
 20
6.68431
 30
0.0
 10
2.24986
 20
6.47209
 30
0.0
 10
2.24986
 20
6.47209
 30
0.0
 10
2.24986
 20
6.47209
 30
0.0
 10
2.24986
 20
6.47209
 30
0.0
 10
2.27266
 20
6.30615
 30
0.0
 10
2.27266
 20
6.30615
 30
0.0
 10
2.27266
 20
6.30615
 30
0.0
 10
2.27266
 20
6.30615
 30
0.0
 10
1.39601
 20
6.30615
 30
0.0
 10
1.39601
 20
6.30615
 30
0.0
 10
1.39601
 20
6.30615
 30
0.0
 10
1.39601
 20
6.30615
 30
0.0
 10
1.40262
 20
6.49123
 30
0.0
 10
1.40262
 20
6.49123
 30
0.0
 10
1.40262
 20
6.49123
 30
0.0
 10
1.40262
 20
6.49123
 30
0.0
 10
0.15246
 20
6.49123
 30
0.0
 10
0.15246
 20
6.49123
 30
0.0
 10
0.15246
 20
6.49123
 30
0.0
 10
0.15246
 20
6.49123
 30
0.0
 10
0.15246
 20
6.30616
 30
0.0
 10
0.15246
 20
6.30616
 30
0.0
 10
0.15246
 20
6.30616
 30
0.0
 10
0.15246
 20
6.30616
 30
0.0
 10
-0.86312
 20
6.30616
 30
0.0
 10
-0.86312
 20
6.30616
 30
0.0
  0
SPLINE
  5
45
330
1F
100
AcDbEntity
  8
Layer 1
 62
   250
370
     9
100
AcDbSpline
210
0.0
220
0.0
230
1.0
 70
    11
 71
     3
 72
   108
 73
   104
 74
     0
 42
0.0000000001
 43
0.0000000001
 12
1.0
 22
0.0
 32
0.0
 13
1.0
 23
0.0
 33
0.0
 40
0.0
 40
0.0
 40
0.0
 40
0.0
 40
0.037037037037037
 40
0.037037037037037
 40
0.037037037037037
 40
0.037037037037037
 40
0.0740740740740741
 40
0.0740740740740741
 40
0.0740740740740741
 40
0.0740740740740741
 40
0.1111111111111111
 40
0.1111111111111111
 40
0.1111111111111111
 40
0.1111111111111111
 40
0.1481481481481481
 40
0.1481481481481481
 40
0.1481481481481481
 40
0.1481481481481481
 40
0.1851851851851852
 40
0.1851851851851852
 40
0.1851851851851852
 40
0.1851851851851852
 40
0.2222222222222222
 40
0.2222222222222222
 40
0.2222222222222222
 40
0.2222222222222222
 40
0.2592592592592592
 40
0.2592592592592592
 40
0.2592592592592592
 40
0.2592592592592592
 40
0.2962962962962963
 40
0.2962962962962963
 40
0.2962962962962963
 40
0.2962962962962963
 40
0.3333333333333333
 40
0.3333333333333333
 40
0.3333333333333333
 40
0.3333333333333333
 40
0.3703703703703703
 40
0.3703703703703703
 40
0.3703703703703703
 40
0.3703703703703703
 40
0.4074074074074074
 40
0.4074074074074074
 40
0.4074074074074074
 40
0.4074074074074074
 40
0.4444444444444444
 40
0.4444444444444444
 40
0.4444444444444444
 40
0.4444444444444444
 40
0.4814814814814815
 40
0.4814814814814815
 40
0.4814814814814815
 40
0.4814814814814815
 40
0.5185185185185185
 40
0.5185185185185185
 40
0.5185185185185185
 40
0.5185185185185185
 40
0.5555555555555556
 40
0.5555555555555556
 40
0.5555555555555556
 40
0.5555555555555556
 40
0.5925925925925926
 40
0.5925925925925926
 40
0.5925925925925926
 40
0.5925925925925926
 40
0.6296296296296297
 40
0.6296296296296297
 40
0.6296296296296297
 40
0.6296296296296297
 40
0.6666666666666666
 40
0.6666666666666666
 40
0.6666666666666666
 40
0.6666666666666666
 40
0.7037037037037037
 40
0.7037037037037037
 40
0.7037037037037037
 40
0.7037037037037037
 40
0.7407407407407407
 40
0.7407407407407407
 40
0.7407407407407407
 40
0.7407407407407407
 40
0.7777777777777778
 40
0.7777777777777778
 40
0.7777777777777778
 40
0.7777777777777778
 40
0.8148148148148148
 40
0.8148148148148148
 40
0.8148148148148148
 40
0.8148148148148148
 40
0.8518518518518519
 40
0.8518518518518519
 40
0.8518518518518519
 40
0.8518518518518519
 40
0.8888888888888888
 40
0.8888888888888888
 40
0.8888888888888888
 40
0.8888888888888888
 40
0.9259259259259259
 40
0.9259259259259259
 40
0.9259259259259259
 40
0.9259259259259259
 40
1.0
 40
1.0
 40
1.0
 40
1.0
 10
0.97721
 20
5.18706
 30
0.0
 10
0.97721
 20
5.18706
 30
0.0
 10
0.88731
 20
5.98314
 30
0.0
 10
0.88731
 20
5.98314
 30
0.0
 10
0.88731
 20
5.98314
 30
0.0
 10
0.88731
 20
5.98314
 30
0.0
 10
2.92214
 20
6.19727
 30
0.0
 10
2.92214
 20
6.19727
 30
0.0
 10
2.92214
 20
6.19727
 30
0.0
 10
2.92214
 20
6.19727
 30
0.0
 10
2.94065
 20
5.9932
 30
0.0
 10
2.94065
 20
5.9932
 30
0.0
 10
2.94065
 20
5.9932
 30
0.0
 10
2.94065
 20
5.9932
 30
0.0
 10
4.43242
 20
6.1536
 30
0.0
 10
4.43242
 20
6.1536
 30
0.0
 10
4.43242
 20
6.1536
 30
0.0
 10
4.43242
 20
6.1536
 30
0.0
 10
4.41259
 20
6.35392
 30
0.0
 10
4.41259
 20
6.35392
 30
0.0
 10
4.41259
 20
6.35392
 30
0.0
 10
4.41259
 20
6.35392
 30
0.0
 10
5.89726
 20
6.50996
 30
0.0
 10
5.89726
 20
6.50996
 30
0.0
 10
5.89726
 20
6.50996
 30
0.0
 10
5.89726
 20
6.50996
 30
0.0
 10
5.92061
 20
6.30716
 30
0.0
 10
5.92061
 20
6.30716
 30
0.0
 10
5.92061
 20
6.30716
 30
0.0
 10
5.92061
 20
6.30716
 30
0.0
 10
7.39872
 20
6.46385
 30
0.0
 10
7.39872
 20
6.46385
 30
0.0
 10
7.39872
 20
6.46385
 30
0.0
 10
7.39872
 20
6.46385
 30
0.0
 10
7.37758
 20
6.66555
 30
0.0
 10
7.37758
 20
6.66555
 30
0.0
 10
7.37758
 20
6.66555
 30
0.0
 10
7.37758
 20
6.66555
 30
0.0
 10
8.85483
 20
6.82082
 30
0.0
 10
8.85483
 20
6.82082
 30
0.0
 10
8.85483
 20
6.82082
 30
0.0
 10
8.85483
 20
6.82082
 30
0.0
 10
8.87487
 20
6.61802
 30
0.0
 10
8.87487
 20
6.61802
 30
0.0
 10
8.87487
 20
6.61802
 30
0.0
 10
8.87487
 20
6.61802
 30
0.0
 10
10.05474
 20
6.7397
 30
0.0
 10
10.05474
 20
6.7397
 30
0.0
 10
10.05474
 20
6.7397
 30
0.0
 10
10.05474
 20
6.7397
 30
0.0
 10
10.03359
 20
6.94471
 30
0.0
 10
10.03359
 20
6.94471
 30
0.0
 10
10.03359
 20
6.94471
 30
0.0
 10
10.03359
 20
6.94471
 30
0.0
 10
11.55997
 20
7.10514
 30
0.0
 10
11.55997
 20
7.10514
 30
0.0
 10
11.55997
 20
7.10514
 30
0.0
 10
11.55997
 20
7.10514
 30
0.0
 10
11.56141
 20
6.73393
 30
0.0
 10
11.56141
 20
6.73393
 30
0.0
 10
11.56141
 20
6.73393
 30
0.0
 10
11.56141
 20
6.73393
 30
0.0
 10
8.57262
 20
6.24647
 30
0.0
 10
8.57262
 20
6.24647
 30
0.0
 10
8.57262
 20
6.24647
 30
0.0
 10
8.57262
 20
6.24647
 30
0.0
 10
8.55354
 20
6.42858
 30
0.0
 10
8.55354
 20
6.42858
 30
0.0
 10
8.55354
 20
6.42858
 30
0.0
 10
8.55354
 20
6.42858
 30
0.0
 10
7.42601
 20
6.2454
 30
0.0
 10
7.42601
 20
6.2454
 30
0.0
 10
7.42601
 20
6.2454
 30
0.0
 10
7.42601
 20
6.2454
 30
0.0
 10
7.44852
 20
6.06006
 30
0.0
 10
7.44852
 20
6.06006
 30
0.0
 10
7.44852
 20
6.06006
 30
0.0
 10
7.44852
 20
6.06006
 30
0.0
 10
5.97995
 20
5.81945
 30
0.0
 10
5.97995
 20
5.81945
 30
0.0
 10
5.97995
 20
5.81945
 30
0.0
 10
5.97995
 20
5.81945
 30
0.0
 10
5.95577
 20
6.00337
 30
0.0
 10
5.95577
 20
6.00337
 30
0.0
 10
5.95577
 20
6.00337
 30
0.0
 10
5.95577
 20
6.00337
 30
0.0
 10
4.479
 20
5.76282
 30
0.0
 10
4.479
 20
5.76282
 30
0.0
 10
4.479
 20
5.76282
 30
0.0
 10
4.479
 20
5.76282
 30
0.0
 10
4.50118
 20
5.57717
 30
0.0
 10
4.50118
 20
5.57717
 30
0.0
 10
4.50118
 20
5.57717
 30
0.0
 10
4.50118
 20
5.57717
 30
0.0
 10
3.01762
 20
5.33409
 30
0.0
 10
3.01762
 20
5.33409
 30
0.0
 10
3.01762
 20
5.33409
 30
0.0
 10
3.01762
 20
5.33409
 30
0.0
 10
2.99825
 20
5.51886
 30
0.0
 10
2.99825
 20
5.51886
 30
0.0
 10
2.99825
 20
5.51886
 30
0.0
 10
2.99825
 20
5.51886
 30
0.0
 10
0.97721
 20
5.18706
 30
0.0
 10
0.97721
 20
5.18706
 30
0.0
  0
SPLINE
  5
46
330
1F
100
AcDbEntity
  8
Layer 1
 62
   250
370
     9
100
AcDbSpline
210
0.0
220
0.0
230
1.0
 70
    11
 71
     3
 72
   108
 73
   104
 74
     0
 42
0.0000000001
 43
0.0000000001
 12
1.0
 22
0.0
 32
0.0
 13
1.0
 23
0.0
 33
0.0
 40
0.0
 40
0.0
 40
0.0
 40
0.0
 40
0.037037037037037
 40
0.037037037037037
 40
0.037037037037037
 40
0.037037037037037
 40
0.0740740740740741
 40
0.0740740740740741
 40
0.0740740740740741
 40
0.0740740740740741
 40
0.1111111111111111
 40
0.1111111111111111
 40
0.1111111111111111
 40
0.1111111111111111
 40
0.1481481481481481
 40
0.1481481481481481
 40
0.1481481481481481
 40
0.1481481481481481
 40
0.1851851851851852
 40
0.1851851851851852
 40
0.1851851851851852
 40
0.1851851851851852
 40
0.2222222222222222
 40
0.2222222222222222
 40
0.2222222222222222
 40
0.2222222222222222
 40
0.2592592592592592
 40
0.2592592592592592
 40
0.2592592592592592
 40
0.2592592592592592
 40
0.2962962962962963
 40
0.2962962962962963
 40
0.2962962962962963
 40
0.2962962962962963
 40
0.3333333333333333
 40
0.3333333333333333
 40
0.3333333333333333
 40
0.3333333333333333
 40
0.3703703703703703
 40
0.3703703703703703
 40
0.3703703703703703
 40
0.3703703703703703
 40
0.4074074074074074
 40
0.4074074074074074
 40
0.4074074074074074
 40
0.4074074074074074
 40
0.4444444444444444
 40
0.4444444444444444
 40
0.4444444444444444
 40
0.4444444444444444
 40
0.4814814814814815
 40
0.4814814814814815
 40
0.4814814814814815
 40
0.4814814814814815
 40
0.5185185185185185
 40
0.5185185185185185
 40
0.5185185185185185
 40
0.5185185185185185
 40
0.5555555555555556
 40
0.5555555555555556
 40
0.5555555555555556
 40
0.5555555555555556
 40
0.5925925925925926
 40
0.5925925925925926
 40
0.5925925925925926
 40
0.5925925925925926
 40
0.6296296296296297
 40
0.6296296296296297
 40
0.6296296296296297
 40
0.6296296296296297
 40
0.6666666666666666
 40
0.6666666666666666
 40
0.6666666666666666
 40
0.6666666666666666
 40
0.7037037037037037
 40
0.7037037037037037
 40
0.7037037037037037
 40
0.7037037037037037
 40
0.7407407407407407
 40
0.7407407407407407
 40
0.7407407407407407
 40
0.7407407407407407
 40
0.7777777777777778
 40
0.7777777777777778
 40
0.7777777777777778
 40
0.7777777777777778
 40
0.8148148148148148
 40
0.8148148148148148
 40
0.8148148148148148
 40
0.8148148148148148
 40
0.8518518518518519
 40
0.8518518518518519
 40
0.8518518518518519
 40
0.8518518518518519
 40
0.8888888888888888
 40
0.8888888888888888
 40
0.8888888888888888
 40
0.8888888888888888
 40
0.9259259259259259
 40
0.9259259259259259
 40
0.9259259259259259
 40
0.9259259259259259
 40
1.0
 40
1.0
 40
1.0
 40
1.0
 10
1.8003
 20
10.37507
 30
0.0
 10
1.8003
 20
10.37507
 30
0.0
 10
1.71066
 20
9.58128
 30
0.0
 10
1.71066
 20
9.58128
 30
0.0
 10
1.71066
 20
9.58128
 30
0.0
 10
1.71066
 20
9.58128
 30
0.0
 10
3.74549
 20
9.36715
 30
0.0
 10
3.74549
 20
9.36715
 30
0.0
 10
3.74549
 20
9.36715
 30
0.0
 10
3.74549
 20
9.36715
 30
0.0
 10
3.7662
 20
9.56901
 30
0.0
 10
3.7662
 20
9.56901
 30
0.0
 10
3.7662
 20
9.56901
 30
0.0
 10
3.7662
 20
9.56901
 30
0.0
 10
5.25589
 20
9.39769
 30
0.0
 10
5.25589
 20
9.39769
 30
0.0
 10
5.25589
 20
9.39769
 30
0.0
 10
5.25589
 20
9.39769
 30
0.0
 10
5.23594
 20
9.2105
 30
0.0
 10
5.23594
 20
9.2105
 30
0.0
 10
5.23594
 20
9.2105
 30
0.0
 10
5.23594
 20
9.2105
 30
0.0
 10
6.72061
 20
9.05446
 30
0.0
 10
6.72061
 20
9.05446
 30
0.0
 10
6.72061
 20
9.05446
 30
0.0
 10
6.72061
 20
9.05446
 30
0.0
 10
6.74065
 20
9.25836
 30
0.0
 10
6.74065
 20
9.25836
 30
0.0
 10
6.74065
 20
9.25836
 30
0.0
 10
6.74065
 20
9.25836
 30
0.0
 10
8.22428
 20
9.10166
 30
0.0
 10
8.22428
 20
9.10166
 30
0.0
 10
8.22428
 20
9.10166
 30
0.0
 10
8.22428
 20
9.10166
 30
0.0
 10
8.20093
 20
8.89887
 30
0.0
 10
8.20093
 20
8.89887
 30
0.0
 10
8.20093
 20
8.89887
 30
0.0
 10
8.20093
 20
8.89887
 30
0.0
 10
9.67818
 20
8.7436
 30
0.0
 10
9.67818
 20
8.7436
 30
0.0
 10
9.67818
 20
8.7436
 30
0.0
 10
9.67818
 20
8.7436
 30
0.0
 10
9.70152
 20
8.94531
 30
0.0
 10
9.70152
 20
8.94531
 30
0.0
 10
9.70152
 20
8.94531
 30
0.0
 10
9.70152
 20
8.94531
 30
0.0
 10
10.87918
 20
8.82252
 30
0.0
 10
10.87918
 20
8.82252
 30
0.0
 10
10.87918
 20
8.82252
 30
0.0
 10
10.87918
 20
8.82252
 30
0.0
 10
10.85694
 20
8.61971
 30
0.0
 10
10.85694
 20
8.61971
 30
0.0
 10
10.85694
 20
8.61971
 30
0.0
 10
10.85694
 20
8.61971
 30
0.0
 10
12.38332
 20
8.45928
 30
0.0
 10
12.38332
 20
8.45928
 30
0.0
 10
12.38332
 20
8.45928
 30
0.0
 10
12.38332
 20
8.45928
 30
0.0
 10
12.38476
 20
8.83049
 30
0.0
 10
12.38476
 20
8.83049
 30
0.0
 10
12.38476
 20
8.83049
 30
0.0
 10
12.38476
 20
8.83049
 30
0.0
 10
9.39597
 20
9.31795
 30
0.0
 10
9.39597
 20
9.31795
 30
0.0
 10
9.39597
 20
9.31795
 30
0.0
 10
9.39597
 20
9.31795
 30
0.0
 10
9.3791
 20
9.13583
 30
0.0
 10
9.3791
 20
9.13583
 30
0.0
 10
9.3791
 20
9.13583
 30
0.0
 10
9.3791
 20
9.13583
 30
0.0
 10
8.25157
 20
9.31901
 30
0.0
 10
8.25157
 20
9.31901
 30
0.0
 10
8.25157
 20
9.31901
 30
0.0
 10
8.25157
 20
9.31901
 30
0.0
 10
8.27187
 20
9.50436
 30
0.0
 10
8.27187
 20
9.50436
 30
0.0
 10
8.27187
 20
9.50436
 30
0.0
 10
8.27187
 20
9.50436
 30
0.0
 10
6.8033
 20
9.74497
 30
0.0
 10
6.8033
 20
9.74497
 30
0.0
 10
6.8033
 20
9.74497
 30
0.0
 10
6.8033
 20
9.74497
 30
0.0
 10
6.78022
 20
9.55995
 30
0.0
 10
6.78022
 20
9.55995
 30
0.0
 10
6.78022
 20
9.55995
 30
0.0
 10
6.78022
 20
9.55995
 30
0.0
 10
5.30345
 20
9.80268
 30
0.0
 10
5.30345
 20
9.80268
 30
0.0
 10
5.30345
 20
9.80268
 30
0.0
 10
5.30345
 20
9.80268
 30
0.0
 10
5.32453
 20
9.98725
 30
0.0
 10
5.32453
 20
9.98725
 30
0.0
 10
5.32453
 20
9.98725
 30
0.0
 10
5.32453
 20
9.98725
 30
0.0
 10
3.84097
 20
10.23033
 30
0.0
 10
3.84097
 20
10.23033
 30
0.0
 10
3.84097
 20
10.23033
 30
0.0
 10
3.84097
 20
10.23033
 30
0.0
 10
3.8172
 20
10.04556
 30
0.0
 10
3.8172
 20
10.04556
 30
0.0
 10
3.8172
 20
10.04556
 30
0.0
 10
3.8172
 20
10.04556
 30
0.0
 10
1.8003
 20
10.37507
 30
0.0
 10
1.8003
 20
10.37507
 30
0.0
  0
SPLINE
  5
47
330
1F
100
AcDbEntity
  8
Layer 1
 62
   250
370
     9
100
AcDbSpline
210
0.0
220
0.0
230
1.0
 70
    11
 71
     3
 72
   116
 73
   112
 74
     0
 42
0.0000000001
 43
0.0000000001
 12
1.0
 22
0.0
 32
0.0
 13
1.0
 23
0.0
 33
0.0
 40
0.0
 40
0.0
 40
0.0
 40
0.0
 40
0.0344827586206897
 40
0.0344827586206897
 40
0.0344827586206897
 40
0.0344827586206897
 40
0.0689655172413793
 40
0.0689655172413793
 40
0.0689655172413793
 40
0.0689655172413793
 40
0.103448275862069
 40
0.103448275862069
 40
0.103448275862069
 40
0.103448275862069
 40
0.1379310344827586
 40
0.1379310344827586
 40
0.1379310344827586
 40
0.1379310344827586
 40
0.1724137931034483
 40
0.1724137931034483
 40
0.1724137931034483
 40
0.1724137931034483
 40
0.2068965517241379
 40
0.2068965517241379
 40
0.2068965517241379
 40
0.2068965517241379
 40
0.2413793103448276
 40
0.2413793103448276
 40
0.2413793103448276
 40
0.2413793103448276
 40
0.2758620689655172
 40
0.2758620689655172
 40
0.2758620689655172
 40
0.2758620689655172
 40
0.3103448275862069
 40
0.3103448275862069
 40
0.3103448275862069
 40
0.3103448275862069
 40
0.3448275862068966
 40
0.3448275862068966
 40
0.3448275862068966
 40
0.3448275862068966
 40
0.3793103448275862
 40
0.3793103448275862
 40
0.3793103448275862
 40
0.3793103448275862
 40
0.4137931034482759
 40
0.4137931034482759
 40
0.4137931034482759
 40
0.4137931034482759
 40
0.4482758620689655
 40
0.4482758620689655
 40
0.4482758620689655
 40
0.4482758620689655
 40
0.4827586206896552
 40
0.4827586206896552
 40
0.4827586206896552
 40
0.4827586206896552
 40
0.5172413793103449
 40
0.5172413793103449
 40
0.5172413793103449
 40
0.5172413793103449
 40
0.5517241379310345
 40
0.5517241379310345
 40
0.5517241379310345
 40
0.5517241379310345
 40
0.5862068965517241
 40
0.5862068965517241
 40
0.5862068965517241
 40
0.5862068965517241
 40
0.6206896551724138
 40
0.6206896551724138
 40
0.6206896551724138
 40
0.6206896551724138
 40
0.6551724137931034
 40
0.6551724137931034
 40
0.6551724137931034
 40
0.6551724137931034
 40
0.6896551724137931
 40
0.6896551724137931
 40
0.6896551724137931
 40
0.6896551724137931
 40
0.7241379310344828
 40
0.7241379310344828
 40
0.7241379310344828
 40
0.7241379310344828
 40
0.7586206896551724
 40
0.7586206896551724
 40
0.7586206896551724
 40
0.7586206896551724
 40
0.7931034482758621
 40
0.7931034482758621
 40
0.7931034482758621
 40
0.7931034482758621
 40
0.8275862068965517
 40
0.8275862068965517
 40
0.8275862068965517
 40
0.8275862068965517
 40
0.8620689655172413
 40
0.8620689655172413
 40
0.8620689655172413
 40
0.8620689655172413
 40
0.896551724137931
 40
0.896551724137931
 40
0.896551724137931
 40
0.896551724137931
 40
0.9310344827586207
 40
0.9310344827586207
 40
0.9310344827586207
 40
0.9310344827586207
 40
1.0
 40
1.0
 40
1.0
 40
1.0
 10
10.88047
 20
3.42458
 30
0.0
 10
10.88047
 20
3.42458
 30
0.0
 10
8.83482
 20
3.52192
 30
0.0
 10
8.83482
 20
3.52192
 30
0.0
 10
8.83482
 20
3.52192
 30
0.0
 10
8.83482
 20
3.52192
 30
0.0
 10
8.84959
 20
3.70977
 30
0.0
 10
8.84959
 20
3.70977
 30
0.0
 10
8.84959
 20
3.70977
 30
0.0
 10
8.84959
 20
3.70977
 30
0.0
 10
7.35413
 20
3.78167
 30
0.0
 10
7.35413
 20
3.78167
 30
0.0
 10
7.35413
 20
3.78167
 30
0.0
 10
7.35413
 20
3.78167
 30
0.0
 10
7.33321
 20
3.59396
 30
0.0
 10
7.33321
 20
3.59396
 30
0.0
 10
7.33321
 20
3.59396
 30
0.0
 10
7.33321
 20
3.59396
 30
0.0
 10
5.83644
 20
3.66578
 30
0.0
 10
5.83644
 20
3.66578
 30
0.0
 10
5.83644
 20
3.66578
 30
0.0
 10
5.83644
 20
3.66578
 30
0.0
 10
5.86163
 20
3.85339
 30
0.0
 10
5.86163
 20
3.85339
 30
0.0
 10
5.86163
 20
3.85339
 30
0.0
 10
5.86163
 20
3.85339
 30
0.0
 10
4.37144
 20
3.92834
 30
0.0
 10
4.37144
 20
3.92834
 30
0.0
 10
4.37144
 20
3.92834
 30
0.0
 10
4.37144
 20
3.92834
 30
0.0
 10
4.35
 20
3.73709
 30
0.0
 10
4.35
 20
3.73709
 30
0.0
 10
4.35
 20
3.73709
 30
0.0
 10
4.35
 20
3.73709
 30
0.0
 10
3.21175
 20
3.7895
 30
0.0
 10
3.21175
 20
3.7895
 30
0.0
 10
3.21175
 20
3.7895
 30
0.0
 10
3.21175
 20
3.7895
 30
0.0
 10
3.23231
 20
3.97978
 30
0.0
 10
3.23231
 20
3.97978
 30
0.0
 10
3.23231
 20
3.97978
 30
0.0
 10
3.23231
 20
3.97978
 30
0.0
 10
0.13283
 20
4.11706
 30
0.0
 10
0.13283
 20
4.11706
 30
0.0
 10
0.13283
 20
4.11706
 30
0.0
 10
0.13283
 20
4.11706
 30
0.0
 10
0.11736
 20
4.50941
 30
0.0
 10
0.11736
 20
4.50941
 30
0.0
 10
0.11736
 20
4.50941
 30
0.0
 10
0.11736
 20
4.50941
 30
0.0
 10
3.17401
 20
5.00822
 30
0.0
 10
3.17401
 20
5.00822
 30
0.0
 10
3.17401
 20
5.00822
 30
0.0
 10
3.17401
 20
5.00822
 30
0.0
 10
3.13381
 20
5.18839
 30
0.0
 10
3.13381
 20
5.18839
 30
0.0
 10
3.13381
 20
5.18839
 30
0.0
 10
3.13381
 20
5.18839
 30
0.0
 10
4.25925
 20
5.37189
 30
0.0
 10
4.25925
 20
5.37189
 30
0.0
 10
4.25925
 20
5.37189
 30
0.0
 10
4.25925
 20
5.37189
 30
0.0
 10
4.30009
 20
5.18927
 30
0.0
 10
4.30009
 20
5.18927
 30
0.0
 10
4.30009
 20
5.18927
 30
0.0
 10
4.30009
 20
5.18927
 30
0.0
 10
5.76776
 20
5.42866
 30
0.0
 10
5.76776
 20
5.42866
 30
0.0
 10
5.76776
 20
5.42866
 30
0.0
 10
5.76776
 20
5.42866
 30
0.0
 10
5.73078
 20
5.61182
 30
0.0
 10
5.73078
 20
5.61182
 30
0.0
 10
5.73078
 20
5.61182
 30
0.0
 10
5.73078
 20
5.61182
 30
0.0
 10
7.2138
 20
5.85251
 30
0.0
 10
7.2138
 20
5.85251
 30
0.0
 10
7.2138
 20
5.85251
 30
0.0
 10
7.2138
 20
5.85251
 30
0.0
 10
7.25437
 20
5.67201
 30
0.0
 10
7.25437
 20
5.67201
 30
0.0
 10
7.25437
 20
5.67201
 30
0.0
 10
7.25437
 20
5.67201
 30
0.0
 10
8.73868
 20
5.91393
 30
0.0
 10
8.73868
 20
5.91393
 30
0.0
 10
8.73868
 20
5.91393
 30
0.0
 10
8.73868
 20
5.91393
 30
0.0
 10
8.69785
 20
6.09558
 30
0.0
 10
8.69785
 20
6.09558
 30
0.0
 10
8.69785
 20
6.09558
 30
0.0
 10
8.69785
 20
6.09558
 30
0.0
 10
10.70986
 20
6.41965
 30
0.0
 10
10.70986
 20
6.41965
 30
0.0
 10
10.70986
 20
6.41965
 30
0.0
 10
10.70986
 20
6.41965
 30
0.0
 10
10.7668
 20
5.41997
 30
0.0
 10
10.7668
 20
5.41997
 30
0.0
 10
10.7668
 20
5.41997
 30
0.0
 10
10.7668
 20
5.41997
 30
0.0
 10
10.96808
 20
5.43144
 30
0.0
 10
10.96808
 20
5.43144
 30
0.0
 10
10.96808
 20
5.43144
 30
0.0
 10
10.96808
 20
5.43144
 30
0.0
 10
11.02451
 20
4.44086
 30
0.0
 10
11.02451
 20
4.44086
 30
0.0
 10
11.02451
 20
4.44086
 30
0.0
 10
11.02451
 20
4.44086
 30
0.0
 10
10.82321
 20
4.42982
 30
0.0
 10
10.82321
 20
4.42982
 30
0.0
 10
10.82321
 20
4.42982
 30
0.0
 10
10.82321
 20
4.42982
 30
0.0
 10
10.88047
 20
3.42458
 30
0.0
 10
10.88047
 20
3.42458
 30
0.0
  0
SPLINE
  5
48
330
1F
100
AcDbEntity
  8
Layer 1
 62
   250
370
     9
100
AcDbSpline
210
0.0
220
0.0
230
1.0
 70
    11
 71
     3
 72
    84
 73
    80
 74
     0
 42
0.0000000001
 43
0.0000000001
 12
1.0
 22
0.0
 32
0.0
 13
1.0
 23
0.0
 33
0.0
 40
0.0
 40
0.0
 40
0.0
 40
0.0
 40
0.0476190476190476
 40
0.0476190476190476
 40
0.0476190476190476
 40
0.0476190476190476
 40
0.0952380952380952
 40
0.0952380952380952
 40
0.0952380952380952
 40
0.0952380952380952
 40
0.1428571428571428
 40
0.1428571428571428
 40
0.1428571428571428
 40
0.1428571428571428
 40
0.1904761904761905
 40
0.1904761904761905
 40
0.1904761904761905
 40
0.1904761904761905
 40
0.2380952380952381
 40
0.2380952380952381
 40
0.2380952380952381
 40
0.2380952380952381
 40
0.2857142857142857
 40
0.2857142857142857
 40
0.2857142857142857
 40
0.2857142857142857
 40
0.3333333333333333
 40
0.3333333333333333
 40
0.3333333333333333
 40
0.3333333333333333
 40
0.3809523809523809
 40
0.3809523809523809
 40
0.3809523809523809
 40
0.3809523809523809
 40
0.4285714285714285
 40
0.4285714285714285
 40
0.4285714285714285
 40
0.4285714285714285
 40
0.4761904761904762
 40
0.4761904761904762
 40
0.4761904761904762
 40
0.4761904761904762
 40
0.5238095238095238
 40
0.5238095238095238
 40
0.5238095238095238
 40
0.5238095238095238
 40
0.5714285714285714
 40
0.5714285714285714
 40
0.5714285714285714
 40
0.5714285714285714
 40
0.6190476190476191
 40
0.6190476190476191
 40
0.6190476190476191
 40
0.6190476190476191
 40
0.6666666666666666
 40
0.6666666666666666
 40
0.6666666666666666
 40
0.6666666666666666
 40
0.7142857142857143
 40
0.7142857142857143
 40
0.7142857142857143
 40
0.7142857142857143
 40
0.7619047619047619
 40
0.7619047619047619
 40
0.7619047619047619
 40
0.7619047619047619
 40
0.8095238095238095
 40
0.8095238095238095
 40
0.8095238095238095
 40
0.8095238095238095
 40
0.8571428571428571
 40
0.8571428571428571
 40
0.8571428571428571
 40
0.8571428571428571
 40
0.9047619047619048
 40
0.9047619047619048
 40
0.9047619047619048
 40
0.9047619047619048
 40
1.0
 40
1.0
 40
1.0
 40
1.0
 10
-15.26109
 20
3.11365
 30
0.0
 10
-15.26109
 20
3.11365
 30
0.0
 10
-15.26109
 20
3.58386
 30
0.0
 10
-15.26109
 20
3.58386
 30
0.0
 10
-15.26109
 20
3.58386
 30
0.0
 10
-15.26109
 20
3.58386
 30
0.0
 10
-9.6163
 20
3.58386
 30
0.0
 10
-9.6163
 20
3.58386
 30
0.0
 10
-9.6163
 20
3.58386
 30
0.0
 10
-9.6163
 20
3.58386
 30
0.0
 10
-9.6163
 20
3.11365
 30
0.0
 10
-9.6163
 20
3.11365
 30
0.0
 10
-9.6163
 20
3.11365
 30
0.0
 10
-9.6163
 20
3.11365
 30
0.0
 10
-9.41914
 20
3.11283
 30
0.0
 10
-9.41914
 20
3.11283
 30
0.0
 10
-9.41914
 20
3.11283
 30
0.0
 10
-9.41914
 20
3.11283
 30
0.0
 10
-9.41914
 20
2.31883
 30
0.0
 10
-9.41914
 20
2.31883
 30
0.0
 10
-9.41914
 20
2.31883
 30
0.0
 10
-9.41914
 20
2.31883
 30
0.0
 10
-9.6163
 20
2.31882
 30
0.0
 10
-9.6163
 20
2.31882
 30
0.0
 10
-9.6163
 20
2.31882
 30
0.0
 10
-9.6163
 20
2.31882
 30
0.0
 10
-9.6163
 20
1.75078
 30
0.0
 10
-9.6163
 20
1.75078
 30
0.0
 10
-9.6163
 20
1.75078
 30
0.0
 10
-9.6163
 20
1.75078
 30
0.0
 10
-10.40196
 20
1.75077
 30
0.0
 10
-10.40196
 20
1.75077
 30
0.0
 10
-10.40196
 20
1.75077
 30
0.0
 10
-10.40196
 20
1.75077
 30
0.0
 10
-10.40115
 20
1.55432
 30
0.0
 10
-10.40115
 20
1.55432
 30
0.0
 10
-10.40115
 20
1.55432
 30
0.0
 10
-10.40115
 20
1.55432
 30
0.0
 10
-11.4072
 20
1.55432
 30
0.0
 10
-11.4072
 20
1.55432
 30
0.0
 10
-11.4072
 20
1.55432
 30
0.0
 10
-11.4072
 20
1.55432
 30
0.0
 10
-11.40637
 20
1.75077
 30
0.0
 10
-11.40637
 20
1.75077
 30
0.0
 10
-11.40637
 20
1.75077
 30
0.0
 10
-11.40637
 20
1.75077
 30
0.0
 10
-13.37345
 20
1.75077
 30
0.0
 10
-13.37345
 20
1.75077
 30
0.0
 10
-13.37345
 20
1.75077
 30
0.0
 10
-13.37345
 20
1.75077
 30
0.0
 10
-13.37181
 20
1.55432
 30
0.0
 10
-13.37181
 20
1.55432
 30
0.0
 10
-13.37181
 20
1.55432
 30
0.0
 10
-13.37181
 20
1.55432
 30
0.0
 10
-14.37581
 20
1.55432
 30
0.0
 10
-14.37581
 20
1.55432
 30
0.0
 10
-14.37581
 20
1.55432
 30
0.0
 10
-14.37581
 20
1.55432
 30
0.0
 10
-14.37498
 20
1.75077
 30
0.0
 10
-14.37498
 20
1.75077
 30
0.0
 10
-14.37498
 20
1.75077
 30
0.0
 10
-14.37498
 20
1.75077
 30
0.0
 10
-15.26109
 20
1.75078
 30
0.0
 10
-15.26109
 20
1.75078
 30
0.0
 10
-15.26109
 20
1.75078
 30
0.0
 10
-15.26109
 20
1.75078
 30
0.0
 10
-15.26109
 20
2.31636
 30
0.0
 10
-15.26109
 20
2.31636
 30
0.0
 10
-15.26109
 20
2.31636
 30
0.0
 10
-15.26109
 20
2.31636
 30
0.0
 10
-15.45756
 20
2.31636
 30
0.0
 10
-15.45756
 20
2.31636
 30
0.0
 10
-15.45756
 20
2.31636
 30
0.0
 10
-15.45756
 20
2.31636
 30
0.0
 10
-15.45756
 20
3.11446
 30
0.0
 10
-15.45756
 20
3.11446
 30
0.0
 10
-15.45756
 20
3.11446
 30
0.0
 10
-15.45756
 20
3.11446
 30
0.0
 10
-15.26109
 20
3.11365
 30
0.0
 10
-15.26109
 20
3.11365
 30
0.0
  0
SPLINE
  5
49
330
1F
100
AcDbEntity
  8
Layer 1
 62
   250
370
     9
100
AcDbSpline
210
0.0
220
0.0
230
1.0
 70
    11
 71
     3
 72
    20
 73
    16
 74
     0
 42
0.0000000001
 43
0.0000000001
 12
1.0
 22
0.0
 32
0.0
 13
1.0
 23
0.0
 33
0.0
 40
0.0
 40
0.0
 40
0.0
 40
0.0
 40
0.2
 40
0.2
 40
0.2
 40
0.2
 40
0.4
 40
0.4
 40
0.4
 40
0.4
 40
0.6
 40
0.6
 40
0.6
 40
0.6
 40
1.0
 40
1.0
 40
1.0
 40
1.0
 10
-11.53132
 20
5.7851
 30
0.0
 10
-11.53132
 20
5.7851
 30
0.0
 10
-12.00132
 20
5.7851
 30
0.0
 10
-12.00132
 20
5.7851
 30
0.0
 10
-12.00132
 20
5.7851
 30
0.0
 10
-12.00132
 20
5.7851
 30
0.0
 10
-12.00132
 20
4.26203
 30
0.0
 10
-12.00132
 20
4.26203
 30
0.0
 10
-12.00132
 20
4.26203
 30
0.0
 10
-12.00132
 20
4.26203
 30
0.0
 10
-11.53133
 20
4.26203
 30
0.0
 10
-11.53133
 20
4.26203
 30
0.0
 10
-11.53133
 20
4.26203
 30
0.0
 10
-11.53133
 20
4.26203
 30
0.0
 10
-11.53132
 20
5.7851
 30
0.0
 10
-11.53132
 20
5.7851
 30
0.0
  0
SPLINE
  5
4A
330
1F
100
AcDbEntity
  8
Layer 1
 62
   250
370
     9
100
AcDbSpline
210
0.0
220
0.0
230
1.0
 70
     8
 71
     3
 72
    40
 73
    36
 74
     0
 42
0.0000000001
 43
0.0000000001
 12
1.0
 22
0.0
 32
0.0
 13
1.0
 23
0.0
 33
0.0
 40
0.0
 40
0.0
 40
0.0
 40
0.0
 40
0.1
 40
0.1
 40
0.1
 40
0.1
 40
0.2
 40
0.2
 40
0.2
 40
0.2
 40
0.3
 40
0.3
 40
0.3
 40
0.3
 40
0.4
 40
0.4
 40
0.4
 40
0.4
 40
0.5
 40
0.5
 40
0.5
 40
0.5
 40
0.6
 40
0.6
 40
0.6
 40
0.6
 40
0.7
 40
0.7
 40
0.7
 40
0.7
 40
0.8
 40
0.8
 40
0.8
 40
0.8
 40
1.0
 40
1.0
 40
1.0
 40
1.0
 10
-11.18132
 20
4.08203
 30
0.0
 10
-11.18132
 20
4.08203
 30
0.0
 10
-11.18132
 20
5.07222
 30
0.0
 10
-11.18132
 20
5.07222
 30
0.0
 10
-11.18132
 20
5.07222
 30
0.0
 10
-11.18132
 20
5.07222
 30
0.0
 10
-11.38321
 20
5.07222
 30
0.0
 10
-11.38321
 20
5.07222
 30
0.0
 10
-11.38321
 20
5.07222
 30
0.0
 10
-11.38321
 20
5.07222
 30
0.0
 10
-11.38321
 20
6.0619
 30
0.0
 10
-11.38321
 20
6.0619
 30
0.0
 10
-11.38321
 20
6.0619
 30
0.0
 10
-11.38321
 20
6.0619
 30
0.0
 10
-11.18132
 20
6.0619
 30
0.0
 10
-11.18132
 20
6.0619
 30
0.0
 10
-11.18132
 20
6.0619
 30
0.0
 10
-11.18132
 20
6.0619
 30
0.0
 10
-11.18132
 20
8.04207
 30
0.0
 10
-11.18132
 20
8.04207
 30
0.0
 10
-11.18132
 20
8.04207
 30
0.0
 10
-11.18132
 20
8.04207
 30
0.0
 10
-11.38321
 20
8.04207
 30
0.0
 10
-11.38321
 20
8.04207
 30
0.0
 10
-11.38321
 20
8.04207
 30
0.0
 10
-11.38321
 20
8.04207
 30
0.0
 10
-11.38321
 20
9.03215
 30
0.0
 10
-11.38321
 20
9.03215
 30
0.0
 10
-11.38321
 20
9.03215
 30
0.0
 10
-11.38321
 20
9.03215
 30
0.0
 10
-11.18132
 20
9.03215
 30
0.0
 10
-11.18132
 20
9.03215
 30
0.0
 10
-11.18132
 20
9.03215
 30
0.0
 10
-11.18132
 20
9.03215
 30
0.0
 10
-11.18132
 20
10.12045
 30
0.0
 10
-11.18132
 20
10.12045
 30
0.0
  0
SPLINE
  5
4B
330
1F
100
AcDbEntity
  8
Layer 1
 62
   250
370
     9
100
AcDbSpline
210
0.0
220
0.0
230
1.0
 70
     8
 71
     3
 72
    80
 73
    76
 74
     0
 42
0.0000000001
 43
0.0000000001
 12
1.0
 22
0.0
 32
0.0
 13
1.0
 23
0.0
 33
0.0
 40
0.0
 40
0.0
 40
0.0
 40
0.0
 40
0.05
 40
0.05
 40
0.05
 40
0.05
 40
0.1
 40
0.1
 40
0.1
 40
0.1
 40
0.15
 40
0.15
 40
0.15
 40
0.15
 40
0.2
 40
0.2
 40
0.2
 40
0.2
 40
0.25
 40
0.25
 40
0.25
 40
0.25
 40
0.3
 40
0.3
 40
0.3
 40
0.3
 40
0.35
 40
0.35
 40
0.35
 40
0.35
 40
0.4
 40
0.4
 40
0.4
 40
0.4
 40
0.45
 40
0.45
 40
0.45
 40
0.45
 40
0.5
 40
0.5
 40
0.5
 40
0.5
 40
0.55
 40
0.55
 40
0.55
 40
0.55
 40
0.6
 40
0.6
 40
0.6
 40
0.6
 40
0.65
 40
0.65
 40
0.65
 40
0.65
 40
0.7
 40
0.7
 40
0.7
 40
0.7
 40
0.75
 40
0.75
 40
0.75
 40
0.75
 40
0.8
 40
0.8
 40
0.8
 40
0.8
 40
0.85
 40
0.85
 40
0.85
 40
0.85
 40
0.9
 40
0.9
 40
0.9
 40
0.9
 40
1.0
 40
1.0
 40
1.0
 40
1.0
 10
-11.18132
 20
10.12045
 30
0.0
 10
-11.18132
 20
10.12045
 30
0.0
 10
-12.67082
 20
10.12045
 30
0.0
 10
-12.67082
 20
10.12045
 30
0.0
 10
-12.67082
 20
10.12045
 30
0.0
 10
-12.67082
 20
10.12045
 30
0.0
 10
-12.67082
 20
9.92398
 30
0.0
 10
-12.67082
 20
9.92398
 30
0.0
 10
-12.67082
 20
9.92398
 30
0.0
 10
-12.67082
 20
9.92398
 30
0.0
 10
-14.19007
 20
9.92398
 30
0.0
 10
-14.19007
 20
9.92398
 30
0.0
 10
-14.19007
 20
9.92398
 30
0.0
 10
-14.19007
 20
9.92398
 30
0.0
 10
-14.19007
 20
10.12045
 30
0.0
 10
-14.19007
 20
10.12045
 30
0.0
 10
-14.19007
 20
10.12045
 30
0.0
 10
-14.19007
 20
10.12045
 30
0.0
 10
-15.67406
 20
10.12045
 30
0.0
 10
-15.67406
 20
10.12045
 30
0.0
 10
-15.67406
 20
10.12045
 30
0.0
 10
-15.67406
 20
10.12045
 30
0.0
 10
-15.67406
 20
9.03215
 30
0.0
 10
-15.67406
 20
9.03215
 30
0.0
 10
-15.67406
 20
9.03215
 30
0.0
 10
-15.67406
 20
9.03215
 30
0.0
 10
-15.47601
 20
9.03215
 30
0.0
 10
-15.47601
 20
9.03215
 30
0.0
 10
-15.47601
 20
9.03215
 30
0.0
 10
-15.47601
 20
9.03215
 30
0.0
 10
-15.47601
 20
8.04207
 30
0.0
 10
-15.47601
 20
8.04207
 30
0.0
 10
-15.47601
 20
8.04207
 30
0.0
 10
-15.47601
 20
8.04207
 30
0.0
 10
-15.67406
 20
8.04207
 30
0.0
 10
-15.67406
 20
8.04207
 30
0.0
 10
-15.67406
 20
8.04207
 30
0.0
 10
-15.67406
 20
8.04207
 30
0.0
 10
-15.67406
 20
6.0619
 30
0.0
 10
-15.67406
 20
6.0619
 30
0.0
 10
-15.67406
 20
6.0619
 30
0.0
 10
-15.67406
 20
6.0619
 30
0.0
 10
-15.47601
 20
6.0619
 30
0.0
 10
-15.47601
 20
6.0619
 30
0.0
 10
-15.47601
 20
6.0619
 30
0.0
 10
-15.47601
 20
6.0619
 30
0.0
 10
-15.47601
 20
5.07222
 30
0.0
 10
-15.47601
 20
5.07222
 30
0.0
 10
-15.47601
 20
5.07222
 30
0.0
 10
-15.47601
 20
5.07222
 30
0.0
 10
-15.67406
 20
5.07222
 30
0.0
 10
-15.67406
 20
5.07222
 30
0.0
 10
-15.67406
 20
5.07222
 30
0.0
 10
-15.67406
 20
5.07222
 30
0.0
 10
-15.67406
 20
4.08203
 30
0.0
 10
-15.67406
 20
4.08203
 30
0.0
 10
-15.67406
 20
4.08203
 30
0.0
 10
-15.67406
 20
4.08203
 30
0.0
 10
-14.19007
 20
4.08203
 30
0.0
 10
-14.19007
 20
4.08203
 30
0.0
 10
-14.19007
 20
4.08203
 30
0.0
 10
-14.19007
 20
4.08203
 30
0.0
 10
-14.19007
 20
4.27919
 30
0.0
 10
-14.19007
 20
4.27919
 30
0.0
 10
-14.19007
 20
4.27919
 30
0.0
 10
-14.19007
 20
4.27919
 30
0.0
 10
-12.67083
 20
4.27919
 30
0.0
 10
-12.67083
 20
4.27919
 30
0.0
 10
-12.67083
 20
4.27919
 30
0.0
 10
-12.67083
 20
4.27919
 30
0.0
 10
-12.67083
 20
4.08203
 30
0.0
 10
-12.67083
 20
4.08203
 30
0.0
 10
-12.67083
 20
4.08203
 30
0.0
 10
-12.67083
 20
4.08203
 30
0.0
 10
-11.18132
 20
4.08203
 30
0.0
 10
-11.18132
 20
4.08203
 30
0.0
  0
SPLINE
  5
4C
330
1F
100
AcDbEntity
  8
Layer 1
 62
   250
370
     9
100
AcDbSpline
210
0.0
220
0.0
230
1.0
 70
    11
 71
     3
 72
    68
 73
    64
 74
     0
 42
0.0000000001
 43
0.0000000001
 12
1.0
 22
0.0
 32
0.0
 13
1.0
 23
0.0
 33
0.0
 40
0.0
 40
0.0
 40
0.0
 40
0.0
 40
0.0588235294117647
 40
0.0588235294117647
 40
0.0588235294117647
 40
0.0588235294117647
 40
0.1176470588235294
 40
0.1176470588235294
 40
0.1176470588235294
 40
0.1176470588235294
 40
0.1764705882352941
 40
0.1764705882352941
 40
0.1764705882352941
 40
0.1764705882352941
 40
0.2352941176470588
 40
0.2352941176470588
 40
0.2352941176470588
 40
0.2352941176470588
 40
0.2941176470588235
 40
0.2941176470588235
 40
0.2941176470588235
 40
0.2941176470588235
 40
0.3529411764705883
 40
0.3529411764705883
 40
0.3529411764705883
 40
0.3529411764705883
 40
0.4117647058823529
 40
0.4117647058823529
 40
0.4117647058823529
 40
0.4117647058823529
 40
0.4705882352941176
 40
0.4705882352941176
 40
0.4705882352941176
 40
0.4705882352941176
 40
0.5294117647058824
 40
0.5294117647058824
 40
0.5294117647058824
 40
0.5294117647058824
 40
0.5882352941176471
 40
0.5882352941176471
 40
0.5882352941176471
 40
0.5882352941176471
 40
0.6470588235294118
 40
0.6470588235294118
 40
0.6470588235294118
 40
0.6470588235294118
 40
0.7058823529411765
 40
0.7058823529411765
 40
0.7058823529411765
 40
0.7058823529411765
 40
0.7647058823529411
 40
0.7647058823529411
 40
0.7647058823529411
 40
0.7647058823529411
 40
0.8235294117647058
 40
0.8235294117647058
 40
0.8235294117647058
 40
0.8235294117647058
 40
0.8823529411764706
 40
0.8823529411764706
 40
0.8823529411764706
 40
0.8823529411764706
 40
1.0
 40
1.0
 40
1.0
 40
1.0
 10
-1.29834
 20
1.77935
 30
0.0
 10
-1.29834
 20
1.77935
 30
0.0
 10
-2.77677
 20
1.77935
 30
0.0
 10
-2.77677
 20
1.77935
 30
0.0
 10
-2.77677
 20
1.77935
 30
0.0
 10
-2.77677
 20
1.77935
 30
0.0
 10
-2.77677
 20
2.37095
 30
0.0
 10
-2.77677
 20
2.37095
 30
0.0
 10
-2.77677
 20
2.37095
 30
0.0
 10
-2.77677
 20
2.37095
 30
0.0
 10
-2.57486
 20
2.37259
 30
0.0
 10
-2.57486
 20
2.37259
 30
0.0
 10
-2.57486
 20
2.37259
 30
0.0
 10
-2.57486
 20
2.37259
 30
0.0
 10
-2.57486
 20
3.11257
 30
0.0
 10
-2.57486
 20
3.11257
 30
0.0
 10
-2.57486
 20
3.11257
 30
0.0
 10
-2.57486
 20
3.11257
 30
0.0
 10
-2.77677
 20
3.11258
 30
0.0
 10
-2.77677
 20
3.11258
 30
0.0
 10
-2.77677
 20
3.11258
 30
0.0
 10
-2.77677
 20
3.11258
 30
0.0
 10
-2.77677
 20
3.61015
 30
0.0
 10
-2.77677
 20
3.61015
 30
0.0
 10
-2.77677
 20
3.61015
 30
0.0
 10
-2.77677
 20
3.61015
 30
0.0
 10
1.71598
 20
3.61015
 30
0.0
 10
1.71598
 20
3.61015
 30
0.0
 10
1.71598
 20
3.61015
 30
0.0
 10
1.71598
 20
3.61015
 30
0.0
 10
1.71598
 20
3.11257
 30
0.0
 10
1.71598
 20
3.11257
 30
0.0
 10
1.71598
 20
3.11257
 30
0.0
 10
1.71598
 20
3.11257
 30
0.0
 10
1.51794
 20
3.11257
 30
0.0
 10
1.51794
 20
3.11257
 30
0.0
 10
1.51794
 20
3.11257
 30
0.0
 10
1.51794
 20
3.11257
 30
0.0
 10
1.51794
 20
2.37259
 30
0.0
 10
1.51794
 20
2.37259
 30
0.0
 10
1.51794
 20
2.37259
 30
0.0
 10
1.51794
 20
2.37259
 30
0.0
 10
1.71598
 20
2.37423
 30
0.0
 10
1.71598
 20
2.37423
 30
0.0
 10
1.71598
 20
2.37423
 30
0.0
 10
1.71598
 20
2.37423
 30
0.0
 10
1.71598
 20
1.77935
 30
0.0
 10
1.71598
 20
1.77935
 30
0.0
 10
1.71598
 20
1.77935
 30
0.0
 10
1.71598
 20
1.77935
 30
0.0
 10
0.24219
 20
1.77935
 30
0.0
 10
0.24219
 20
1.77935
 30
0.0
 10
0.24219
 20
1.77935
 30
0.0
 10
0.24219
 20
1.77935
 30
0.0
 10
0.24219
 20
1.58088
 30
0.0
 10
0.24219
 20
1.58088
 30
0.0
 10
0.24219
 20
1.58088
 30
0.0
 10
0.24219
 20
1.58088
 30
0.0
 10
-1.29834
 20
1.58088
 30
0.0
 10
-1.29834
 20
1.58088
 30
0.0
 10
-1.29834
 20
1.58088
 30
0.0
 10
-1.29834
 20
1.58088
 30
0.0
 10
-1.29834
 20
1.77935
 30
0.0
 10
-1.29834
 20
1.77935
 30
0.0
  0
SPLINE
  5
4D
330
1F
100
AcDbEntity
  8
Layer 1
 62
   250
370
     9
100
AcDbSpline
210
0.0
220
0.0
230
1.0
 70
    11
 71
     3
 72
    68
 73
    64
 74
     0
 42
0.0000000001
 43
0.0000000001
 12
1.0
 22
0.0
 32
0.0
 13
1.0
 23
0.0
 33
0.0
 40
0.0
 40
0.0
 40
0.0
 40
0.0
 40
0.0588235294117647
 40
0.0588235294117647
 40
0.0588235294117647
 40
0.0588235294117647
 40
0.1176470588235294
 40
0.1176470588235294
 40
0.1176470588235294
 40
0.1176470588235294
 40
0.1764705882352941
 40
0.1764705882352941
 40
0.1764705882352941
 40
0.1764705882352941
 40
0.2352941176470588
 40
0.2352941176470588
 40
0.2352941176470588
 40
0.2352941176470588
 40
0.2941176470588235
 40
0.2941176470588235
 40
0.2941176470588235
 40
0.2941176470588235
 40
0.3529411764705883
 40
0.3529411764705883
 40
0.3529411764705883
 40
0.3529411764705883
 40
0.4117647058823529
 40
0.4117647058823529
 40
0.4117647058823529
 40
0.4117647058823529
 40
0.4705882352941176
 40
0.4705882352941176
 40
0.4705882352941176
 40
0.4705882352941176
 40
0.5294117647058824
 40
0.5294117647058824
 40
0.5294117647058824
 40
0.5294117647058824
 40
0.5882352941176471
 40
0.5882352941176471
 40
0.5882352941176471
 40
0.5882352941176471
 40
0.6470588235294118
 40
0.6470588235294118
 40
0.6470588235294118
 40
0.6470588235294118
 40
0.7058823529411765
 40
0.7058823529411765
 40
0.7058823529411765
 40
0.7058823529411765
 40
0.7647058823529411
 40
0.7647058823529411
 40
0.7647058823529411
 40
0.7647058823529411
 40
0.8235294117647058
 40
0.8235294117647058
 40
0.8235294117647058
 40
0.8235294117647058
 40
0.8823529411764706
 40
0.8823529411764706
 40
0.8823529411764706
 40
0.8823529411764706
 40
1.0
 40
1.0
 40
1.0
 40
1.0
 10
3.53633
 20
1.67006
 30
0.0
 10
3.53633
 20
1.67006
 30
0.0
 10
2.0579
 20
1.67006
 30
0.0
 10
2.0579
 20
1.67006
 30
0.0
 10
2.0579
 20
1.67006
 30
0.0
 10
2.0579
 20
1.67006
 30
0.0
 10
2.0579
 20
2.26166
 30
0.0
 10
2.0579
 20
2.26166
 30
0.0
 10
2.0579
 20
2.26166
 30
0.0
 10
2.0579
 20
2.26166
 30
0.0
 10
2.25981
 20
2.2633
 30
0.0
 10
2.25981
 20
2.2633
 30
0.0
 10
2.25981
 20
2.2633
 30
0.0
 10
2.25981
 20
2.2633
 30
0.0
 10
2.25981
 20
3.00328
 30
0.0
 10
2.25981
 20
3.00328
 30
0.0
 10
2.25981
 20
3.00328
 30
0.0
 10
2.25981
 20
3.00328
 30
0.0
 10
2.0579
 20
3.00329
 30
0.0
 10
2.0579
 20
3.00329
 30
0.0
 10
2.0579
 20
3.00329
 30
0.0
 10
2.0579
 20
3.00329
 30
0.0
 10
2.0579
 20
3.50086
 30
0.0
 10
2.0579
 20
3.50086
 30
0.0
 10
2.0579
 20
3.50086
 30
0.0
 10
2.0579
 20
3.50086
 30
0.0
 10
6.55065
 20
3.50086
 30
0.0
 10
6.55065
 20
3.50086
 30
0.0
 10
6.55065
 20
3.50086
 30
0.0
 10
6.55065
 20
3.50086
 30
0.0
 10
6.55065
 20
3.00328
 30
0.0
 10
6.55065
 20
3.00328
 30
0.0
 10
6.55065
 20
3.00328
 30
0.0
 10
6.55065
 20
3.00328
 30
0.0
 10
6.35261
 20
3.00328
 30
0.0
 10
6.35261
 20
3.00328
 30
0.0
 10
6.35261
 20
3.00328
 30
0.0
 10
6.35261
 20
3.00328
 30
0.0
 10
6.35261
 20
2.2633
 30
0.0
 10
6.35261
 20
2.2633
 30
0.0
 10
6.35261
 20
2.2633
 30
0.0
 10
6.35261
 20
2.2633
 30
0.0
 10
6.55065
 20
2.26494
 30
0.0
 10
6.55065
 20
2.26494
 30
0.0
 10
6.55065
 20
2.26494
 30
0.0
 10
6.55065
 20
2.26494
 30
0.0
 10
6.55065
 20
1.67006
 30
0.0
 10
6.55065
 20
1.67006
 30
0.0
 10
6.55065
 20
1.67006
 30
0.0
 10
6.55065
 20
1.67006
 30
0.0
 10
5.07686
 20
1.67006
 30
0.0
 10
5.07686
 20
1.67006
 30
0.0
 10
5.07686
 20
1.67006
 30
0.0
 10
5.07686
 20
1.67006
 30
0.0
 10
5.07686
 20
1.47159
 30
0.0
 10
5.07686
 20
1.47159
 30
0.0
 10
5.07686
 20
1.47159
 30
0.0
 10
5.07686
 20
1.47159
 30
0.0
 10
3.53633
 20
1.47159
 30
0.0
 10
3.53633
 20
1.47159
 30
0.0
 10
3.53633
 20
1.47159
 30
0.0
 10
3.53633
 20
1.47159
 30
0.0
 10
3.53633
 20
1.67006
 30
0.0
 10
3.53633
 20
1.67006
 30
0.0
  0
ELLIPSE
  5
4E
330
1F
100
AcDbEntity
  8
Layer 1
 62
   250
370
     9
100
AcDbEllipse
 10
-1.39051
 20
4.84684
 30
0.0
 11
0.1178
 21
0.0
 31
0.0
210
0.0
220
0.0
230
1.0
 40
0.6363327674023769
 41
0.0
 42
6.283185307179586
  0
SPLINE
  5
4F
330
1F
100
AcDbEntity
  8
Layer 1
 62
   250
370
     9
100
AcDbSpline
210
0.0
220
0.0
230
1.0
 70
    11
 71
     3
 72
    20
 73
    16
 74
     0
 42
0.0000000001
 43
0.0000000001
 12
1.0
 22
0.0
 32
0.0
 13
1.0
 23
0.0
 33
0.0
 40
0.0
 40
0.0
 40
0.0
 40
0.0
 40
0.2
 40
0.2
 40
0.2
 40
0.2
 40
0.4
 40
0.4
 40
0.4
 40
0.4
 40
0.6
 40
0.6
 40
0.6
 40
0.6
 40
1.0
 40
1.0
 40
1.0
 40
1.0
 10
-0.88787
 20
5.13817
 30
0.0
 10
-0.88787
 20
5.13817
 30
0.0
 10
-1.88006
 20
5.13817
 30
0.0
 10
-1.88006
 20
5.13817
 30
0.0
 10
-1.88006
 20
5.13817
 30
0.0
 10
-1.88006
 20
5.13817
 30
0.0
 10
-1.88006
 20
5.33
 30
0.0
 10
-1.88006
 20
5.33
 30
0.0
 10
-1.88006
 20
5.33
 30
0.0
 10
-1.88006
 20
5.33
 30
0.0
 10
-0.88787
 20
5.33
 30
0.0
 10
-0.88787
 20
5.33
 30
0.0
 10
-0.88787
 20
5.33
 30
0.0
 10
-0.88787
 20
5.33
 30
0.0
 10
-0.88787
 20
5.13817
 30
0.0
 10
-0.88787
 20
5.13817
 30
0.0
  0
SPLINE
  5
50
330
1F
100
AcDbEntity
  8
Layer 1
 62
   250
370
     9
100
AcDbSpline
210
0.0
220
0.0
230
1.0
 70
    11
 71
     3
 72
    20
 73
    16
 74
     0
 42
0.0000000001
 43
0.0000000001
 12
1.0
 22
0.0
 32
0.0
 13
1.0
 23
0.0
 33
0.0
 40
0.0
 40
0.0
 40
0.0
 40
0.0
 40
0.2
 40
0.2
 40
0.2
 40
0.2
 40
0.4
 40
0.4
 40
0.4
 40
0.4
 40
0.6
 40
0.6
 40
0.6
 40
0.6
 40
1.0
 40
1.0
 40
1.0
 40
1.0
 10
-0.08159
 20
5.6599
 30
0.0
 10
-0.08159
 20
5.6599
 30
0.0
 10
-0.08159
 20
4.49699
 30
0.0
 10
-0.08159
 20
4.49699
 30
0.0
 10
-0.08159
 20
4.49699
 30
0.0
 10
-0.08159
 20
4.49699
 30
0.0
 10
-2.68114
 20
4.49779
 30
0.0
 10
-2.68114
 20
4.49779
 30
0.0
 10
-2.68114
 20
4.49779
 30
0.0
 10
-2.68114
 20
4.49779
 30
0.0
 10
-2.68114
 20
5.6599
 30
0.0
 10
-2.68114
 20
5.6599
 30
0.0
 10
-2.68114
 20
5.6599
 30
0.0
 10
-2.68114
 20
5.6599
 30
0.0
 10
-0.08159
 20
5.6599
 30
0.0
 10
-0.08159
 20
5.6599
 30
0.0
  0
MTEXT
  5
51
330
1F
100
AcDbEntity
  8
Layer 1
 62
   250
100
AcDbMText
 10
-14.85834
 20
-11.4852224
 30
0.0
 40
0.3047976
 41
23.495
 46
0.0
 71
     1
 72
     1
  1
\fArial|b0|i0|p34;\C250\H-1652514031x;speed 6   power level 7   Low Air Assist    2mm MD\fArial|b0|i0|p34;\C250\H-1652514031x;F
 73
     1
 44
1.0
  0
ELLIPSE
  5
52
330
1F
100
AcDbEntity
  8
Layer 1
 62
   250
370
     9
100
AcDbEllipse
 10
-2.49458
 20
10.05356
 30
0.0
 11
0.0
 21
0.05
 31
0.0
210
0.0
220
0.0
230
1.0
 40
1.0
 41
0.0
 42
6.283185307179586
  0
LWPOLYLINE
  5
53
330
1F
100
AcDbEntity
  8
Layer 1
 62
   250
370
     9
100
AcDbPolyline
 90
        5
 70
     1
 43
0.0
 10
-2.82458
 20
9.72356
 10
-2.16458
 20
9.72356
 10
-2.16458
 20
10.38356
 10
-2.82458
 20
10.38356
 10
-2.82458
 20
9.72356
  0
ELLIPSE
  5
54
330
1F
100
AcDbEntity
  8
Layer 1
 62
   250
370
     9
100
AcDbEllipse
 10
-0.08874
 20
10.05356
 30
0.0
 11
0.0
 21
0.05
 31
0.0
210
0.0
220
0.0
230
1.0
 40
1.0
 41
0.0
 42
6.283185307179586
  0
LWPOLYLINE
  5
55
330
1F
100
AcDbEntity
  8
Layer 1
 62
   250
370
     9
100
AcDbPolyline
 90
        5
 70
     1
 43
0.0
 10
-0.41874
 20
9.72356
 10
0.24126
 20
9.72356
 10
0.24126
 20
10.38356
 10
-0.41874
 20
10.38356
 10
-0.41874
 20
9.72356
  0
ELLIPSE
  5
56
330
1F
100
AcDbEntity
  8
Layer 1
 62
   250
370
     9
100
AcDbEllipse
 10
-0.8891
 20
10.05356
 30
0.0
 11
0.0
 21
0.05
 31
0.0
210
0.0
220
0.0
230
1.0
 40
1.0
 41
0.0
 42
6.283185307179586
  0
LWPOLYLINE
  5
57
330
1F
100
AcDbEntity
  8
Layer 1
 62
   250
370
     9
100
AcDbPolyline
 90
        5
 70
     1
 43
0.0
 10
-1.2191
 20
9.72356
 10
-0.5591
 20
9.72356
 10
-0.5591
 20
10.38356
 10
-1.2191
 20
10.38356
 10
-1.2191
 20
9.72356
  0
ELLIPSE
  5
58
330
1F
100
AcDbEntity
  8
Layer 1
 62
   250
370
     9
100
AcDbEllipse
 10
-1.68285
 20
10.05356
 30
0.0
 11
0.0
 21
0.05
 31
0.0
210
0.0
220
0.0
230
1.0
 40
1.0
 41
0.0
 42
6.283185307179586
  0
LWPOLYLINE
  5
59
330
1F
100
AcDbEntity
  8
Layer 1
 62
   250
370
     9
100
AcDbPolyline
 90
        5
 70
     1
 43
0.0
 10
-2.01285
 20
9.72356
 10
-1.35285
 20
9.72356
 10
-1.35285
 20
10.38356
 10
-2.01285
 20
10.38356
 10
-2.01285
 20
9.72356
  0
SPLINE
  5
5A
330
1F
100
AcDbEntity
  8
Layer 1
 62
   250
370
     9
100
AcDbSpline
210
0.0
220
0.0
230
1.0
 70
    11
 71
     3
 72
    36
 73
    32
 74
     0
 42
0.0000000001
 43
0.0000000001
 12
1.0
 22
0.0
 32
0.0
 13
1.0
 23
0.0
 33
0.0
 40
0.0
 40
0.0
 40
0.0
 40
0.0
 40
0.1111111111111111
 40
0.1111111111111111
 40
0.1111111111111111
 40
0.1111111111111111
 40
0.2222222222222222
 40
0.2222222222222222
 40
0.2222222222222222
 40
0.2222222222222222
 40
0.3333333333333333
 40
0.3333333333333333
 40
0.3333333333333333
 40
0.3333333333333333
 40
0.4444444444444444
 40
0.4444444444444444
 40
0.4444444444444444
 40
0.4444444444444444
 40
0.5555555555555556
 40
0.5555555555555556
 40
0.5555555555555556
 40
0.5555555555555556
 40
0.6666666666666666
 40
0.6666666666666666
 40
0.6666666666666666
 40
0.6666666666666666
 40
0.7777777777777778
 40
0.7777777777777778
 40
0.7777777777777778
 40
0.7777777777777778
 40
1.0
 40
1.0
 40
1.0
 40
1.0
 10
-3.75393
 20
5.17045
 30
0.0
 10
-4.2655
 20
4.70394
 30
0.0
 10
-4.2655
 20
4.23754
 30
0.0
 10
-3.75393
 20
3.77125
 30
0.0
 10
-3.75393
 20
3.77125
 30
0.0
 10
-3.75393
 20
3.77125
 30
0.0
 10
-3.15862
 20
3.77125
 30
0.0
 10
-3.15862
 20
3.77125
 30
0.0
 10
-3.15862
 20
3.77125
 30
0.0
 10
-3.15862
 20
3.77125
 30
0.0
 10
-3.15862
 20
4.15326
 30
0.0
 10
-3.15862
 20
4.15326
 30
0.0
 10
-3.15862
 20
4.15326
 30
0.0
 10
-3.15862
 20
4.15326
 30
0.0
 10
-2.96018
 20
4.15657
 30
0.0
 10
-2.96018
 20
4.15657
 30
0.0
 10
-2.96018
 20
4.15657
 30
0.0
 10
-2.96018
 20
4.15657
 30
0.0
 10
-2.96018
 20
4.77999
 30
0.0
 10
-2.96018
 20
4.77999
 30
0.0
 10
-2.96018
 20
4.77999
 30
0.0
 10
-2.96018
 20
4.77999
 30
0.0
 10
-3.15863
 20
4.78329
 30
0.0
 10
-3.15863
 20
4.78329
 30
0.0
 10
-3.15863
 20
4.78329
 30
0.0
 10
-3.15863
 20
4.78329
 30
0.0
 10
-3.15862
 20
5.17045
 30
0.0
 10
-3.15862
 20
5.17045
 30
0.0
 10
-3.15862
 20
5.17045
 30
0.0
 10
-3.15862
 20
5.17045
 30
0.0
 10
-3.75393
 20
5.17045
 30
0.0
 10
-3.75393
 20
5.17045
 30
0.0
  0
SPLINE
  5
5B
330
1F
100
AcDbEntity
  8
Layer 1
 62
   250
370
     9
100
AcDbSpline
210
0.0
220
0.0
230
1.0
 70
    11
 71
     3
 72
    20
 73
    16
 74
     0
 42
0.0000000001
 43
0.0000000001
 12
1.0
 22
0.0
 32
0.0
 13
1.0
 23
0.0
 33
0.0
 40
0.0
 40
0.0
 40
0.0
 40
0.0
 40
0.2
 40
0.2
 40
0.2
 40
0.2
 40
0.4
 40
0.4
 40
0.4
 40
0.4
 40
0.6
 40
0.6
 40
0.6
 40
0.6
 40
1.0
 40
1.0
 40
1.0
 40
1.0
 10
7.12006
 20
2.18708
 30
0.0
 10
7.12006
 20
2.18708
 30
0.0
 10
7.12007
 20
2.7857
 30
0.0
 10
7.12007
 20
2.7857
 30
0.0
 10
7.12007
 20
2.7857
 30
0.0
 10
7.12007
 20
2.7857
 30
0.0
 10
7.30032
 20
2.7857
 30
0.0
 10
7.30032
 20
2.7857
 30
0.0
 10
7.30032
 20
2.7857
 30
0.0
 10
7.30032
 20
2.7857
 30
0.0
 10
7.30032
 20
2.18708
 30
0.0
 10
7.30032
 20
2.18708
 30
0.0
 10
7.30032
 20
2.18708
 30
0.0
 10
7.30032
 20
2.18708
 30
0.0
 10
7.12006
 20
2.18708
 30
0.0
 10
7.12006
 20
2.18708
 30
0.0
  0
SPLINE
  5
5C
330
1F
100
AcDbEntity
  8
Layer 1
 62
   250
370
     9
100
AcDbSpline
210
0.0
220
0.0
230
1.0
 70
    11
 71
     3
 72
    36
 73
    32
 74
     0
 42
0.0000000001
 43
0.0000000001
 12
1.0
 22
0.0
 32
0.0
 13
1.0
 23
0.0
 33
0.0
 40
0.0
 40
0.0
 40
0.0
 40
0.0
 40
0.1111111111111111
 40
0.1111111111111111
 40
0.1111111111111111
 40
0.1111111111111111
 40
0.2222222222222222
 40
0.2222222222222222
 40
0.2222222222222222
 40
0.2222222222222222
 40
0.3333333333333333
 40
0.3333333333333333
 40
0.3333333333333333
 40
0.3333333333333333
 40
0.4444444444444444
 40
0.4444444444444444
 40
0.4444444444444444
 40
0.4444444444444444
 40
0.5555555555555556
 40
0.5555555555555556
 40
0.5555555555555556
 40
0.5555555555555556
 40
0.6666666666666666
 40
0.6666666666666666
 40
0.6666666666666666
 40
0.6666666666666666
 40
0.7777777777777778
 40
0.7777777777777778
 40
0.7777777777777778
 40
0.7777777777777778
 40
1.0
 40
1.0
 40
1.0
 40
1.0
 10
6.92066
 20
1.78688
 30
0.0
 10
6.92066
 20
1.78688
 30
0.0
 10
6.92066
 20
3.18608
 30
0.0
 10
6.92066
 20
3.18608
 30
0.0
 10
6.92066
 20
3.18608
 30
0.0
 10
6.92066
 20
3.18608
 30
0.0
 10
10.9202
 20
3.18608
 30
0.0
 10
10.9202
 20
3.18608
 30
0.0
 10
10.9202
 20
3.18608
 30
0.0
 10
10.9202
 20
3.18608
 30
0.0
 10
10.9202
 20
2.7857
 30
0.0
 10
10.9202
 20
2.7857
 30
0.0
 10
10.9202
 20
2.7857
 30
0.0
 10
10.9202
 20
2.7857
 30
0.0
 10
11.11699
 20
2.7857
 30
0.0
 10
11.11699
 20
2.7857
 30
0.0
 10
11.11699
 20
2.7857
 30
0.0
 10
11.11699
 20
2.7857
 30
0.0
 10
11.11699
 20
2.18708
 30
0.0
 10
11.11699
 20
2.18708
 30
0.0
 10
11.11699
 20
2.18708
 30
0.0
 10
11.11699
 20
2.18708
 30
0.0
 10
10.9202
 20
2.18708
 30
0.0
 10
10.9202
 20
2.18708
 30
0.0
 10
10.9202
 20
2.18708
 30
0.0
 10
10.9202
 20
2.18708
 30
0.0
 10
10.9202
 20
1.78688
 30
0.0
 10
10.9202
 20
1.78688
 30
0.0
 10
10.9202
 20
1.78688
 30
0.0
 10
10.9202
 20
1.78688
 30
0.0
 10
6.92066
 20
1.78688
 30
0.0
 10
6.92066
 20
1.78688
 30
0.0
  0
SPLINE
  5
5D
330
1F
100
AcDbEntity
  8
Layer 1
 62
   250
370
     9
100
AcDbSpline
210
0.0
220
0.0
230
1.0
 70
    11
 71
     3
 72
    20
 73
    16
 74
     0
 42
0.0000000001
 43
0.0000000001
 12
1.0
 22
0.0
 32
0.0
 13
1.0
 23
0.0
 33
0.0
 40
0.0
 40
0.0
 40
0.0
 40
0.0
 40
0.2
 40
0.2
 40
0.2
 40
0.2
 40
0.4
 40
0.4
 40
0.4
 40
0.4
 40
0.6
 40
0.6
 40
0.6
 40
0.6
 40
1.0
 40
1.0
 40
1.0
 40
1.0
 10
-7.21665
 20
3.1207
 30
0.0
 10
-7.21665
 20
3.1207
 30
0.0
 10
-7.79543
 20
3.1207
 30
0.0
 10
-7.79543
 20
3.1207
 30
0.0
 10
-7.79543
 20
3.1207
 30
0.0
 10
-7.79543
 20
3.1207
 30
0.0
 10
-7.79543
 20
3.30921
 30
0.0
 10
-7.79543
 20
3.30921
 30
0.0
 10
-7.79543
 20
3.30921
 30
0.0
 10
-7.79543
 20
3.30921
 30
0.0
 10
-7.21665
 20
3.30922
 30
0.0
 10
-7.21665
 20
3.30922
 30
0.0
 10
-7.21665
 20
3.30922
 30
0.0
 10
-7.21665
 20
3.30922
 30
0.0
 10
-7.21665
 20
3.1207
 30
0.0
 10
-7.21665
 20
3.1207
 30
0.0
  0
SPLINE
  5
5E
330
1F
100
AcDbEntity
  8
Layer 1
 62
   250
370
     9
100
AcDbSpline
210
0.0
220
0.0
230
1.0
 70
    11
 71
     3
 72
    84
 73
    80
 74
     0
 42
0.0000000001
 43
0.0000000001
 12
1.0
 22
0.0
 32
0.0
 13
1.0
 23
0.0
 33
0.0
 40
0.0
 40
0.0
 40
0.0
 40
0.0
 40
0.0476190476190476
 40
0.0476190476190476
 40
0.0476190476190476
 40
0.0476190476190476
 40
0.0952380952380952
 40
0.0952380952380952
 40
0.0952380952380952
 40
0.0952380952380952
 40
0.1428571428571428
 40
0.1428571428571428
 40
0.1428571428571428
 40
0.1428571428571428
 40
0.1904761904761905
 40
0.1904761904761905
 40
0.1904761904761905
 40
0.1904761904761905
 40
0.2380952380952381
 40
0.2380952380952381
 40
0.2380952380952381
 40
0.2380952380952381
 40
0.2857142857142857
 40
0.2857142857142857
 40
0.2857142857142857
 40
0.2857142857142857
 40
0.3333333333333333
 40
0.3333333333333333
 40
0.3333333333333333
 40
0.3333333333333333
 40
0.3809523809523809
 40
0.3809523809523809
 40
0.3809523809523809
 40
0.3809523809523809
 40
0.4285714285714285
 40
0.4285714285714285
 40
0.4285714285714285
 40
0.4285714285714285
 40
0.4761904761904762
 40
0.4761904761904762
 40
0.4761904761904762
 40
0.4761904761904762
 40
0.5238095238095238
 40
0.5238095238095238
 40
0.5238095238095238
 40
0.5238095238095238
 40
0.5714285714285714
 40
0.5714285714285714
 40
0.5714285714285714
 40
0.5714285714285714
 40
0.6190476190476191
 40
0.6190476190476191
 40
0.6190476190476191
 40
0.6190476190476191
 40
0.6666666666666666
 40
0.6666666666666666
 40
0.6666666666666666
 40
0.6666666666666666
 40
0.7142857142857143
 40
0.7142857142857143
 40
0.7142857142857143
 40
0.7142857142857143
 40
0.7619047619047619
 40
0.7619047619047619
 40
0.7619047619047619
 40
0.7619047619047619
 40
0.8095238095238095
 40
0.8095238095238095
 40
0.8095238095238095
 40
0.8095238095238095
 40
0.8571428571428571
 40
0.8571428571428571
 40
0.8571428571428571
 40
0.8571428571428571
 40
0.9047619047619048
 40
0.9047619047619048
 40
0.9047619047619048
 40
0.9047619047619048
 40
1.0
 40
1.0
 40
1.0
 40
1.0
 10
-8.85994
 20
3.09025
 30
0.0
 10
-8.85994
 20
3.09025
 30
0.0
 10
-8.85994
 20
3.56046
 30
0.0
 10
-8.85994
 20
3.56046
 30
0.0
 10
-8.85994
 20
3.56046
 30
0.0
 10
-8.85994
 20
3.56046
 30
0.0
 10
-3.21515
 20
3.56046
 30
0.0
 10
-3.21515
 20
3.56046
 30
0.0
 10
-3.21515
 20
3.56046
 30
0.0
 10
-3.21515
 20
3.56046
 30
0.0
 10
-3.21515
 20
3.09025
 30
0.0
 10
-3.21515
 20
3.09025
 30
0.0
 10
-3.21515
 20
3.09025
 30
0.0
 10
-3.21515
 20
3.09025
 30
0.0
 10
-3.01798
 20
3.08943
 30
0.0
 10
-3.01798
 20
3.08943
 30
0.0
 10
-3.01798
 20
3.08943
 30
0.0
 10
-3.01798
 20
3.08943
 30
0.0
 10
-3.01798
 20
2.29543
 30
0.0
 10
-3.01798
 20
2.29543
 30
0.0
 10
-3.01798
 20
2.29543
 30
0.0
 10
-3.01798
 20
2.29543
 30
0.0
 10
-3.21515
 20
2.29542
 30
0.0
 10
-3.21515
 20
2.29542
 30
0.0
 10
-3.21515
 20
2.29542
 30
0.0
 10
-3.21515
 20
2.29542
 30
0.0
 10
-3.21515
 20
1.72739
 30
0.0
 10
-3.21515
 20
1.72739
 30
0.0
 10
-3.21515
 20
1.72739
 30
0.0
 10
-3.21515
 20
1.72739
 30
0.0
 10
-4.00081
 20
1.72738
 30
0.0
 10
-4.00081
 20
1.72738
 30
0.0
 10
-4.00081
 20
1.72738
 30
0.0
 10
-4.00081
 20
1.72738
 30
0.0
 10
-4.0
 20
1.53092
 30
0.0
 10
-4.0
 20
1.53092
 30
0.0
 10
-4.0
 20
1.53092
 30
0.0
 10
-4.0
 20
1.53092
 30
0.0
 10
-5.00604
 20
1.53092
 30
0.0
 10
-5.00604
 20
1.53092
 30
0.0
 10
-5.00604
 20
1.53092
 30
0.0
 10
-5.00604
 20
1.53092
 30
0.0
 10
-5.00522
 20
1.72738
 30
0.0
 10
-5.00522
 20
1.72738
 30
0.0
 10
-5.00522
 20
1.72738
 30
0.0
 10
-5.00522
 20
1.72738
 30
0.0
 10
-6.9723
 20
1.72738
 30
0.0
 10
-6.9723
 20
1.72738
 30
0.0
 10
-6.9723
 20
1.72738
 30
0.0
 10
-6.9723
 20
1.72738
 30
0.0
 10
-6.97066
 20
1.53092
 30
0.0
 10
-6.97066
 20
1.53092
 30
0.0
 10
-6.97066
 20
1.53092
 30
0.0
 10
-6.97066
 20
1.53092
 30
0.0
 10
-7.97466
 20
1.53092
 30
0.0
 10
-7.97466
 20
1.53092
 30
0.0
 10
-7.97466
 20
1.53092
 30
0.0
 10
-7.97466
 20
1.53092
 30
0.0
 10
-7.97383
 20
1.72738
 30
0.0
 10
-7.97383
 20
1.72738
 30
0.0
 10
-7.97383
 20
1.72738
 30
0.0
 10
-7.97383
 20
1.72738
 30
0.0
 10
-8.85994
 20
1.72739
 30
0.0
 10
-8.85994
 20
1.72739
 30
0.0
 10
-8.85994
 20
1.72739
 30
0.0
 10
-8.85994
 20
1.72739
 30
0.0
 10
-8.85994
 20
2.29296
 30
0.0
 10
-8.85994
 20
2.29296
 30
0.0
 10
-8.85994
 20
2.29296
 30
0.0
 10
-8.85994
 20
2.29296
 30
0.0
 10
-9.0564
 20
2.29296
 30
0.0
 10
-9.0564
 20
2.29296
 30
0.0
 10
-9.0564
 20
2.29296
 30
0.0
 10
-9.0564
 20
2.29296
 30
0.0
 10
-9.0564
 20
3.09106
 30
0.0
 10
-9.0564
 20
3.09106
 30
0.0
 10
-9.0564
 20
3.09106
 30
0.0
 10
-9.0564
 20
3.09106
 30
0.0
 10
-8.85994
 20
3.09025
 30
0.0
 10
-8.85994
 20
3.09025
 30
0.0
  0
SPLINE
  5
5F
330
1F
100
AcDbEntity
  8
Layer 1
 62
   250
370
     9
100
AcDbSpline
210
0.0
220
0.0
230
1.0
 70
     8
 71
     3
 72
    16
 73
    12
 74
     0
 42
0.0000000001
 43
0.0000000001
 12
1.0
 22
0.0
 32
0.0
 13
1.0
 23
0.0
 33
0.0
 40
0.0
 40
0.0
 40
0.0
 40
0.0
 40
0.25
 40
0.25
 40
0.25
 40
0.25
 40
0.5
 40
0.5
 40
0.5
 40
0.5
 40
1.0
 40
1.0
 40
1.0
 40
1.0
 10
-10.02776
 20
7.43137
 30
0.0
 10
-10.02776
 20
7.43137
 30
0.0
 10
-10.02776
 20
6.54831
 30
0.0
 10
-10.02776
 20
6.54831
 30
0.0
 10
-10.02776
 20
6.54831
 30
0.0
 10
-10.02776
 20
6.54831
 30
0.0
 10
-9.92963
 20
6.54831
 30
0.0
 10
-9.92963
 20
6.54831
 30
0.0
 10
-9.92963
 20
6.54831
 30
0.0
 10
-9.92963
 20
6.54831
 30
0.0
 10
-9.92963
 20
5.56112
 30
0.0
 10
-9.92963
 20
5.56112
 30
0.0
  0
SPLINE
  5
60
330
1F
100
AcDbEntity
  8
Layer 1
 62
   250
370
     9
100
AcDbSpline
210
0.0
220
0.0
230
1.0
 70
     8
 71
     3
 72
    16
 73
    12
 74
     0
 42
0.0000000001
 43
0.0000000001
 12
1.0
 22
0.0
 32
0.0
 13
1.0
 23
0.0
 33
0.0
 40
0.0
 40
0.0
 40
0.0
 40
0.0
 40
0.25
 40
0.25
 40
0.25
 40
0.25
 40
0.5
 40
0.5
 40
0.5
 40
0.5
 40
1.0
 40
1.0
 40
1.0
 40
1.0
 10
-10.02776
 20
7.43137
 30
0.0
 10
-10.15379
 20
7.6449
 30
0.0
 10
-10.28877
 20
7.64563
 30
0.0
 10
-10.43293
 20
7.43137
 30
0.0
 10
-10.43293
 20
7.43137
 30
0.0
 10
-10.43293
 20
7.43137
 30
0.0
 10
-10.43293
 20
5.56112
 30
0.0
 10
-10.43293
 20
5.56112
 30
0.0
 10
-10.43293
 20
5.56112
 30
0.0
 10
-10.25774
 20
5.28984
 30
0.0
 10
-10.08997
 20
5.28984
 30
0.0
 10
-9.92963
 20
5.56112
 30
0.0
  0
SPLINE
  5
61
330
1F
100
AcDbEntity
  8
Layer 1
 62
   250
370
     9
100
AcDbSpline
210
0.0
220
0.0
230
1.0
 70
    11
 71
     3
 72
    20
 73
    16
 74
     0
 42
0.0000000001
 43
0.0000000001
 12
1.0
 22
0.0
 32
0.0
 13
1.0
 23
0.0
 33
0.0
 40
0.0
 40
0.0
 40
0.0
 40
0.0
 40
0.2
 40
0.2
 40
0.2
 40
0.2
 40
0.4
 40
0.4
 40
0.4
 40
0.4
 40
0.6
 40
0.6
 40
0.6
 40
0.6
 40
1.0
 40
1.0
 40
1.0
 40
1.0
 10
-10.29307
 20
7.88821
 30
0.0
 10
-10.29307
 20
7.88821
 30
0.0
 10
-10.29307
 20
9.35003
 30
0.0
 10
-10.29307
 20
9.35003
 30
0.0
 10
-10.29307
 20
9.35003
 30
0.0
 10
-10.29307
 20
9.35003
 30
0.0
 10
-9.96318
 20
9.35004
 30
0.0
 10
-9.96318
 20
9.35004
 30
0.0
 10
-9.96318
 20
9.35004
 30
0.0
 10
-9.96318
 20
9.35004
 30
0.0
 10
-9.96318
 20
7.88821
 30
0.0
 10
-9.96318
 20
7.88821
 30
0.0
 10
-9.96318
 20
7.88821
 30
0.0
 10
-9.96318
 20
7.88821
 30
0.0
 10
-10.29307
 20
7.88821
 30
0.0
 10
-10.29307
 20
7.88821
 30
0.0
  0
SPLINE
  5
62
330
1F
100
AcDbEntity
  8
Layer 1
 62
   250
370
     9
100
AcDbSpline
210
0.0
220
0.0
230
1.0
 70
    11
 71
     3
 72
    20
 73
    16
 74
     0
 42
0.0000000001
 43
0.0000000001
 12
1.0
 22
0.0
 32
0.0
 13
1.0
 23
0.0
 33
0.0
 40
0.0
 40
0.0
 40
0.0
 40
0.0
 40
0.2
 40
0.2
 40
0.2
 40
0.2
 40
0.4
 40
0.4
 40
0.4
 40
0.4
 40
0.6
 40
0.6
 40
0.6
 40
0.6
 40
1.0
 40
1.0
 40
1.0
 40
1.0
 10
-9.75067
 20
6.6745
 30
0.0
 10
-9.75067
 20
6.6745
 30
0.0
 10
-9.92963
 20
6.6745
 30
0.0
 10
-9.92963
 20
6.6745
 30
0.0
 10
-9.92963
 20
6.6745
 30
0.0
 10
-9.92963
 20
6.6745
 30
0.0
 10
-9.92963
 20
8.176
 30
0.0
 10
-9.92963
 20
8.176
 30
0.0
 10
-9.92963
 20
8.176
 30
0.0
 10
-9.92963
 20
8.176
 30
0.0
 10
-9.75067
 20
8.176
 30
0.0
 10
-9.75067
 20
8.176
 30
0.0
 10
-9.75067
 20
8.176
 30
0.0
 10
-9.75067
 20
8.176
 30
0.0
 10
-9.75067
 20
6.6745
 30
0.0
 10
-9.75067
 20
6.6745
 30
0.0
  0
SPLINE
  5
63
330
1F
100
AcDbEntity
  8
Layer 1
 62
   250
370
     9
100
AcDbSpline
210
0.0
220
0.0
230
1.0
 70
    11
 71
     3
 72
    36
 73
    32
 74
     0
 42
0.0000000001
 43
0.0000000001
 12
1.0
 22
0.0
 32
0.0
 13
1.0
 23
0.0
 33
0.0
 40
0.0
 40
0.0
 40
0.0
 40
0.0
 40
0.1111111111111111
 40
0.1111111111111111
 40
0.1111111111111111
 40
0.1111111111111111
 40
0.2222222222222222
 40
0.2222222222222222
 40
0.2222222222222222
 40
0.2222222222222222
 40
0.3333333333333333
 40
0.3333333333333333
 40
0.3333333333333333
 40
0.3333333333333333
 40
0.4444444444444444
 40
0.4444444444444444
 40
0.4444444444444444
 40
0.4444444444444444
 40
0.5555555555555556
 40
0.5555555555555556
 40
0.5555555555555556
 40
0.5555555555555556
 40
0.6666666666666666
 40
0.6666666666666666
 40
0.6666666666666666
 40
0.6666666666666666
 40
0.7777777777777778
 40
0.7777777777777778
 40
0.7777777777777778
 40
0.7777777777777778
 40
1.0
 40
1.0
 40
1.0
 40
1.0
 10
-8.75687
 20
8.92454
 30
0.0
 10
-8.75687
 20
8.92454
 30
0.0
 10
-8.10104
 20
8.92454
 30
0.0
 10
-8.10104
 20
8.92454
 30
0.0
 10
-8.10104
 20
8.92454
 30
0.0
 10
-7.90304
 20
8.92454
 30
0.0
 10
-7.74104
 20
8.76254
 30
0.0
 10
-7.74104
 20
8.56454
 30
0.0
 10
-7.74104
 20
8.56454
 30
0.0
 10
-7.74104
 20
8.56454
 30
0.0
 10
-7.74104
 20
6.63294
 30
0.0
 10
-7.74104
 20
6.63294
 30
0.0
 10
-7.74104
 20
6.63294
 30
0.0
 10
-7.74104
 20
6.43494
 30
0.0
 10
-7.90304
 20
6.27294
 30
0.0
 10
-8.10104
 20
6.27294
 30
0.0
 10
-8.10104
 20
6.27294
 30
0.0
 10
-8.10104
 20
6.27294
 30
0.0
 10
-8.75687
 20
6.27294
 30
0.0
 10
-8.75687
 20
6.27294
 30
0.0
 10
-8.75687
 20
6.27294
 30
0.0
 10
-8.95487
 20
6.27294
 30
0.0
 10
-9.11687
 20
6.43494
 30
0.0
 10
-9.11687
 20
6.63294
 30
0.0
 10
-9.11687
 20
6.63294
 30
0.0
 10
-9.11687
 20
6.63294
 30
0.0
 10
-9.11687
 20
8.56454
 30
0.0
 10
-9.11687
 20
8.56454
 30
0.0
 10
-9.11687
 20
8.56454
 30
0.0
 10
-9.11687
 20
8.76254
 30
0.0
 10
-8.95487
 20
8.92454
 30
0.0
 10
-8.75687
 20
8.92454
 30
0.0
  0
SPLINE
  5
64
330
1F
100
AcDbEntity
  8
Layer 1
 62
   250
370
     9
100
AcDbSpline
210
0.0
220
0.0
230
1.0
 70
    11
 71
     3
 72
    20
 73
    16
 74
     0
 42
0.0000000001
 43
0.0000000001
 12
1.0
 22
0.0
 32
0.0
 13
1.0
 23
0.0
 33
0.0
 40
0.0
 40
0.0
 40
0.0
 40
0.0
 40
0.2
 40
0.2
 40
0.2
 40
0.2
 40
0.4
 40
0.4
 40
0.4
 40
0.4
 40
0.6
 40
0.6
 40
0.6
 40
0.6
 40
1.0
 40
1.0
 40
1.0
 40
1.0
 10
-6.93052
 20
6.6745
 30
0.0
 10
-6.93052
 20
6.6745
 30
0.0
 10
-7.11547
 20
6.6745
 30
0.0
 10
-7.11547
 20
6.6745
 30
0.0
 10
-7.11547
 20
6.6745
 30
0.0
 10
-7.11547
 20
6.6745
 30
0.0
 10
-7.11547
 20
8.176
 30
0.0
 10
-7.11547
 20
8.176
 30
0.0
 10
-7.11547
 20
8.176
 30
0.0
 10
-7.11547
 20
8.176
 30
0.0
 10
-6.93052
 20
8.176
 30
0.0
 10
-6.93052
 20
8.176
 30
0.0
 10
-6.93052
 20
8.176
 30
0.0
 10
-6.93052
 20
8.176
 30
0.0
 10
-6.93052
 20
6.6745
 30
0.0
 10
-6.93052
 20
6.6745
 30
0.0
  0
SPLINE
  5
65
330
1F
100
AcDbEntity
  8
Layer 1
 62
   250
370
     9
100
AcDbSpline
210
0.0
220
0.0
230
1.0
 70
    11
 71
     3
 72
    20
 73
    16
 74
     0
 42
0.0000000001
 43
0.0000000001
 12
1.0
 22
0.0
 32
0.0
 13
1.0
 23
0.0
 33
0.0
 40
0.0
 40
0.0
 40
0.0
 40
0.0
 40
0.2
 40
0.2
 40
0.2
 40
0.2
 40
0.4
 40
0.4
 40
0.4
 40
0.4
 40
0.6
 40
0.6
 40
0.6
 40
0.6
 40
1.0
 40
1.0
 40
1.0
 40
1.0
 10
-7.93167
 20
5.56112
 30
0.0
 10
-7.93167
 20
5.56112
 30
0.0
 10
-8.92386
 20
5.56112
 30
0.0
 10
-8.92386
 20
5.56112
 30
0.0
 10
-8.92386
 20
5.56112
 30
0.0
 10
-8.92386
 20
5.56112
 30
0.0
 10
-8.92386
 20
5.8606
 30
0.0
 10
-8.92386
 20
5.8606
 30
0.0
 10
-8.92386
 20
5.8606
 30
0.0
 10
-8.92386
 20
5.8606
 30
0.0
 10
-7.93167
 20
5.8606
 30
0.0
 10
-7.93167
 20
5.8606
 30
0.0
 10
-7.93167
 20
5.8606
 30
0.0
 10
-7.93167
 20
5.8606
 30
0.0
 10
-7.93167
 20
5.56112
 30
0.0
 10
-7.93167
 20
5.56112
 30
0.0
  0
ELLIPSE
  5
66
330
1F
100
AcDbEntity
  8
Layer 1
 62
   250
370
     9
100
AcDbEllipse
 10
-7.90263
 20
4.68013
 30
0.0
 11
0.0
 21
0.09
 31
0.0
210
0.0
220
0.0
230
1.0
 40
1.0
 41
0.0
 42
6.283185307179586
  0
ELLIPSE
  5
67
330
1F
100
AcDbEntity
  8
Layer 1
 62
   250
370
     9
100
AcDbEllipse
 10
-10.10537
 20
4.68013
 30
0.0
 11
0.0
 21
0.09
 31
0.0
210
0.0
220
0.0
230
1.0
 40
1.0
 41
0.0
 42
6.283185307179586
  0
ELLIPSE
  5
68
330
1F
100
AcDbEntity
  8
Layer 1
 62
   250
370
     9
100
AcDbEllipse
 10
-10.10537
 20
9.53196
 30
0.0
 11
0.0
 21
0.09
 31
0.0
210
0.0
220
0.0
230
1.0
 40
1.0
 41
0.0
 42
6.283185307179586
  0
ELLIPSE
  5
69
330
1F
100
AcDbEntity
  8
Layer 1
 62
   250
370
     9
100
AcDbEllipse
 10
-6.75548
 20
9.53196
 30
0.0
 11
0.0
 21
0.09
 31
0.0
210
0.0
220
0.0
230
1.0
 40
1.0
 41
0.0
 42
6.283185307179586
  0
SPLINE
  5
6A
330
1F
100
AcDbEntity
  8
Layer 1
 62
   250
370
     9
100
AcDbSpline
210
0.0
220
0.0
230
1.0
 70
    11
 71
     3
 72
    36
 73
    32
 74
     0
 42
0.0000000001
 43
0.0000000001
 12
1.0
 22
0.0
 32
0.0
 13
1.0
 23
0.0
 33
0.0
 40
0.0
 40
0.0
 40
0.0
 40
0.0
 40
0.1111111111111111
 40
0.1111111111111111
 40
0.1111111111111111
 40
0.1111111111111111
 40
0.2222222222222222
 40
0.2222222222222222
 40
0.2222222222222222
 40
0.2222222222222222
 40
0.3333333333333333
 40
0.3333333333333333
 40
0.3333333333333333
 40
0.3333333333333333
 40
0.4444444444444444
 40
0.4444444444444444
 40
0.4444444444444444
 40
0.4444444444444444
 40
0.5555555555555556
 40
0.5555555555555556
 40
0.5555555555555556
 40
0.5555555555555556
 40
0.6666666666666666
 40
0.6666666666666666
 40
0.6666666666666666
 40
0.6666666666666666
 40
0.7777777777777778
 40
0.7777777777777778
 40
0.7777777777777778
 40
0.7777777777777778
 40
1.0
 40
1.0
 40
1.0
 40
1.0
 10
-6.27845
 20
3.86044
 30
0.0
 10
-6.27845
 20
3.86044
 30
0.0
 10
-10.57946
 20
3.86044
 30
0.0
 10
-10.57946
 20
3.86044
 30
0.0
 10
-10.57946
 20
3.86044
 30
0.0
 10
-10.74446
 20
3.86044
 30
0.0
 10
-10.87946
 20
3.99544
 30
0.0
 10
-10.87946
 20
4.16044
 30
0.0
 10
-10.87946
 20
4.16044
 30
0.0
 10
-10.87946
 20
4.16044
 30
0.0
 10
-10.87946
 20
10.04205
 30
0.0
 10
-10.87946
 20
10.04205
 30
0.0
 10
-10.87946
 20
10.04205
 30
0.0
 10
-10.87946
 20
10.20705
 30
0.0
 10
-10.74446
 20
10.34205
 30
0.0
 10
-10.57946
 20
10.34205
 30
0.0
 10
-10.57946
 20
10.34205
 30
0.0
 10
-10.57946
 20
10.34205
 30
0.0
 10
-6.27845
 20
10.34205
 30
0.0
 10
-6.27845
 20
10.34205
 30
0.0
 10
-6.27845
 20
10.34205
 30
0.0
 10
-6.11345
 20
10.34205
 30
0.0
 10
-5.97845
 20
10.20705
 30
0.0
 10
-5.97845
 20
10.04205
 30
0.0
 10
-5.97845
 20
10.04205
 30
0.0
 10
-5.97845
 20
10.04205
 30
0.0
 10
-5.97845
 20
4.16044
 30
0.0
 10
-5.97845
 20
4.16044
 30
0.0
 10
-5.97845
 20
4.16044
 30
0.0
 10
-5.97845
 20
3.99544
 30
0.0
 10
-6.11345
 20
3.86044
 30
0.0
 10
-6.27845
 20
3.86044
 30
0.0
  0
ENDSEC
  0
SECTION
  2
OBJECTS
  0
DICTIONARY
  5
C
330
0
100
AcDbDictionary
281
     1
  3
ACAD_GROUP
350
D
  3
ACAD_LAYOUT
350
1A
  3
ACAD_MATERIAL
350
3B
  3
ACAD_MLEADERSTYLE
350
8C
  3
ACAD_MLINESTYLE
350
17
  3
ACAD_PLOTSETTINGS
350
19
  3
ACAD_PLOTSTYLENAME
350
E
  3
ACAD_TABLESTYLE
350
8B
  3
ACAD_VISUALSTYLE
350
2A
  0
DICTIONARY
  5
D
102
{ACAD_REACTORS
330
C
102
}
330
C
100
AcDbDictionary
281
     1
  0
DICTIONARY
  5
1A
102
{ACAD_REACTORS
330
C
102
}
330
C
100
AcDbDictionary
281
     1
  3
Layout1
350
1E
  3
Layout2
350
26
  3
Model
350
22
  0
DICTIONARY
  5
3B
102
{ACAD_REACTORS
330
C
102
}
330
C
100
AcDbDictionary
281
     1
  3
ByBlock
350
3D
  3
ByLayer
350
3C
  3
Global
350
3E
  0
DICTIONARY
  5
8C
102
{ACAD_REACTORS
330
C
102
}
330
C
100
AcDbDictionary
281
     1
  0
DICTIONARY
  5
17
102
{ACAD_REACTORS
330
C
102
}
330
C
100
AcDbDictionary
281
     1
  3
Standard
350
18
  0
DICTIONARY
  5
19
102
{ACAD_REACTORS
330
C
102
}
330
C
100
AcDbDictionary
281
     1
  0
ACDBDICTIONARYWDFLT
  5
E
102
{ACAD_REACTORS
330
C
102
}
330
C
100
AcDbDictionary
281
     1
  3
Normal
350
F
100
AcDbDictionaryWithDefault
340
F
  0
DICTIONARY
  5
8B
102
{ACAD_REACTORS
330
C
102
}
330
C
100
AcDbDictionary
281
     1
  0
DICTIONARY
  5
2A
102
{ACAD_REACTORS
330
C
102
}
330
C
100
AcDbDictionary
281
     1
  3
2dWireframe
350
2F
  3
3D Hidden
350
31
  3
3dWireframe
350
30
  3
Basic
350
32
  3
Brighten
350
36
  3
ColorChange
350
3A
  3
Conceptual
350
34
  3
Dim
350
35
  3
Facepattern
350
39
  3
Flat
350
2B
  3
FlatWithEdges
350
2C
  3
Gouraud
350
2D
  3
GouraudWithEdges
350
2E
  3
Linepattern
350
38
  3
Realistic
350
33
  3
Thicken
350
37
  0
LAYOUT
  5
1E
102
{ACAD_REACTORS
330
1A
102
}
330
1A
100
AcDbPlotSettings
  1

  2
none_device
  4

  6

 40
0.0
 41
0.0
 42
0.0
 43
0.0
 44
0.0
 45
0.0
 46
0.0
 47
0.0
 48
0.0
 49
0.0
140
0.0
141
0.0
142
1.0
143
1.0
 70
   688
 72
     0
 73
     0
 74
     5
  7

 75
    16
 76
     0
 77
     2
 78
   300
147
1.0
148
0.0
149
0.0
100
AcDbLayout
  1
Layout1
 70
     1
 71
     1
 10
0.0
 20
0.0
 11
12.0
 21
9.0
 12
0.0
 22
0.0
 32
0.0
 14
1.000000000000000E+20
 24
1.000000000000000E+20
 34
1.000000000000000E+20
 15
-1.000000000000000E+20
 25
-1.000000000000000E+20
 35
-1.000000000000000E+20
146
0.0
 13
0.0
 23
0.0
 33
0.0
 16
1.0
 26
0.0
 36
0.0
 17
0.0
 27
1.0
 37
0.0
 76
     0
330
1B
  0
LAYOUT
  5
26
102
{ACAD_REACTORS
330
1A
102
}
330
1A
100
AcDbPlotSettings
  1

  2
none_device
  4

  6

 40
0.0
 41
0.0
 42
0.0
 43
0.0
 44
0.0
 45
0.0
 46
0.0
 47
0.0
 48
0.0
 49
0.0
140
0.0
141
0.0
142
1.0
143
1.0
 70
   688
 72
     0
 73
     0
 74
     5
  7

 75
    16
 76
     0
 77
     2
 78
   300
147
1.0
148
0.0
149
0.0
100
AcDbLayout
  1
Layout2
 70
     1
 71
     2
 10
0.0
 20
0.0
 11
0.0
 21
0.0
 12
0.0
 22
0.0
 32
0.0
 14
0.0
 24
0.0
 34
0.0
 15
0.0
 25
0.0
 35
0.0
146
0.0
 13
0.0
 23
0.0
 33
0.0
 16
1.0
 26
0.0
 36
0.0
 17
0.0
 27
1.0
 37
0.0
 76
     0
330
23
  0
LAYOUT
  5
22
102
{ACAD_REACTORS
330
1A
102
}
330
1A
100
AcDbPlotSettings
  1

  2
none_device
  4

  6

 40
0.0
 41
0.0
 42
0.0
 43
0.0
 44
0.0
 45
0.0
 46
0.0
 47
0.0
 48
0.0
 49
0.0
140
0.0
141
0.0
142
1.0
143
1.0
 70
  1712
 72
     0
 73
     0
 74
     0
  7

 75
     0
 76
     0
 77
     2
 78
   300
147
1.0
148
0.0
149
0.0
100
AcDbLayout
  1
Model
 70
     1
 71
     0
 10
0.0
 20
0.0
 11
12.0
 21
9.0
 12
0.0
 22
0.0
 32
0.0
 14
-15.67787
 24
-13.11294
 34
0.0
 15
13.85928
 25
10.38737
 35
0.0
146
0.0
 13
0.0
 23
0.0
 33
0.0
 16
1.0
 26
0.0
 36
0.0
 17
0.0
 27
1.0
 37
0.0
 76
     0
330
1F
331
29
  0
MATERIAL
  5
3D
102
{ACAD_REACTORS
330
3B
102
}
330
3B
100
AcDbMaterial
  1
ByBlock
 72
     1
 94
      127
  0
MATERIAL
  5
3C
102
{ACAD_REACTORS
330
3B
102
}
330
3B
100
AcDbMaterial
  1
ByLayer
 72
     1
 94
      127
  0
MATERIAL
  5
3E
102
{ACAD_REACTORS
330
3B
102
}
330
3B
100
AcDbMaterial
  1
Global
 72
     1
 94
      127
  0
MLINESTYLE
  5
18
102
{ACAD_REACTORS
330
17
102
}
330
17
100
AcDbMlineStyle
  2
Standard
 70
     0
  3

 62
   256
 51
90.0
 52
90.0
 71
     2
 49
0.5
 62
   256
  6
BYLAYER
 49
-0.5
 62
   256
  6
BYLAYER
  0
ACDBPLACEHOLDER
  5
F
102
{ACAD_REACTORS
330
E
102
}
330
E
  0
VISUALSTYLE
  5
2F
102
{ACAD_REACTORS
330
2A
102
}
102
{ACAD_XDICTIONARY
360
73
102
}
330
2A
100
AcDbVisualStyle
  2
2dWireframe
 70
     4
 71
     0
 72
     2
 73
     0
 90
        0
 40
-0.6
 41
-30.0
 62
     5
 63
     7
421
 16777215
 74
     1
 91
        4
 64
     7
 65
   257
 75
     1
175
     1
 42
1.0
 92
        0
 66
   257
 43
1.0
 76
     1
 77
     6
 78
     2
 67
     7
 79
     5
170
     0
171
     0
290
     0
174
     0
 93
        1
 44
0.0
173
     0
291
     0
 45
0.0
  0
VISUALSTYLE
  5
31
102
{ACAD_REACTORS
330
2A
102
}
102
{ACAD_XDICTIONARY
360
77
102
}
330
2A
100
AcDbVisualStyle
  2
3D Hidden
 70
     6
 71
     1
 72
     2
 73
     2
 90
        0
 40
-0.6
 41
-30.0
 62
     5
 63
     7
421
 16777215
 74
     2
 91
        2
 64
     7
 65
   257
 75
     2
175
     1
 42
40.0
 92
        0
 66
   257
 43
1.0
 76
     1
 77
     6
 78
     2
 67
     7
 79
     3
170
     0
171
     0
290
     0
174
     0
 93
        1
 44
0.0
173
     0
291
     0
 45
0.0
  0
VISUALSTYLE
  5
30
102
{ACAD_REACTORS
330
2A
102
}
102
{ACAD_XDICTIONARY
360
75
102
}
330
2A
100
AcDbVisualStyle
  2
3dWireframe
 70
     5
 71
     0
 72
     2
 73
     0
 90
        0
 40
-0.6
 41
-30.0
 62
     5
 63
     7
421
 16777215
 74
     1
 91
        4
 64
     7
 65
   257
 75
     1
175
     1
 42
1.0
 92
        0
 66
   257
 43
1.0
 76
     1
 77
     6
 78
     2
 67
     7
 79
     5
170
     0
171
     0
290
     0
174
     0
 93
        1
 44
0.0
173
     0
291
     0
 45
0.0
  0
VISUALSTYLE
  5
32
102
{ACAD_REACTORS
330
2A
102
}
102
{ACAD_XDICTIONARY
360
79
102
}
330
2A
100
AcDbVisualStyle
  2
Basic
 70
     7
 71
     1
 72
     0
 73
     1
 90
        0
 40
-0.6
 41
-30.0
 62
     5
 63
     7
421
 16777215
 74
     0
 91
        4
 64
     7
 65
   257
 75
     1
175
     1
 42
1.0
 92
        8
 66
     7
 43
1.0
 76
     1
 77
     6
 78
     2
 67
     7
 79
     5
170
     0
171
     0
290
     0
174
     0
 93
        1
 44
0.0
173
     0
291
     1
 45
0.0
  0
VISUALSTYLE
  5
36
102
{ACAD_REACTORS
330
2A
102
}
102
{ACAD_XDICTIONARY
360
81
102
}
330
2A
100
AcDbVisualStyle
  2
Brighten
 70
    12
 71
     2
 72
     2
 73
     0
 90
        0
 40
-0.6
 41
-30.0
 62
     5
 63
     7
421
 16777215
 74
     1
 91
        4
 64
     7
 65
   257
 75
     1
175
     1
 42
1.0
 92
        8
 66
     7
 43
1.0
 76
     1
 77
     6
 78
     2
 67
     7
 79
     5
170
     0
171
     0
290
     0
174
     0
 93
        1
 44
50.0
173
     0
291
     1
 45
0.0
  0
VISUALSTYLE
  5
3A
102
{ACAD_REACTORS
330
2A
102
}
102
{ACAD_XDICTIONARY
360
89
102
}
330
2A
100
AcDbVisualStyle
  2
ColorChange
 70
    16
 71
     2
 72
     2
 73
     3
 90
        0
 40
-0.6
 41
-30.0
 62
     5
 63
     8
421
  8421504
 74
     1
 91
        4
 64
     7
 65
   257
 75
     1
175
     1
 42
1.0
 92
        8
 66
     8
424
  8421504
 43
1.0
 76
     1
 77
     6
 78
     2
 67
     7
 79
     5
170
     0
171
     0
290
     0
174
     0
 93
        1
 44
0.0
173
     0
291
     1
 45
0.0
  0
VISUALSTYLE
  5
34
102
{ACAD_REACTORS
330
2A
102
}
102
{ACAD_XDICTIONARY
360
7D
102
}
330
2A
100
AcDbVisualStyle
  2
Conceptual
 70
     9
 71
     3
 72
     2
 73
     0
 90
        0
 40
-0.6
 41
-30.0
 62
     5
 63
     7
421
 16777215
 74
     2
 91
        2
 64
     7
 65
   257
 75
     1
175
     1
 42
40.0
 92
        8
 66
     7
 43
1.0
 76
     1
 77
     6
 78
     2
 67
     7
 79
     3
170
     0
171
     0
290
     0
174
     0
 93
        1
 44
0.0
173
     0
291
     0
 45
0.0
  0
VISUALSTYLE
  5
35
102
{ACAD_REACTORS
330
2A
102
}
102
{ACAD_XDICTIONARY
360
7F
102
}
330
2A
100
AcDbVisualStyle
  2
Dim
 70
    11
 71
     2
 72
     2
 73
     0
 90
        0
 40
-0.6
 41
-30.0
 62
     5
 63
     7
421
 16777215
 74
     1
 91
        4
 64
     7
 65
   257
 75
     1
175
     1
 42
1.0
 92
        8
 66
     7
 43
1.0
 76
     1
 77
     6
 78
     2
 67
     7
 79
     5
170
     0
171
     0
290
     0
174
     0
 93
        1
 44
-50.0
173
     0
291
     1
 45
0.0
  0
VISUALSTYLE
  5
39
102
{ACAD_REACTORS
330
2A
102
}
102
{ACAD_XDICTIONARY
360
87
102
}
330
2A
100
AcDbVisualStyle
  2
Facepattern
 70
    15
 71
     2
 72
     2
 73
     0
 90
        0
 40
-0.6
 41
-30.0
 62
     5
 63
     7
421
 16777215
 74
     1
 91
        4
 64
     7
 65
   257
 75
     1
175
     1
 42
1.0
 92
        8
 66
     7
 43
1.0
 76
     1
 77
     6
 78
     2
 67
     7
 79
     5
170
     0
171
     0
290
     0
174
     0
 93
        1
 44
0.0
173
     0
291
     1
 45
0.0
  0
VISUALSTYLE
  5
2B
102
{ACAD_REACTORS
330
2A
102
}
102
{ACAD_XDICTIONARY
360
6B
102
}
330
2A
100
AcDbVisualStyle
  2
Flat
 70
     0
 71
     2
 72
     1
 73
     1
 90
        2
 40
-0.6
 41
30.0
 62
     5
 63
     7
421
 16777215
 74
     0
 91
        4
 64
     7
 65
   257
 75
     1
175
     1
 42
1.0
 92
        8
 66
     7
 43
1.0
 76
     1
 77
     6
 78
     2
 67
     7
 79
     5
170
     0
171
     0
290
     0
174
     0
 93
       13
 44
0.0
173
     0
291
     1
 45
0.0
  0
VISUALSTYLE
  5
2C
102
{ACAD_REACTORS
330
2A
102
}
102
{ACAD_XDICTIONARY
360
6D
102
}
330
2A
100
AcDbVisualStyle
  2
FlatWithEdges
 70
     1
 71
     2
 72
     1
 73
     1
 90
        2
 40
-0.6
 41
30.0
 62
     5
 63
     7
421
 16777215
 74
     1
 91
        4
 64
     7
 65
   257
 75
     1
175
     1
 42
1.0
 92
        0
 66
   257
 43
1.0
 76
     1
 77
     6
 78
     2
 67
     7
 79
     5
170
     0
171
     0
290
     0
174
     0
 93
       13
 44
0.0
173
     0
291
     1
 45
0.0
  0
VISUALSTYLE
  5
2D
102
{ACAD_REACTORS
330
2A
102
}
102
{ACAD_XDICTIONARY
360
6F
102
}
330
2A
100
AcDbVisualStyle
  2
Gouraud
 70
     2
 71
     2
 72
     2
 73
     1
 90
        2
 40
-0.6
 41
30.0
 62
     5
 63
     7
421
 16777215
 74
     0
 91
        4
 64
     7
 65
   257
 75
     1
175
     1
 42
1.0
 92
        0
 66
     7
 43
1.0
 76
     1
 77
     6
 78
     2
 67
     7
 79
     5
170
     0
171
     0
290
     0
174
     0
 93
       13
 44
0.0
173
     0
291
     1
 45
0.0
  0
VISUALSTYLE
  5
2E
102
{ACAD_REACTORS
330
2A
102
}
102
{ACAD_XDICTIONARY
360
71
102
}
330
2A
100
AcDbVisualStyle
  2
GouraudWithEdges
 70
     3
 71
     2
 72
     2
 73
     1
 90
        2
 40
-0.6
 41
30.0
 62
     5
 63
     7
421
 16777215
 74
     1
 91
        4
 64
     7
 65
   257
 75
     1
175
     1
 42
1.0
 92
        0
 66
   257
 43
1.0
 76
     1
 77
     6
 78
     2
 67
     7
 79
     5
170
     0
171
     0
290
     0
174
     0
 93
       13
 44
0.0
173
     0
291
     1
 45
0.0
  0
VISUALSTYLE
  5
38
102
{ACAD_REACTORS
330
2A
102
}
102
{ACAD_XDICTIONARY
360
85
102
}
330
2A
100
AcDbVisualStyle
  2
Linepattern
 70
    14
 71
     2
 72
     2
 73
     0
 90
        0
 40
-0.6
 41
-30.0
 62
     5
 63
     7
421
 16777215
 74
     1
 91
        4
 64
     7
 65
   257
 75
     7
175
     7
 42
1.0
 92
        8
 66
     7
 43
1.0
 76
     1
 77
     6
 78
     2
 67
     7
 79
     5
170
     0
171
     0
290
     0
174
     0
 93
        1
 44
0.0
173
     0
291
     1
 45
0.0
  0
VISUALSTYLE
  5
33
102
{ACAD_REACTORS
330
2A
102
}
102
{ACAD_XDICTIONARY
360
7B
102
}
330
2A
100
AcDbVisualStyle
  2
Realistic
 70
     8
 71
     2
 72
     2
 73
     0
 90
        0
 40
-0.6
 41
-30.0
 62
     5
 63
     7
421
 16777215
 74
     1
 91
        0
 64
     7
 65
   257
 75
     1
175
     1
 42
1.0
 92
        8
 66
     8
424
  7895160
 43
1.0
 76
     1
 77
     6
 78
     2
 67
     7
 79
     5
170
     0
171
     0
290
     0
174
     0
 93
       13
 44
0.0
173
     0
291
     0
 45
0.0
  0
VISUALSTYLE
  5
37
102
{ACAD_REACTORS
330
2A
102
}
102
{ACAD_XDICTIONARY
360
83
102
}
330
2A
100
AcDbVisualStyle
  2
Thicken
 70
    13
 71
     2
 72
     2
 73
     0
 90
        0
 40
-0.6
 41
-30.0
 62
     5
 63
     7
421
 16777215
 74
     1
 91
        4
 64
     7
 65
   257
 75
     1
175
     1
 42
1.0
 92
       12
 66
     7
 43
1.0
 76
     1
 77
     6
 78
     2
 67
     7
 79
     5
170
     0
171
     0
290
     0
174
     0
 93
        1
 44
0.0
173
     0
291
     1
 45
0.0
  0
DICTIONARY
  5
73
330
2F
100
AcDbDictionary
280
     1
281
     1
  3
ACAD_XREC_ROUNDTRIP
360
74
  0
DICTIONARY
  5
77
330
31
100
AcDbDictionary
280
     1
281
     1
  3
ACAD_XREC_ROUNDTRIP
360
78
  0
DICTIONARY
  5
75
330
30
100
AcDbDictionary
280
     1
281
     1
  3
ACAD_XREC_ROUNDTRIP
360
76
  0
DICTIONARY
  5
79
330
32
100
AcDbDictionary
280
     1
281
     1
  3
ACAD_XREC_ROUNDTRIP
360
7A
  0
DICTIONARY
  5
81
330
36
100
AcDbDictionary
280
     1
281
     1
  3
ACAD_XREC_ROUNDTRIP
360
82
  0
DICTIONARY
  5
89
330
3A
100
AcDbDictionary
280
     1
281
     1
  3
ACAD_XREC_ROUNDTRIP
360
8A
  0
DICTIONARY
  5
7D
330
34
100
AcDbDictionary
280
     1
281
     1
  3
ACAD_XREC_ROUNDTRIP
360
7E
  0
DICTIONARY
  5
7F
330
35
100
AcDbDictionary
280
     1
281
     1
  3
ACAD_XREC_ROUNDTRIP
360
80
  0
DICTIONARY
  5
87
330
39
100
AcDbDictionary
280
     1
281
     1
  3
ACAD_XREC_ROUNDTRIP
360
88
  0
DICTIONARY
  5
6B
330
2B
100
AcDbDictionary
280
     1
281
     1
  3
ACAD_XREC_ROUNDTRIP
360
6C
  0
DICTIONARY
  5
6D
330
2C
100
AcDbDictionary
280
     1
281
     1
  3
ACAD_XREC_ROUNDTRIP
360
6E
  0
DICTIONARY
  5
6F
330
2D
100
AcDbDictionary
280
     1
281
     1
  3
ACAD_XREC_ROUNDTRIP
360
70
  0
DICTIONARY
  5
71
330
2E
100
AcDbDictionary
280
     1
281
     1
  3
ACAD_XREC_ROUNDTRIP
360
72
  0
DICTIONARY
  5
85
330
38
100
AcDbDictionary
280
     1
281
     1
  3
ACAD_XREC_ROUNDTRIP
360
86
  0
DICTIONARY
  5
7B
330
33
100
AcDbDictionary
280
     1
281
     1
  3
ACAD_XREC_ROUNDTRIP
360
7C
  0
DICTIONARY
  5
83
330
37
100
AcDbDictionary
280
     1
281
     1
  3
ACAD_XREC_ROUNDTRIP
360
84
  0
XRECORD
  5
74
102
{ACAD_REACTORS
330
73
102
}
330
73
100
AcDbXrecord
280
     1
102
RTVSPropertyOp0
 70
     1
102
RTVSPropertyOp1
 70
     1
102
RTVSPropertyOp2
 70
     1
102
RTVSPropertyOp3
 70
     1
102
RTVSPropertyOp4
 70
     1
102
RTVSPropertyOp5
 70
     1
102
RTVSPropertyOp6
 70
     1
102
RTVSPropertyOp7
 70
     1
102
RTVSPropertyOp8
 70
     1
102
RTVSPropertyOp9
 70
     1
102
RTVSPropertyOp10
 70
     1
102
RTVSPropertyOp11
 70
     1
102
RTVSPropertyOp12
 70
     1
102
RTVSPropertyOp13
 70
     1
102
RTVSPropertyOp14
 70
     1
102
RTVSPropertyOp15
 70
     1
102
RTVSPropertyOp16
 70
     1
102
RTVSPropertyOp17
 70
     1
102
RTVSPropertyOp18
 70
     1
102
RTVSPropertyOp19
 70
     1
102
RTVSPropertyOp20
 70
     1
102
RTVSPropertyOp21
 70
     1
102
RTVSPropertyOp22
 70
     1
102
RTVSPropertyOp23
 70
     1
102
RTVSPropertyOp24
 70
     1
102
RTVSPropertyOp25
 70
     1
102
RTVSPropertyOp26
 70
     1
102
RTVSPropertyOp27
 70
     1
102
RTVSPropertyOp28
 70
     1
102
RTVSPropertyOp29
 70
     1
102
RTVSPropertyOp30
 70
     1
102
RTVSPropertyOp31
 70
     1
102
RTVSPropertyOp32
 70
     1
  0
XRECORD
  5
78
102
{ACAD_REACTORS
330
77
102
}
330
77
100
AcDbXrecord
280
     1
102
RTVSPropertyOp0
 70
     1
102
RTVSPropertyOp1
 70
     1
102
RTVSPropertyOp2
 70
     1
102
RTVSPropertyOp3
 70
     1
102
RTVSPropertyOp4
 70
     1
102
RTVSPropertyOp5
 70
     1
102
RTVSPropertyOp6
 70
     1
102
RTVSPropertyOp7
 70
     1
102
RTVSPropertyOp8
 70
     1
102
RTVSPropertyOp9
 70
     1
102
RTVSPropertyOp10
 70
     1
102
RTVSPropertyOp11
 70
     1
102
RTVSPropertyOp12
 70
     1
102
RTVSPropertyOp13
 70
     1
102
RTVSPropertyOp14
 70
     1
102
RTVSPropertyOp15
 70
     1
102
RTVSPropertyOp16
 70
     1
102
RTVSPropertyOp17
 70
     1
102
RTVSPropertyOp18
 70
     1
102
RTVSPropertyOp19
 70
     1
102
RTVSPropertyOp20
 70
     1
102
RTVSPropertyOp21
 70
     1
102
RTVSPropertyOp22
 70
     1
102
RTVSPropertyOp23
 70
     1
102
RTVSPropertyOp24
 70
     1
102
RTVSPropertyOp25
 70
     1
102
RTVSPropertyOp26
 70
     1
102
RTVSPropertyOp27
 70
     1
102
RTVSPropertyOp28
 70
     1
102
RTVSPropertyOp29
 70
     1
102
RTVSPropertyOp30
 70
     1
102
RTVSPropertyOp31
 70
     1
102
RTVSPropertyOp32
 70
     1
  0
XRECORD
  5
76
102
{ACAD_REACTORS
330
75
102
}
330
75
100
AcDbXrecord
280
     1
102
RTVSPropertyOp0
 70
     1
102
RTVSPropertyOp1
 70
     1
102
RTVSPropertyOp2
 70
     1
102
RTVSPropertyOp3
 70
     1
102
RTVSPropertyOp4
 70
     1
102
RTVSPropertyOp5
 70
     1
102
RTVSPropertyOp6
 70
     1
102
RTVSPropertyOp7
 70
     1
102
RTVSPropertyOp8
 70
     1
102
RTVSPropertyOp9
 70
     1
102
RTVSPropertyOp10
 70
     1
102
RTVSPropertyOp11
 70
     1
102
RTVSPropertyOp12
 70
     1
102
RTVSPropertyOp13
 70
     1
102
RTVSPropertyOp14
 70
     1
102
RTVSPropertyOp15
 70
     1
102
RTVSPropertyOp16
 70
     1
102
RTVSPropertyOp17
 70
     1
102
RTVSPropertyOp18
 70
     1
102
RTVSPropertyOp19
 70
     1
102
RTVSPropertyOp20
 70
     1
102
RTVSPropertyOp21
 70
     1
102
RTVSPropertyOp22
 70
     1
102
RTVSPropertyOp23
 70
     1
102
RTVSPropertyOp24
 70
     1
102
RTVSPropertyOp25
 70
     1
102
RTVSPropertyOp26
 70
     1
102
RTVSPropertyOp27
 70
     1
102
RTVSPropertyOp28
 70
     1
102
RTVSPropertyOp29
 70
     1
102
RTVSPropertyOp30
 70
     1
102
RTVSPropertyOp31
 70
     1
102
RTVSPropertyOp32
 70
     1
  0
XRECORD
  5
7A
102
{ACAD_REACTORS
330
79
102
}
330
79
100
AcDbXrecord
280
     1
102
RTVSPropertyOp0
 70
     1
102
RTVSPropertyOp1
 70
     1
102
RTVSPropertyOp2
 70
     1
102
RTVSPropertyOp3
 70
     1
102
RTVSPropertyOp4
 70
     1
102
RTVSPropertyOp5
 70
     1
102
RTVSPropertyOp6
 70
     1
102
RTVSPropertyOp7
 70
     1
102
RTVSPropertyOp8
 70
     1
102
RTVSPropertyOp9
 70
     1
102
RTVSPropertyOp10
 70
     1
102
RTVSPropertyOp11
 70
     1
102
RTVSPropertyOp12
 70
     1
102
RTVSPropertyOp13
 70
     1
102
RTVSPropertyOp14
 70
     1
102
RTVSPropertyOp15
 70
     1
102
RTVSPropertyOp16
 70
     1
102
RTVSPropertyOp17
 70
     1
102
RTVSPropertyOp18
 70
     1
102
RTVSPropertyOp19
 70
     1
102
RTVSPropertyOp20
 70
     1
102
RTVSPropertyOp21
 70
     1
102
RTVSPropertyOp22
 70
     1
102
RTVSPropertyOp23
 70
     1
102
RTVSPropertyOp24
 70
     1
102
RTVSPropertyOp25
 70
     1
102
RTVSPropertyOp26
 70
     1
102
RTVSPropertyOp27
 70
     1
102
RTVSPropertyOp28
 70
     1
102
RTVSPropertyOp29
 70
     1
102
RTVSPropertyOp30
 70
     1
102
RTVSPropertyOp31
 70
     1
102
RTVSPropertyOp32
 70
     1
  0
XRECORD
  5
82
102
{ACAD_REACTORS
330
81
102
}
330
81
100
AcDbXrecord
280
     1
102
RTVSPropertyOp0
 70
     1
102
RTVSPropertyOp1
 70
     1
102
RTVSPropertyOp2
 70
     1
102
RTVSPropertyOp3
 70
     1
102
RTVSPropertyOp4
 70
     1
102
RTVSPropertyOp5
 70
     1
102
RTVSPropertyOp6
 70
     1
102
RTVSPropertyOp7
 70
     1
102
RTVSPropertyOp8
 70
     1
102
RTVSPropertyOp9
 70
     1
102
RTVSPropertyOp10
 70
     1
102
RTVSPropertyOp11
 70
     1
102
RTVSPropertyOp12
 70
     1
102
RTVSPropertyOp13
 70
     1
102
RTVSPropertyOp14
 70
     1
102
RTVSPropertyOp15
 70
     1
102
RTVSPropertyOp16
 70
     1
102
RTVSPropertyOp17
 70
     1
102
RTVSPropertyOp18
 70
     1
102
RTVSPropertyOp19
 70
     1
102
RTVSPropertyOp20
 70
     1
102
RTVSPropertyOp21
 70
     1
102
RTVSPropertyOp22
 70
     1
102
RTVSPropertyOp23
 70
     1
102
RTVSPropertyOp24
 70
     1
102
RTVSPropertyOp25
 70
     1
102
RTVSPropertyOp26
 70
     1
102
RTVSPropertyOp27
 70
     1
102
RTVSPropertyOp28
 70
     1
102
RTVSPropertyOp29
 70
     1
102
RTVSPropertyOp30
 70
     1
102
RTVSPropertyOp31
 70
     1
102
RTVSPropertyOp32
 70
     1
  0
XRECORD
  5
8A
102
{ACAD_REACTORS
330
89
102
}
330
89
100
AcDbXrecord
280
     1
102
RTVSPropertyOp0
 70
     1
102
RTVSPropertyOp1
 70
     1
102
RTVSPropertyOp2
 70
     1
102
RTVSPropertyOp3
 70
     1
102
RTVSPropertyOp4
 70
     1
102
RTVSPropertyOp5
 70
     1
102
RTVSPropertyOp6
 70
     1
102
RTVSPropertyOp7
 70
     1
102
RTVSPropertyOp8
 70
     1
102
RTVSPropertyOp9
 70
     1
102
RTVSPropertyOp10
 70
     1
102
RTVSPropertyOp11
 70
     1
102
RTVSPropertyOp12
 70
     1
102
RTVSPropertyOp13
 70
     1
102
RTVSPropertyOp14
 70
     1
102
RTVSPropertyOp15
 70
     1
102
RTVSPropertyOp16
 70
     1
102
RTVSPropertyOp17
 70
     1
102
RTVSPropertyOp18
 70
     1
102
RTVSPropertyOp19
 70
     1
102
RTVSPropertyOp20
 70
     1
102
RTVSPropertyOp21
 70
     1
102
RTVSPropertyOp22
 70
     1
102
RTVSPropertyOp23
 70
     1
102
RTVSPropertyOp24
 70
     1
102
RTVSPropertyOp25
 70
     1
102
RTVSPropertyOp26
 70
     1
102
RTVSPropertyOp27
 70
     1
102
RTVSPropertyOp28
 70
     1
102
RTVSPropertyOp29
 70
     1
102
RTVSPropertyOp30
 70
     1
102
RTVSPropertyOp31
 70
     1
102
RTVSPropertyOp32
 70
     1
  0
XRECORD
  5
7E
102
{ACAD_REACTORS
330
7D
102
}
330
7D
100
AcDbXrecord
280
     1
102
RTVSPropertyOp0
 70
     1
102
RTVSPropertyOp1
 70
     1
102
RTVSPropertyOp2
 70
     1
102
RTVSPropertyOp3
 70
     1
102
RTVSPropertyOp4
 70
     1
102
RTVSPropertyOp5
 70
     1
102
RTVSPropertyOp6
 70
     1
102
RTVSPropertyOp7
 70
     1
102
RTVSPropertyOp8
 70
     1
102
RTVSPropertyOp9
 70
     1
102
RTVSPropertyOp10
 70
     1
102
RTVSPropertyOp11
 70
     1
102
RTVSPropertyOp12
 70
     1
102
RTVSPropertyOp13
 70
     1
102
RTVSPropertyOp14
 70
     1
102
RTVSPropertyOp15
 70
     1
102
RTVSPropertyOp16
 70
     1
102
RTVSPropertyOp17
 70
     1
102
RTVSPropertyOp18
 70
     1
102
RTVSPropertyOp19
 70
     1
102
RTVSPropertyOp20
 70
     1
102
RTVSPropertyOp21
 70
     1
102
RTVSPropertyOp22
 70
     1
102
RTVSPropertyOp23
 70
     1
102
RTVSPropertyOp24
 70
     1
102
RTVSPropertyOp25
 70
     1
102
RTVSPropertyOp26
 70
     1
102
RTVSPropertyOp27
 70
     1
102
RTVSPropertyOp28
 70
     1
102
RTVSPropertyOp29
 70
     1
102
RTVSPropertyOp30
 70
     1
102
RTVSPropertyOp31
 70
     1
102
RTVSPropertyOp32
 70
     1
  0
XRECORD
  5
80
102
{ACAD_REACTORS
330
7F
102
}
330
7F
100
AcDbXrecord
280
     1
102
RTVSPropertyOp0
 70
     1
102
RTVSPropertyOp1
 70
     1
102
RTVSPropertyOp2
 70
     1
102
RTVSPropertyOp3
 70
     1
102
RTVSPropertyOp4
 70
     1
102
RTVSPropertyOp5
 70
     1
102
RTVSPropertyOp6
 70
     1
102
RTVSPropertyOp7
 70
     1
102
RTVSPropertyOp8
 70
     1
102
RTVSPropertyOp9
 70
     1
102
RTVSPropertyOp10
 70
     1
102
RTVSPropertyOp11
 70
     1
102
RTVSPropertyOp12
 70
     1
102
RTVSPropertyOp13
 70
     1
102
RTVSPropertyOp14
 70
     1
102
RTVSPropertyOp15
 70
     1
102
RTVSPropertyOp16
 70
     1
102
RTVSPropertyOp17
 70
     1
102
RTVSPropertyOp18
 70
     1
102
RTVSPropertyOp19
 70
     1
102
RTVSPropertyOp20
 70
     1
102
RTVSPropertyOp21
 70
     1
102
RTVSPropertyOp22
 70
     1
102
RTVSPropertyOp23
 70
     1
102
RTVSPropertyOp24
 70
     1
102
RTVSPropertyOp25
 70
     1
102
RTVSPropertyOp26
 70
     1
102
RTVSPropertyOp27
 70
     1
102
RTVSPropertyOp28
 70
     1
102
RTVSPropertyOp29
 70
     1
102
RTVSPropertyOp30
 70
     1
102
RTVSPropertyOp31
 70
     1
102
RTVSPropertyOp32
 70
     1
  0
XRECORD
  5
88
102
{ACAD_REACTORS
330
87
102
}
330
87
100
AcDbXrecord
280
     1
102
RTVSPropertyOp0
 70
     1
102
RTVSPropertyOp1
 70
     1
102
RTVSPropertyOp2
 70
     1
102
RTVSPropertyOp3
 70
     1
102
RTVSPropertyOp4
 70
     1
102
RTVSPropertyOp5
 70
     1
102
RTVSPropertyOp6
 70
     1
102
RTVSPropertyOp7
 70
     1
102
RTVSPropertyOp8
 70
     1
102
RTVSPropertyOp9
 70
     1
102
RTVSPropertyOp10
 70
     1
102
RTVSPropertyOp11
 70
     1
102
RTVSPropertyOp12
 70
     1
102
RTVSPropertyOp13
 70
     1
102
RTVSPropertyOp14
 70
     1
102
RTVSPropertyOp15
 70
     1
102
RTVSPropertyOp16
 70
     1
102
RTVSPropertyOp17
 70
     1
102
RTVSPropertyOp18
 70
     1
102
RTVSPropertyOp19
 70
     1
102
RTVSPropertyOp20
 70
     1
102
RTVSPropertyOp21
 70
     1
102
RTVSPropertyOp22
 70
     1
102
RTVSPropertyOp23
 70
     1
102
RTVSPropertyOp24
 70
     1
102
RTVSPropertyOp25
 70
     1
102
RTVSPropertyOp26
 70
     1
102
RTVSPropertyOp27
 70
     1
102
RTVSPropertyOp28
 70
     1
102
RTVSPropertyOp29
 70
     1
102
RTVSPropertyOp30
 70
     1
102
RTVSPropertyOp31
 70
     1
102
RTVSPropertyOp32
 70
     1
  0
XRECORD
  5
6C
102
{ACAD_REACTORS
330
6B
102
}
330
6B
100
AcDbXrecord
280
     1
102
RTVSPropertyOp0
 70
     1
102
RTVSPropertyOp1
 70
     1
102
RTVSPropertyOp2
 70
     1
102
RTVSPropertyOp3
 70
     1
102
RTVSPropertyOp4
 70
     1
102
RTVSPropertyOp5
 70
     1
102
RTVSPropertyOp6
 70
     1
102
RTVSPropertyOp7
 70
     1
102
RTVSPropertyOp8
 70
     1
102
RTVSPropertyOp9
 70
     1
102
RTVSPropertyOp10
 70
     1
102
RTVSPropertyOp11
 70
     1
102
RTVSPropertyOp12
 70
     1
102
RTVSPropertyOp13
 70
     1
102
RTVSPropertyOp14
 70
     1
102
RTVSPropertyOp15
 70
     1
102
RTVSPropertyOp16
 70
     1
102
RTVSPropertyOp17
 70
     1
102
RTVSPropertyOp18
 70
     1
102
RTVSPropertyOp19
 70
     1
102
RTVSPropertyOp20
 70
     1
102
RTVSPropertyOp21
 70
     1
102
RTVSPropertyOp22
 70
     1
102
RTVSPropertyOp23
 70
     1
102
RTVSPropertyOp24
 70
     1
102
RTVSPropertyOp25
 70
     1
102
RTVSPropertyOp26
 70
     1
102
RTVSPropertyOp27
 70
     1
102
RTVSPropertyOp28
 70
     1
102
RTVSPropertyOp29
 70
     1
102
RTVSPropertyOp30
 70
     1
102
RTVSPropertyOp31
 70
     1
102
RTVSPropertyOp32
 70
     1
  0
XRECORD
  5
6E
102
{ACAD_REACTORS
330
6D
102
}
330
6D
100
AcDbXrecord
280
     1
102
RTVSPropertyOp0
 70
     1
102
RTVSPropertyOp1
 70
     1
102
RTVSPropertyOp2
 70
     1
102
RTVSPropertyOp3
 70
     1
102
RTVSPropertyOp4
 70
     1
102
RTVSPropertyOp5
 70
     1
102
RTVSPropertyOp6
 70
     1
102
RTVSPropertyOp7
 70
     1
102
RTVSPropertyOp8
 70
     1
102
RTVSPropertyOp9
 70
     1
102
RTVSPropertyOp10
 70
     1
102
RTVSPropertyOp11
 70
     1
102
RTVSPropertyOp12
 70
     1
102
RTVSPropertyOp13
 70
     1
102
RTVSPropertyOp14
 70
     1
102
RTVSPropertyOp15
 70
     1
102
RTVSPropertyOp16
 70
     1
102
RTVSPropertyOp17
 70
     1
102
RTVSPropertyOp18
 70
     1
102
RTVSPropertyOp19
 70
     1
102
RTVSPropertyOp20
 70
     1
102
RTVSPropertyOp21
 70
     1
102
RTVSPropertyOp22
 70
     1
102
RTVSPropertyOp23
 70
     1
102
RTVSPropertyOp24
 70
     1
102
RTVSPropertyOp25
 70
     1
102
RTVSPropertyOp26
 70
     1
102
RTVSPropertyOp27
 70
     1
102
RTVSPropertyOp28
 70
     1
102
RTVSPropertyOp29
 70
     1
102
RTVSPropertyOp30
 70
     1
102
RTVSPropertyOp31
 70
     1
102
RTVSPropertyOp32
 70
     1
  0
XRECORD
  5
70
102
{ACAD_REACTORS
330
6F
102
}
330
6F
100
AcDbXrecord
280
     1
102
RTVSPropertyOp0
 70
     1
102
RTVSPropertyOp1
 70
     1
102
RTVSPropertyOp2
 70
     1
102
RTVSPropertyOp3
 70
     1
102
RTVSPropertyOp4
 70
     1
102
RTVSPropertyOp5
 70
     1
102
RTVSPropertyOp6
 70
     1
102
RTVSPropertyOp7
 70
     1
102
RTVSPropertyOp8
 70
     1
102
RTVSPropertyOp9
 70
     1
102
RTVSPropertyOp10
 70
     1
102
RTVSPropertyOp11
 70
     1
102
RTVSPropertyOp12
 70
     1
102
RTVSPropertyOp13
 70
     1
102
RTVSPropertyOp14
 70
     1
102
RTVSPropertyOp15
 70
     1
102
RTVSPropertyOp16
 70
     1
102
RTVSPropertyOp17
 70
     1
102
RTVSPropertyOp18
 70
     1
102
RTVSPropertyOp19
 70
     1
102
RTVSPropertyOp20
 70
     1
102
RTVSPropertyOp21
 70
     1
102
RTVSPropertyOp22
 70
     1
102
RTVSPropertyOp23
 70
     1
102
RTVSPropertyOp24
 70
     1
102
RTVSPropertyOp25
 70
     1
102
RTVSPropertyOp26
 70
     1
102
RTVSPropertyOp27
 70
     1
102
RTVSPropertyOp28
 70
     1
102
RTVSPropertyOp29
 70
     1
102
RTVSPropertyOp30
 70
     1
102
RTVSPropertyOp31
 70
     1
102
RTVSPropertyOp32
 70
     1
  0
XRECORD
  5
72
102
{ACAD_REACTORS
330
71
102
}
330
71
100
AcDbXrecord
280
     1
102
RTVSPropertyOp0
 70
     1
102
RTVSPropertyOp1
 70
     1
102
RTVSPropertyOp2
 70
     1
102
RTVSPropertyOp3
 70
     1
102
RTVSPropertyOp4
 70
     1
102
RTVSPropertyOp5
 70
     1
102
RTVSPropertyOp6
 70
     1
102
RTVSPropertyOp7
 70
     1
102
RTVSPropertyOp8
 70
     1
102
RTVSPropertyOp9
 70
     1
102
RTVSPropertyOp10
 70
     1
102
RTVSPropertyOp11
 70
     1
102
RTVSPropertyOp12
 70
     1
102
RTVSPropertyOp13
 70
     1
102
RTVSPropertyOp14
 70
     1
102
RTVSPropertyOp15
 70
     1
102
RTVSPropertyOp16
 70
     1
102
RTVSPropertyOp17
 70
     1
102
RTVSPropertyOp18
 70
     1
102
RTVSPropertyOp19
 70
     1
102
RTVSPropertyOp20
 70
     1
102
RTVSPropertyOp21
 70
     1
102
RTVSPropertyOp22
 70
     1
102
RTVSPropertyOp23
 70
     1
102
RTVSPropertyOp24
 70
     1
102
RTVSPropertyOp25
 70
     1
102
RTVSPropertyOp26
 70
     1
102
RTVSPropertyOp27
 70
     1
102
RTVSPropertyOp28
 70
     1
102
RTVSPropertyOp29
 70
     1
102
RTVSPropertyOp30
 70
     1
102
RTVSPropertyOp31
 70
     1
102
RTVSPropertyOp32
 70
     1
  0
XRECORD
  5
86
102
{ACAD_REACTORS
330
85
102
}
330
85
100
AcDbXrecord
280
     1
102
RTVSPropertyOp0
 70
     1
102
RTVSPropertyOp1
 70
     1
102
RTVSPropertyOp2
 70
     1
102
RTVSPropertyOp3
 70
     1
102
RTVSPropertyOp4
 70
     1
102
RTVSPropertyOp5
 70
     1
102
RTVSPropertyOp6
 70
     1
102
RTVSPropertyOp7
 70
     1
102
RTVSPropertyOp8
 70
     1
102
RTVSPropertyOp9
 70
     1
102
RTVSPropertyOp10
 70
     1
102
RTVSPropertyOp11
 70
     1
102
RTVSPropertyOp12
 70
     1
102
RTVSPropertyOp13
 70
     1
102
RTVSPropertyOp14
 70
     1
102
RTVSPropertyOp15
 70
     1
102
RTVSPropertyOp16
 70
     1
102
RTVSPropertyOp17
 70
     1
102
RTVSPropertyOp18
 70
     1
102
RTVSPropertyOp19
 70
     1
102
RTVSPropertyOp20
 70
     1
102
RTVSPropertyOp21
 70
     1
102
RTVSPropertyOp22
 70
     1
102
RTVSPropertyOp23
 70
     1
102
RTVSPropertyOp24
 70
     1
102
RTVSPropertyOp25
 70
     1
102
RTVSPropertyOp26
 70
     1
102
RTVSPropertyOp27
 70
     1
102
RTVSPropertyOp28
 70
     1
102
RTVSPropertyOp29
 70
     1
102
RTVSPropertyOp30
 70
     1
102
RTVSPropertyOp31
 70
     1
102
RTVSPropertyOp32
 70
     1
  0
XRECORD
  5
7C
102
{ACAD_REACTORS
330
7B
102
}
330
7B
100
AcDbXrecord
280
     1
102
RTVSPropertyOp0
 70
     1
102
RTVSPropertyOp1
 70
     1
102
RTVSPropertyOp2
 70
     1
102
RTVSPropertyOp3
 70
     1
102
RTVSPropertyOp4
 70
     1
102
RTVSPropertyOp5
 70
     1
102
RTVSPropertyOp6
 70
     1
102
RTVSPropertyOp7
 70
     1
102
RTVSPropertyOp8
 70
     1
102
RTVSPropertyOp9
 70
     1
102
RTVSPropertyOp10
 70
     1
102
RTVSPropertyOp11
 70
     1
102
RTVSPropertyOp12
 70
     1
102
RTVSPropertyOp13
 70
     1
102
RTVSPropertyOp14
 70
     1
102
RTVSPropertyOp15
 70
     1
102
RTVSPropertyOp16
 70
     1
102
RTVSPropertyOp17
 70
     1
102
RTVSPropertyOp18
 70
     1
102
RTVSPropertyOp19
 70
     1
102
RTVSPropertyOp20
 70
     1
102
RTVSPropertyOp21
 70
     1
102
RTVSPropertyOp22
 70
     1
102
RTVSPropertyOp23
 70
     1
102
RTVSPropertyOp24
 70
     1
102
RTVSPropertyOp25
 70
     1
102
RTVSPropertyOp26
 70
     1
102
RTVSPropertyOp27
 70
     1
102
RTVSPropertyOp28
 70
     1
102
RTVSPropertyOp29
 70
     1
102
RTVSPropertyOp30
 70
     1
102
RTVSPropertyOp31
 70
     1
102
RTVSPropertyOp32
 70
     1
  0
XRECORD
  5
84
102
{ACAD_REACTORS
330
83
102
}
330
83
100
AcDbXrecord
280
     1
102
RTVSPropertyOp0
 70
     1
102
RTVSPropertyOp1
 70
     1
102
RTVSPropertyOp2
 70
     1
102
RTVSPropertyOp3
 70
     1
102
RTVSPropertyOp4
 70
     1
102
RTVSPropertyOp5
 70
     1
102
RTVSPropertyOp6
 70
     1
102
RTVSPropertyOp7
 70
     1
102
RTVSPropertyOp8
 70
     1
102
RTVSPropertyOp9
 70
     1
102
RTVSPropertyOp10
 70
     1
102
RTVSPropertyOp11
 70
     1
102
RTVSPropertyOp12
 70
     1
102
RTVSPropertyOp13
 70
     1
102
RTVSPropertyOp14
 70
     1
102
RTVSPropertyOp15
 70
     1
102
RTVSPropertyOp16
 70
     1
102
RTVSPropertyOp17
 70
     1
102
RTVSPropertyOp18
 70
     1
102
RTVSPropertyOp19
 70
     1
102
RTVSPropertyOp20
 70
     1
102
RTVSPropertyOp21
 70
     1
102
RTVSPropertyOp22
 70
     1
102
RTVSPropertyOp23
 70
     1
102
RTVSPropertyOp24
 70
     1
102
RTVSPropertyOp25
 70
     1
102
RTVSPropertyOp26
 70
     1
102
RTVSPropertyOp27
 70
     1
102
RTVSPropertyOp28
 70
     1
102
RTVSPropertyOp29
 70
     1
102
RTVSPropertyOp30
 70
     1
102
RTVSPropertyOp31
 70
     1
102
RTVSPropertyOp32
 70
     1
  0
ENDSEC
  0
EOF