G04 (created by PCBNEW (2013-03-19 BZR 4004)-stable) date 11/06/2013 19:40:29*
%MOIN*%
G04 Gerber Fmt 3.4, Leading zero omitted, Abs format*
%FSLAX34Y34*%
G01*
G70*
G90*
G04 APERTURE LIST*
%ADD10C,2.3622e-006*%
%ADD11R,0.0315X0.0807*%
%ADD12R,0.0787X0.0177*%
%ADD13R,0.0177X0.0787*%
%ADD14R,0.06X0.08*%
%ADD15R,0.08X0.06*%
%ADD16R,0.045X0.025*%
%ADD17R,0.025X0.045*%
%ADD18R,0.0472X0.0472*%
%ADD19R,0.0394X0.0394*%
%ADD20R,0.12X0.065*%
%ADD21R,0.24X0.24*%
%ADD22R,0.0236X0.0512*%
%ADD23R,0.0472X0.0276*%
%ADD24R,0.0787X0.0276*%
%ADD25R,0.1103X0.0866*%
G04 APERTURE END LIST*
G54D10*
G54D11*
X47460Y-36247D03*
X46673Y-35065D03*
X45885Y-36247D03*
X48247Y-35065D03*
X49035Y-36247D03*
X49822Y-35065D03*
G54D12*
X40692Y-39603D03*
X40692Y-39288D03*
X40692Y-38973D03*
X40692Y-38658D03*
X40692Y-38343D03*
X40692Y-38028D03*
X40692Y-37713D03*
X40692Y-37398D03*
X44458Y-37400D03*
X44458Y-39610D03*
X44458Y-39290D03*
X44458Y-38970D03*
X44458Y-38660D03*
X44458Y-38340D03*
X44458Y-38030D03*
X44458Y-37710D03*
G54D13*
X41476Y-36610D03*
X41790Y-36610D03*
X42106Y-36610D03*
X42420Y-36610D03*
X42736Y-36610D03*
X43050Y-36610D03*
X43366Y-36610D03*
X43680Y-36610D03*
X41478Y-40390D03*
X41788Y-40390D03*
X42108Y-40390D03*
X42418Y-40390D03*
X42728Y-40390D03*
X43048Y-40390D03*
X43368Y-40390D03*
X43688Y-40390D03*
G54D14*
X51636Y-38506D03*
X50336Y-38506D03*
G54D15*
X51040Y-27860D03*
X51040Y-26560D03*
G54D16*
X39606Y-39162D03*
X39606Y-38562D03*
X51010Y-25330D03*
X51010Y-25930D03*
X48550Y-28780D03*
X48550Y-29380D03*
G54D17*
X40342Y-40952D03*
X40942Y-40952D03*
X39990Y-40236D03*
X39390Y-40236D03*
G54D16*
X47446Y-32060D03*
X47446Y-31460D03*
X46000Y-39988D03*
X46000Y-40588D03*
G54D17*
X44290Y-35870D03*
X44890Y-35870D03*
G54D16*
X46684Y-37484D03*
X46684Y-36884D03*
X46666Y-32040D03*
X46666Y-31440D03*
X45088Y-32038D03*
X45088Y-31438D03*
G54D18*
X42670Y-29373D03*
X42670Y-28547D03*
X41660Y-29373D03*
X41660Y-28547D03*
X40640Y-29323D03*
X40640Y-28497D03*
G54D15*
X52140Y-33550D03*
X52140Y-34850D03*
G54D16*
X45750Y-38806D03*
X45750Y-38206D03*
G54D17*
X42756Y-33902D03*
X42156Y-33902D03*
G54D16*
X46494Y-41862D03*
X46494Y-42462D03*
X45740Y-37070D03*
X45740Y-37670D03*
X42688Y-30724D03*
X42688Y-30124D03*
X41660Y-30724D03*
X41660Y-30124D03*
X40644Y-30708D03*
X40644Y-30108D03*
X39664Y-30706D03*
X39664Y-30106D03*
G54D18*
X39670Y-29327D03*
X39670Y-28501D03*
G54D11*
X45871Y-34131D03*
X45084Y-32949D03*
X44296Y-34131D03*
X46658Y-32949D03*
X47446Y-34131D03*
X48233Y-32949D03*
X49020Y-34130D03*
X49808Y-32949D03*
X50595Y-34130D03*
G54D19*
X41774Y-41680D03*
X42414Y-41680D03*
G54D20*
X48930Y-27076D03*
G54D21*
X46430Y-26176D03*
G54D20*
X48930Y-25276D03*
G54D19*
X43560Y-34456D03*
X43560Y-35096D03*
G54D22*
X49084Y-42259D03*
X48709Y-41433D03*
X49459Y-41433D03*
G54D23*
X49352Y-28789D03*
G54D24*
X49509Y-29380D03*
G54D23*
X49352Y-29971D03*
G54D25*
X50454Y-29380D03*
M02*
