G04 (created by PCBNEW (2013-03-19 BZR 4004)-stable) date 11/06/2013 19:40:29*
%MOIN*%
G04 Gerber Fmt 3.4, Leading zero omitted, Abs format*
%FSLAX34Y34*%
G01*
G70*
G90*
G04 APERTURE LIST*
%ADD10C,2.3622e-006*%
%ADD11C,0.006*%
%ADD12C,0.005*%
%ADD13C,0.0026*%
%ADD14C,0.004*%
%ADD15C,0.002*%
%ADD16C,0.008*%
%ADD17C,0.015*%
%ADD18C,0.01*%
%ADD19C,0.00787402*%
%ADD20C,0.0075*%
%ADD21C,0.00393701*%
G04 APERTURE END LIST*
G54D10*
G54D11*
X44568Y-39600D02*
X44118Y-39600D01*
X44568Y-37420D02*
X44128Y-37420D01*
X44568Y-39600D02*
X44568Y-37420D01*
X43688Y-40070D02*
X43688Y-40500D01*
X41478Y-40080D02*
X41478Y-40500D01*
X41468Y-40500D02*
X43688Y-40510D01*
X41488Y-36530D02*
X43658Y-36520D01*
X41058Y-37220D02*
X41058Y-40050D01*
X43668Y-36530D02*
X43668Y-36940D01*
X41308Y-36980D02*
X44088Y-36980D01*
X44108Y-40060D02*
X44108Y-37020D01*
X41058Y-40060D02*
X44058Y-40060D01*
X40608Y-37390D02*
X40608Y-39610D01*
X40608Y-39610D02*
X41058Y-39610D01*
X41062Y-37210D02*
X41292Y-36980D01*
X40610Y-37390D02*
X41062Y-37390D01*
X41488Y-36980D02*
X41488Y-36528D01*
X41658Y-37384D02*
G75*
G03X41658Y-37384I-188J0D01*
G74*
G01*
G54D12*
X51986Y-38956D02*
X52086Y-38956D01*
X52086Y-38956D02*
X52086Y-38056D01*
X52086Y-38056D02*
X51986Y-38056D01*
X51986Y-38956D02*
X51986Y-38056D01*
X51986Y-38056D02*
X51336Y-38056D01*
X50636Y-38956D02*
X49986Y-38956D01*
X49986Y-38956D02*
X49986Y-38056D01*
X49986Y-38056D02*
X50636Y-38056D01*
X51336Y-38956D02*
X51986Y-38956D01*
X50590Y-28210D02*
X50590Y-28310D01*
X50590Y-28310D02*
X51490Y-28310D01*
X51490Y-28310D02*
X51490Y-28210D01*
X50590Y-28210D02*
X51490Y-28210D01*
X51490Y-28210D02*
X51490Y-27560D01*
X50590Y-26860D02*
X50590Y-26210D01*
X50590Y-26210D02*
X51490Y-26210D01*
X51490Y-26210D02*
X51490Y-26860D01*
X50590Y-27560D02*
X50590Y-28210D01*
X39356Y-39312D02*
X39356Y-38412D01*
X39356Y-38412D02*
X39856Y-38412D01*
X39856Y-38412D02*
X39856Y-39312D01*
X39856Y-39312D02*
X39356Y-39312D01*
X51260Y-25180D02*
X51260Y-26080D01*
X51260Y-26080D02*
X50760Y-26080D01*
X50760Y-26080D02*
X50760Y-25180D01*
X50760Y-25180D02*
X51260Y-25180D01*
X48800Y-28630D02*
X48800Y-29530D01*
X48800Y-29530D02*
X48300Y-29530D01*
X48300Y-29530D02*
X48300Y-28630D01*
X48300Y-28630D02*
X48800Y-28630D01*
X40192Y-40702D02*
X41092Y-40702D01*
X41092Y-40702D02*
X41092Y-41202D01*
X41092Y-41202D02*
X40192Y-41202D01*
X40192Y-41202D02*
X40192Y-40702D01*
X40140Y-40486D02*
X39240Y-40486D01*
X39240Y-40486D02*
X39240Y-39986D01*
X39240Y-39986D02*
X40140Y-39986D01*
X40140Y-39986D02*
X40140Y-40486D01*
X47196Y-32210D02*
X47196Y-31310D01*
X47196Y-31310D02*
X47696Y-31310D01*
X47696Y-31310D02*
X47696Y-32210D01*
X47696Y-32210D02*
X47196Y-32210D01*
X46250Y-39838D02*
X46250Y-40738D01*
X46250Y-40738D02*
X45750Y-40738D01*
X45750Y-40738D02*
X45750Y-39838D01*
X45750Y-39838D02*
X46250Y-39838D01*
X44140Y-35620D02*
X45040Y-35620D01*
X45040Y-35620D02*
X45040Y-36120D01*
X45040Y-36120D02*
X44140Y-36120D01*
X44140Y-36120D02*
X44140Y-35620D01*
X46434Y-37634D02*
X46434Y-36734D01*
X46434Y-36734D02*
X46934Y-36734D01*
X46934Y-36734D02*
X46934Y-37634D01*
X46934Y-37634D02*
X46434Y-37634D01*
X46416Y-32190D02*
X46416Y-31290D01*
X46416Y-31290D02*
X46916Y-31290D01*
X46916Y-31290D02*
X46916Y-32190D01*
X46916Y-32190D02*
X46416Y-32190D01*
X44838Y-32188D02*
X44838Y-31288D01*
X44838Y-31288D02*
X45338Y-31288D01*
X45338Y-31288D02*
X45338Y-32188D01*
X45338Y-32188D02*
X44838Y-32188D01*
G54D13*
X42788Y-28764D02*
X42916Y-28764D01*
X42916Y-28764D02*
X42916Y-28567D01*
X42788Y-28567D02*
X42916Y-28567D01*
X42788Y-28764D02*
X42788Y-28567D01*
X42543Y-28764D02*
X42602Y-28764D01*
X42602Y-28764D02*
X42602Y-28665D01*
X42543Y-28665D02*
X42602Y-28665D01*
X42543Y-28764D02*
X42543Y-28665D01*
X42738Y-28764D02*
X42797Y-28764D01*
X42797Y-28764D02*
X42797Y-28665D01*
X42738Y-28665D02*
X42797Y-28665D01*
X42738Y-28764D02*
X42738Y-28665D01*
X42592Y-28764D02*
X42748Y-28764D01*
X42748Y-28764D02*
X42748Y-28695D01*
X42592Y-28695D02*
X42748Y-28695D01*
X42592Y-28764D02*
X42592Y-28695D01*
X42788Y-29353D02*
X42916Y-29353D01*
X42916Y-29353D02*
X42916Y-29156D01*
X42788Y-29156D02*
X42916Y-29156D01*
X42788Y-29353D02*
X42788Y-29156D01*
X42424Y-29353D02*
X42552Y-29353D01*
X42552Y-29353D02*
X42552Y-29156D01*
X42424Y-29156D02*
X42552Y-29156D01*
X42424Y-29353D02*
X42424Y-29156D01*
X42738Y-29255D02*
X42797Y-29255D01*
X42797Y-29255D02*
X42797Y-29156D01*
X42738Y-29156D02*
X42797Y-29156D01*
X42738Y-29255D02*
X42738Y-29156D01*
X42543Y-29255D02*
X42602Y-29255D01*
X42602Y-29255D02*
X42602Y-29156D01*
X42543Y-29156D02*
X42602Y-29156D01*
X42543Y-29255D02*
X42543Y-29156D01*
X42592Y-29225D02*
X42748Y-29225D01*
X42748Y-29225D02*
X42748Y-29156D01*
X42592Y-29156D02*
X42748Y-29156D01*
X42592Y-29225D02*
X42592Y-29156D01*
X42631Y-28960D02*
X42709Y-28960D01*
X42709Y-28960D02*
X42709Y-28882D01*
X42631Y-28882D02*
X42709Y-28882D01*
X42631Y-28960D02*
X42631Y-28882D01*
X42434Y-28764D02*
X42552Y-28764D01*
X42552Y-28764D02*
X42552Y-28646D01*
X42434Y-28646D02*
X42552Y-28646D01*
X42434Y-28764D02*
X42434Y-28646D01*
X42424Y-28596D02*
X42513Y-28596D01*
X42513Y-28596D02*
X42513Y-28567D01*
X42424Y-28567D02*
X42513Y-28567D01*
X42424Y-28596D02*
X42424Y-28567D01*
G54D14*
X42896Y-28754D02*
X42896Y-29166D01*
X42444Y-29156D02*
X42444Y-28596D01*
G54D15*
X42521Y-28626D02*
G75*
G03X42521Y-28626I-28J0D01*
G74*
G01*
G54D14*
X42533Y-28567D02*
G75*
G03X42807Y-28567I137J0D01*
G74*
G01*
X42807Y-29353D02*
G75*
G03X42533Y-29353I-137J0D01*
G74*
G01*
G54D13*
X41778Y-28764D02*
X41906Y-28764D01*
X41906Y-28764D02*
X41906Y-28567D01*
X41778Y-28567D02*
X41906Y-28567D01*
X41778Y-28764D02*
X41778Y-28567D01*
X41533Y-28764D02*
X41592Y-28764D01*
X41592Y-28764D02*
X41592Y-28665D01*
X41533Y-28665D02*
X41592Y-28665D01*
X41533Y-28764D02*
X41533Y-28665D01*
X41728Y-28764D02*
X41787Y-28764D01*
X41787Y-28764D02*
X41787Y-28665D01*
X41728Y-28665D02*
X41787Y-28665D01*
X41728Y-28764D02*
X41728Y-28665D01*
X41582Y-28764D02*
X41738Y-28764D01*
X41738Y-28764D02*
X41738Y-28695D01*
X41582Y-28695D02*
X41738Y-28695D01*
X41582Y-28764D02*
X41582Y-28695D01*
X41778Y-29353D02*
X41906Y-29353D01*
X41906Y-29353D02*
X41906Y-29156D01*
X41778Y-29156D02*
X41906Y-29156D01*
X41778Y-29353D02*
X41778Y-29156D01*
X41414Y-29353D02*
X41542Y-29353D01*
X41542Y-29353D02*
X41542Y-29156D01*
X41414Y-29156D02*
X41542Y-29156D01*
X41414Y-29353D02*
X41414Y-29156D01*
X41728Y-29255D02*
X41787Y-29255D01*
X41787Y-29255D02*
X41787Y-29156D01*
X41728Y-29156D02*
X41787Y-29156D01*
X41728Y-29255D02*
X41728Y-29156D01*
X41533Y-29255D02*
X41592Y-29255D01*
X41592Y-29255D02*
X41592Y-29156D01*
X41533Y-29156D02*
X41592Y-29156D01*
X41533Y-29255D02*
X41533Y-29156D01*
X41582Y-29225D02*
X41738Y-29225D01*
X41738Y-29225D02*
X41738Y-29156D01*
X41582Y-29156D02*
X41738Y-29156D01*
X41582Y-29225D02*
X41582Y-29156D01*
X41621Y-28960D02*
X41699Y-28960D01*
X41699Y-28960D02*
X41699Y-28882D01*
X41621Y-28882D02*
X41699Y-28882D01*
X41621Y-28960D02*
X41621Y-28882D01*
X41424Y-28764D02*
X41542Y-28764D01*
X41542Y-28764D02*
X41542Y-28646D01*
X41424Y-28646D02*
X41542Y-28646D01*
X41424Y-28764D02*
X41424Y-28646D01*
X41414Y-28596D02*
X41503Y-28596D01*
X41503Y-28596D02*
X41503Y-28567D01*
X41414Y-28567D02*
X41503Y-28567D01*
X41414Y-28596D02*
X41414Y-28567D01*
G54D14*
X41886Y-28754D02*
X41886Y-29166D01*
X41434Y-29156D02*
X41434Y-28596D01*
G54D15*
X41511Y-28626D02*
G75*
G03X41511Y-28626I-28J0D01*
G74*
G01*
G54D14*
X41523Y-28567D02*
G75*
G03X41797Y-28567I137J0D01*
G74*
G01*
X41797Y-29353D02*
G75*
G03X41523Y-29353I-137J0D01*
G74*
G01*
G54D13*
X40758Y-28714D02*
X40886Y-28714D01*
X40886Y-28714D02*
X40886Y-28517D01*
X40758Y-28517D02*
X40886Y-28517D01*
X40758Y-28714D02*
X40758Y-28517D01*
X40513Y-28714D02*
X40572Y-28714D01*
X40572Y-28714D02*
X40572Y-28615D01*
X40513Y-28615D02*
X40572Y-28615D01*
X40513Y-28714D02*
X40513Y-28615D01*
X40708Y-28714D02*
X40767Y-28714D01*
X40767Y-28714D02*
X40767Y-28615D01*
X40708Y-28615D02*
X40767Y-28615D01*
X40708Y-28714D02*
X40708Y-28615D01*
X40562Y-28714D02*
X40718Y-28714D01*
X40718Y-28714D02*
X40718Y-28645D01*
X40562Y-28645D02*
X40718Y-28645D01*
X40562Y-28714D02*
X40562Y-28645D01*
X40758Y-29303D02*
X40886Y-29303D01*
X40886Y-29303D02*
X40886Y-29106D01*
X40758Y-29106D02*
X40886Y-29106D01*
X40758Y-29303D02*
X40758Y-29106D01*
X40394Y-29303D02*
X40522Y-29303D01*
X40522Y-29303D02*
X40522Y-29106D01*
X40394Y-29106D02*
X40522Y-29106D01*
X40394Y-29303D02*
X40394Y-29106D01*
X40708Y-29205D02*
X40767Y-29205D01*
X40767Y-29205D02*
X40767Y-29106D01*
X40708Y-29106D02*
X40767Y-29106D01*
X40708Y-29205D02*
X40708Y-29106D01*
X40513Y-29205D02*
X40572Y-29205D01*
X40572Y-29205D02*
X40572Y-29106D01*
X40513Y-29106D02*
X40572Y-29106D01*
X40513Y-29205D02*
X40513Y-29106D01*
X40562Y-29175D02*
X40718Y-29175D01*
X40718Y-29175D02*
X40718Y-29106D01*
X40562Y-29106D02*
X40718Y-29106D01*
X40562Y-29175D02*
X40562Y-29106D01*
X40601Y-28910D02*
X40679Y-28910D01*
X40679Y-28910D02*
X40679Y-28832D01*
X40601Y-28832D02*
X40679Y-28832D01*
X40601Y-28910D02*
X40601Y-28832D01*
X40404Y-28714D02*
X40522Y-28714D01*
X40522Y-28714D02*
X40522Y-28596D01*
X40404Y-28596D02*
X40522Y-28596D01*
X40404Y-28714D02*
X40404Y-28596D01*
X40394Y-28546D02*
X40483Y-28546D01*
X40483Y-28546D02*
X40483Y-28517D01*
X40394Y-28517D02*
X40483Y-28517D01*
X40394Y-28546D02*
X40394Y-28517D01*
G54D14*
X40866Y-28704D02*
X40866Y-29116D01*
X40414Y-29106D02*
X40414Y-28546D01*
G54D15*
X40491Y-28576D02*
G75*
G03X40491Y-28576I-28J0D01*
G74*
G01*
G54D14*
X40503Y-28517D02*
G75*
G03X40777Y-28517I137J0D01*
G74*
G01*
X40777Y-29303D02*
G75*
G03X40503Y-29303I-137J0D01*
G74*
G01*
G54D12*
X43157Y-27523D02*
X40087Y-27523D01*
X40087Y-25161D02*
X43157Y-25161D01*
X40087Y-25161D02*
X40087Y-27523D01*
X43157Y-27523D02*
X43157Y-25161D01*
X42622Y-26342D02*
G75*
G03X42622Y-26342I-1000J0D01*
G74*
G01*
X52590Y-33200D02*
X52590Y-33100D01*
X52590Y-33100D02*
X51690Y-33100D01*
X51690Y-33100D02*
X51690Y-33200D01*
X52590Y-33200D02*
X51690Y-33200D01*
X51690Y-33200D02*
X51690Y-33850D01*
X52590Y-34550D02*
X52590Y-35200D01*
X52590Y-35200D02*
X51690Y-35200D01*
X51690Y-35200D02*
X51690Y-34550D01*
X52590Y-33850D02*
X52590Y-33200D01*
X45500Y-38956D02*
X45500Y-38056D01*
X45500Y-38056D02*
X46000Y-38056D01*
X46000Y-38056D02*
X46000Y-38956D01*
X46000Y-38956D02*
X45500Y-38956D01*
X42906Y-34152D02*
X42006Y-34152D01*
X42006Y-34152D02*
X42006Y-33652D01*
X42006Y-33652D02*
X42906Y-33652D01*
X42906Y-33652D02*
X42906Y-34152D01*
X46744Y-41712D02*
X46744Y-42612D01*
X46744Y-42612D02*
X46244Y-42612D01*
X46244Y-42612D02*
X46244Y-41712D01*
X46244Y-41712D02*
X46744Y-41712D01*
X45990Y-36920D02*
X45990Y-37820D01*
X45990Y-37820D02*
X45490Y-37820D01*
X45490Y-37820D02*
X45490Y-36920D01*
X45490Y-36920D02*
X45990Y-36920D01*
X42438Y-30874D02*
X42438Y-29974D01*
X42438Y-29974D02*
X42938Y-29974D01*
X42938Y-29974D02*
X42938Y-30874D01*
X42938Y-30874D02*
X42438Y-30874D01*
X41410Y-30874D02*
X41410Y-29974D01*
X41410Y-29974D02*
X41910Y-29974D01*
X41910Y-29974D02*
X41910Y-30874D01*
X41910Y-30874D02*
X41410Y-30874D01*
X40394Y-30858D02*
X40394Y-29958D01*
X40394Y-29958D02*
X40894Y-29958D01*
X40894Y-29958D02*
X40894Y-30858D01*
X40894Y-30858D02*
X40394Y-30858D01*
G54D16*
X48910Y-37890D02*
X48910Y-40890D01*
X46910Y-40890D02*
X46910Y-37890D01*
X46910Y-37890D02*
X48910Y-37890D01*
X48910Y-40890D02*
X46910Y-40890D01*
G54D17*
X53349Y-23980D02*
G75*
G03X53349Y-23980I-900J0D01*
G74*
G01*
X48742Y-43074D02*
G75*
G03X48742Y-43074I-900J0D01*
G74*
G01*
X40156Y-43074D02*
G75*
G03X40156Y-43074I-900J0D01*
G74*
G01*
X40160Y-23980D02*
G75*
G03X40160Y-23980I-900J0D01*
G74*
G01*
G54D11*
X40592Y-42672D02*
X41092Y-42172D01*
X45592Y-42172D02*
X46092Y-42672D01*
X46092Y-43672D02*
X45592Y-44172D01*
X40592Y-43672D02*
X41092Y-44172D01*
X41092Y-42172D02*
X45592Y-42172D01*
X40592Y-42672D02*
X40592Y-43672D01*
X41092Y-44172D02*
X45592Y-44172D01*
X46092Y-43672D02*
X46092Y-42672D01*
X43970Y-42000D02*
X43970Y-41000D01*
X43970Y-41000D02*
X45970Y-41000D01*
X45970Y-41000D02*
X45970Y-42000D01*
X45970Y-42000D02*
X43970Y-42000D01*
G54D12*
X39414Y-30856D02*
X39414Y-29956D01*
X39414Y-29956D02*
X39914Y-29956D01*
X39914Y-29956D02*
X39914Y-30856D01*
X39914Y-30856D02*
X39414Y-30856D01*
G54D18*
X39194Y-31652D02*
X43194Y-31652D01*
X39194Y-32652D02*
X43194Y-32652D01*
X43194Y-32652D02*
X43194Y-31652D01*
X39194Y-31652D02*
X39194Y-32652D01*
G54D13*
X39788Y-28718D02*
X39916Y-28718D01*
X39916Y-28718D02*
X39916Y-28521D01*
X39788Y-28521D02*
X39916Y-28521D01*
X39788Y-28718D02*
X39788Y-28521D01*
X39543Y-28718D02*
X39602Y-28718D01*
X39602Y-28718D02*
X39602Y-28619D01*
X39543Y-28619D02*
X39602Y-28619D01*
X39543Y-28718D02*
X39543Y-28619D01*
X39738Y-28718D02*
X39797Y-28718D01*
X39797Y-28718D02*
X39797Y-28619D01*
X39738Y-28619D02*
X39797Y-28619D01*
X39738Y-28718D02*
X39738Y-28619D01*
X39592Y-28718D02*
X39748Y-28718D01*
X39748Y-28718D02*
X39748Y-28649D01*
X39592Y-28649D02*
X39748Y-28649D01*
X39592Y-28718D02*
X39592Y-28649D01*
X39788Y-29307D02*
X39916Y-29307D01*
X39916Y-29307D02*
X39916Y-29110D01*
X39788Y-29110D02*
X39916Y-29110D01*
X39788Y-29307D02*
X39788Y-29110D01*
X39424Y-29307D02*
X39552Y-29307D01*
X39552Y-29307D02*
X39552Y-29110D01*
X39424Y-29110D02*
X39552Y-29110D01*
X39424Y-29307D02*
X39424Y-29110D01*
X39738Y-29209D02*
X39797Y-29209D01*
X39797Y-29209D02*
X39797Y-29110D01*
X39738Y-29110D02*
X39797Y-29110D01*
X39738Y-29209D02*
X39738Y-29110D01*
X39543Y-29209D02*
X39602Y-29209D01*
X39602Y-29209D02*
X39602Y-29110D01*
X39543Y-29110D02*
X39602Y-29110D01*
X39543Y-29209D02*
X39543Y-29110D01*
X39592Y-29179D02*
X39748Y-29179D01*
X39748Y-29179D02*
X39748Y-29110D01*
X39592Y-29110D02*
X39748Y-29110D01*
X39592Y-29179D02*
X39592Y-29110D01*
X39631Y-28914D02*
X39709Y-28914D01*
X39709Y-28914D02*
X39709Y-28836D01*
X39631Y-28836D02*
X39709Y-28836D01*
X39631Y-28914D02*
X39631Y-28836D01*
X39434Y-28718D02*
X39552Y-28718D01*
X39552Y-28718D02*
X39552Y-28600D01*
X39434Y-28600D02*
X39552Y-28600D01*
X39434Y-28718D02*
X39434Y-28600D01*
X39424Y-28550D02*
X39513Y-28550D01*
X39513Y-28550D02*
X39513Y-28521D01*
X39424Y-28521D02*
X39513Y-28521D01*
X39424Y-28550D02*
X39424Y-28521D01*
G54D14*
X39896Y-28708D02*
X39896Y-29120D01*
X39444Y-29110D02*
X39444Y-28550D01*
G54D15*
X39521Y-28580D02*
G75*
G03X39521Y-28580I-28J0D01*
G74*
G01*
G54D14*
X39533Y-28521D02*
G75*
G03X39807Y-28521I137J0D01*
G74*
G01*
X39807Y-29307D02*
G75*
G03X39533Y-29307I-137J0D01*
G74*
G01*
G54D12*
X42709Y-41380D02*
X41479Y-41380D01*
X42709Y-41980D02*
X41479Y-41980D01*
X41479Y-41980D02*
X41479Y-41380D01*
X42714Y-41380D02*
X42714Y-41980D01*
X48330Y-25626D02*
X49580Y-25626D01*
X49580Y-25626D02*
X49580Y-24926D01*
X49580Y-24926D02*
X48330Y-24926D01*
X48330Y-27426D02*
X49580Y-27426D01*
X49580Y-27426D02*
X49580Y-26726D01*
X49580Y-26726D02*
X48330Y-26726D01*
X45930Y-24826D02*
X48330Y-24826D01*
X48330Y-24826D02*
X48330Y-27526D01*
X48330Y-27526D02*
X45230Y-27526D01*
X45180Y-27526D02*
X45180Y-24826D01*
X45230Y-24826D02*
X45930Y-24826D01*
G54D11*
X42342Y-34718D02*
X42342Y-35718D01*
X42342Y-35718D02*
X40342Y-35718D01*
X40342Y-35718D02*
X40342Y-34718D01*
X40342Y-34718D02*
X42342Y-34718D01*
G54D12*
X43860Y-35391D02*
X43860Y-34161D01*
X43260Y-35391D02*
X43260Y-34161D01*
X43260Y-34161D02*
X43860Y-34161D01*
X43860Y-35396D02*
X43260Y-35396D01*
G54D11*
X49678Y-37832D02*
X49678Y-36832D01*
X49678Y-36832D02*
X52678Y-36832D01*
X52678Y-36832D02*
X52678Y-37832D01*
X52678Y-37832D02*
X49678Y-37832D01*
X50678Y-36832D02*
X50678Y-37832D01*
G54D19*
X50410Y-44070D02*
X50410Y-44270D01*
X50410Y-44070D02*
X49850Y-44070D01*
X50410Y-39270D02*
X50410Y-39470D01*
X50410Y-39470D02*
X49850Y-39470D01*
X49850Y-39270D02*
X53030Y-39270D01*
X53030Y-39270D02*
X53030Y-44270D01*
X53030Y-44270D02*
X49850Y-44270D01*
X49850Y-44270D02*
X49850Y-39270D01*
G54D12*
X49284Y-41546D02*
X49584Y-41746D01*
X48584Y-41546D02*
X49609Y-41546D01*
X49609Y-41546D02*
X49609Y-42146D01*
X49609Y-42146D02*
X48584Y-42146D01*
X48584Y-42146D02*
X48584Y-41546D01*
G54D20*
X49588Y-30167D02*
X49588Y-30286D01*
X49588Y-29537D02*
X49588Y-29774D01*
X49588Y-28986D02*
X49588Y-29183D01*
X49588Y-28474D02*
X49588Y-28593D01*
X50612Y-28908D02*
X50612Y-28474D01*
X50612Y-29852D02*
X50612Y-30286D01*
X49588Y-30286D02*
X50612Y-30286D01*
X50612Y-28474D02*
X49588Y-28474D01*
G54D21*
X50406Y-35371D02*
X50406Y-35095D01*
X50511Y-35095D01*
X50537Y-35109D01*
X50550Y-35122D01*
X50564Y-35148D01*
X50564Y-35187D01*
X50550Y-35214D01*
X50537Y-35227D01*
X50511Y-35240D01*
X50406Y-35240D01*
X50669Y-35122D02*
X50682Y-35109D01*
X50708Y-35095D01*
X50774Y-35095D01*
X50800Y-35109D01*
X50813Y-35122D01*
X50826Y-35148D01*
X50826Y-35174D01*
X50813Y-35214D01*
X50655Y-35371D01*
X50826Y-35371D01*
X42318Y-38121D02*
X42318Y-37845D01*
X42607Y-38095D02*
X42594Y-38108D01*
X42555Y-38121D01*
X42528Y-38121D01*
X42489Y-38108D01*
X42463Y-38082D01*
X42450Y-38055D01*
X42437Y-38003D01*
X42437Y-37964D01*
X42450Y-37911D01*
X42463Y-37885D01*
X42489Y-37859D01*
X42528Y-37845D01*
X42555Y-37845D01*
X42594Y-37859D01*
X42607Y-37872D01*
X42870Y-38121D02*
X42712Y-38121D01*
X42791Y-38121D02*
X42791Y-37845D01*
X42765Y-37885D01*
X42738Y-37911D01*
X42712Y-37924D01*
X52364Y-38945D02*
X52350Y-38958D01*
X52311Y-38971D01*
X52285Y-38971D01*
X52245Y-38958D01*
X52219Y-38932D01*
X52206Y-38905D01*
X52193Y-38853D01*
X52193Y-38814D01*
X52206Y-38761D01*
X52219Y-38735D01*
X52245Y-38709D01*
X52285Y-38695D01*
X52311Y-38695D01*
X52350Y-38709D01*
X52364Y-38722D01*
X52469Y-38722D02*
X52482Y-38709D01*
X52508Y-38695D01*
X52574Y-38695D01*
X52600Y-38709D01*
X52613Y-38722D01*
X52626Y-38748D01*
X52626Y-38774D01*
X52613Y-38814D01*
X52455Y-38971D01*
X52626Y-38971D01*
X51974Y-28255D02*
X51960Y-28268D01*
X51921Y-28281D01*
X51895Y-28281D01*
X51855Y-28268D01*
X51829Y-28242D01*
X51816Y-28215D01*
X51803Y-28163D01*
X51803Y-28124D01*
X51816Y-28071D01*
X51829Y-28045D01*
X51855Y-28019D01*
X51895Y-28005D01*
X51921Y-28005D01*
X51960Y-28019D01*
X51974Y-28032D01*
X52065Y-28005D02*
X52236Y-28005D01*
X52144Y-28110D01*
X52184Y-28110D01*
X52210Y-28124D01*
X52223Y-28137D01*
X52236Y-28163D01*
X52236Y-28229D01*
X52223Y-28255D01*
X52210Y-28268D01*
X52184Y-28281D01*
X52105Y-28281D01*
X52079Y-28268D01*
X52065Y-28255D01*
X39222Y-37741D02*
X39208Y-37754D01*
X39169Y-37767D01*
X39143Y-37767D01*
X39103Y-37754D01*
X39077Y-37728D01*
X39064Y-37701D01*
X39051Y-37649D01*
X39051Y-37610D01*
X39064Y-37557D01*
X39077Y-37531D01*
X39103Y-37505D01*
X39143Y-37491D01*
X39169Y-37491D01*
X39208Y-37505D01*
X39222Y-37518D01*
X39484Y-37767D02*
X39327Y-37767D01*
X39405Y-37767D02*
X39405Y-37491D01*
X39379Y-37531D01*
X39353Y-37557D01*
X39327Y-37570D01*
X50324Y-24465D02*
X50310Y-24478D01*
X50271Y-24491D01*
X50245Y-24491D01*
X50205Y-24478D01*
X50179Y-24452D01*
X50166Y-24425D01*
X50153Y-24373D01*
X50153Y-24334D01*
X50166Y-24281D01*
X50179Y-24255D01*
X50205Y-24229D01*
X50245Y-24215D01*
X50271Y-24215D01*
X50310Y-24229D01*
X50324Y-24242D01*
X50560Y-24307D02*
X50560Y-24491D01*
X50494Y-24202D02*
X50429Y-24399D01*
X50599Y-24399D01*
X48480Y-28391D02*
X48466Y-28404D01*
X48427Y-28417D01*
X48401Y-28417D01*
X48361Y-28404D01*
X48335Y-28378D01*
X48322Y-28351D01*
X48309Y-28299D01*
X48309Y-28260D01*
X48322Y-28207D01*
X48335Y-28181D01*
X48361Y-28155D01*
X48401Y-28141D01*
X48427Y-28141D01*
X48466Y-28155D01*
X48480Y-28168D01*
X48729Y-28141D02*
X48598Y-28141D01*
X48585Y-28273D01*
X48598Y-28260D01*
X48624Y-28246D01*
X48690Y-28246D01*
X48716Y-28260D01*
X48729Y-28273D01*
X48742Y-28299D01*
X48742Y-28365D01*
X48729Y-28391D01*
X48716Y-28404D01*
X48690Y-28417D01*
X48624Y-28417D01*
X48598Y-28404D01*
X48585Y-28391D01*
X40288Y-41643D02*
X40274Y-41656D01*
X40235Y-41669D01*
X40209Y-41669D01*
X40169Y-41656D01*
X40143Y-41630D01*
X40130Y-41603D01*
X40117Y-41551D01*
X40117Y-41512D01*
X40130Y-41459D01*
X40143Y-41433D01*
X40169Y-41407D01*
X40209Y-41393D01*
X40235Y-41393D01*
X40274Y-41407D01*
X40288Y-41420D01*
X40524Y-41393D02*
X40471Y-41393D01*
X40445Y-41407D01*
X40432Y-41420D01*
X40406Y-41459D01*
X40393Y-41512D01*
X40393Y-41617D01*
X40406Y-41643D01*
X40419Y-41656D01*
X40445Y-41669D01*
X40498Y-41669D01*
X40524Y-41656D01*
X40537Y-41643D01*
X40550Y-41617D01*
X40550Y-41551D01*
X40537Y-41525D01*
X40524Y-41512D01*
X40498Y-41498D01*
X40445Y-41498D01*
X40419Y-41512D01*
X40406Y-41525D01*
X40393Y-41551D01*
X39354Y-40969D02*
X39340Y-40982D01*
X39301Y-40995D01*
X39275Y-40995D01*
X39235Y-40982D01*
X39209Y-40956D01*
X39196Y-40929D01*
X39183Y-40877D01*
X39183Y-40838D01*
X39196Y-40785D01*
X39209Y-40759D01*
X39235Y-40733D01*
X39275Y-40719D01*
X39301Y-40719D01*
X39340Y-40733D01*
X39354Y-40746D01*
X39445Y-40719D02*
X39629Y-40719D01*
X39511Y-40995D01*
X47442Y-30757D02*
X47350Y-30626D01*
X47284Y-30757D02*
X47284Y-30481D01*
X47389Y-30481D01*
X47415Y-30495D01*
X47428Y-30508D01*
X47442Y-30534D01*
X47442Y-30573D01*
X47428Y-30600D01*
X47415Y-30613D01*
X47389Y-30626D01*
X47284Y-30626D01*
X47704Y-30757D02*
X47547Y-30757D01*
X47625Y-30757D02*
X47625Y-30481D01*
X47599Y-30521D01*
X47573Y-30547D01*
X47547Y-30560D01*
X45344Y-40069D02*
X45252Y-39938D01*
X45186Y-40069D02*
X45186Y-39793D01*
X45291Y-39793D01*
X45317Y-39807D01*
X45330Y-39820D01*
X45344Y-39846D01*
X45344Y-39885D01*
X45330Y-39912D01*
X45317Y-39925D01*
X45291Y-39938D01*
X45186Y-39938D01*
X45449Y-39820D02*
X45462Y-39807D01*
X45488Y-39793D01*
X45554Y-39793D01*
X45580Y-39807D01*
X45593Y-39820D01*
X45606Y-39846D01*
X45606Y-39872D01*
X45593Y-39912D01*
X45435Y-40069D01*
X45606Y-40069D01*
X45406Y-36029D02*
X45314Y-35898D01*
X45248Y-36029D02*
X45248Y-35753D01*
X45353Y-35753D01*
X45379Y-35767D01*
X45392Y-35780D01*
X45406Y-35806D01*
X45406Y-35845D01*
X45392Y-35872D01*
X45379Y-35885D01*
X45353Y-35898D01*
X45248Y-35898D01*
X45497Y-35753D02*
X45668Y-35753D01*
X45576Y-35858D01*
X45616Y-35858D01*
X45642Y-35872D01*
X45655Y-35885D01*
X45668Y-35911D01*
X45668Y-35977D01*
X45655Y-36003D01*
X45642Y-36016D01*
X45616Y-36029D01*
X45537Y-36029D01*
X45511Y-36016D01*
X45497Y-36003D01*
X47302Y-37191D02*
X47210Y-37060D01*
X47144Y-37191D02*
X47144Y-36915D01*
X47249Y-36915D01*
X47275Y-36929D01*
X47288Y-36942D01*
X47302Y-36968D01*
X47302Y-37007D01*
X47288Y-37034D01*
X47275Y-37047D01*
X47249Y-37060D01*
X47144Y-37060D01*
X47538Y-37007D02*
X47538Y-37191D01*
X47472Y-36902D02*
X47407Y-37099D01*
X47577Y-37099D01*
X46588Y-30757D02*
X46496Y-30626D01*
X46430Y-30757D02*
X46430Y-30481D01*
X46535Y-30481D01*
X46561Y-30495D01*
X46574Y-30508D01*
X46588Y-30534D01*
X46588Y-30573D01*
X46574Y-30600D01*
X46561Y-30613D01*
X46535Y-30626D01*
X46430Y-30626D01*
X46837Y-30481D02*
X46706Y-30481D01*
X46693Y-30613D01*
X46706Y-30600D01*
X46732Y-30586D01*
X46798Y-30586D01*
X46824Y-30600D01*
X46837Y-30613D01*
X46850Y-30639D01*
X46850Y-30705D01*
X46837Y-30731D01*
X46824Y-30744D01*
X46798Y-30757D01*
X46732Y-30757D01*
X46706Y-30744D01*
X46693Y-30731D01*
X44992Y-30757D02*
X44900Y-30626D01*
X44834Y-30757D02*
X44834Y-30481D01*
X44939Y-30481D01*
X44965Y-30495D01*
X44978Y-30508D01*
X44992Y-30534D01*
X44992Y-30573D01*
X44978Y-30600D01*
X44965Y-30613D01*
X44939Y-30626D01*
X44834Y-30626D01*
X45228Y-30481D02*
X45175Y-30481D01*
X45149Y-30495D01*
X45136Y-30508D01*
X45110Y-30547D01*
X45097Y-30600D01*
X45097Y-30705D01*
X45110Y-30731D01*
X45123Y-30744D01*
X45149Y-30757D01*
X45202Y-30757D01*
X45228Y-30744D01*
X45241Y-30731D01*
X45254Y-30705D01*
X45254Y-30639D01*
X45241Y-30613D01*
X45228Y-30600D01*
X45202Y-30586D01*
X45149Y-30586D01*
X45123Y-30600D01*
X45110Y-30613D01*
X45097Y-30639D01*
X42745Y-28087D02*
X42469Y-28087D01*
X42469Y-28021D01*
X42483Y-27982D01*
X42509Y-27956D01*
X42535Y-27943D01*
X42588Y-27929D01*
X42627Y-27929D01*
X42679Y-27943D01*
X42706Y-27956D01*
X42732Y-27982D01*
X42745Y-28021D01*
X42745Y-28087D01*
X42745Y-27667D02*
X42745Y-27824D01*
X42745Y-27746D02*
X42469Y-27746D01*
X42509Y-27772D01*
X42535Y-27798D01*
X42548Y-27824D01*
X41769Y-28111D02*
X41493Y-28111D01*
X41493Y-28045D01*
X41507Y-28006D01*
X41533Y-27980D01*
X41559Y-27967D01*
X41612Y-27953D01*
X41651Y-27953D01*
X41703Y-27967D01*
X41730Y-27980D01*
X41756Y-28006D01*
X41769Y-28045D01*
X41769Y-28111D01*
X41520Y-27848D02*
X41507Y-27835D01*
X41493Y-27809D01*
X41493Y-27743D01*
X41507Y-27717D01*
X41520Y-27704D01*
X41546Y-27691D01*
X41572Y-27691D01*
X41612Y-27704D01*
X41769Y-27862D01*
X41769Y-27691D01*
X40763Y-28041D02*
X40487Y-28041D01*
X40487Y-27975D01*
X40501Y-27936D01*
X40527Y-27910D01*
X40553Y-27897D01*
X40606Y-27883D01*
X40645Y-27883D01*
X40697Y-27897D01*
X40724Y-27910D01*
X40750Y-27936D01*
X40763Y-27975D01*
X40763Y-28041D01*
X40487Y-27792D02*
X40487Y-27621D01*
X40592Y-27713D01*
X40592Y-27673D01*
X40606Y-27647D01*
X40619Y-27634D01*
X40645Y-27621D01*
X40711Y-27621D01*
X40737Y-27634D01*
X40750Y-27647D01*
X40763Y-27673D01*
X40763Y-27752D01*
X40750Y-27778D01*
X40737Y-27792D01*
X41218Y-24988D02*
X41257Y-25001D01*
X41323Y-25001D01*
X41349Y-24988D01*
X41362Y-24975D01*
X41376Y-24949D01*
X41376Y-24922D01*
X41362Y-24896D01*
X41349Y-24883D01*
X41323Y-24870D01*
X41271Y-24857D01*
X41244Y-24844D01*
X41231Y-24830D01*
X41218Y-24804D01*
X41218Y-24778D01*
X41231Y-24752D01*
X41244Y-24739D01*
X41271Y-24725D01*
X41336Y-24725D01*
X41376Y-24739D01*
X41467Y-24725D02*
X41533Y-25001D01*
X41586Y-24804D01*
X41638Y-25001D01*
X41704Y-24725D01*
X41953Y-25001D02*
X41795Y-25001D01*
X41874Y-25001D02*
X41874Y-24725D01*
X41848Y-24765D01*
X41822Y-24791D01*
X41795Y-24804D01*
X51844Y-32465D02*
X51830Y-32478D01*
X51791Y-32491D01*
X51765Y-32491D01*
X51725Y-32478D01*
X51699Y-32452D01*
X51686Y-32425D01*
X51673Y-32373D01*
X51673Y-32334D01*
X51686Y-32281D01*
X51699Y-32255D01*
X51725Y-32229D01*
X51765Y-32215D01*
X51791Y-32215D01*
X51830Y-32229D01*
X51844Y-32242D01*
X52001Y-32334D02*
X51975Y-32320D01*
X51962Y-32307D01*
X51949Y-32281D01*
X51949Y-32268D01*
X51962Y-32242D01*
X51975Y-32229D01*
X52001Y-32215D01*
X52054Y-32215D01*
X52080Y-32229D01*
X52093Y-32242D01*
X52106Y-32268D01*
X52106Y-32281D01*
X52093Y-32307D01*
X52080Y-32320D01*
X52054Y-32334D01*
X52001Y-32334D01*
X51975Y-32347D01*
X51962Y-32360D01*
X51949Y-32386D01*
X51949Y-32439D01*
X51962Y-32465D01*
X51975Y-32478D01*
X52001Y-32491D01*
X52054Y-32491D01*
X52080Y-32478D01*
X52093Y-32465D01*
X52106Y-32439D01*
X52106Y-32386D01*
X52093Y-32360D01*
X52080Y-32347D01*
X52054Y-32334D01*
X46405Y-38727D02*
X46418Y-38740D01*
X46431Y-38779D01*
X46431Y-38805D01*
X46418Y-38845D01*
X46392Y-38871D01*
X46365Y-38884D01*
X46313Y-38897D01*
X46274Y-38897D01*
X46221Y-38884D01*
X46195Y-38871D01*
X46169Y-38845D01*
X46155Y-38805D01*
X46155Y-38779D01*
X46169Y-38740D01*
X46182Y-38727D01*
X46431Y-38464D02*
X46431Y-38622D01*
X46431Y-38543D02*
X46155Y-38543D01*
X46195Y-38569D01*
X46221Y-38595D01*
X46234Y-38622D01*
X46155Y-38294D02*
X46155Y-38267D01*
X46169Y-38241D01*
X46182Y-38228D01*
X46208Y-38215D01*
X46260Y-38202D01*
X46326Y-38202D01*
X46379Y-38215D01*
X46405Y-38228D01*
X46418Y-38241D01*
X46431Y-38267D01*
X46431Y-38294D01*
X46418Y-38320D01*
X46405Y-38333D01*
X46379Y-38346D01*
X46326Y-38359D01*
X46260Y-38359D01*
X46208Y-38346D01*
X46182Y-38333D01*
X46169Y-38320D01*
X46155Y-38294D01*
X42574Y-34525D02*
X42560Y-34538D01*
X42521Y-34551D01*
X42495Y-34551D01*
X42455Y-34538D01*
X42429Y-34512D01*
X42416Y-34485D01*
X42403Y-34433D01*
X42403Y-34394D01*
X42416Y-34341D01*
X42429Y-34315D01*
X42455Y-34289D01*
X42495Y-34275D01*
X42521Y-34275D01*
X42560Y-34289D01*
X42574Y-34302D01*
X42705Y-34551D02*
X42757Y-34551D01*
X42784Y-34538D01*
X42797Y-34525D01*
X42823Y-34485D01*
X42836Y-34433D01*
X42836Y-34328D01*
X42823Y-34302D01*
X42810Y-34289D01*
X42784Y-34275D01*
X42731Y-34275D01*
X42705Y-34289D01*
X42692Y-34302D01*
X42679Y-34328D01*
X42679Y-34394D01*
X42692Y-34420D01*
X42705Y-34433D01*
X42731Y-34446D01*
X42784Y-34446D01*
X42810Y-34433D01*
X42823Y-34420D01*
X42836Y-34394D01*
X46406Y-43505D02*
X46314Y-43374D01*
X46248Y-43505D02*
X46248Y-43229D01*
X46353Y-43229D01*
X46379Y-43243D01*
X46392Y-43256D01*
X46406Y-43282D01*
X46406Y-43321D01*
X46392Y-43348D01*
X46379Y-43361D01*
X46353Y-43374D01*
X46248Y-43374D01*
X46497Y-43229D02*
X46681Y-43229D01*
X46563Y-43505D01*
X44978Y-36693D02*
X44886Y-36562D01*
X44820Y-36693D02*
X44820Y-36417D01*
X44925Y-36417D01*
X44951Y-36431D01*
X44964Y-36444D01*
X44978Y-36470D01*
X44978Y-36509D01*
X44964Y-36536D01*
X44951Y-36549D01*
X44925Y-36562D01*
X44820Y-36562D01*
X45135Y-36536D02*
X45109Y-36522D01*
X45096Y-36509D01*
X45083Y-36483D01*
X45083Y-36470D01*
X45096Y-36444D01*
X45109Y-36431D01*
X45135Y-36417D01*
X45188Y-36417D01*
X45214Y-36431D01*
X45227Y-36444D01*
X45240Y-36470D01*
X45240Y-36483D01*
X45227Y-36509D01*
X45214Y-36522D01*
X45188Y-36536D01*
X45135Y-36536D01*
X45109Y-36549D01*
X45096Y-36562D01*
X45083Y-36588D01*
X45083Y-36641D01*
X45096Y-36667D01*
X45109Y-36680D01*
X45135Y-36693D01*
X45188Y-36693D01*
X45214Y-36680D01*
X45227Y-36667D01*
X45240Y-36641D01*
X45240Y-36588D01*
X45227Y-36562D01*
X45214Y-36549D01*
X45188Y-36536D01*
X42335Y-30501D02*
X42204Y-30593D01*
X42335Y-30659D02*
X42059Y-30659D01*
X42059Y-30554D01*
X42073Y-30528D01*
X42086Y-30515D01*
X42112Y-30501D01*
X42151Y-30501D01*
X42178Y-30515D01*
X42191Y-30528D01*
X42204Y-30554D01*
X42204Y-30659D01*
X42335Y-30370D02*
X42335Y-30318D01*
X42322Y-30291D01*
X42309Y-30278D01*
X42269Y-30252D01*
X42217Y-30239D01*
X42112Y-30239D01*
X42086Y-30252D01*
X42073Y-30265D01*
X42059Y-30291D01*
X42059Y-30344D01*
X42073Y-30370D01*
X42086Y-30383D01*
X42112Y-30396D01*
X42178Y-30396D01*
X42204Y-30383D01*
X42217Y-30370D01*
X42230Y-30344D01*
X42230Y-30291D01*
X42217Y-30265D01*
X42204Y-30252D01*
X42178Y-30239D01*
X41315Y-30623D02*
X41184Y-30715D01*
X41315Y-30780D02*
X41039Y-30780D01*
X41039Y-30675D01*
X41053Y-30649D01*
X41066Y-30636D01*
X41092Y-30623D01*
X41131Y-30623D01*
X41158Y-30636D01*
X41171Y-30649D01*
X41184Y-30675D01*
X41184Y-30780D01*
X41315Y-30360D02*
X41315Y-30518D01*
X41315Y-30439D02*
X41039Y-30439D01*
X41079Y-30465D01*
X41105Y-30491D01*
X41118Y-30518D01*
X41039Y-30190D02*
X41039Y-30163D01*
X41053Y-30137D01*
X41066Y-30124D01*
X41092Y-30111D01*
X41144Y-30098D01*
X41210Y-30098D01*
X41263Y-30111D01*
X41289Y-30124D01*
X41302Y-30137D01*
X41315Y-30163D01*
X41315Y-30190D01*
X41302Y-30216D01*
X41289Y-30229D01*
X41263Y-30242D01*
X41210Y-30255D01*
X41144Y-30255D01*
X41092Y-30242D01*
X41066Y-30229D01*
X41053Y-30216D01*
X41039Y-30190D01*
X40315Y-30583D02*
X40184Y-30675D01*
X40315Y-30740D02*
X40039Y-30740D01*
X40039Y-30635D01*
X40053Y-30609D01*
X40066Y-30596D01*
X40092Y-30583D01*
X40131Y-30583D01*
X40158Y-30596D01*
X40171Y-30609D01*
X40184Y-30635D01*
X40184Y-30740D01*
X40315Y-30320D02*
X40315Y-30478D01*
X40315Y-30399D02*
X40039Y-30399D01*
X40079Y-30425D01*
X40105Y-30451D01*
X40118Y-30478D01*
X40315Y-30058D02*
X40315Y-30215D01*
X40315Y-30136D02*
X40039Y-30136D01*
X40079Y-30163D01*
X40105Y-30189D01*
X40118Y-30215D01*
X48306Y-37781D02*
X48306Y-37505D01*
X48411Y-37505D01*
X48437Y-37519D01*
X48450Y-37532D01*
X48464Y-37558D01*
X48464Y-37597D01*
X48450Y-37624D01*
X48437Y-37637D01*
X48411Y-37650D01*
X48306Y-37650D01*
X48555Y-37505D02*
X48726Y-37505D01*
X48634Y-37610D01*
X48674Y-37610D01*
X48700Y-37624D01*
X48713Y-37637D01*
X48726Y-37663D01*
X48726Y-37729D01*
X48713Y-37755D01*
X48700Y-37768D01*
X48674Y-37781D01*
X48595Y-37781D01*
X48569Y-37768D01*
X48555Y-37755D01*
X41356Y-43665D02*
X41540Y-43941D01*
X41540Y-43665D02*
X41356Y-43941D01*
X41789Y-43941D02*
X41632Y-43941D01*
X41711Y-43941D02*
X41711Y-43665D01*
X41684Y-43705D01*
X41658Y-43731D01*
X41632Y-43744D01*
X43456Y-41293D02*
X43456Y-41017D01*
X43561Y-41017D01*
X43587Y-41031D01*
X43600Y-41044D01*
X43614Y-41070D01*
X43614Y-41109D01*
X43600Y-41136D01*
X43587Y-41149D01*
X43561Y-41162D01*
X43456Y-41162D01*
X43863Y-41017D02*
X43732Y-41017D01*
X43719Y-41149D01*
X43732Y-41136D01*
X43758Y-41122D01*
X43824Y-41122D01*
X43850Y-41136D01*
X43863Y-41149D01*
X43876Y-41175D01*
X43876Y-41241D01*
X43863Y-41267D01*
X43850Y-41280D01*
X43824Y-41293D01*
X43758Y-41293D01*
X43732Y-41280D01*
X43719Y-41267D01*
X39355Y-30627D02*
X39224Y-30719D01*
X39355Y-30784D02*
X39079Y-30784D01*
X39079Y-30679D01*
X39093Y-30653D01*
X39106Y-30640D01*
X39132Y-30627D01*
X39171Y-30627D01*
X39198Y-30640D01*
X39211Y-30653D01*
X39224Y-30679D01*
X39224Y-30784D01*
X39355Y-30364D02*
X39355Y-30522D01*
X39355Y-30443D02*
X39079Y-30443D01*
X39119Y-30469D01*
X39145Y-30495D01*
X39158Y-30522D01*
X39106Y-30259D02*
X39093Y-30246D01*
X39079Y-30220D01*
X39079Y-30154D01*
X39093Y-30128D01*
X39106Y-30115D01*
X39132Y-30102D01*
X39158Y-30102D01*
X39198Y-30115D01*
X39355Y-30272D01*
X39355Y-30102D01*
X41468Y-33091D02*
X41468Y-32815D01*
X41573Y-32815D01*
X41599Y-32829D01*
X41612Y-32842D01*
X41626Y-32868D01*
X41626Y-32907D01*
X41612Y-32934D01*
X41599Y-32947D01*
X41573Y-32960D01*
X41468Y-32960D01*
X41862Y-32815D02*
X41809Y-32815D01*
X41783Y-32829D01*
X41770Y-32842D01*
X41744Y-32881D01*
X41731Y-32934D01*
X41731Y-33039D01*
X41744Y-33065D01*
X41757Y-33078D01*
X41783Y-33091D01*
X41836Y-33091D01*
X41862Y-33078D01*
X41875Y-33065D01*
X41888Y-33039D01*
X41888Y-32973D01*
X41875Y-32947D01*
X41862Y-32934D01*
X41836Y-32920D01*
X41783Y-32920D01*
X41757Y-32934D01*
X41744Y-32947D01*
X41731Y-32973D01*
X39777Y-28041D02*
X39501Y-28041D01*
X39501Y-27975D01*
X39515Y-27936D01*
X39541Y-27910D01*
X39567Y-27897D01*
X39620Y-27883D01*
X39659Y-27883D01*
X39711Y-27897D01*
X39738Y-27910D01*
X39764Y-27936D01*
X39777Y-27975D01*
X39777Y-28041D01*
X39593Y-27647D02*
X39777Y-27647D01*
X39488Y-27713D02*
X39685Y-27778D01*
X39685Y-27608D01*
X50516Y-31661D02*
X50516Y-31385D01*
X50621Y-31385D01*
X50647Y-31399D01*
X50660Y-31412D01*
X50674Y-31438D01*
X50674Y-31477D01*
X50660Y-31504D01*
X50647Y-31517D01*
X50621Y-31530D01*
X50516Y-31530D01*
X50910Y-31477D02*
X50910Y-31661D01*
X50844Y-31372D02*
X50779Y-31569D01*
X50949Y-31569D01*
X42898Y-41689D02*
X42898Y-41886D01*
X42885Y-41926D01*
X42858Y-41952D01*
X42819Y-41965D01*
X42793Y-41965D01*
X43029Y-41965D02*
X43029Y-41689D01*
X43134Y-41689D01*
X43160Y-41703D01*
X43173Y-41716D01*
X43187Y-41742D01*
X43187Y-41781D01*
X43173Y-41808D01*
X43160Y-41821D01*
X43134Y-41834D01*
X43029Y-41834D01*
X43449Y-41965D02*
X43292Y-41965D01*
X43370Y-41965D02*
X43370Y-41689D01*
X43344Y-41729D01*
X43318Y-41755D01*
X43292Y-41768D01*
X46194Y-28305D02*
X46194Y-28529D01*
X46207Y-28555D01*
X46220Y-28568D01*
X46246Y-28581D01*
X46299Y-28581D01*
X46325Y-28568D01*
X46338Y-28555D01*
X46351Y-28529D01*
X46351Y-28305D01*
X46469Y-28332D02*
X46482Y-28319D01*
X46508Y-28305D01*
X46574Y-28305D01*
X46600Y-28319D01*
X46613Y-28332D01*
X46627Y-28358D01*
X46627Y-28384D01*
X46613Y-28424D01*
X46456Y-28581D01*
X46627Y-28581D01*
X41138Y-36079D02*
X41138Y-35803D01*
X41243Y-35803D01*
X41269Y-35817D01*
X41282Y-35830D01*
X41296Y-35856D01*
X41296Y-35895D01*
X41282Y-35922D01*
X41269Y-35935D01*
X41243Y-35948D01*
X41138Y-35948D01*
X41387Y-35803D02*
X41571Y-35803D01*
X41453Y-36079D01*
X44024Y-34751D02*
X44024Y-34948D01*
X44011Y-34988D01*
X43984Y-35014D01*
X43945Y-35027D01*
X43919Y-35027D01*
X44155Y-35027D02*
X44155Y-34751D01*
X44260Y-34751D01*
X44286Y-34765D01*
X44299Y-34778D01*
X44313Y-34804D01*
X44313Y-34843D01*
X44299Y-34870D01*
X44286Y-34883D01*
X44260Y-34896D01*
X44155Y-34896D01*
X44418Y-34778D02*
X44431Y-34765D01*
X44457Y-34751D01*
X44523Y-34751D01*
X44549Y-34765D01*
X44562Y-34778D01*
X44575Y-34804D01*
X44575Y-34830D01*
X44562Y-34870D01*
X44404Y-35027D01*
X44575Y-35027D01*
X49158Y-36893D02*
X49158Y-36617D01*
X49316Y-36893D02*
X49197Y-36736D01*
X49316Y-36617D02*
X49158Y-36775D01*
X49578Y-36893D02*
X49421Y-36893D01*
X49499Y-36893D02*
X49499Y-36617D01*
X49473Y-36657D01*
X49447Y-36683D01*
X49421Y-36696D01*
X53196Y-41707D02*
X53196Y-41431D01*
X53301Y-41431D01*
X53327Y-41445D01*
X53340Y-41458D01*
X53354Y-41484D01*
X53354Y-41523D01*
X53340Y-41550D01*
X53327Y-41563D01*
X53301Y-41576D01*
X53196Y-41576D01*
X53616Y-41707D02*
X53459Y-41707D01*
X53537Y-41707D02*
X53537Y-41431D01*
X53511Y-41471D01*
X53485Y-41497D01*
X53459Y-41510D01*
X49281Y-43303D02*
X49005Y-43303D01*
X49005Y-43237D01*
X49019Y-43198D01*
X49045Y-43172D01*
X49071Y-43159D01*
X49124Y-43145D01*
X49163Y-43145D01*
X49215Y-43159D01*
X49242Y-43172D01*
X49268Y-43198D01*
X49281Y-43237D01*
X49281Y-43303D01*
X49005Y-42896D02*
X49005Y-43027D01*
X49137Y-43040D01*
X49124Y-43027D01*
X49110Y-43001D01*
X49110Y-42935D01*
X49124Y-42909D01*
X49137Y-42896D01*
X49163Y-42883D01*
X49229Y-42883D01*
X49255Y-42896D01*
X49268Y-42909D01*
X49281Y-42935D01*
X49281Y-43001D01*
X49268Y-43027D01*
X49255Y-43040D01*
X51210Y-28915D02*
X51210Y-29139D01*
X51223Y-29165D01*
X51236Y-29178D01*
X51262Y-29191D01*
X51315Y-29191D01*
X51341Y-29178D01*
X51354Y-29165D01*
X51367Y-29139D01*
X51367Y-28915D01*
X51643Y-29191D02*
X51485Y-29191D01*
X51564Y-29191D02*
X51564Y-28915D01*
X51538Y-28955D01*
X51511Y-28981D01*
X51485Y-28994D01*
M02*
