M48
;DRILL file {Pcbnew (2013-03-19 BZR 4004)-stable} date 11/06/2013 19:40:35
;FORMAT={-:-/ absolute / inch / decimal}
FMAT,2
INCH,TZ
T1C0.025
T2C0.032
T3C0.035
T4C0.040
T5C0.043
T6C0.043
T7C0.118
%
G90
G05
M72
T1
X3.8682Y-4.0796
X3.872Y-2.5454
X3.8742Y-2.816
X3.8864Y-4.0222
X3.9522Y-3.771
X4.044Y-4.3884
X4.0788Y-2.343
X4.0962Y-4.0296
X4.1126Y-4.1494
X4.127Y-3.405
X4.1554Y-3.871
X4.1664Y-3.7836
X4.1788Y-4.1174
X4.214Y-3.7584
X4.357Y-3.38
X4.3624Y-3.834
X4.395Y-3.221
X4.422Y-2.802
X4.422Y-2.9876
X4.4968Y-3.6898
X4.5246Y-3.9244
X4.557Y-2.533
X4.557Y-2.705
X4.635Y-2.617
X4.6362Y-4.1244
X4.6462Y-4.2988
X4.653Y-4.387
X4.718Y-2.535
X4.728Y-2.703
X4.7432Y-3.0106
X4.845Y-3.12
X5.005Y-4.23
X5.008Y-3.152
X5.062Y-3.637
X5.0996Y-2.3386
X5.127Y-3.435
X5.13Y-3.294
X5.182Y-3.152
X5.184Y-2.79
T2
X4.2342Y-4.3172
X4.4342Y-4.3172
T3
X4.4296Y-3.354
X4.5084Y-3.354
X4.5871Y-3.354
X4.5885Y-3.5656
X4.6658Y-3.354
X4.6673Y-3.5656
X4.7446Y-3.354
X4.746Y-3.5656
X4.8233Y-3.353
X4.8247Y-3.5656
X4.9017Y-3.354
X4.9035Y-3.5656
X4.9804Y-3.354
X4.9822Y-3.5646
X5.0592Y-3.354
T4
X3.9694Y-3.2152
X4.0694Y-3.2152
X4.0842Y-3.5218
X4.1694Y-3.2152
X4.1842Y-3.5218
X4.2694Y-3.2152
X4.447Y-4.15
X4.547Y-4.15
X4.741Y-3.839
X4.741Y-3.939
X4.741Y-4.039
X4.841Y-3.839
X4.841Y-3.939
X4.841Y-4.039
X5.0178Y-3.7332
X5.1178Y-3.7332
X5.2178Y-3.7332
T5
X4.0441Y-2.5555
X4.0441Y-2.7129
X4.2803Y-2.5555
X4.2803Y-2.7129
T6
X5.085Y-3.977
X5.085Y-4.077
X5.085Y-4.177
X5.085Y-4.277
X5.085Y-4.377
T7
X3.9256Y-4.3074
X3.926Y-2.398
X4.7842Y-4.3074
X5.2449Y-2.398
T0
M30
