G04 (created by PCBNEW (2013-03-19 BZR 4004)-stable) date 11/06/2013 19:40:29*
%MOIN*%
G04 Gerber Fmt 3.4, Leading zero omitted, Abs format*
%FSLAX34Y34*%
G01*
G70*
G90*
G04 APERTURE LIST*
%ADD10C,2.3622e-006*%
%ADD11C,0.0512*%
%ADD12C,0.0866*%
%ADD13R,0.06X0.06*%
%ADD14C,0.06*%
%ADD15C,0.1969*%
%ADD16C,0.07*%
%ADD17C,0.0708661*%
%ADD18C,0.035*%
%ADD19C,0.0295*%
%ADD20C,0.0394*%
%ADD21C,0.008*%
%ADD22C,0.01*%
G04 APERTURE END LIST*
G54D10*
G54D11*
X47460Y-35656D03*
X46673Y-35656D03*
X45885Y-35656D03*
X48247Y-35656D03*
X49035Y-35656D03*
X49822Y-35646D03*
G54D12*
X42803Y-25555D03*
X42803Y-27129D03*
X40441Y-25555D03*
X40441Y-27129D03*
G54D13*
X48410Y-40390D03*
G54D14*
X47410Y-40390D03*
X48410Y-39390D03*
X47410Y-39390D03*
X48410Y-38390D03*
X47410Y-38390D03*
G54D15*
X52449Y-23980D03*
X47842Y-43074D03*
X39256Y-43074D03*
X39260Y-23980D03*
G54D16*
X42342Y-43172D03*
X44342Y-43172D03*
G54D13*
X44470Y-41500D03*
G54D14*
X45470Y-41500D03*
G54D13*
X42694Y-32152D03*
G54D14*
X41694Y-32152D03*
X40694Y-32152D03*
X39694Y-32152D03*
G54D11*
X45871Y-33540D03*
X45084Y-33540D03*
X44296Y-33540D03*
X46658Y-33540D03*
X47446Y-33540D03*
X48233Y-33530D03*
X49016Y-33540D03*
X49804Y-33540D03*
X50591Y-33540D03*
G54D13*
X41842Y-35218D03*
G54D14*
X40842Y-35218D03*
G54D13*
X50178Y-37332D03*
G54D14*
X51178Y-37332D03*
X52178Y-37332D03*
G54D17*
X50850Y-41770D03*
X50850Y-42770D03*
X50850Y-43770D03*
X50850Y-40770D03*
X50850Y-39770D03*
G54D18*
X47432Y-30106D03*
X41554Y-38710D03*
X45246Y-39244D03*
X51840Y-27900D03*
X38864Y-40222D03*
X40962Y-40296D03*
X46462Y-42988D03*
X42140Y-37584D03*
X41788Y-41174D03*
X44968Y-36898D03*
X50080Y-31520D03*
X48450Y-31200D03*
X51820Y-31520D03*
X51300Y-32940D03*
X50050Y-42300D03*
X39522Y-37710D03*
X51270Y-34350D03*
X44220Y-29876D03*
X50996Y-23386D03*
X40788Y-23430D03*
X38720Y-25454D03*
X38742Y-28160D03*
X38682Y-40796D03*
X41664Y-37836D03*
X43624Y-38340D03*
X43950Y-32210D03*
X50620Y-36370D03*
X46530Y-43870D03*
X46362Y-41244D03*
X43570Y-33800D03*
X41270Y-34050D03*
X46350Y-26170D03*
X47280Y-27030D03*
X45570Y-27050D03*
X47180Y-25350D03*
X45570Y-25330D03*
X40440Y-43884D03*
X41126Y-41494D03*
X44220Y-28020D03*
G54D19*
X50591Y-33540D02*
X50591Y-32871D01*
X50591Y-32871D02*
X50460Y-32740D01*
X50460Y-32740D02*
X44560Y-32740D01*
X44560Y-32740D02*
X44296Y-33004D01*
X44296Y-33004D02*
X44296Y-33540D01*
X41554Y-38710D02*
X40756Y-37912D01*
X40756Y-37912D02*
X40756Y-36826D01*
X40756Y-36826D02*
X39916Y-35986D01*
X39916Y-35986D02*
X39916Y-34066D01*
X39916Y-34066D02*
X40876Y-33106D01*
X40876Y-33106D02*
X43334Y-33106D01*
X43334Y-33106D02*
X43486Y-32954D01*
X43486Y-32954D02*
X43486Y-31470D01*
X43486Y-31470D02*
X44850Y-30106D01*
X44850Y-30106D02*
X47432Y-30106D01*
X46760Y-40390D02*
X45614Y-39244D01*
X47410Y-40390D02*
X46760Y-40390D01*
X45614Y-39244D02*
X45246Y-39244D01*
G54D20*
X52560Y-35520D02*
X51178Y-36902D01*
X52560Y-28620D02*
X51840Y-27900D01*
X52560Y-35520D02*
X52560Y-28620D01*
X51178Y-36902D02*
X51178Y-37332D01*
G54D21*
X38864Y-40222D02*
X38938Y-40296D01*
X38938Y-40296D02*
X40962Y-40296D01*
X51570Y-39138D02*
X52178Y-38530D01*
X52178Y-38530D02*
X52178Y-37332D01*
X50850Y-43770D02*
X51570Y-43050D01*
X51570Y-43050D02*
X51570Y-39138D01*
X51570Y-39138D02*
X51570Y-39136D01*
X47250Y-41868D02*
X48028Y-41868D01*
X46462Y-42656D02*
X47250Y-41868D01*
X46462Y-42988D02*
X46462Y-42656D01*
X50084Y-43770D02*
X50850Y-43770D01*
X49596Y-43282D02*
X50084Y-43770D01*
X49596Y-42806D02*
X49596Y-43282D01*
X48658Y-41868D02*
X49596Y-42806D01*
X48028Y-41868D02*
X48658Y-41868D01*
X41788Y-41174D02*
X41916Y-41174D01*
X42634Y-37584D02*
X42140Y-37584D01*
X42700Y-37650D02*
X42634Y-37584D01*
X42700Y-38662D02*
X42700Y-37650D01*
X42120Y-39242D02*
X42700Y-38662D01*
X42120Y-40970D02*
X42120Y-39242D01*
X41916Y-41174D02*
X42120Y-40970D01*
G54D19*
X48450Y-31200D02*
X48770Y-31520D01*
X48770Y-31520D02*
X50080Y-31520D01*
X50080Y-31520D02*
X51820Y-31520D01*
X40832Y-23386D02*
X50996Y-23386D01*
X40788Y-23430D02*
X40832Y-23386D01*
X38720Y-28138D02*
X38720Y-25454D01*
X38742Y-28160D02*
X38720Y-28138D01*
X40662Y-40870D02*
X38756Y-40870D01*
X41126Y-41494D02*
X41126Y-41334D01*
X40662Y-40870D02*
X41126Y-41334D01*
X38756Y-40870D02*
X38682Y-40796D01*
X41664Y-37836D02*
X41664Y-36726D01*
X43096Y-35490D02*
X43096Y-34500D01*
X42540Y-36046D02*
X43096Y-35490D01*
X42344Y-36046D02*
X42540Y-36046D01*
X41664Y-36726D02*
X42344Y-36046D01*
X46390Y-41272D02*
X49380Y-41272D01*
X49380Y-41272D02*
X50348Y-41272D01*
X45320Y-42350D02*
X45320Y-43088D01*
X41126Y-41910D02*
X41566Y-42350D01*
X41566Y-42350D02*
X45320Y-42350D01*
X41126Y-41494D02*
X41126Y-41910D01*
X46102Y-43870D02*
X46530Y-43870D01*
X45320Y-43088D02*
X46102Y-43870D01*
X50348Y-41272D02*
X50850Y-40770D01*
X46362Y-41244D02*
X46390Y-41272D01*
X43570Y-34500D02*
X43570Y-33800D01*
X42386Y-34500D02*
X43096Y-34500D01*
X43096Y-34500D02*
X43570Y-34500D01*
X43570Y-34500D02*
X45712Y-34500D01*
X45712Y-34500D02*
X45871Y-34341D01*
X44220Y-28020D02*
X43694Y-28020D01*
X43694Y-28020D02*
X42803Y-27129D01*
X41260Y-34500D02*
X41260Y-34060D01*
X41260Y-34060D02*
X41270Y-34050D01*
X41260Y-34500D02*
X42386Y-34500D01*
X41126Y-41494D02*
X41126Y-43198D01*
X41126Y-43198D02*
X40440Y-43884D01*
X42386Y-34496D02*
X42386Y-34500D01*
X44200Y-28000D02*
X44220Y-28020D01*
X47410Y-38390D02*
X47410Y-37942D01*
X49035Y-36631D02*
X49035Y-35656D01*
X48526Y-37140D02*
X49035Y-36631D01*
X48212Y-37140D02*
X48526Y-37140D01*
X47410Y-37942D02*
X48212Y-37140D01*
X49035Y-35656D02*
X49035Y-34815D01*
X49035Y-34815D02*
X48910Y-34690D01*
X48910Y-34690D02*
X46220Y-34690D01*
X46220Y-34690D02*
X45871Y-34341D01*
X45871Y-34341D02*
X45871Y-33540D01*
G54D10*
G36*
X53403Y-28871D02*
X53007Y-28871D01*
X53007Y-28620D01*
X53006Y-28619D01*
X53007Y-28619D01*
X53001Y-28591D01*
X52972Y-28448D01*
X52876Y-28303D01*
X52876Y-28303D01*
X52156Y-27583D01*
X52011Y-27487D01*
X51840Y-27453D01*
X51668Y-27487D01*
X51523Y-27583D01*
X51427Y-27728D01*
X51393Y-27900D01*
X51427Y-28071D01*
X51523Y-28216D01*
X52113Y-28805D01*
X52113Y-35334D01*
X51097Y-36350D01*
X51097Y-33439D01*
X51020Y-33253D01*
X50989Y-33221D01*
X50989Y-32871D01*
X50963Y-32744D01*
X50958Y-32719D01*
X50958Y-32719D01*
X50872Y-32590D01*
X50741Y-32458D01*
X50612Y-32372D01*
X50586Y-32367D01*
X50460Y-32342D01*
X47857Y-32342D01*
X47857Y-30021D01*
X47792Y-29865D01*
X47673Y-29745D01*
X47516Y-29681D01*
X47347Y-29680D01*
X47281Y-29708D01*
X44850Y-29708D01*
X44697Y-29738D01*
X44655Y-29767D01*
X44568Y-29824D01*
X43490Y-30903D01*
X43490Y-27242D01*
X43486Y-27121D01*
X43486Y-25419D01*
X43382Y-25168D01*
X43190Y-24976D01*
X42939Y-24872D01*
X42667Y-24871D01*
X42416Y-24975D01*
X42224Y-25167D01*
X42120Y-25418D01*
X42119Y-25690D01*
X42223Y-25941D01*
X42415Y-26133D01*
X42666Y-26237D01*
X42938Y-26238D01*
X43189Y-26134D01*
X43381Y-25942D01*
X43485Y-25691D01*
X43486Y-25419D01*
X43486Y-27121D01*
X43481Y-26970D01*
X43394Y-26761D01*
X43285Y-26717D01*
X43214Y-26788D01*
X43214Y-26646D01*
X43170Y-26537D01*
X42916Y-26441D01*
X42644Y-26450D01*
X42435Y-26537D01*
X42391Y-26646D01*
X42803Y-27058D01*
X43214Y-26646D01*
X43214Y-26788D01*
X42873Y-27129D01*
X43285Y-27540D01*
X43394Y-27496D01*
X43490Y-27242D01*
X43490Y-30903D01*
X43214Y-31179D01*
X43214Y-27611D01*
X42803Y-27199D01*
X42732Y-27270D01*
X42732Y-27129D01*
X42320Y-26717D01*
X42211Y-26761D01*
X42115Y-27015D01*
X42124Y-27287D01*
X42211Y-27496D01*
X42320Y-27540D01*
X42732Y-27129D01*
X42732Y-27270D01*
X42391Y-27611D01*
X42435Y-27720D01*
X42689Y-27816D01*
X42961Y-27807D01*
X43170Y-27720D01*
X43214Y-27611D01*
X43214Y-31179D01*
X43204Y-31188D01*
X43118Y-31317D01*
X43113Y-31343D01*
X43088Y-31470D01*
X43088Y-31620D01*
X43043Y-31602D01*
X42944Y-31601D01*
X42344Y-31601D01*
X42252Y-31639D01*
X42182Y-31710D01*
X42144Y-31802D01*
X42144Y-31824D01*
X42005Y-31686D01*
X41803Y-31602D01*
X41585Y-31601D01*
X41382Y-31685D01*
X41228Y-31840D01*
X41194Y-31921D01*
X41160Y-31840D01*
X41128Y-31808D01*
X41128Y-27242D01*
X41124Y-27121D01*
X41124Y-25419D01*
X41020Y-25168D01*
X40828Y-24976D01*
X40577Y-24872D01*
X40305Y-24871D01*
X40054Y-24975D01*
X39862Y-25167D01*
X39758Y-25418D01*
X39757Y-25690D01*
X39861Y-25941D01*
X40053Y-26133D01*
X40304Y-26237D01*
X40576Y-26238D01*
X40827Y-26134D01*
X41019Y-25942D01*
X41123Y-25691D01*
X41124Y-25419D01*
X41124Y-27121D01*
X41119Y-26970D01*
X41032Y-26761D01*
X40923Y-26717D01*
X40852Y-26788D01*
X40852Y-26646D01*
X40808Y-26537D01*
X40554Y-26441D01*
X40282Y-26450D01*
X40073Y-26537D01*
X40029Y-26646D01*
X40441Y-27058D01*
X40852Y-26646D01*
X40852Y-26788D01*
X40511Y-27129D01*
X40923Y-27540D01*
X41032Y-27496D01*
X41128Y-27242D01*
X41128Y-31808D01*
X41005Y-31686D01*
X40852Y-31622D01*
X40852Y-27611D01*
X40441Y-27199D01*
X40370Y-27270D01*
X40370Y-27129D01*
X39958Y-26717D01*
X39849Y-26761D01*
X39753Y-27015D01*
X39762Y-27287D01*
X39849Y-27496D01*
X39958Y-27540D01*
X40370Y-27129D01*
X40370Y-27270D01*
X40029Y-27611D01*
X40073Y-27720D01*
X40327Y-27816D01*
X40599Y-27807D01*
X40808Y-27720D01*
X40852Y-27611D01*
X40852Y-31622D01*
X40803Y-31602D01*
X40585Y-31601D01*
X40382Y-31685D01*
X40228Y-31840D01*
X40194Y-31921D01*
X40160Y-31840D01*
X40005Y-31686D01*
X39803Y-31602D01*
X39585Y-31601D01*
X39382Y-31685D01*
X39228Y-31840D01*
X39144Y-32042D01*
X39143Y-32260D01*
X39227Y-32463D01*
X39382Y-32617D01*
X39584Y-32701D01*
X39802Y-32702D01*
X40005Y-32618D01*
X40159Y-32463D01*
X40193Y-32382D01*
X40227Y-32463D01*
X40382Y-32617D01*
X40584Y-32701D01*
X40802Y-32702D01*
X41005Y-32618D01*
X41159Y-32463D01*
X41193Y-32382D01*
X41227Y-32463D01*
X41382Y-32617D01*
X41584Y-32701D01*
X41802Y-32702D01*
X42005Y-32618D01*
X42143Y-32479D01*
X42143Y-32501D01*
X42181Y-32593D01*
X42252Y-32663D01*
X42344Y-32701D01*
X42443Y-32702D01*
X43043Y-32702D01*
X43088Y-32683D01*
X43088Y-32708D01*
X40876Y-32708D01*
X40749Y-32733D01*
X40723Y-32738D01*
X40594Y-32824D01*
X39634Y-33784D01*
X39548Y-33913D01*
X39543Y-33939D01*
X39518Y-34066D01*
X39518Y-35986D01*
X39543Y-36112D01*
X39548Y-36138D01*
X39634Y-36267D01*
X40358Y-36990D01*
X40358Y-37912D01*
X40383Y-38038D01*
X40388Y-38064D01*
X40474Y-38193D01*
X41166Y-38884D01*
X41193Y-38950D01*
X41312Y-39070D01*
X41469Y-39134D01*
X41638Y-39135D01*
X41794Y-39070D01*
X41914Y-38951D01*
X41978Y-38794D01*
X41979Y-38625D01*
X41914Y-38469D01*
X41795Y-38349D01*
X41728Y-38322D01*
X41153Y-37747D01*
X41153Y-36826D01*
X41128Y-36699D01*
X41123Y-36673D01*
X41123Y-36673D01*
X41037Y-36544D01*
X40313Y-35821D01*
X40313Y-35379D01*
X40375Y-35529D01*
X40530Y-35683D01*
X40732Y-35767D01*
X40950Y-35768D01*
X41153Y-35684D01*
X41291Y-35545D01*
X41291Y-35567D01*
X41329Y-35659D01*
X41400Y-35729D01*
X41492Y-35767D01*
X41591Y-35768D01*
X42191Y-35768D01*
X42283Y-35730D01*
X42353Y-35659D01*
X42391Y-35567D01*
X42392Y-35468D01*
X42392Y-34868D01*
X42354Y-34776D01*
X42283Y-34706D01*
X42191Y-34668D01*
X42092Y-34667D01*
X41492Y-34667D01*
X41400Y-34705D01*
X41330Y-34776D01*
X41292Y-34868D01*
X41292Y-34890D01*
X41153Y-34752D01*
X40951Y-34668D01*
X40733Y-34667D01*
X40530Y-34751D01*
X40376Y-34906D01*
X40313Y-35056D01*
X40313Y-34230D01*
X41040Y-33503D01*
X43334Y-33503D01*
X43334Y-33503D01*
X43460Y-33478D01*
X43486Y-33473D01*
X43486Y-33473D01*
X43615Y-33387D01*
X43767Y-33235D01*
X43767Y-33235D01*
X43824Y-33148D01*
X43853Y-33106D01*
X43853Y-33106D01*
X43883Y-32954D01*
X43883Y-32954D01*
X43883Y-31634D01*
X45014Y-30503D01*
X47281Y-30503D01*
X47347Y-30530D01*
X47516Y-30531D01*
X47672Y-30466D01*
X47792Y-30347D01*
X47856Y-30190D01*
X47857Y-30021D01*
X47857Y-32342D01*
X44560Y-32342D01*
X44433Y-32367D01*
X44407Y-32372D01*
X44278Y-32458D01*
X44014Y-32722D01*
X43928Y-32851D01*
X43923Y-32877D01*
X43898Y-33004D01*
X43898Y-33221D01*
X43867Y-33253D01*
X43790Y-33438D01*
X43789Y-33640D01*
X43866Y-33826D01*
X44009Y-33968D01*
X44194Y-34045D01*
X44396Y-34046D01*
X44582Y-33969D01*
X44690Y-33861D01*
X44797Y-33968D01*
X44982Y-34045D01*
X45184Y-34046D01*
X45370Y-33969D01*
X45512Y-33827D01*
X45514Y-33822D01*
X45516Y-33823D01*
X45800Y-33540D01*
X45516Y-33256D01*
X45514Y-33257D01*
X45513Y-33253D01*
X45397Y-33137D01*
X45599Y-33137D01*
X45587Y-33185D01*
X45871Y-33469D01*
X46154Y-33185D01*
X46142Y-33137D01*
X46344Y-33137D01*
X46229Y-33253D01*
X46227Y-33257D01*
X46225Y-33256D01*
X45941Y-33540D01*
X46225Y-33823D01*
X46227Y-33822D01*
X46228Y-33826D01*
X46371Y-33968D01*
X46556Y-34045D01*
X46758Y-34046D01*
X46944Y-33969D01*
X47052Y-33861D01*
X47159Y-33968D01*
X47344Y-34045D01*
X47546Y-34046D01*
X47732Y-33969D01*
X47844Y-33857D01*
X47946Y-33958D01*
X48131Y-34035D01*
X48333Y-34036D01*
X48519Y-33959D01*
X48620Y-33858D01*
X48729Y-33968D01*
X48915Y-34045D01*
X49117Y-34046D01*
X49303Y-33969D01*
X49410Y-33861D01*
X49517Y-33968D01*
X49703Y-34045D01*
X49904Y-34046D01*
X50090Y-33969D01*
X50198Y-33861D01*
X50304Y-33968D01*
X50490Y-34045D01*
X50691Y-34046D01*
X50877Y-33969D01*
X51020Y-33827D01*
X51097Y-33641D01*
X51097Y-33439D01*
X51097Y-36350D01*
X50861Y-36585D01*
X50765Y-36730D01*
X50731Y-36902D01*
X50731Y-37001D01*
X50727Y-37004D01*
X50727Y-36982D01*
X50689Y-36890D01*
X50619Y-36819D01*
X50527Y-36781D01*
X50328Y-36781D01*
X50328Y-35545D01*
X50251Y-35359D01*
X50109Y-35217D01*
X49923Y-35140D01*
X49721Y-35139D01*
X49535Y-35216D01*
X49393Y-35359D01*
X49386Y-35375D01*
X49318Y-35443D01*
X49318Y-35301D01*
X49296Y-35211D01*
X49106Y-35145D01*
X48905Y-35156D01*
X48773Y-35211D01*
X48751Y-35301D01*
X49035Y-35585D01*
X49318Y-35301D01*
X49318Y-35443D01*
X49105Y-35656D01*
X49389Y-35939D01*
X49397Y-35937D01*
X49535Y-36074D01*
X49720Y-36151D01*
X49922Y-36152D01*
X50108Y-36075D01*
X50250Y-35933D01*
X50327Y-35747D01*
X50328Y-35545D01*
X50328Y-36781D01*
X50290Y-36782D01*
X50228Y-36844D01*
X50228Y-37282D01*
X50235Y-37282D01*
X50235Y-37382D01*
X50228Y-37382D01*
X50228Y-37819D01*
X50290Y-37882D01*
X50527Y-37882D01*
X50619Y-37844D01*
X50689Y-37773D01*
X50727Y-37681D01*
X50727Y-37659D01*
X50866Y-37797D01*
X51068Y-37881D01*
X51286Y-37882D01*
X51489Y-37798D01*
X51643Y-37643D01*
X51677Y-37562D01*
X51711Y-37643D01*
X51866Y-37797D01*
X51888Y-37807D01*
X51888Y-38409D01*
X51370Y-38926D01*
X51364Y-38930D01*
X51302Y-39025D01*
X51280Y-39136D01*
X51280Y-39138D01*
X51280Y-39345D01*
X51192Y-39257D01*
X50970Y-39165D01*
X50730Y-39165D01*
X50508Y-39257D01*
X50337Y-39427D01*
X50245Y-39649D01*
X50245Y-39889D01*
X50337Y-40111D01*
X50507Y-40282D01*
X50515Y-40285D01*
X50495Y-40344D01*
X50850Y-40699D01*
X50855Y-40693D01*
X50926Y-40764D01*
X50920Y-40770D01*
X50926Y-40775D01*
X50855Y-40846D01*
X50850Y-40840D01*
X50779Y-40911D01*
X50779Y-40770D01*
X50424Y-40415D01*
X50323Y-40449D01*
X50241Y-40675D01*
X50251Y-40915D01*
X50323Y-41090D01*
X50424Y-41124D01*
X50779Y-40770D01*
X50779Y-40911D01*
X50495Y-41195D01*
X50515Y-41254D01*
X50508Y-41257D01*
X50337Y-41427D01*
X50245Y-41649D01*
X50245Y-41889D01*
X50337Y-42111D01*
X50495Y-42270D01*
X50337Y-42427D01*
X50245Y-42649D01*
X50245Y-42889D01*
X50337Y-43111D01*
X50495Y-43270D01*
X50337Y-43427D01*
X50316Y-43480D01*
X50204Y-43480D01*
X50128Y-43403D01*
X50128Y-37819D01*
X50128Y-37382D01*
X50128Y-37282D01*
X50128Y-36844D01*
X50065Y-36782D01*
X49828Y-36781D01*
X49736Y-36819D01*
X49666Y-36890D01*
X49628Y-36982D01*
X49627Y-37081D01*
X49628Y-37219D01*
X49690Y-37282D01*
X50128Y-37282D01*
X50128Y-37382D01*
X49690Y-37382D01*
X49628Y-37444D01*
X49627Y-37582D01*
X49628Y-37681D01*
X49666Y-37773D01*
X49736Y-37844D01*
X49828Y-37882D01*
X50065Y-37882D01*
X50128Y-37819D01*
X50128Y-43403D01*
X49886Y-43161D01*
X49886Y-42806D01*
X49863Y-42695D01*
X49801Y-42600D01*
X49318Y-42118D01*
X49318Y-36010D01*
X49035Y-35726D01*
X48964Y-35797D01*
X48964Y-35656D01*
X48680Y-35372D01*
X48677Y-35373D01*
X48676Y-35369D01*
X48534Y-35227D01*
X48348Y-35150D01*
X48146Y-35149D01*
X47960Y-35226D01*
X47853Y-35333D01*
X47747Y-35227D01*
X47561Y-35150D01*
X47359Y-35149D01*
X47173Y-35226D01*
X47066Y-35333D01*
X46960Y-35227D01*
X46774Y-35150D01*
X46572Y-35149D01*
X46386Y-35226D01*
X46278Y-35334D01*
X46172Y-35227D01*
X46154Y-35219D01*
X46154Y-33894D01*
X45871Y-33610D01*
X45587Y-33894D01*
X45609Y-33984D01*
X45799Y-34050D01*
X46000Y-34039D01*
X46132Y-33984D01*
X46154Y-33894D01*
X46154Y-35219D01*
X45986Y-35150D01*
X45784Y-35149D01*
X45598Y-35226D01*
X45456Y-35369D01*
X45379Y-35554D01*
X45378Y-35756D01*
X45455Y-35942D01*
X45598Y-36084D01*
X45783Y-36161D01*
X45985Y-36162D01*
X46171Y-36085D01*
X46279Y-35977D01*
X46386Y-36084D01*
X46571Y-36161D01*
X46773Y-36162D01*
X46959Y-36085D01*
X47066Y-35978D01*
X47173Y-36084D01*
X47358Y-36161D01*
X47560Y-36162D01*
X47746Y-36085D01*
X47853Y-35978D01*
X47960Y-36084D01*
X48145Y-36161D01*
X48347Y-36162D01*
X48533Y-36085D01*
X48675Y-35943D01*
X48677Y-35938D01*
X48680Y-35939D01*
X48964Y-35656D01*
X48964Y-35797D01*
X48751Y-36010D01*
X48773Y-36100D01*
X48963Y-36166D01*
X49164Y-36155D01*
X49296Y-36100D01*
X49318Y-36010D01*
X49318Y-42118D01*
X48960Y-41759D01*
X48960Y-39281D01*
X48876Y-39078D01*
X48721Y-38924D01*
X48640Y-38890D01*
X48721Y-38856D01*
X48875Y-38701D01*
X48959Y-38499D01*
X48960Y-38281D01*
X48876Y-38078D01*
X48721Y-37924D01*
X48519Y-37840D01*
X48301Y-37839D01*
X48098Y-37923D01*
X47944Y-38078D01*
X47912Y-38153D01*
X47891Y-38102D01*
X47795Y-38074D01*
X47725Y-38145D01*
X47725Y-38004D01*
X47697Y-37908D01*
X47491Y-37835D01*
X47273Y-37846D01*
X47122Y-37908D01*
X47094Y-38004D01*
X47410Y-38319D01*
X47725Y-38004D01*
X47725Y-38145D01*
X47480Y-38390D01*
X47795Y-38705D01*
X47891Y-38677D01*
X47910Y-38622D01*
X47943Y-38701D01*
X48098Y-38855D01*
X48179Y-38889D01*
X48098Y-38923D01*
X47944Y-39078D01*
X47910Y-39159D01*
X47876Y-39078D01*
X47721Y-38924D01*
X47646Y-38892D01*
X47697Y-38871D01*
X47725Y-38775D01*
X47410Y-38460D01*
X47339Y-38531D01*
X47339Y-38390D01*
X47024Y-38074D01*
X46928Y-38102D01*
X46855Y-38308D01*
X46866Y-38526D01*
X46928Y-38677D01*
X47024Y-38705D01*
X47339Y-38390D01*
X47339Y-38531D01*
X47094Y-38775D01*
X47122Y-38871D01*
X47177Y-38890D01*
X47098Y-38923D01*
X46944Y-39078D01*
X46860Y-39280D01*
X46859Y-39498D01*
X46943Y-39701D01*
X47098Y-39855D01*
X47179Y-39889D01*
X47098Y-39923D01*
X47029Y-39992D01*
X46924Y-39992D01*
X45895Y-38962D01*
X45766Y-38876D01*
X45740Y-38871D01*
X45614Y-38846D01*
X45396Y-38846D01*
X45330Y-38819D01*
X45161Y-38818D01*
X45005Y-38883D01*
X44885Y-39002D01*
X44821Y-39159D01*
X44820Y-39328D01*
X44885Y-39484D01*
X45004Y-39604D01*
X45161Y-39668D01*
X45330Y-39669D01*
X45396Y-39641D01*
X45449Y-39641D01*
X46478Y-40671D01*
X46478Y-40671D01*
X46565Y-40728D01*
X46607Y-40757D01*
X46607Y-40757D01*
X46760Y-40787D01*
X47029Y-40787D01*
X47098Y-40855D01*
X47300Y-40939D01*
X47518Y-40940D01*
X47721Y-40856D01*
X47859Y-40717D01*
X47859Y-40739D01*
X47897Y-40831D01*
X47968Y-40901D01*
X48060Y-40939D01*
X48159Y-40940D01*
X48759Y-40940D01*
X48851Y-40902D01*
X48921Y-40831D01*
X48959Y-40739D01*
X48960Y-40640D01*
X48960Y-40040D01*
X48922Y-39948D01*
X48851Y-39878D01*
X48759Y-39840D01*
X48737Y-39840D01*
X48875Y-39701D01*
X48959Y-39499D01*
X48960Y-39281D01*
X48960Y-41759D01*
X48863Y-41662D01*
X48768Y-41600D01*
X48658Y-41578D01*
X48028Y-41578D01*
X47250Y-41578D01*
X47249Y-41578D01*
X47139Y-41600D01*
X47044Y-41662D01*
X47044Y-41662D01*
X46256Y-42450D01*
X46194Y-42545D01*
X46172Y-42656D01*
X46172Y-42676D01*
X46101Y-42746D01*
X46037Y-42903D01*
X46036Y-43072D01*
X46101Y-43228D01*
X46220Y-43348D01*
X46377Y-43412D01*
X46546Y-43413D01*
X46631Y-43377D01*
X46794Y-43772D01*
X47051Y-44029D01*
X46020Y-44029D01*
X46020Y-41391D01*
X45936Y-41188D01*
X45781Y-41034D01*
X45579Y-40950D01*
X45361Y-40949D01*
X45158Y-41033D01*
X45020Y-41172D01*
X45020Y-41150D01*
X44982Y-41058D01*
X44911Y-40988D01*
X44819Y-40950D01*
X44720Y-40949D01*
X44120Y-40949D01*
X44028Y-40987D01*
X43958Y-41058D01*
X43920Y-41150D01*
X43919Y-41249D01*
X43919Y-41849D01*
X43957Y-41941D01*
X44028Y-42011D01*
X44120Y-42049D01*
X44219Y-42050D01*
X44819Y-42050D01*
X44911Y-42012D01*
X44981Y-41941D01*
X45019Y-41849D01*
X45019Y-41827D01*
X45158Y-41965D01*
X45360Y-42049D01*
X45578Y-42050D01*
X45781Y-41966D01*
X45935Y-41811D01*
X46019Y-41609D01*
X46020Y-41391D01*
X46020Y-44029D01*
X44942Y-44029D01*
X44942Y-43053D01*
X44850Y-42832D01*
X44682Y-42663D01*
X44461Y-42572D01*
X44223Y-42571D01*
X44002Y-42663D01*
X43833Y-42831D01*
X43742Y-43052D01*
X43741Y-43290D01*
X43833Y-43511D01*
X44001Y-43680D01*
X44222Y-43771D01*
X44460Y-43772D01*
X44681Y-43680D01*
X44850Y-43512D01*
X44941Y-43291D01*
X44942Y-43053D01*
X44942Y-44029D01*
X42990Y-44029D01*
X42990Y-38662D01*
X42990Y-37650D01*
X42989Y-37649D01*
X42990Y-37649D01*
X42967Y-37539D01*
X42905Y-37444D01*
X42905Y-37444D01*
X42839Y-37378D01*
X42744Y-37316D01*
X42634Y-37294D01*
X42451Y-37294D01*
X42381Y-37223D01*
X42224Y-37159D01*
X42055Y-37158D01*
X41899Y-37223D01*
X41779Y-37342D01*
X41715Y-37499D01*
X41714Y-37668D01*
X41779Y-37824D01*
X41898Y-37944D01*
X42055Y-38008D01*
X42224Y-38009D01*
X42380Y-37944D01*
X42410Y-37914D01*
X42410Y-38541D01*
X41914Y-39036D01*
X41852Y-39131D01*
X41830Y-39242D01*
X41830Y-40749D01*
X41703Y-40748D01*
X41547Y-40813D01*
X41427Y-40932D01*
X41387Y-41031D01*
X41387Y-40211D01*
X41322Y-40055D01*
X41203Y-39935D01*
X41046Y-39871D01*
X40877Y-39870D01*
X40721Y-39935D01*
X40650Y-40006D01*
X39234Y-40006D01*
X39224Y-39981D01*
X39105Y-39861D01*
X38948Y-39797D01*
X38779Y-39796D01*
X38623Y-39861D01*
X38503Y-39980D01*
X38439Y-40137D01*
X38438Y-40306D01*
X38503Y-40462D01*
X38622Y-40582D01*
X38779Y-40646D01*
X38948Y-40647D01*
X39095Y-40586D01*
X40650Y-40586D01*
X40720Y-40656D01*
X40877Y-40720D01*
X41046Y-40721D01*
X41202Y-40656D01*
X41322Y-40537D01*
X41386Y-40380D01*
X41387Y-40211D01*
X41387Y-41031D01*
X41363Y-41089D01*
X41362Y-41258D01*
X41427Y-41414D01*
X41546Y-41534D01*
X41703Y-41598D01*
X41872Y-41599D01*
X42028Y-41534D01*
X42148Y-41415D01*
X42192Y-41307D01*
X42325Y-41175D01*
X42325Y-41175D01*
X42325Y-41175D01*
X42387Y-41080D01*
X42410Y-40970D01*
X42409Y-40970D01*
X42410Y-40970D01*
X42410Y-39362D01*
X42905Y-38867D01*
X42967Y-38772D01*
X42990Y-38662D01*
X42990Y-44029D01*
X42942Y-44029D01*
X42942Y-43053D01*
X42850Y-42832D01*
X42682Y-42663D01*
X42461Y-42572D01*
X42223Y-42571D01*
X42002Y-42663D01*
X41833Y-42831D01*
X41742Y-43052D01*
X41741Y-43290D01*
X41833Y-43511D01*
X42001Y-43680D01*
X42222Y-43771D01*
X42460Y-43772D01*
X42681Y-43680D01*
X42850Y-43512D01*
X42941Y-43291D01*
X42942Y-43053D01*
X42942Y-44029D01*
X40046Y-44029D01*
X40301Y-43774D01*
X40490Y-43320D01*
X40490Y-42829D01*
X40303Y-42375D01*
X39956Y-42028D01*
X39502Y-41839D01*
X39011Y-41839D01*
X38557Y-42026D01*
X38305Y-42279D01*
X38305Y-38183D01*
X38767Y-38183D01*
X38891Y-38158D01*
X38996Y-38087D01*
X39067Y-37982D01*
X39092Y-37858D01*
X39092Y-29196D01*
X39067Y-29071D01*
X38996Y-28966D01*
X38891Y-28895D01*
X38767Y-28871D01*
X38305Y-28871D01*
X38305Y-24770D01*
X38559Y-25025D01*
X39013Y-25214D01*
X39504Y-25214D01*
X39958Y-25027D01*
X40305Y-24680D01*
X40494Y-24226D01*
X40494Y-23735D01*
X40307Y-23281D01*
X40050Y-23025D01*
X51658Y-23025D01*
X51403Y-23279D01*
X51214Y-23733D01*
X51214Y-24224D01*
X51401Y-24678D01*
X51748Y-25025D01*
X52202Y-25214D01*
X52693Y-25214D01*
X53147Y-25027D01*
X53403Y-24771D01*
X53403Y-28871D01*
X53403Y-28871D01*
G37*
G54D22*
X53403Y-28871D02*
X53007Y-28871D01*
X53007Y-28620D01*
X53006Y-28619D01*
X53007Y-28619D01*
X53001Y-28591D01*
X52972Y-28448D01*
X52876Y-28303D01*
X52876Y-28303D01*
X52156Y-27583D01*
X52011Y-27487D01*
X51840Y-27453D01*
X51668Y-27487D01*
X51523Y-27583D01*
X51427Y-27728D01*
X51393Y-27900D01*
X51427Y-28071D01*
X51523Y-28216D01*
X52113Y-28805D01*
X52113Y-35334D01*
X51097Y-36350D01*
X51097Y-33439D01*
X51020Y-33253D01*
X50989Y-33221D01*
X50989Y-32871D01*
X50963Y-32744D01*
X50958Y-32719D01*
X50958Y-32719D01*
X50872Y-32590D01*
X50741Y-32458D01*
X50612Y-32372D01*
X50586Y-32367D01*
X50460Y-32342D01*
X47857Y-32342D01*
X47857Y-30021D01*
X47792Y-29865D01*
X47673Y-29745D01*
X47516Y-29681D01*
X47347Y-29680D01*
X47281Y-29708D01*
X44850Y-29708D01*
X44697Y-29738D01*
X44655Y-29767D01*
X44568Y-29824D01*
X43490Y-30903D01*
X43490Y-27242D01*
X43486Y-27121D01*
X43486Y-25419D01*
X43382Y-25168D01*
X43190Y-24976D01*
X42939Y-24872D01*
X42667Y-24871D01*
X42416Y-24975D01*
X42224Y-25167D01*
X42120Y-25418D01*
X42119Y-25690D01*
X42223Y-25941D01*
X42415Y-26133D01*
X42666Y-26237D01*
X42938Y-26238D01*
X43189Y-26134D01*
X43381Y-25942D01*
X43485Y-25691D01*
X43486Y-25419D01*
X43486Y-27121D01*
X43481Y-26970D01*
X43394Y-26761D01*
X43285Y-26717D01*
X43214Y-26788D01*
X43214Y-26646D01*
X43170Y-26537D01*
X42916Y-26441D01*
X42644Y-26450D01*
X42435Y-26537D01*
X42391Y-26646D01*
X42803Y-27058D01*
X43214Y-26646D01*
X43214Y-26788D01*
X42873Y-27129D01*
X43285Y-27540D01*
X43394Y-27496D01*
X43490Y-27242D01*
X43490Y-30903D01*
X43214Y-31179D01*
X43214Y-27611D01*
X42803Y-27199D01*
X42732Y-27270D01*
X42732Y-27129D01*
X42320Y-26717D01*
X42211Y-26761D01*
X42115Y-27015D01*
X42124Y-27287D01*
X42211Y-27496D01*
X42320Y-27540D01*
X42732Y-27129D01*
X42732Y-27270D01*
X42391Y-27611D01*
X42435Y-27720D01*
X42689Y-27816D01*
X42961Y-27807D01*
X43170Y-27720D01*
X43214Y-27611D01*
X43214Y-31179D01*
X43204Y-31188D01*
X43118Y-31317D01*
X43113Y-31343D01*
X43088Y-31470D01*
X43088Y-31620D01*
X43043Y-31602D01*
X42944Y-31601D01*
X42344Y-31601D01*
X42252Y-31639D01*
X42182Y-31710D01*
X42144Y-31802D01*
X42144Y-31824D01*
X42005Y-31686D01*
X41803Y-31602D01*
X41585Y-31601D01*
X41382Y-31685D01*
X41228Y-31840D01*
X41194Y-31921D01*
X41160Y-31840D01*
X41128Y-31808D01*
X41128Y-27242D01*
X41124Y-27121D01*
X41124Y-25419D01*
X41020Y-25168D01*
X40828Y-24976D01*
X40577Y-24872D01*
X40305Y-24871D01*
X40054Y-24975D01*
X39862Y-25167D01*
X39758Y-25418D01*
X39757Y-25690D01*
X39861Y-25941D01*
X40053Y-26133D01*
X40304Y-26237D01*
X40576Y-26238D01*
X40827Y-26134D01*
X41019Y-25942D01*
X41123Y-25691D01*
X41124Y-25419D01*
X41124Y-27121D01*
X41119Y-26970D01*
X41032Y-26761D01*
X40923Y-26717D01*
X40852Y-26788D01*
X40852Y-26646D01*
X40808Y-26537D01*
X40554Y-26441D01*
X40282Y-26450D01*
X40073Y-26537D01*
X40029Y-26646D01*
X40441Y-27058D01*
X40852Y-26646D01*
X40852Y-26788D01*
X40511Y-27129D01*
X40923Y-27540D01*
X41032Y-27496D01*
X41128Y-27242D01*
X41128Y-31808D01*
X41005Y-31686D01*
X40852Y-31622D01*
X40852Y-27611D01*
X40441Y-27199D01*
X40370Y-27270D01*
X40370Y-27129D01*
X39958Y-26717D01*
X39849Y-26761D01*
X39753Y-27015D01*
X39762Y-27287D01*
X39849Y-27496D01*
X39958Y-27540D01*
X40370Y-27129D01*
X40370Y-27270D01*
X40029Y-27611D01*
X40073Y-27720D01*
X40327Y-27816D01*
X40599Y-27807D01*
X40808Y-27720D01*
X40852Y-27611D01*
X40852Y-31622D01*
X40803Y-31602D01*
X40585Y-31601D01*
X40382Y-31685D01*
X40228Y-31840D01*
X40194Y-31921D01*
X40160Y-31840D01*
X40005Y-31686D01*
X39803Y-31602D01*
X39585Y-31601D01*
X39382Y-31685D01*
X39228Y-31840D01*
X39144Y-32042D01*
X39143Y-32260D01*
X39227Y-32463D01*
X39382Y-32617D01*
X39584Y-32701D01*
X39802Y-32702D01*
X40005Y-32618D01*
X40159Y-32463D01*
X40193Y-32382D01*
X40227Y-32463D01*
X40382Y-32617D01*
X40584Y-32701D01*
X40802Y-32702D01*
X41005Y-32618D01*
X41159Y-32463D01*
X41193Y-32382D01*
X41227Y-32463D01*
X41382Y-32617D01*
X41584Y-32701D01*
X41802Y-32702D01*
X42005Y-32618D01*
X42143Y-32479D01*
X42143Y-32501D01*
X42181Y-32593D01*
X42252Y-32663D01*
X42344Y-32701D01*
X42443Y-32702D01*
X43043Y-32702D01*
X43088Y-32683D01*
X43088Y-32708D01*
X40876Y-32708D01*
X40749Y-32733D01*
X40723Y-32738D01*
X40594Y-32824D01*
X39634Y-33784D01*
X39548Y-33913D01*
X39543Y-33939D01*
X39518Y-34066D01*
X39518Y-35986D01*
X39543Y-36112D01*
X39548Y-36138D01*
X39634Y-36267D01*
X40358Y-36990D01*
X40358Y-37912D01*
X40383Y-38038D01*
X40388Y-38064D01*
X40474Y-38193D01*
X41166Y-38884D01*
X41193Y-38950D01*
X41312Y-39070D01*
X41469Y-39134D01*
X41638Y-39135D01*
X41794Y-39070D01*
X41914Y-38951D01*
X41978Y-38794D01*
X41979Y-38625D01*
X41914Y-38469D01*
X41795Y-38349D01*
X41728Y-38322D01*
X41153Y-37747D01*
X41153Y-36826D01*
X41128Y-36699D01*
X41123Y-36673D01*
X41123Y-36673D01*
X41037Y-36544D01*
X40313Y-35821D01*
X40313Y-35379D01*
X40375Y-35529D01*
X40530Y-35683D01*
X40732Y-35767D01*
X40950Y-35768D01*
X41153Y-35684D01*
X41291Y-35545D01*
X41291Y-35567D01*
X41329Y-35659D01*
X41400Y-35729D01*
X41492Y-35767D01*
X41591Y-35768D01*
X42191Y-35768D01*
X42283Y-35730D01*
X42353Y-35659D01*
X42391Y-35567D01*
X42392Y-35468D01*
X42392Y-34868D01*
X42354Y-34776D01*
X42283Y-34706D01*
X42191Y-34668D01*
X42092Y-34667D01*
X41492Y-34667D01*
X41400Y-34705D01*
X41330Y-34776D01*
X41292Y-34868D01*
X41292Y-34890D01*
X41153Y-34752D01*
X40951Y-34668D01*
X40733Y-34667D01*
X40530Y-34751D01*
X40376Y-34906D01*
X40313Y-35056D01*
X40313Y-34230D01*
X41040Y-33503D01*
X43334Y-33503D01*
X43334Y-33503D01*
X43460Y-33478D01*
X43486Y-33473D01*
X43486Y-33473D01*
X43615Y-33387D01*
X43767Y-33235D01*
X43767Y-33235D01*
X43824Y-33148D01*
X43853Y-33106D01*
X43853Y-33106D01*
X43883Y-32954D01*
X43883Y-32954D01*
X43883Y-31634D01*
X45014Y-30503D01*
X47281Y-30503D01*
X47347Y-30530D01*
X47516Y-30531D01*
X47672Y-30466D01*
X47792Y-30347D01*
X47856Y-30190D01*
X47857Y-30021D01*
X47857Y-32342D01*
X44560Y-32342D01*
X44433Y-32367D01*
X44407Y-32372D01*
X44278Y-32458D01*
X44014Y-32722D01*
X43928Y-32851D01*
X43923Y-32877D01*
X43898Y-33004D01*
X43898Y-33221D01*
X43867Y-33253D01*
X43790Y-33438D01*
X43789Y-33640D01*
X43866Y-33826D01*
X44009Y-33968D01*
X44194Y-34045D01*
X44396Y-34046D01*
X44582Y-33969D01*
X44690Y-33861D01*
X44797Y-33968D01*
X44982Y-34045D01*
X45184Y-34046D01*
X45370Y-33969D01*
X45512Y-33827D01*
X45514Y-33822D01*
X45516Y-33823D01*
X45800Y-33540D01*
X45516Y-33256D01*
X45514Y-33257D01*
X45513Y-33253D01*
X45397Y-33137D01*
X45599Y-33137D01*
X45587Y-33185D01*
X45871Y-33469D01*
X46154Y-33185D01*
X46142Y-33137D01*
X46344Y-33137D01*
X46229Y-33253D01*
X46227Y-33257D01*
X46225Y-33256D01*
X45941Y-33540D01*
X46225Y-33823D01*
X46227Y-33822D01*
X46228Y-33826D01*
X46371Y-33968D01*
X46556Y-34045D01*
X46758Y-34046D01*
X46944Y-33969D01*
X47052Y-33861D01*
X47159Y-33968D01*
X47344Y-34045D01*
X47546Y-34046D01*
X47732Y-33969D01*
X47844Y-33857D01*
X47946Y-33958D01*
X48131Y-34035D01*
X48333Y-34036D01*
X48519Y-33959D01*
X48620Y-33858D01*
X48729Y-33968D01*
X48915Y-34045D01*
X49117Y-34046D01*
X49303Y-33969D01*
X49410Y-33861D01*
X49517Y-33968D01*
X49703Y-34045D01*
X49904Y-34046D01*
X50090Y-33969D01*
X50198Y-33861D01*
X50304Y-33968D01*
X50490Y-34045D01*
X50691Y-34046D01*
X50877Y-33969D01*
X51020Y-33827D01*
X51097Y-33641D01*
X51097Y-33439D01*
X51097Y-36350D01*
X50861Y-36585D01*
X50765Y-36730D01*
X50731Y-36902D01*
X50731Y-37001D01*
X50727Y-37004D01*
X50727Y-36982D01*
X50689Y-36890D01*
X50619Y-36819D01*
X50527Y-36781D01*
X50328Y-36781D01*
X50328Y-35545D01*
X50251Y-35359D01*
X50109Y-35217D01*
X49923Y-35140D01*
X49721Y-35139D01*
X49535Y-35216D01*
X49393Y-35359D01*
X49386Y-35375D01*
X49318Y-35443D01*
X49318Y-35301D01*
X49296Y-35211D01*
X49106Y-35145D01*
X48905Y-35156D01*
X48773Y-35211D01*
X48751Y-35301D01*
X49035Y-35585D01*
X49318Y-35301D01*
X49318Y-35443D01*
X49105Y-35656D01*
X49389Y-35939D01*
X49397Y-35937D01*
X49535Y-36074D01*
X49720Y-36151D01*
X49922Y-36152D01*
X50108Y-36075D01*
X50250Y-35933D01*
X50327Y-35747D01*
X50328Y-35545D01*
X50328Y-36781D01*
X50290Y-36782D01*
X50228Y-36844D01*
X50228Y-37282D01*
X50235Y-37282D01*
X50235Y-37382D01*
X50228Y-37382D01*
X50228Y-37819D01*
X50290Y-37882D01*
X50527Y-37882D01*
X50619Y-37844D01*
X50689Y-37773D01*
X50727Y-37681D01*
X50727Y-37659D01*
X50866Y-37797D01*
X51068Y-37881D01*
X51286Y-37882D01*
X51489Y-37798D01*
X51643Y-37643D01*
X51677Y-37562D01*
X51711Y-37643D01*
X51866Y-37797D01*
X51888Y-37807D01*
X51888Y-38409D01*
X51370Y-38926D01*
X51364Y-38930D01*
X51302Y-39025D01*
X51280Y-39136D01*
X51280Y-39138D01*
X51280Y-39345D01*
X51192Y-39257D01*
X50970Y-39165D01*
X50730Y-39165D01*
X50508Y-39257D01*
X50337Y-39427D01*
X50245Y-39649D01*
X50245Y-39889D01*
X50337Y-40111D01*
X50507Y-40282D01*
X50515Y-40285D01*
X50495Y-40344D01*
X50850Y-40699D01*
X50855Y-40693D01*
X50926Y-40764D01*
X50920Y-40770D01*
X50926Y-40775D01*
X50855Y-40846D01*
X50850Y-40840D01*
X50779Y-40911D01*
X50779Y-40770D01*
X50424Y-40415D01*
X50323Y-40449D01*
X50241Y-40675D01*
X50251Y-40915D01*
X50323Y-41090D01*
X50424Y-41124D01*
X50779Y-40770D01*
X50779Y-40911D01*
X50495Y-41195D01*
X50515Y-41254D01*
X50508Y-41257D01*
X50337Y-41427D01*
X50245Y-41649D01*
X50245Y-41889D01*
X50337Y-42111D01*
X50495Y-42270D01*
X50337Y-42427D01*
X50245Y-42649D01*
X50245Y-42889D01*
X50337Y-43111D01*
X50495Y-43270D01*
X50337Y-43427D01*
X50316Y-43480D01*
X50204Y-43480D01*
X50128Y-43403D01*
X50128Y-37819D01*
X50128Y-37382D01*
X50128Y-37282D01*
X50128Y-36844D01*
X50065Y-36782D01*
X49828Y-36781D01*
X49736Y-36819D01*
X49666Y-36890D01*
X49628Y-36982D01*
X49627Y-37081D01*
X49628Y-37219D01*
X49690Y-37282D01*
X50128Y-37282D01*
X50128Y-37382D01*
X49690Y-37382D01*
X49628Y-37444D01*
X49627Y-37582D01*
X49628Y-37681D01*
X49666Y-37773D01*
X49736Y-37844D01*
X49828Y-37882D01*
X50065Y-37882D01*
X50128Y-37819D01*
X50128Y-43403D01*
X49886Y-43161D01*
X49886Y-42806D01*
X49863Y-42695D01*
X49801Y-42600D01*
X49318Y-42118D01*
X49318Y-36010D01*
X49035Y-35726D01*
X48964Y-35797D01*
X48964Y-35656D01*
X48680Y-35372D01*
X48677Y-35373D01*
X48676Y-35369D01*
X48534Y-35227D01*
X48348Y-35150D01*
X48146Y-35149D01*
X47960Y-35226D01*
X47853Y-35333D01*
X47747Y-35227D01*
X47561Y-35150D01*
X47359Y-35149D01*
X47173Y-35226D01*
X47066Y-35333D01*
X46960Y-35227D01*
X46774Y-35150D01*
X46572Y-35149D01*
X46386Y-35226D01*
X46278Y-35334D01*
X46172Y-35227D01*
X46154Y-35219D01*
X46154Y-33894D01*
X45871Y-33610D01*
X45587Y-33894D01*
X45609Y-33984D01*
X45799Y-34050D01*
X46000Y-34039D01*
X46132Y-33984D01*
X46154Y-33894D01*
X46154Y-35219D01*
X45986Y-35150D01*
X45784Y-35149D01*
X45598Y-35226D01*
X45456Y-35369D01*
X45379Y-35554D01*
X45378Y-35756D01*
X45455Y-35942D01*
X45598Y-36084D01*
X45783Y-36161D01*
X45985Y-36162D01*
X46171Y-36085D01*
X46279Y-35977D01*
X46386Y-36084D01*
X46571Y-36161D01*
X46773Y-36162D01*
X46959Y-36085D01*
X47066Y-35978D01*
X47173Y-36084D01*
X47358Y-36161D01*
X47560Y-36162D01*
X47746Y-36085D01*
X47853Y-35978D01*
X47960Y-36084D01*
X48145Y-36161D01*
X48347Y-36162D01*
X48533Y-36085D01*
X48675Y-35943D01*
X48677Y-35938D01*
X48680Y-35939D01*
X48964Y-35656D01*
X48964Y-35797D01*
X48751Y-36010D01*
X48773Y-36100D01*
X48963Y-36166D01*
X49164Y-36155D01*
X49296Y-36100D01*
X49318Y-36010D01*
X49318Y-42118D01*
X48960Y-41759D01*
X48960Y-39281D01*
X48876Y-39078D01*
X48721Y-38924D01*
X48640Y-38890D01*
X48721Y-38856D01*
X48875Y-38701D01*
X48959Y-38499D01*
X48960Y-38281D01*
X48876Y-38078D01*
X48721Y-37924D01*
X48519Y-37840D01*
X48301Y-37839D01*
X48098Y-37923D01*
X47944Y-38078D01*
X47912Y-38153D01*
X47891Y-38102D01*
X47795Y-38074D01*
X47725Y-38145D01*
X47725Y-38004D01*
X47697Y-37908D01*
X47491Y-37835D01*
X47273Y-37846D01*
X47122Y-37908D01*
X47094Y-38004D01*
X47410Y-38319D01*
X47725Y-38004D01*
X47725Y-38145D01*
X47480Y-38390D01*
X47795Y-38705D01*
X47891Y-38677D01*
X47910Y-38622D01*
X47943Y-38701D01*
X48098Y-38855D01*
X48179Y-38889D01*
X48098Y-38923D01*
X47944Y-39078D01*
X47910Y-39159D01*
X47876Y-39078D01*
X47721Y-38924D01*
X47646Y-38892D01*
X47697Y-38871D01*
X47725Y-38775D01*
X47410Y-38460D01*
X47339Y-38531D01*
X47339Y-38390D01*
X47024Y-38074D01*
X46928Y-38102D01*
X46855Y-38308D01*
X46866Y-38526D01*
X46928Y-38677D01*
X47024Y-38705D01*
X47339Y-38390D01*
X47339Y-38531D01*
X47094Y-38775D01*
X47122Y-38871D01*
X47177Y-38890D01*
X47098Y-38923D01*
X46944Y-39078D01*
X46860Y-39280D01*
X46859Y-39498D01*
X46943Y-39701D01*
X47098Y-39855D01*
X47179Y-39889D01*
X47098Y-39923D01*
X47029Y-39992D01*
X46924Y-39992D01*
X45895Y-38962D01*
X45766Y-38876D01*
X45740Y-38871D01*
X45614Y-38846D01*
X45396Y-38846D01*
X45330Y-38819D01*
X45161Y-38818D01*
X45005Y-38883D01*
X44885Y-39002D01*
X44821Y-39159D01*
X44820Y-39328D01*
X44885Y-39484D01*
X45004Y-39604D01*
X45161Y-39668D01*
X45330Y-39669D01*
X45396Y-39641D01*
X45449Y-39641D01*
X46478Y-40671D01*
X46478Y-40671D01*
X46565Y-40728D01*
X46607Y-40757D01*
X46607Y-40757D01*
X46760Y-40787D01*
X47029Y-40787D01*
X47098Y-40855D01*
X47300Y-40939D01*
X47518Y-40940D01*
X47721Y-40856D01*
X47859Y-40717D01*
X47859Y-40739D01*
X47897Y-40831D01*
X47968Y-40901D01*
X48060Y-40939D01*
X48159Y-40940D01*
X48759Y-40940D01*
X48851Y-40902D01*
X48921Y-40831D01*
X48959Y-40739D01*
X48960Y-40640D01*
X48960Y-40040D01*
X48922Y-39948D01*
X48851Y-39878D01*
X48759Y-39840D01*
X48737Y-39840D01*
X48875Y-39701D01*
X48959Y-39499D01*
X48960Y-39281D01*
X48960Y-41759D01*
X48863Y-41662D01*
X48768Y-41600D01*
X48658Y-41578D01*
X48028Y-41578D01*
X47250Y-41578D01*
X47249Y-41578D01*
X47139Y-41600D01*
X47044Y-41662D01*
X47044Y-41662D01*
X46256Y-42450D01*
X46194Y-42545D01*
X46172Y-42656D01*
X46172Y-42676D01*
X46101Y-42746D01*
X46037Y-42903D01*
X46036Y-43072D01*
X46101Y-43228D01*
X46220Y-43348D01*
X46377Y-43412D01*
X46546Y-43413D01*
X46631Y-43377D01*
X46794Y-43772D01*
X47051Y-44029D01*
X46020Y-44029D01*
X46020Y-41391D01*
X45936Y-41188D01*
X45781Y-41034D01*
X45579Y-40950D01*
X45361Y-40949D01*
X45158Y-41033D01*
X45020Y-41172D01*
X45020Y-41150D01*
X44982Y-41058D01*
X44911Y-40988D01*
X44819Y-40950D01*
X44720Y-40949D01*
X44120Y-40949D01*
X44028Y-40987D01*
X43958Y-41058D01*
X43920Y-41150D01*
X43919Y-41249D01*
X43919Y-41849D01*
X43957Y-41941D01*
X44028Y-42011D01*
X44120Y-42049D01*
X44219Y-42050D01*
X44819Y-42050D01*
X44911Y-42012D01*
X44981Y-41941D01*
X45019Y-41849D01*
X45019Y-41827D01*
X45158Y-41965D01*
X45360Y-42049D01*
X45578Y-42050D01*
X45781Y-41966D01*
X45935Y-41811D01*
X46019Y-41609D01*
X46020Y-41391D01*
X46020Y-44029D01*
X44942Y-44029D01*
X44942Y-43053D01*
X44850Y-42832D01*
X44682Y-42663D01*
X44461Y-42572D01*
X44223Y-42571D01*
X44002Y-42663D01*
X43833Y-42831D01*
X43742Y-43052D01*
X43741Y-43290D01*
X43833Y-43511D01*
X44001Y-43680D01*
X44222Y-43771D01*
X44460Y-43772D01*
X44681Y-43680D01*
X44850Y-43512D01*
X44941Y-43291D01*
X44942Y-43053D01*
X44942Y-44029D01*
X42990Y-44029D01*
X42990Y-38662D01*
X42990Y-37650D01*
X42989Y-37649D01*
X42990Y-37649D01*
X42967Y-37539D01*
X42905Y-37444D01*
X42905Y-37444D01*
X42839Y-37378D01*
X42744Y-37316D01*
X42634Y-37294D01*
X42451Y-37294D01*
X42381Y-37223D01*
X42224Y-37159D01*
X42055Y-37158D01*
X41899Y-37223D01*
X41779Y-37342D01*
X41715Y-37499D01*
X41714Y-37668D01*
X41779Y-37824D01*
X41898Y-37944D01*
X42055Y-38008D01*
X42224Y-38009D01*
X42380Y-37944D01*
X42410Y-37914D01*
X42410Y-38541D01*
X41914Y-39036D01*
X41852Y-39131D01*
X41830Y-39242D01*
X41830Y-40749D01*
X41703Y-40748D01*
X41547Y-40813D01*
X41427Y-40932D01*
X41387Y-41031D01*
X41387Y-40211D01*
X41322Y-40055D01*
X41203Y-39935D01*
X41046Y-39871D01*
X40877Y-39870D01*
X40721Y-39935D01*
X40650Y-40006D01*
X39234Y-40006D01*
X39224Y-39981D01*
X39105Y-39861D01*
X38948Y-39797D01*
X38779Y-39796D01*
X38623Y-39861D01*
X38503Y-39980D01*
X38439Y-40137D01*
X38438Y-40306D01*
X38503Y-40462D01*
X38622Y-40582D01*
X38779Y-40646D01*
X38948Y-40647D01*
X39095Y-40586D01*
X40650Y-40586D01*
X40720Y-40656D01*
X40877Y-40720D01*
X41046Y-40721D01*
X41202Y-40656D01*
X41322Y-40537D01*
X41386Y-40380D01*
X41387Y-40211D01*
X41387Y-41031D01*
X41363Y-41089D01*
X41362Y-41258D01*
X41427Y-41414D01*
X41546Y-41534D01*
X41703Y-41598D01*
X41872Y-41599D01*
X42028Y-41534D01*
X42148Y-41415D01*
X42192Y-41307D01*
X42325Y-41175D01*
X42325Y-41175D01*
X42325Y-41175D01*
X42387Y-41080D01*
X42410Y-40970D01*
X42409Y-40970D01*
X42410Y-40970D01*
X42410Y-39362D01*
X42905Y-38867D01*
X42967Y-38772D01*
X42990Y-38662D01*
X42990Y-44029D01*
X42942Y-44029D01*
X42942Y-43053D01*
X42850Y-42832D01*
X42682Y-42663D01*
X42461Y-42572D01*
X42223Y-42571D01*
X42002Y-42663D01*
X41833Y-42831D01*
X41742Y-43052D01*
X41741Y-43290D01*
X41833Y-43511D01*
X42001Y-43680D01*
X42222Y-43771D01*
X42460Y-43772D01*
X42681Y-43680D01*
X42850Y-43512D01*
X42941Y-43291D01*
X42942Y-43053D01*
X42942Y-44029D01*
X40046Y-44029D01*
X40301Y-43774D01*
X40490Y-43320D01*
X40490Y-42829D01*
X40303Y-42375D01*
X39956Y-42028D01*
X39502Y-41839D01*
X39011Y-41839D01*
X38557Y-42026D01*
X38305Y-42279D01*
X38305Y-38183D01*
X38767Y-38183D01*
X38891Y-38158D01*
X38996Y-38087D01*
X39067Y-37982D01*
X39092Y-37858D01*
X39092Y-29196D01*
X39067Y-29071D01*
X38996Y-28966D01*
X38891Y-28895D01*
X38767Y-28871D01*
X38305Y-28871D01*
X38305Y-24770D01*
X38559Y-25025D01*
X39013Y-25214D01*
X39504Y-25214D01*
X39958Y-25027D01*
X40305Y-24680D01*
X40494Y-24226D01*
X40494Y-23735D01*
X40307Y-23281D01*
X40050Y-23025D01*
X51658Y-23025D01*
X51403Y-23279D01*
X51214Y-23733D01*
X51214Y-24224D01*
X51401Y-24678D01*
X51748Y-25025D01*
X52202Y-25214D01*
X52693Y-25214D01*
X53147Y-25027D01*
X53403Y-24771D01*
X53403Y-28871D01*
M02*
